/* XPM */
static char *_d07e7c0dd9f464086208859c0a49ed6kTprmId54wrXQ3tP[] = {
/* columns rows colors chars-per-pixel */
"80 80 62 1 ",
"  c #39AA34",
". c #48AD35",
"X c #41B13B",
"o c #4DB23A",
"O c #53B431",
"+ c #52B63E",
"@ c #5EBE3E",
"# c #62BE3F",
"$ c #45B642",
"% c #4DBA44",
"& c #4EBD4A",
"* c #54B740",
"= c #55BB43",
"- c #5BBE46",
"; c #52BF4C",
": c #5CBF49",
"> c #64BE46",
", c #68BF45",
"< c #65BF4A",
"1 c #5EC146",
"2 c #56C24C",
"3 c #5EC24B",
"4 c #56C350",
"5 c #5CC351",
"6 c #5ECB58",
"7 c #61C146",
"8 c #64C244",
"9 c #61C445",
"0 c #68C542",
"q c #6CC246",
"w c #6AC747",
"e c #6CC843",
"r c #60C24B",
"t c #64C049",
"y c #61C44B",
"u c #61C64A",
"i c #64C749",
"p c #60C34C",
"a c #62C34C",
"s c #61C44D",
"d c #63C54E",
"f c #62C74F",
"g c #67C54D",
"h c #65C84A",
"j c #70CB47",
"k c #73CD4B",
"l c #60C350",
"z c #62C651",
"x c #66C851",
"c c #67C952",
"v c #60C855",
"b c #6CCB50",
"n c #6ACC55",
"m c #6CCE57",
"M c #73D157",
"N c #71D35C",
"B c #73D55E",
"V c #80D85A",
"C c #83DC58",
"Z c #88E162",
"A c #8CE361",
"S c #94EB6D",
/* pixels */
"pppppppppppppppppppppppppppppppppprrr33prrrsrsrsrs3ssrsypppppppppppppppppppppppp",
"pprrrrrrrrrrrrrrrrrrrrrrrrrrrrrp3333333:33rrr3rrrrr3rr3rrrrrrrrprrpppppppppppppp",
"rrrrrrrrrrrrrrrrrrrrrrrrrrrrrrrrr3r33:1::rrrrrrrrrrrrrrrrrrrrrrrrrrrrrrrrrrrpppp",
"rrrrrrrrrrrrrrrrrrrrrrrrrrrrrrrr3333-33333rrrrrrrrrrrrrrrrrrrrrrrrrrrrrrrrrrpppp",
"rrrrrrrrrrrrrrrrrrrrrrrrrrrrrrrrrr3333p333rrrrrrrrrrrrrrrrrrrrrrrrrrrrrrrrrrpppp",
"rrrrrrrrrrrrrrrrrrrrrrrrrrrrrrr3s3::33psp3rrrrrrrrrrrrrrrrrrrrrrrrrrrrrrrrrrpppp",
"rrrrrrrrrrrrrrrrrrrrrrrrrrrrrrr333333::33rrrrrrrrrrrrrrrrrrrrrrrrrrrrrrrrrrrpppp",
"rrrrrrrrrrrrrrrrrrrrrrrrrrrrrrr333333-+-3rrrrrrrrrrrrrrrrrrrrrrrrrrrrrrrrrrrpppp",
"rrrrrrrrrrrrrrrrrrrrrrrrrrrrrrr333-s3*o*:rrrrrrrrrrrrrrrrrrrrrrrrrrrrrrrrrrrpppp",
"rrrrrrrrrrrrrrrrrrrrrrrrrrrrrrr33-3s3-*=3rrrrrrrrrrrrrrrrrrrrr333rr:rrrrrrrrpppp",
"rrrrrrrrrrrrrrrrrrrrrrrrrrrrrrrrr333r33p3rrrrrrrrrrrrrrrrrrrrr3r3p3>:prr>rrrpppp",
"rrrrrrrrrrrrrrrrrrrrrrrrrrrrrrp3333333p3r3rrrrrrrrrrrrrrrrrrrrsrp::--rpppprrpppp",
"rrrrrrrrrrrrrrrrrrrrrrrrrrrrrrr3r33s333333rrrrrrrrrrrrrrrrrrrrrrr3pr>pxdprrrpppp",
"rrrrrrrrrrrrrrrrrrrrrrrrrrrrrrrrr3r3r3y33rrrrrrrrrrrrrrrrrrrrrr-p3pr:-pp:prrpppp",
"prrrrrrrrrrrrrrrrrrrrrrrrrrrrrr333r333333prrrrrrrrrrrrrrrrrrrr>:>3rr:-dd:rrrrppp",
"prrrrrrrrrrrrrrrrrrrrrrrrrrrrrr3p33p3s3rr3rrrrrrrrrrrrrrrrrrrrp333rpdcBNxrrrrppp",
"prrrrrrrrrrrrrrrrrrrrrrrrrrrrrrr33333s333rrrrrrrrrrrrrrrrrrrrrrrrrrrsdmmdrrrrppp",
"prrrrrrrrrrrrrrrrrrrrrrrrrrrrrp3p3yr33rrr3rrrrrrrrrrrrrrrrrrrrrrpsr>3rpp-rrrrppp",
"prrrrrrrrrrrrrrrrrrrrrrrrrrrrrrr3p333rr333rrrrrrrrrrrrrrrrrrrrrrrsrr-:---rrrrppp",
"prrrrrrrrrrrrrrrrrrrrrrrrrrrrrr3333s33333rrrrrrrrrrrrrrrrrrrrrppr-r-:prrdrrrrppp",
"prrrrrrrrrrrrrrrrrrrrrrrrrrrrrr3r3p33r3rr3rrrrrrrrrrrrrrrrrrrrrr3r333r3rrrrrrppp",
"prrrrrrrrrrrrrrrrrrrrrrrrrrrrrrrrrrrrrrrrrrrrrrrrrrrrrrrrrrrrrrrrrrrrrrrrrrrrppp",
"prrrrrrrrrrrrrrrrrrrrrrrrrrrrrrrrrrrrrrrrrrrrrrrrrrrrrrrrrrrrrrrrrrrrrrrrrrrrppp",
"prrrrrrrrrrrrrrrrrrrrrrrrrrrrrrrrrrrrrrrrrrrrrrrrrrrrrrrrrrrrrrrrrrrrrrrrrrrrppp",
"prrrrrrrrrrrrrrrrrrrrrrrrrrrrrrrrrrrrrrrrrrrrrrrrrrrrrrrrrrrrrrrrrrrrrrrrrrrpppp",
"prrrrrrrrrrrrrrrrrrrrrrrrrrrrrrrrrrrrrrrrrrrrrrrrrrrrrrrrrrrrrrrrrrrrrrrrrrrpppp",
"pprrrrrrrrrrrrrrrrrrrrrrrrrrrrrrrrrrrrrrrrrrrrrrrrrrrrrrrrrrrrrrrrrrrrrrrrrrpppp",
"pprrrrrrrrrrrrrrrrrrrrrrrrrrrrrrrrrrrrrrrrrrrrrrrrrrrrrrrrrrrrrrrrrrrrrrrrrrpppp",
"pprrrrrrrrrrrrrrrrrrrrrrrrrrrrrrrrrrrrrrrrrrrrrrrrrrrrrrrrrrrrrrrrrrrrrrrrrrpppp",
"ppprrrrrrrrrrrrrrrrrrrrrrrrrrrrrrrrrrrrrrrrrrrrrrrrrrrrrrrrrrrrrrrrrrrrrrrrrpppp",
"ppprrrrrrrrrrrrrrrrrrrrrrrrrrrrrrrrrrrrrrrrrrrrrrrrr33:rrrrr3rrrrrrrrrrrrrrrpppp",
"ppprrrrrrrrrrrrrrrrrrrrrrrrrrrrrrrrrrrrrrrrrrrrrrrr333>rrrrr:3rrrrrrrrrrrrrrpppp",
"ppprrrrrrrrrrrrprrrrrrrrrrrrrrrrrrrrrrrrrrrrrrrrrrr:->3sssssr->3rrrrrrrrrrrrpppp",
"ppprrrrrrrrrrrrprrrrrrrrrrrrrrrrrrrrrrrrrrrrrrrrrrrr:rpspdsprr3prrrrrrrrrrrrpppp",
"ppprrrrrrrrrrrpprrrrrrrrrrrrrrrrrrrrrrrrrrrrrrrrrrrrrrrrpprrrppprrrrrrrrrrrrpppp",
"ppprrrrrrrrrrr33rrrrrrrrrrrrrrrrrrrrrrrrrrrrrrrrrrrrr:--rr>:::rrrrrrrrrrrrrrpppp",
"ppprrrrrrrrrppp3rrrrrrrrrrrrrrrrrrrrrrrr3ppr<p3<rrr:r:-3rr3:->r3rrrrrrrrrrrrpppp",
"pppprrrrrrrr33p<rrrrrrrrrrrrrrrrrrrrrrrr33pr3ppprrrrrrrr>-:rpppprrrrrrrrrrrrpppp",
"pppprrrrrrrr<3p3rrrrrrrrrrrrrrrrrrrrrrrrp<33335prprrprrr:--rppprrrrrrrrrrrrrpppp",
"pppprrrrrrrrppp3rrrrrrrrrrrrrrrrrrrrrrrrppp<p35<r3rrprr>rp33>rrrrrrrrrrrrrrrpppp",
"pppprrrrrrrrrrp<rr333pp<rrrrrrrrrrrrrrrrrrrp5:vl3rrrt-7gMMb7->rrrrrrrrrrrrrrpppp",
"pppprrrrrrrr3>p3p><ppp33rrrrrrrrrrrrrrrrrrp<<::53317>>>qVSZw#87rrrrrrrrrrrrrpppp",
"ppppprrrrrrrpp<<<3p<33pprrrrrrrrrrrrrrrrp3<:<5533317>,,qVACe#88rrrrrrrrrrrrrpppp",
"ppppprrrrrrr<33pp<<pp<pprrrrrrrrrrrrrrrrp<p555555131>800kje0887rrrrrrrrrrrrrpppp",
"pppppprrprrrpp33<p<p<pp<rrrrrrrrrrrrrrrrp:3y33552331111@@OO@8181rrrrrrrrrrrrpppp",
"pppppprrpprrpp3<p<p33p33rrrrrrrrrrrrrrrrpp1333333333111ii111y=-rrrrrrrrrrrrrpppp",
"pppppppr33pp<33p:pp<>r3prrrrrrrrrrrrrrrrp3133rr>rry331139131rr3rrrrrrrrrrrrrpppp",
"pppppppr3<pp33<pppp33rpprrrrrrrrrrrrrrrr>377y7r<<ryy311111:3:dprrrrrrrrrrrrrpppp",
"ppppppprrrppp3p333p33prrrrrrrrrrrrrrrrrr371977r<<<5<-3yufz6::6>:rrrrrrrrrrrrpppp",
"ppppppprrrp3>3p3333ppprrrrrrrrrrrrrrrrrryy9177<p<<<51yyy33<::<6<rrrrrrrrrrrrpppp",
"ppppppprrrr3rppp33333rrrrrrrrrrrrrrrrrrr33337733:<<5r773333:<6<:rrrrrrrrrrrrpppp",
"ppppppprrr>3rpp:3333rprrrrrrrrrrrrrrrrrrr33131115:55rr11y3::::<:rrrrrrrrrrrrpppp",
"ppppppprpp:3ppp:-3133rrrrrrrrrrrrrrrrrrr3332222%&25533>7r<3<:<5:rrrrrrrrrrrrpppp",
"ppppppppp333:3:333:33rrrrrrrrrrrrrrrrrrrr3353%  $&5533r7>p3r6:5prrrrrrrrrrrrpppp",
"ppppppp33p3333pr32133yrrrrrrrrrrrrrrpp<p35555;$X$;253>3>>pp>33p<rrrrrrrrrrrrpppp",
"ppppppp3333:33113113333yrrrrrrrrrrrrp33pp3555;$;&;6;33<<<<p33333rrrrrrrrrrrrpppp",
"pppps3s3p3:33r=*==33333srrrrrrrrrrrrrrrr>3555;5654;5pt<,,<<37r3rrrrrrrrrrrrrpppp",
"pppppsrr3p:-33o.oo12333srrrrrrrrrrrrrrrrrr<::l5v5:::<t<t<,><>prrrrrrrrrrrrrrpppp",
"ppppppp33r:333=++*163s33rrrrrrrrrrrrrrrrrrrrlllv5::<<lyt<r><<5rrrrrrrrrrrrrrpppp",
"pppppps3p33333331212333srrrrrrrrrrrrrrrrr77rl<<5l5pp5<s3>>7r<<>rrrrrrrrrrrrrrppp",
"ppppppr3331333353121:33rrrrrrrrrrrrrrrrr7111pl<pplpp5333133355:lrrrrrrrrrrrrrppp",
"ppppppr3333y333hs3313p3rrrrrrrrrrrrrrrrrr311r::p>:rr333513335<5<rrrrrrrrrrrrrppp",
"ppppppp333333s333r33333rrrrrrrrrrrrrrrrrr7133>:p>:rr33332333<5:prrrrrrrrrrrrrppp",
"pppppsr3ss3yys333r3333rrrrrrrrrrrrrrrrrrrrrr33pp3rrr333s3s3333<prrrrrrrrrrrrrppp",
"pppppprrrrrrrrrrrrrrrrrrrrrrrrrrrrrrrrrrrrrrrrrrrrrrrrrrrrrrrrrrrrrrrrrrrrrrrppp",
"pppppprrrrrrrrrrrrrrrrrrrrrrrrrrrrrrrrrrrrrrrrrrrrrrrrrrrrrrrrrrrrrrrrrrrrrrrppp",
"pppppprrrrrrrrrrrrrrrrrrrrrrrrrrrrrrrrrrrrrrrrrrrrrrrrrrrrrrrrrrrrrrrrrrrrrrrppp",
"pppppprrrrrrrrrrrrrrrrrrrrrrrrrrrrrrrrrrrrrrrrrrrrrrrrrrrrrrrrrrrrrrrrrrrrrrrppp",
"ppppprrrrrrrrrrrrrrrrrrrrrrrrrrrrrrrrrrrrrrrrrrrrrrrrrrrrrrrrrrrrrrrrrrrrrrrrppp",
"ppppprrrrrrrrrrrrrrrrrrrrrrrrrrrrrrrrrrrrrrrrrrrrrrrrrrrrrrrrrrrrrrrrrrrrrrrrppp",
"ppppprrrrrrrrrrrrrrrrrrrrrrrrrrrrrrrrrrrrrrrrrrrrrrrrrrrrrrrrrrrrrrrrrrrrrrrrppp",
"ppppprrrrrrrrrrrrrrrrrrrrrrrrrrrrrrrrrrrrrrrrrrrrrrrrrrrrrrrrrrrrrrrrrrrrrrrrppp",
"ppppprrrrrrrrrrrrrrrrrrrrrrrrrrrrrrrrrrrrrrrrrrrrrrrrrrrrrrrrrrrrrrrrrrrrrrrrppp",
"ppppprrrrrrrrrrrrrrrrrrrrrrrrrrrrrrrrrrrrrrrrrrrrrrrrrrrrrrrrrrrrrrrrrrrrrrrrppp",
"pppprrrrrrrrrrrrrrrrrrrrrrrrrrrrrrrrrrrrrrrrrrrrrrrrrrrrrrrrrrrrrrrrrrrrrrrrpppp",
"pppprrrrrrrrrrrrrrrrrrrrrrrrrrrrrrrrrrrrrrrrrrrrrrrrrrrrrrrrrrrrrrrrrrrrrrrrpppp",
"pppppppppppppppppppppppppppppppppppppppppppppppppppppppppppppppppppppppppppppppp",
"pppppppppppppppppppppppppppppppppppppppppppppppppppppppppppppppppppppppppppppppp",
"pppppppppppppppppppppppppppppppppppppppppppppppppppppppppppppppppppppppppppppppp",
"pppppppppppppppppppppppppppppppppppppppppppppppppppppppppppppppppppppppppppppppp"
};
