/* XPM */
static char *_efa0ee1a6f64f3cbe7e9b2e5e51bb1e8hdj0DL0S5c1YKKE[] = {
/* columns rows colors chars-per-pixel */
"80 80 205 2 ",
"   c #010102",
".  c #181410",
"X  c #36271B",
"o  c #282726",
"O  c #573C28",
"+  c #483F3B",
"@  c #7A5A3B",
"#  c #707264",
"$  c #A72519",
"%  c #AA361F",
"&  c #BC2B27",
"*  c #C42E2D",
"=  c #CC2D2E",
"-  c #D22F2F",
";  c #C1312E",
":  c #CB302F",
">  c #D32E30",
",  c #C63530",
"<  c #CD3535",
"1  c #C43C33",
"2  c #CE3B39",
"3  c #D33235",
"4  c #DA3132",
"5  c #D33439",
"6  c #D43C3C",
"7  c #DB3C3E",
"8  c #E13D3F",
"9  c #AE4E35",
"0  c #B84433",
"q  c #B14D35",
"w  c #A65A37",
"e  c #BB553B",
"r  c #9B6A3B",
"t  c #93763D",
"y  c #99723D",
"u  c #A26138",
"i  c #CD443E",
"p  c #C64B3E",
"a  c #D2413E",
"s  c #D9423E",
"d  c #C1523F",
"f  c #C6633E",
"g  c #DA3D41",
"h  c #E23E40",
"j  c #E93E41",
"k  c #BA5C41",
"l  c #9C7C45",
"z  c #96754A",
"x  c #977352",
"c  c #AC6742",
"v  c #AA6C43",
"b  c #B26341",
"n  c #A47444",
"m  c #A67548",
"M  c #AB7C51",
"N  c #807866",
"B  c #CD4845",
"V  c #D34342",
"C  c #DA4242",
"Z  c #D74B43",
"A  c #D94D44",
"S  c #D84849",
"D  c #C45343",
"F  c #C05C42",
"G  c #D95346",
"H  c #D95649",
"J  c #DA5C4A",
"K  c #D75F50",
"L  c #E54544",
"P  c #EA5048",
"I  c #DB614C",
"U  c #DC6A4F",
"Y  c #C8734C",
"T  c #DD6B53",
"R  c #DD7856",
"E  c #E07855",
"W  c #E17C56",
"Q  c #769B3F",
"!  c #4DB23A",
"~  c #52B63E",
"^  c #5CBD3B",
"/  c #61BD3E",
"(  c #63C13F",
")  c #7D9A45",
"_  c #54B740",
"`  c #55BA42",
"'  c #5BBE46",
"]  c #5DBF48",
"[  c #6DA945",
"{  c #78A548",
"}  c #73AC49",
"|  c #64BE45",
" . c #6CB34A",
".. c #66B848",
"X. c #63BE4A",
"o. c #79B94E",
"O. c #66BF52",
"+. c #78BE51",
"@. c #5FC145",
"#. c #5EC14A",
"$. c #63C246",
"%. c #6BC146",
"&. c #60C24B",
"*. c #69C649",
"=. c #66C851",
"-. c #6ACB53",
";. c #73CD55",
":. c #78D455",
">. c #88843F",
",. c #8B8A44",
"<. c #958345",
"1. c #998847",
"2. c #869647",
"3. c #B48253",
"4. c #B59F51",
"5. c #BD9D54",
"6. c #85B44F",
"7. c #98AB51",
"8. c #9AB558",
"9. c #AAA652",
"0. c #B4A151",
"q. c #BCA455",
"w. c #AEB45D",
"e. c #C48A58",
"r. c #DB8752",
"t. c #DB8E54",
"y. c #CC9552",
"u. c #C69957",
"i. c #CA9954",
"p. c #D29452",
"a. c #DA9154",
"s. c #E58C53",
"d. c #EC8E55",
"f. c #E7865B",
"g. c #E38D5E",
"h. c #ED9056",
"j. c #E9935C",
"k. c #E69E5F",
"l. c #E99D5F",
"z. c #F19257",
"x. c #F39358",
"c. c #FE9B5C",
"v. c #E9A05F",
"b. c #DC8866",
"n. c #D89862",
"m. c #E59561",
"M. c #E69D63",
"N. c #E89F61",
"B. c #E19968",
"V. c #DAA965",
"C. c #C3B66A",
"Z. c #E7A265",
"A. c #E8A366",
"S. c #E4A56B",
"D. c #E8A568",
"F. c #E6AA6D",
"G. c #EAAA6A",
"H. c #F7A967",
"J. c #F2AA6B",
"K. c #F8B06E",
"L. c #E4AA75",
"P. c #E6AE74",
"I. c #EAAD74",
"U. c #E7B27D",
"Y. c #F7B473",
"T. c #83D95A",
"R. c #89E15F",
"E. c #86D46D",
"W. c #98EE6E",
"Q. c #939586",
"!. c #9CA191",
"~. c #ACAF9C",
"^. c #B4B9B2",
"/. c #E5B984",
"(. c #EAB984",
"). c #E9BC8C",
"_. c #A1D78A",
"`. c #BAE4A8",
"'. c #CDD299",
"]. c #EAC595",
"[. c #E9C79A",
"{. c #C4C6AF",
"}. c #EACDA3",
"|. c #E5CFA9",
" X c #E9D0A7",
".X c #EAD2AB",
"XX c #F5D2A3",
"oX c #E9D8B3",
"OX c #EBDEBA",
"+X c #D2E9BC",
"@X c #ECE1BE",
"#X c #C1CCD4",
"$X c #ECE3C2",
"%X c #E8E8CA",
"&X c #EBEACC",
"*X c #FBEEC6",
"=X c #E6EBD3",
"-X c #EBEFD4",
";X c #ECF0D5",
":X c #ECF1D5",
">X c #ECF4DB",
",X c #F8F7D8",
"<X c #F4F9DF",
"1X c #F6FCE5",
"2X c #FBFFE2",
/* pixels */
"&.&.&.&.#.=.#.=.#.#.#.#.#.#.#.#.&.#.&.#.#.=.#.#.#.#.#.=.#.#.#.#.#.#.#.#.#.#.#.=.=.#.#.#.#.#.#.#.#.#.#.=.&.#.&.&.&.&.&.&.=.#.=.#.&.&.&.&.&.&.&.&.&.&.&.&.&.&.=.#.",
"&.&.&.&.#.#.#.#.#.#.=.#.#.=.#.=.&.&.=.#.#.#.=.&.=.#.#.#.=.&.#.=.#.=.#.=.=.#.#.#.#.&.#.=.#.=.=.&.=.#.#.#.&.&.&.&.=.&.&.&.#.#.#.#.&.&.&.&.&.#.&.&.&.&.&.&.&.&.#.#.",
"=.#.&.=.&.=.&.&.=.#.#.#.#.#.#.#.&.&.&.&.#.=.#.&.#.#.#.=.&.&.&.&.#.=.#.#.#.#.#.=.#.&.&.&.#.=.#.#.=.&.#.#.&.&.&.&.#.&.&.#.&.&.#.&.&.&.&.&.&.&.&.&.&.&.#.&.&.&.#.#.",
"#.#.#.#.#.&.&.&.#.#.=.#.=.#.=.#.&.&.&.&.#.&.#.#.&.#.#.#.&.&.&.&.#.#.#.#.#.#.#.#.#.#.#.&.#.#.#.#.#.&.&.&.&.&.&.&.#.#.&.&.&.&.&.&.&.&.&.&.&.&.&.&.&.&.&.&.&.#.#.=.",
"#.#.&.#.&.&.&.&.&.&.&.&.#.#.&.&.#.&.&.&.&.&.&.&.&.&.&.&.&.&.&.&.#.#.#.#.#.#.#.#.#.#.#.&.&.&.&.&.#.#.&.&.&.&.&.&.&.&.&.&.&.&.&.&.&.&.&.#.&.&.&.&.&.&.#.&.&.&.&.&.",
"#.=.&.&.&.&.&.&.&.&.#.&.#.#.&.&.#.X.&.&.&.&.&.&.&.&.&.&.&.&.&.#.#.#.#.#.#.#.#.#.&.&.#.&.&.&.#.&.&.#.&.&.&.&.#.#.&.&.&.&.&.&.&.&.&.&.X.#.&.&.&.&.&.&.&.&.&.&.&.&.",
"#.#.#.&.&.&.&.&.&.&.&.&.&.&.&.&.&.&.&.&.$.#.&.&.&.&.&.&.&.&.&.&.#.#.#.#.#.#.#.#.&.&.#.&.&.&.#.#.&.&.&.&.&.&.&.X.&.&.&.&.&.&.&.&.&.&.&.#.&.$.&.&.&.&.&.&.&.&.&.&.",
"#.=.#.#.&.&.&.&.&.&.&.&.&.&.&.&.&.&.&.&.&.#.&.#.&.#.&.&.&.&.&.&.#.#.#.#.#.#.#.#.#.#.&.&.&.&.#.#.&.&.&.&.&.&.&.&.#.&.&.&.&.&.&.#.&.&.&.&.&.#.&.&.&.&.&.&.&.&.&.&.",
"&.&.&.&.#.#.&.&.&.&.&.&.&.&.&.&.#.&.&.&.&.&.&.&.&.&.&.&.&.&.&.&.#.#.#.#.&.#.' ~ ` ] X.&.X.X.&.=.&.&.&.&.&.&.&.#.&.&.&.&.&.&.&.#.&.&.&.&.&.&.&.&.&.&.&.&.&.&.#.#.",
"&.&.&.&.&.X.&.&.&.&.#.&.&.&.&.&.&.#.&.&.&.&.&.&.&.&.&.&.&.&.&.&.#.#.] ] X.O.` ! _ ] &.&.-.%.+.6.{ }  .X.&.&.&.&.&.&.&.&.&.&.&.&.&.&.&.&.&.&.&.&.&.&.&.&.&.#.#.=.",
"&.&.&.&.&.&.&.&.&.&.&.&.&.&.&.&.&.X.&.&.&.&.&.&.&.&.&.{ 1.} *.&.#.#.#.#.;.X.' &.E._.C.V.S.Z.G.N.C 7 a p F n X.#.&.&.&.&.&.&.&.#.#.#.&.#.#.&.&.&.#.#.&.&.&.&.#.#.",
"&.#.&.&.&.&.&.&.&.&.&.&.$.&.&.&.&.&.&.&.&.&.&.&.&.&.*.c L 6 D q.w.8.8.8.E.`.+X-X1X*XJ.G.G.D.G.T 5 6 5 7 L v &.&.&.&.&.&.&.&.&.&.#.X.#.#.] ] &.&.#.&.#.&.&.&.#.=.",
"&.&.&.&.&.&.$.&.&.&.&.&.#.&.&.&.&.&.&.&.&.&.&.&.&.&...i a 5 J Y.J.Y.K.Y.,X2X<X:X>X).k.G.Z.Z.D.G 5 6 6 6 a  .#.&.&.&.&.&.&.&.&.&.&.&.] ] ] ] &.&.&.&.&.&.&.&.=.#.",
"&.&.&.&.&.&.#.#.&.&.&.&.#.&.&.&.&.&.&.#.&.X.&.&.X.&.,.h 6 5 W G.Z.S.k.(.>X-X:X:X:XL.A.D.Z.G.g.6 6 6 6 h b #.&.&.&.&.#.&.&.&.&.&.&.&.$.&.&.&.&.&.=.&.&.&.#.&.#.#.",
"&.&.&.&.&.&.&.&.&.&.&.&.&.#.&.&.&.&.&.&.&.&.&.&.&.&.b L 6 a M.G.Z.G.Z..X>X:X:X>XOXZ.A.A.A.G.R 5 6 6 6 g 2.#.X.&.&.&.&.&.&.&.&.@.] &.&.&.&.] ' &.&.] &.&.&.&.#.#.",
"&.&.&.&.&.&.#.&.&.&.&.&.&.&.&.&.&.&.&.&.&.&.&.&.&...i 6 5 H D.Z.Z.Z.Z.%X:X:X-X>X[.Z.D.A.Z.G.G 5 6 6 7 p | &.#.&.&.&.&.&.&.&.&.#.] &.] &.#.] #.=.=.] &.&.&.#.#.=.",
"&.&.&.&.&.#.&.&.#.&.&.&.#.&.&.&.&.&.&.&.$.&.&.X.&.2.8 6 5 E G.A.G.A.U.:X:X-X:X:XU.Z.D.Z.D.m.6 6 6 6 8 n &.&.&.&.&.&.$.#.#.&.&.&.&.&.&.X.#.&.=.:.-.=.#.#.&.&.=.#.",
"&.&.&.&.&.&.&.&.X.&.&.&.&.&.&.&.&.&.&.&.] &.#.X.&.m 8 6 5 g.G.A.D.N.].>X-X:X:X%XD.A.A.A.G.f.5 6 6 6 7 } #.X.#.&.&.&.&.&.&.&.&.&.&.&.&.&.&.&.=.-.-.=.&.&.&.&.#.#.",
"#.#.#.&.&.&.&.&.&.&.&.&.&.&.&.&.&.&.&.&.&.&.#.#.X.d 7 6 V N.D.A.A.N.oX>X-X-X>XOXZ.A.D.Z.G.T 5 6 6 8 e &.#.#.&.&.&.&.&.&.&.&.&.&.&.&.&.&.&.#.@.&.] ] &.#.&.&.#.#.",
"=.#.&.&.&.&.&.&.&.#.&.&.&.&.&.&.&.#.&.&.&.&.#.&. .a 7 5 H G.A.A.A.D.&X:X:X-X>X[.v.D.A.Z.G.G 5 6 6 8 <.&.X.&.&.&.&.&.&.&.&.#.&.&.&.&.&.&.&.] #.] ] #.&.&.&.#.#.=.",
"&.&.&.&.&.&.&.&.&.&.&.&.&.&.&.&.&.&.#.X.&.&.&.&.2.s 6 5 U G.A.D.Z.I.-X:X-X:X>X(.k.D.A.D.A.a 6 6 6 a } &.&.&.&.&.&.&.&.&.&.#.&.&.&.#.] &.&.] &.] &.=.&.&.&.#.#.#.",
"&.&.&.&.&.&.&.&.&.&.&.&.&.&.&.#.&.&.#.&.&.&.X.&.<.j a 5 E F.A.D.l.(.>X-X:X:X-XI.Z.A.A.D.m.6 6 6 g e &.&.&.&.&.&.&.&.&.&.&.X.&.&.&.&.&.&.&.&.&.&.#.#.&.&.&.&.#.=.",
"=.#.&.&.&.&.&.#.&.&.&.&.&.&.&.&.&.&.&.&.&.&.&.&.v 8 a 5 g.G.A.D.N.].>X-X-X:X%XG.Z.D.A.G.f.5 6 6 j <.&.X.&.&.&.&.&.&.&.&.&.&.#.&.&.&.&.&.&.&.&.&.#.&.&.&.&.&.&.&.",
"#.#.&.&.&.&.&.&.#.#.$.&.&.&.&.&.&.&.&.&.&.&.&.&.k 7 6 6 m.D.D.D.N.}.>X:X:X>X@XZ.A.D.A.G.E 5 6 6 7 ) &.$.&.&.&.&.&.#.&.&.&.&.&.&.&.&.&.#.$.&.&.&.#.#.&.&.&.&.&.&.",
"#.#.#.=.&.&.&.&.&.&.&.&.&.&.&.&.&.&.&.&.&.&.&.&.D 7 6 a M.D.A.S.N..X>X:X-X>XoXZ.D.D.A.G.U 5 a 7 a ..&.&.#.X.&.&.&.&.&.&.&.&.&.&.&.&.&.&.&.&.&.&.&.&.&.&.#.#.#.#.",
"=.#.#.#.#.&.&.&.&.&.&.&.&.&.&.&.&.&.&.&.&.&.&...i 7 6 Z D.Z.D.A.Z.@X>X-X-X>X.XN.D.D.A.G.I 5 6 7 e &.&.&.#.&.&.&.&.&.&.#.&.&.&.&.&.&.&.&.&.&.#.&.&.&.&.&.&.#.=.#.",
"#.#.#.#.&.&.&.&.&.&.&.&.&.&.&.&.&.&.&.#.#.#.&. .a 6 6 Z D.D.A.D.Z.@X>X:X-X>X}.N.D.D.A.G.J 5 6 h b &.#.#.&.&.&.&.&.&.&.#.&.#.&.&.&.#.&.&.&.&.&.&.&.&.&.&.#.&.=.#.",
"=.#.=.&.&.&.&.&.#.&.&.&.&.&.&.&.&.&.&.&.#.X.&. .6 6 5 G D.A.A.D.A.@X:X:X:X>X}.N.S.A.A.G.J 5 6 g v &.X.&.&.&.&.&.&.&.&.X.&.#.$.&.&.&.&.&.&.&.&.&.&.&.&.&.&.&.#.#.",
"#.#.#.#.#.&.&.&.&.&.&.&.&.&.&.#.&.&.&.&.&.X.&. .i 6 5 G D.A.A.D.D.$X:X-X-X>X}.Z.D.A.D.G.J 5 a h v &.&.&.&.&.&.&.&.&.&.&.&.&.&.&.#.#.&.&.&.&.&.&.&.&.&.&.&.&.&.#.",
"#.#.=.#.#.&.&.&.&.&.&.&.&.&.&.&.&.&.&.&.#.#.&...i 7 6 G D.A.D.D.A.$X>X:X-X>X}.N.D.D.M.G.J 5 6 h b &.&.&.&.&.&.&.&.&.&.&.&.&.&.&.$.&.&.&.&.#.&.&.&.#.&.&.&.&.&.=.",
"=.#.=.#.&.&.&.&.&.&.&.&.&.&.&.#.&.#.&.&.&.&.#...B 6 5 Z D.A.A.D.A.OX>X-X-X>X Xl.D.A.A.G.I 3 6 7 d &.&.&.&.&.&.&.X.#.&.&.&.&.&.#.&.&.&.&.&.&.&.&.&.&.&.&.#.&.=.#.",
"#.#.#.#.&.&.&.&.&.&.&.&.#.&.&.$.$.#.&.&.&.&.&.&.d 7 6 s A.A.A.S.Z.oX>X-X-X>XoXN.D.A.D.G.U 5 6 6 6  .&.] &.&.#.@.#.#.&.&.&.] #.&.&.&.&.&.&.&.&.&.&.&.&.&.#.#.#.#.",
"#.&.&.&.&.&.&.&.&.&.&.&.#.X.&.&.&.&.&.&.&.#.&.&.k 7 6 6 m.D.Z.D.l.}.>X-X:X>XOXA.D.D.A.G.R 3 6 6 L 2.&.X.#.#.] &.&.&.&.&.&.&.&.&.&.&.&.&.&.$.&.&.&.#.&.&.&.#.&.#.",
"&.&.&.&.&.&.&.#.&.&.&.&.&.&.&.&.#.&.&.&.&.#.X.#.n L 6 6 g.G.D.D.k.].>X-X:X:X&XD.Z.D.D.G.f.5 6 6 7 e #.X.#.] &.&.&.&.=.&.&.&.] &.&.&.&.&.#.#.&.&.&.&.&.&.&.&.&.=.",
"&.&.&.&.&.&.&.&.&.&.&.&.&.#.&.&.&.&.&.&.&.&.X.#.,.h 6 5 W G.A.D.Z.(.>X:X:X:X-XI.A.Z.D.D.m.6 6 6 6 7 { &.X.&.&.&.=.&.&.&.&.&.&.&.&.&.&.&.&.&.&.&.#.X.&.&.&.&.&.&.",
"&.&.&.&.&.&.&.&.&.&.&.&.&.&.#.&.&.&.&.&.&.&.&.&.} 6 6 5 U G.A.D.Z.F.%X>X:X:X>X).M.D.A.A.A.V 5 6 6 h b &.&.&.&.] #.&.&.&.X.] &.&.&.#.&.&.&.&.&.&.#.&.&.&.&.&.&.&.",
"&.#.#.#.&.&.&.&.&.&.&.&.&.&.&.&.&.&.&.&.&.&.&.&.&.d 7 5 G Z.Z.A.D.M.@X>X-X-X>X}.M.D.D.A.L.T 2 g 6 6 g } #.#.] ] ] &.&.] @.] #.#.&.&.X.&.&.&.&.&.&.&.&.&.&.&.&.&.",
"&.=.&.&.&.&.&.&.&.#.&.&.&.&.&.&.&.&.&.&.&.&.&.X.&.l 8 V a b.G.A.D.N.}.>X:X:X>X$XD.M.D.A./.b.g 2 6 6 h m #.] #.&.@.] &.#.#.#.] #.&.&.#.&.&.&.] &.&.&.&.&.&.&.&.&.",
"#.#.&.#.&.&.#.X.&.&.&.&.&.&.&.&.&.&.&.&.&.&.&.X.&.{ C B 2 R L.S.D.M./.>X=X=X-X-X/.M.L.S.V.n.g g g g C D X.#.&.&.&.] ] ] &.&.&.&.&.&.&.&.&.&.&.&.&.&.&.&.&.&.&.&.",
"=.#.=.&.&.&.#.&.&.&.&.&.&.&.&.&.&.&.&.&.&.&.&.&.&.X.F S g K S.L.S.S.S.$X=X=X=X:X|.n.B.S.S.L.K B B B B S ) =.&.] ] ] ] ] &.&.&.&.&.&.&.&.&.&.&.&.&.&.&.&.#.&.&.&.",
"#.#.#.#.#.&.&.&.&.&.&.&.&.&.&.&.&.#.&.&.&.&.&.&.] &.m L B V n.S.S.S.B.|.>X=X=X=XoXA.S.S.S.L.R g B C B L l #.| X.&.*.-.*.$.' %.#.&.&.&.$.#.#.&.&.&.&.&.&.#.#.=.#.",
"#.#.=.#.&.&.&.&.&.&.&.&.#.X.&.X.#.X.&.&.X.&.&.&.X.&.2.j V 5 f.F.D.J.A.).>X-X-X-X-XI.A.S.J.Y.b.a g 6 V s e $.| | *.:.R.:.%.' $.&.&.#.&.&.&.&.&.&.&.&.&.&.&.#.#.#.",
"=.#.=.#.&.&.&.&.&.&.&.&.#.&.&.&.&.X.&.&.&.X.&.&.] &...g g 5 I G.n.x n.I.&X:X-X-X>X).M.D.M 3.H.A 5 6 6 6 i ..| / *.T.W.R.*./ $.%.X.&.&.&.&.&.&.&.&.&.&.#.&.&.=.#.",
"#.#.#.#.&.&.#.&.&.&.#.&.&.&.X.&.&.&.&.X.&.&.&.X.#.] { V 6 5 A a.Q.^.O H.OX>X-X-X>X|.A.x #X+ n.T < 6 6 6 6 { *.*.%.:.T.*.*.( $.@.&.&.&.&.&.&.&.&.&.&.&.&.&.&.#.#.",
"#.#.&.&.&.&.&.&.&.&.&.&.#.X.&.&.X.&.&.&.&.&.X.&.| y = 5 6 5 7 e.. o . N.}.>X-X-X>X$XH.X o   3.f.3 2 g 2 h >.*.( ( $.^ ^ ( $.( @.$.#.#.&.&.&.&.&.&.&.&.&.#.&.&.#.",
"#.=.&.&.&.&.&.&.&.&.&.&.&.&.&.&.&.&.X.&.X.X.&.{ q > & 2 6 7 5 R .   X A.).>X-X-X:X&XY.O     u.j.5 g g 6 s p Q @.$.@.^ ^ ( $.@.@.&.&.&.&.&.&.&.&.&.&.&.&.&.&.&.=.",
"=.#.&.&.&.&.&.&.&.&.&.&.&.#.&.&.X.X.X.X.X.&.<., - * = < 6 6 6 f.z X M H.I.,X=X=X<X>X(.e.X @ Y.D.V g 2 5 6 5 = t &.*.#.@.@.#.#.@.&.&.&.&.&.&.&.&.&.&.&.#.#.&.=.#.",
"#.#.#.&.&.&.&.&.&.&.&.&.&.&.&.&.&.&.&.&. .w > & * > r <.g 6 & & r.A.G.M.I.{.<X2X{.:X).A.J.g.f f 2 5 2 g 6 2 ; - 9 [ ' ` #.#.=.#.&.&.&.&.#.&.&.&.&.&.&.&.#.#.#.#.",
"#.#.#.=.&.&.&.&.&.&.&.&.&.&.&.&.) r #.) 1 = ; = : ,.&.2.8 < $ $ e D.D.M.Y.N !.~.# <X[.k.D.Y $ % 1 6 5 6 6 6 - ; = , ,.&.t >.#.X.#.&.&.&.&.#.&.&.&.&.&.&.&.&.&.#.",
"=.#.#.#.&.&.&.&.&.&.&.&.&.&.&.&.w 4 9 * = * - q [ #.#.2.7 a 6 G J.A.D.D.D.$X!.Q.%X1X}.N.A.I.G.J.J 5 6 6 7 d w - * = = 9 > q &.&.X.&.&.&.&.&.&.&.&.&.#.&.&.&.&.=.",
"#.#.#.#.&.&.&.#.&.#.&.&.&.&.X.&.u : * * = , z ] &.X.#.2.8 6 6 A A.D.A.A.M.@X2X2X=X>X}.N.A.A.M.G.J 5 6 6 s b $.>.: = ; = * 9 =.O.&.&.&.&.&.&.&.&.#.X.&.&.&.&.#.=.",
"=.#.=.&.&.&.&.&.&.&.&.@.@.&.&.#.,.> ; = & { #.#.&.&.&.2.8 6 5 s Z.D.A.A.A.OX-X-X-X>X.Xl.G.A.A.G.I 5 6 6 C e $.#.[ q - ; < t O.] #.&.&.&.&.&.&.&.&.&.&.&.#.#.#.&.",
"#.#.=.#.#.#.&.&.&.&.#.#.] &.&.#.#.u * u #.#.#.#.&.X.&.<.j a 5 Z A.D.A.D.Z.OX>X:X-X>X XM.D.A.D.I.I 5 6 6 h v #.| &.X.r > 0 X.] #.&.&.&.&.#.&.#.X.&.&.&.&.&.&.&.&.",
"#.#.&.&.&.#.&.&.&.&.#.#.#.&.#.#.#.#.) ` #.#.#.#.&.@.&.n h 6 6 A D.A.D.A.A.$X>X-X-X>X}.N.D.D.M.G.J 5 6 a g l $.X.X.$.&.) [ #.#.#.&.&.&.&.&.&.&.&.&.#.&.&.&.&.&.&.",
"=.#.=.#.&.&.&.&.#.#.#.#.#.#.#.#.#.#.#.#.#.#.#.=.#.&.&.b g a 5 G G.Z.D.A.D.$X>X-X-X<X}.l.D.A.A.G.J 5 g 2 h 2.X.| | %.X.X.#.#.#.#.#.&.&.&.&.&.&.&.&.&.&.&.&.#.&.&.",
"#.#.#.#.&.&.&.&.#.&.#.#.#.#.#.#.#.#.#.#.#.#.#.#.&.&.X.p 7 6 5 J G.Z.A.A.F.&X:X:X-X>X).N.D.A.A.D.A 5 2 g 7 } &.| | | $.X.@.#.#.#.#.&.&.&.&.&.&.&.&.&.&.&.$.#.&.&.",
"&.&.=.&.&.&.&.&.&.#.#.#.#.#.=.' ~ #.` #.#.#.#.#.X.&. .6 7 a 5 T G.A.Z.Z.P.:X:X;X-X>X(.Z.A.A.G.M.V 5 6 6 B X.#.O.X.| %.&.&.&.&.&.#.&.&.&.$.#.#.&.&.&.&.&.#.#.#.#.",
"&.&.&.X.&.X.&.&.&.#.#.#.] #.#.! ! ! ~ #.#.#.#.#.X.&.2.7 6 6 5 R G.A.G.k./.>X-X;X-X-XI.A.A.A.D.B.6 6 6 h b ] O.&.%.....X.$.X.&.&.&.&.&.&.&.#.&.&.&.&.&.&.#.=.#.#.",
"&.&.&.&.&.X.&.&.#.#.&.#.#.#.#.` ! ! @.#.#.#.#.#.] &.v L i 6 5 g.G.A.D.k.XX1X<X<X>X%XG.A.A.Z.G.f.h h 6 h ,.&.&.&.$...$.%.X.&.X.&.&.&.&.&.&.&.&.&.&.&.&.&.&.&.#.=.",
"&.&.&.&.&.&.&.&.#.&.#.#.#.#.#.#.#.~ @.#.#.#.#.#.&...a 8 8 8 P H.G.D.D.Z.'.+X_.E.E.;.u.h.h.a.T.2.l k V g  .&.#.#.X.&.$.&.&.X.X.&.&.&.&.&.&.&.&.&.&.&.&.#.&.&.#.#.",
"=.&.&.&.&.&.&.&.#.#.#.#.#.#.#.#.=.#.#.#.#.#.&.#.&.X.m n v v M w.k.l.l.i.#.&.&.&.&.$.5.z.s.t.X.] &.=. .) #.#.#.#.#.#.#.#.&.&.O.&.&.&.&.&.&.&.&.&.&.&.$.#.#.#.#.=.",
"#.&.&.&.&.&.&.&.#.#.#.#.#.#.#.#.#.#.#.#.#.#.#.#.&.&.#.#.&.&.%.#.y.d.d.y.&.&.&.&.&.&.5.z.s.t.O.X.X.] &.&.#.=.#.#.#.#.#.#.&.&.] &.&.&.&.&.&.&.&.&.&.&.&.#.#.=.&.&.",
"#.=.&.&.#.#.#.=.=.#.#.#.#.#.#.#.#.#.#.#.#.#.#.&.&.&.&.X.X.] ] &.p.d.h.i.&.&.&.&.X.&.5.z.s.t...&.&.] &.&.#.#.#.#.#.#.#.#.#.#.&.&.&.&.&.&.&.&.&.&.&.&.&.&.#.#.#.#.",
"&.&.&.&.#.#.#.#.#.#.#.=.#.#.#.#.#.#.#.#.#.#.&.#.&.&.&.&.&.&.&.X.p.d.d.i.&.&.&.&.&.&.5.z.s.t.X.&.&.&.&.&.#.#.#.#.#.#.#.#.#.#.#.O.#.&.&.&.&.&.&.&.#.&.&.&.#.=.#.#.",
"&.&.&.&.&.&.&.&.&.&.&.&.&.&.&.&.&.X.#.#.#.&.&.#.&.&.&.&.&.#.&.&.p.s.h.i.&.$.&.&.&.&.5.z.s.a.X.&.&.&.&.&.&.&.&.&.&.&.#.&.&.&.#.#.&.&.&.&.&.&.&.&.&.&.&.&.&.&.#.=.",
"=.&.&.#.&.&.&.&.&.&.&.&.&.#.&.&.&.&.&.&.X.&.&.&.&.&.&.&.&.X.X.$.p.d.d.i.&.#.&.&.X.&.5.z.d.a.X.&.X.&.&.&.&.&.&.&.&.&.&.&.&.&.$.&.&.&.&.&.&.&.&.&.&.&.&.&.&.&.#.#.",
"#.&.=.#.&.#.#.&.&.&.&.&.&.&.&.&.&.&.&.&.&.&.&.&.&.&.&.&.&.&.#.#.p.h.d.i.&.&.#.&.&.&.5.z.s.a.$.&.&.&.&.&.&.&.&.&.&.&.&.&.&.&.&.&.&.&.&.#.&.&.&.&.&.&.&.&.&.&.&.=.",
"&.&.#.#.&.&.&.&.&.&.&.&.&.&.&.&.&.&.&.&.&.&.#.&.&.&.&.&.&.o.9.i.s.s.d.i.&.&.&.&.&.&.5.z.s.s.p.0.6.&.&.&.&.&.&.&.&.&.&.&.&.&.&.&.&.&.&.&.&.&.&.&.&.&.&.&.#.&.&.&.",
"&.&.=.#.&.&.&.&.&.&.#.&.&.&.#.&.&.&.#.#.&.&.&.&.&.&.&.$.0.j.h.d.s.s.h.i.&.#.&.&.$.&.5.h.s.s.d.h.h.q...&.&.&.&.&.&.&.&.&.&.&.&.&.&.&.&.&.&.&.&.&.&.&.&.#.#.#.#.#.",
"=.#.#.&.#.&.&.#.&.&.&.&.&.&.&.&.#.&.$.&.&.&.&.&.#.X.&.o.c.x.z.x.x.z.c.y.&.&.&.&.X.&.u.c.h.x.x.z.x.c.6.&.X.#.&.&.&.@.&.&.&.&.&.&.&.&.&.&.#.&.&.&.&.&.&.&.#.=.#.=.",
"#.#.&.&.&.&.&.&.&.&.&.&.&.&.&.&.&.&.&.&.&.&.&.&.&.&.&.&.7.0.0.4.4.0.5.7.&.&.&.&.&.&.7.q.0.0.0.0.0.9.X.&.&.&.&.&.&.&.&.&.&.&.&.#.&.&.&.&.&.&.&.&.&.&.&.&.#.&.#.&.",
"=.&.&.&.&.&.&.&.&.&.&.&.&.&.&.&.&.&.&.&.&.&.&.&.&.&.&.&.&.&.&.#.&.&.$.&.&.&.&.&.&.&.#.&.&.&.&.&.&.#.&.&.&.&.&.#.&.&.&.&.&.&.&.&.&.&.&.&.&.#.#.$.&.&.&.&.&.&.#.#.",
"#.=.#.#.#.#.&.#.&.&.&.&.&.&.&.&.&.&.&.&.&.&.&.&.&.&.&.&.X.&.X.&.&.&.&.&.&.&.&.&.&.&.&.&.&.&.&.&.&.&.&.&.&.&.&.&.&.&.&.&.&.&.&.&.&.&.&.&.&.&.&.&.&.&.&.&.#.#.&.#.",
"#.#.#.#.#.#.&.&.&.&.&.&.&.&.&.&.&.&.&.&.&.&.&.&.&.&.&.&.#.&.&.&.&.&.&.&.&.&.&.&.&.&.&.&.&.&.&.#.&.&.&.&.&.&.&.&.&.&.&.&.&.&.&.&.#.&.&.&.&.&.&.#.&.&.&.&.#.=.&.=.",
"#.=.=.#.#.#.#.#.&.&.&.&.&.&.&.&.&.&.&.&.&.&.&.&.&.&.&.&.&.&.&.&.&.&.&.&.&.X.&.&.&.&.&.&.&.&.#.#.&.&.&.&.&.&.#.=.&.&.&.#.#.&.=.#.&.#.&.&.&.&.=.#.&.&.&.&.#.#.#.#.",
"#.#.#.#.=.#.#.#.&.&.&.&.&.&.&.#.&.&.&.&.&.#.&.&.&.&.&.&.&.&.&.#.&.&.&.#.&.&.&.&.&.&.&.&.&.&.#.=.&.&.&.&.#.#.#.#.&.&.&.&.#.#.#.#.&.&.#.X.#.#.#.#.&.&.&.&.#.#.=.#.",
"#.=.#.#.#.=.#.=.&.&.#.#.#.#.#.#.&.&.#.&.#.#.#.&.&.&.&.&.&.&.&.&.#.#.&.&.#.#.&.&.&.&.&.&.#.#.=.#.&.&.#.=.#.#.#.#.&.&.#.#.=.#.=.#.&.&.#.#.=.#.#.#.&.&.#.#.#.=.=.#.",
"#.#.=.#.#.#.#.#.&.&.#.=.=.&.#.#.&.&.&.&.=.#.#.#.&.&.&.&.&.&.&.&.#.#.&.&.#.#.=.#.&.&.&.&.#.#.#.#.&.&.#.#.#.#.=.#.=.&.#.=.#.#.#.#.&.&.#.#.#.#.#.=.#.&.=.#.#.#.#.#.",
"#.#.#.#.#.#.#.#.=.#.=.#.#.=.#.=.=.#.&.&.#.#.#.=.&.&.&.&.&.&.&.&.#.=.#.#.&.&.#.#.#.&.&.&.#.=.#.#.&.&.&.=.=.#.=.#.#.=.#.#.#.#.#.#.&.&.&.=.=.#.=.#.=.#.=.#.#.#.#.#.",
"=.#.=.#.#.=.#.=.#.#.#.#.#.#.#.#.#.#.#.=.=.#.#.&.&.&.&.&.#.&.&.&.#.#.=.#.=.&.=.&.&.#.=.&.#.#.=.#.&.&.&.&.#.#.#.#.#.#.#.#.=.#.=.#.&.&.&.&.#.#.#.#.#.#.#.#.#.=.#.=."
};
