/* XPM */
static char *_e1300ef14e94c98bcf1c1c125f9bdc0AkbGVEnSK0XpI56q[] = {
/* columns rows colors chars-per-pixel */
"80 80 236 2 ",
"   c #020201",
".  c #080906",
"X  c #131007",
"o  c #181917",
"O  c #271005",
"+  c #1A2D16",
"@  c #24261C",
"#  c #25351C",
"$  c #181923",
"%  c #232323",
"&  c #292824",
"*  c #2C2C2C",
"=  c #322822",
"-  c #2A3624",
";  c #34352C",
":  c #353535",
">  c #3B3A34",
",  c #3B3A3A",
"<  c #573A36",
"1  c #23451C",
"2  c #2A4724",
"3  c #33442B",
"4  c #2B5522",
"5  c #345D29",
"6  c #3A4736",
"7  c #3C5534",
"8  c #35682A",
"9  c #3B752E",
"0  c #3C6B32",
"q  c #3E7731",
"w  c #43463A",
"e  c #4C523E",
"r  c #42683A",
"t  c #447838",
"y  c #3C424B",
"u  c #484946",
"i  c #534C44",
"p  c #4B5549",
"a  c #56574B",
"s  c #474C56",
"d  c #4C5356",
"f  c #595955",
"g  c #68554F",
"h  c #4D6946",
"j  c #4C7744",
"k  c #547648",
"l  c #4B6650",
"z  c #5E6156",
"x  c #597654",
"c  c #65645C",
"v  c #666958",
"b  c #6E7158",
"n  c #66795C",
"m  c #4F566A",
"M  c #545A66",
"N  c #715B66",
"B  c #5A626D",
"V  c #5D6673",
"C  c #686866",
"Z  c #746E67",
"A  c #6D7367",
"S  c #75736C",
"D  c #787669",
"F  c #666A78",
"G  c #6D727D",
"H  c #797A77",
"J  c #8B7771",
"K  c #847C76",
"L  c #3F8031",
"P  c #468838",
"I  c #499439",
"U  c #4D9B3C",
"Y  c #509B3F",
"T  c #4FAF3C",
"R  c #50A33E",
"E  c #558C4A",
"W  c #579747",
"Q  c #69895B",
"!  c #689457",
"~  c #75915F",
"^  c #55A543",
"/  c #55AB42",
"(  c #58B545",
")  c #59B446",
"_  c #5ABB46",
"`  c #5EBE49",
"'  c #60BC4B",
"]  c #65A75B",
"[  c #68BA57",
"{  c #6E8D64",
"}  c #778968",
"|  c #7D8377",
" . c #75AA69",
".. c #76B867",
"X. c #7DA874",
"o. c #5FC14A",
"O. c #60C24B",
"+. c #68C755",
"@. c #87846B",
"#. c #868678",
"$. c #8B8B7B",
"%. c #978A77",
"&. c #8C937B",
"*. c #9A967A",
"=. c #A2927E",
"-. c #83A37C",
";. c #81AA78",
":. c #8BC47E",
">. c #666C83",
",. c #6D7584",
"<. c #6D7788",
"1. c #767986",
"2. c #727B8C",
"3. c #757E90",
"4. c #8D7D88",
"5. c #7A828D",
"6. c #778191",
"7. c #7B8494",
"8. c #7D8798",
"9. c #7F8999",
"0. c #8C8B82",
"q. c #888887",
"w. c #928C84",
"e. c #989888",
"r. c #858999",
"t. c #838C9D",
"y. c #8A9290",
"u. c #949594",
"i. c #979795",
"p. c #9C9C9C",
"a. c #A59C86",
"s. c #A88F90",
"d. c #A69C99",
"f. c #8BA681",
"g. c #9BA38A",
"h. c #A6A489",
"j. c #AAA58D",
"k. c #A7A596",
"l. c #AEAA93",
"z. c #ACA99C",
"x. c #B4A997",
"c. c #B4AE9B",
"v. c #ADB496",
"b. c #B4B39B",
"n. c #B9B49D",
"m. c #B5BB9C",
"M. c #858FA0",
"N. c #888FA0",
"B. c #8791A2",
"V. c #8B93A4",
"C. c #8E97A8",
"Z. c #8F98A9",
"A. c #9397A7",
"S. c #939BAC",
"D. c #969FB1",
"F. c #9BA3B4",
"G. c #9DA5B7",
"H. c #A4A4A3",
"J. c #ABA5A6",
"K. c #ACACAC",
"L. c #B3ADA5",
"P. c #B5B2A4",
"I. c #BAB4A2",
"U. c #BEBAA5",
"Y. c #BAB8A9",
"T. c #A2A8B9",
"R. c #A3ABBC",
"E. c #AAB1B7",
"W. c #B3B3B2",
"Q. c #B9B8B7",
"!. c #BBBCBB",
"~. c #C1B9A6",
"^. c #C2BDAB",
"/. c #C2BCB2",
"(. c #ACC896",
"). c #BCC2A2",
"_. c #BFC1BE",
"`. c #C5C5AA",
"'. c #C6C2AD",
"]. c #C6CDAD",
"[. c #C9CEAE",
"{. c #C7D0AE",
"}. c #C9D1AF",
"|. c #C5C2B3",
" X c #CAC5B3",
".X c #CBCCB4",
"XX c #CCC8BA",
"oX c #D0CCB6",
"OX c #D3CDBB",
"+X c #CCD3B2",
"@X c #CED5B9",
"#X c #D1D9B6",
"$X c #D5D1BD",
"%X c #D4DCB9",
"&X c #D8DBBC",
"*X c #D9E0BD",
"=X c #A6AEC0",
"-X c #A9AFC1",
";X c #ABB2C4",
":X c #ABB4C6",
">X c #B2B9CA",
",X c #C3BFC0",
"<X c #B9C1CE",
"1X c #C4C3C3",
"2X c #C9C8C7",
"3X c #CACBCB",
"4X c #D4CCC7",
"5X c #CED0CF",
"6X c #DAD5C2",
"7X c #D9D7C6",
"8X c #DDD9C5",
"9X c #D3D3D3",
"0X c #DBDADA",
"qX c #E2DDC9",
"wX c #E2DDCC",
"eX c #E5DFD0",
"rX c #DBE3C1",
"tX c #E5E1CD",
"yX c #E8E5CF",
"uX c #E6E3D2",
"iX c #E9E6D5",
"pX c #EBE8D6",
"aX c #E8E4D8",
"sX c #EDEAD9",
"dX c #F1EDD6",
"fX c #F2EEDC",
"gX c #F3F1DE",
"hX c #F8F2DE",
"jX c #E8E7E7",
"kX c #F1EFE8",
"lX c #F6F3E1",
"zX c #F9F6E3",
"xX c #FDF9E5",
"cX c #F4F4F3",
"vX c #F7F8F8",
"bX c #FDFEFD",
/* pixels */
"O.O.O.O.O.O.+.O.O.O.O.O.O.+.O.O.O.O.O.O.O.O.O.O.O.o.O.O.O.O.O.O.O.O.O.+.o.O.O.O.O.O.O.O.O.O.O.O.O.O.O.O.O.O.O.O.O.O.O.O.O.O.O.O.O.O.O.O.O.O.O.+.o.o.O.O.O.O.O.O.",
"O.O.O.O.O.O.O.O.O.O.O.O.O.O.O.O.O.O.O.O.O.O.O.o.+.o.O.O.o.+.O.O.O.O.O.o.o.O.O.O.O.o.O.O.O.O.O.+.O.O.O.O.O.O.O.O.O.O.O.O.O.O.+.O.O.O.O.O.O.O.o.O.o.o.O.O.O.O.O.O.",
"O.O.O.O.O.O.O.O.O.O.O.O.O.O.O.O.O.O.O.O.O.O.+.o.O.O.O.O.O.O.O.O.O.+.o.o.O.O.+.O.+.o.o.o.O.O.O.O.O.O.O.O.O.O.O.O.O.O.O.O.O.O.O.O.O.O.O.O.O.O.O.O.O.O.O.+.O.O.O.O.",
"O.O.O.O.O.O.O.O.O.O.O.O.O.O.O.O.O.O.O.O.O.O.o.o.O.O.O.O.O.O.O.O.O.O.o.o.O.O.O.O.o.o.o.o.O.O.O.O.O.+.O.O.O.O.O.O.O.O.O.O.O.O.O.O.O.O.O.O.O.O.+.O.O.O.O.O.O.O.O.O.",
"O.O.+.O.O.O.O.O.O.O.O.O.O.O.O.O.O.O.o._ O.o.' U 9 4 2 w p c S S D H S c x y 3 4 8 I o.o.o.o.o.o.O.O.O.O.O.O.O.O.O.O.O.O.O.O.O.O.O.O.' O.O.o.` _ R 9 _ o.o.O.O.o.",
"O.O.O.O.O.O.O.O.O.O.O.O.O.O.O.O.O.O.O.O.R 5 3 z 0.Y.$XtXiXfXfXlXzXzXzXzXlXgXuX@Xk.S 6 4 U o.o.o.O.O.O.O.O.O.O.O.O.O.O.O.O.O.O.O.O.O.O.O._ P j q._.K.I o.` O.O.o.",
"O.O.+.O.O.O.O.O.O.O.O.O.O.O.O.O.' O.( 5 6 $.'.qXrXqXqXqXwXwXuXuXuXuXuXuXiXiXsXgXzXxXiXP.p 4 / o.O.O.O.O.O.O.O.O.O.O.O.O.O.O.O.O.O.O.U j q.H.W.bXvX0XP o.` O.O.O.",
"O.O.+.O.O.O.O.O.O.O.O.O.O.O.O.O.O.I - @. X$XoXOX6X7X8XtXeXuXuXuXpXiXiXpXiXiXiXpXuXuXpXzXzXP.6 P O.O.O.O.O.O.O.O.O.O.O.O.O.O.O.O.U r 5.vXbXcXp.bXvXjXj o.O.O.o.O.",
"O.O.O.O.O.O.O.O.O.O.O.o.O.o.o.o.P ; l.[.~.'.OX$X6XqXwXwXuXuXiXiXpXpXpXpXsXiXpXiXsXpXiXiXuXzXaXl 8 O.O.O.O.' O.O.O.O.O.O.O.o.o.P p.cX1XjXbXcXu.bXbXbXx o.O.O.O.O.",
"O.O.O.O.o.O.O.O.o.O.O.o.O.o.o.I > n.U.U.'.oX$X$X6XqXwXuXuXiXiXiXiXpXiXaXaXiXiXpXiXpXiXpXpXuXsXzXz t O.O.O.O.O.O.O.O.O.O.o.O.9 <XbXbXcX5XbXbXi.cXbXbX| o.O.O.O.O.",
"O.O.O.O.O.O.O.o.o.o.O.o.o.` ( - j.n.n.^.'.oX$X6X8XqXwXuXuXiXsXiXaXpXpXpXpXpXpXiXiXpXiXiXwXpXiXsXdXw R O.o.O.O.O.O.O.O.O.o.o.y @Xi.c bX0X0XbXJ.jXbXbX0._ O.O.O.O.",
"O.O.O.O.O.o.O.O.o.o.O.o.` ` 4 } n.b.~.^. XOX$X6X8XwXuXuXiXiXaXiXpXpXpXpXpXpXaXsXpXiXiXpXuXuXpXuXgXXX1 O.O.O.O.O.O.O.O.O.o.o.7 <Xu   jXcXs.cXQ.0XbXbXp./ O.O.O.O.",
"O.O.O.O.O.O.O.O.O.O.O._ _ R ; b.c.I.^.'.^.~.4X6X8XeXeXuXuXiXsXiXpXpXpXpXaXpXpXaXiXuXaXiXiXaXuXiXuXzXv U O.O.O.O.O.O.O.O.o.o.0 y.Q.2XbXcXkXcX1X9XbXvX#.^ O.O.O.O.",
"O.O.O.O.O.O.O.O.+.O.O.` o.8 D b.x.~.U. X~.=.OX6XiXwXeXuXiXsXiXiXaXpXaXpXpXaXuXpXlXzXzXaXuXaXaXiXiXgXY.4 O.' O.O.O.O.O.O.o.o.t H w.K.jXcXvXbX2X5XbXbXK.^ O.o.O.O.",
"O.O.O.O.O.O.O.o.o.O._ _ o.6 a.j.x.J ~./.OX6XK i x.eXhXeXiXsXuXsXpXpXpXpXiXiXlXpXK.q.e.pXaXuXaXaXiXiXsXw ' ' O.` O.O.O.O.` O.I q.J.H.2XaX0XbX9X1X4XbX!.U O.o.O.O.",
"O.O.O.O.O.O.O.O.O.+.o.` _ a h.h.x.~.OXoXOXZ o * o : e.sXuXiXiXaXpXaXpXuXfXlXe., + % o C gXuXuXaXuXwXhXC T O.O.O.O.O.O.O.o.O.^ y.2XJ.d.0Xs.4.9X5X4XjXQ.U O.o.O.O.",
"O.O.O.O.O.O.O.+.+.+.9 1 1 e ).x.n.oXOXOX X> = = , * o u 4XgXuXsXpXpXuXfX6Xd o * , * % ; uXsXiXuXuXaXgXq.1 w 5 ( ` ' O.O.O.O.( z 4XQ.d./.jX4.J 5XvXcX,XW O.o.O.O.",
"O.+.O.O.O.O.O.O.O.P J %.w e l.).~.n.^.a.< g & : % * : % * Y.fXiXpXaXfX|.& % : * o , : Z fXiXiXiXuXuXgX0.a uX|.r O.o.O.O.O.O.O.h N d.J./.0XbX2X3XvX4Xw.U O.O.O.O.",
"O.O.O.O.O.O.O.O.T e *.*.=.@.=.=.~.~.~.%.s.z i.bXH.$ : : X S uXuXaXuXxX4.. , * * K.bX0Xf eXsXiXiXuXuXuX|.wXqXqX$.R O.O.O.O.O.O.x u.J L.K.9XjX,Xs.cXjXw.W O.o.O.O.",
"O.O.O.O.O.O.o.O.I b *.g b =.*.=.x.).n.oXOXi K.1Xp.% S p.u z.fXuXpXuXgXY., H.H % p.!.9XC 4XsXiXiXiXuX7XgX^.#.$X'.P ' ' O.O.O.O.k 3Xu.2X9X3X0X,Xg /.4Xp.^ O.o.O.O.",
"O.O.O.O.o.O.o.O.P @.%.@.@ b =.h.j.c.~.~.|.c $.z.k.Y.z.Y.S XXgXiXuXiXpXiXH z.L.L.z.k.k.C 8XsXaXiXuXuXiXXX: Y.&XOXE O.O.O.O.O.O.j 3X!.p.9X3X9X9XJ.2X0XA _ o.o.O.O.",
"O.O.O.O.O.O.o.o.I %.*.=.g e h.*.j.x.n.U. XD w.4X!././. XS 8XpXsXtXuXiXgXK z.XX^./.XXP.H fXiXaXiXuXwXgX#.D hXqX&X! O.` O.O.` O.t W.9XH.K.9X9X2X3X0XkXA o.o.o.O.O.",
"O.O.O.O.O.O.o.o._ W ! @.E > *.=.j.x.n.~.'.c.c L.XX|.4X$.w.sXaXaXpXiXiXzXc.p 4X|. XXXZ P.gXiXiXuXuXwXdXS { (.f. .) ' O.' O.` O.0 H 3X3Xp.!.9X1X2X9XjXA o.o.O.O.O.",
"O.O.O.O.O.o.O.O.o.o.o.O.` ; *.=.a.h.n.n.~.n.c.H e.k.C u w.7X8XaXuXsXuXuXfXa u z.d.K J.uXuXiXiXuXuXwXiXa ` o.+.o.O.O.O.O.O.` O.9 v i.2X!.H.3X!.3X0X5X7 o.o.O.O.O.",
"O.O.O.O.O.O.O.O.O.o.o.o.o.1 @.*.a.h.x.P.~.~.x.l.K > c L.8XlX/.z.xX7Xd.pXpXsXf c e./.4XeXuXuXuXeXqXtX&X3 O.O.O.O.' O.O.O.O.' O.9 q.H H.2XK.W.Q.1X9X2Xt o.o.o.O.O.",
"O.O.O.O.O.O.O.O.O.O.o.o.o.L e *.*.h.l.x.n.`.~.l.k.Y.x.H C P.lXe.0.#.4XfXuXpXfXY.P./.qXuXuXuXeXwXqXuXe.8 O.O.O._ O.O.O.O.O.' O.8 H.p.5.K.|.W.J.!.9XK.P o.o.O.O.O.",
"O.O.+.O.O.O.O.O.O.O.O.O.o._ # &.*.a.l.h.x.~.~.oXOXqXJ . !.2XJ eXXXwXsXeXuXiXuXfXfXfXuXuXeXeXqXqXqXqXw T O.O.O.O.O.O.O.O.O.` O.9 p.Q.y.u.Q.!.K.!.9Xq.R o.o.O.O.O.",
"O.O.O.O.O.O.O.O.O.O.O.O.o.o.9 e =.*.a.l.l.n.~.`. Xn.I.o q.vXd.k.lXeXwXeXeXeXuXeXeXeXwXwXeXqXqX6XyXw.8 O.' O.O.O.O.O.O.O.O.` O.0 u.W.J.u.A.Q.W.K.3XA o.O.O.O.O.O.",
"O.O.+.O.O.O.O.O.O.O.O.O.O.o.o.1 b h.*.j.l.n.n.~.^.~.x.o K 4.3X!.d.eXeXeXfXeXeXeXwXwX6XOXqX8X6XtXn.- O.O.O.O.O.O.O.O.O.O.O.` O.9 0.W.Q.W.H.W.>X!.3Xx o.o.O.O.O.O.",
"O.O.O.O.O.O.O.O.O.O.O.O.O.o.o.o.# D j.=.j.l.l.U.~.^.$Xc kXvX5X5XK.e.OXOX=./.qXqXqXqXqXqXOX.XyXU.- / O.O.O.O.O.O.O.O.O.O.O.O.O.) t p p f C S H | H t o.o.O.O.O.O.",
"O.O.O.O.O.O.O.O.O.O.O.O.o.o.o.o.T 1 v h.j.j.l.n.~.^.a.=.i.0XbXjXbXjXL.w.s.x.OXqXqX6X6X6X$XqXa.- R O.O.O.O.O.' O.O.' O.O.O.O.O.O._ # . X 1 ( R / ^ ` O.O.O.O.O.O.",
"O.O.O.O.O.O.O.O.O.o.O.O.O.O.O.o.O.O.+ ; @.l.x.x.x.~.n.~.%.i 4.d.Q./.Q.S %. X$XOX$X$X6XwXI.a + R O.O.` O.O.` O.O.O.O.O.O.O.O.' P H k.g X 3 ^ o.o.o.O.O.O.O.O.O.O.",
"O.O.O.O.O.O.O.O.O.O.O.O.O.O.o.o.' E A - o ; D h.n.~.'.'.~.x.~.'.^.x.x.OX~.$XqXqX8X Xe.u o & z h R ' O.O.O.O.( ( o.o.o.o.` o.P d.xXxXqXf pXb ` O.o.O.O.O.O.o.O.O.",
"O.O.O.O.O.O.O.o.O.O.O.O.O.O.o.o.t ].#Xh.b @   o ; z D %.a.I.^.^.^./.^.Y.I.d.$.Z w & o . % z g.{.} ~ W / O.P p c 5 / o.o.o.o.k gX/.~.k.#.xXv o.O.O.O.O.O.O.O.O.O.",
"O.O.O.O.O.O.O.O.O.O.O.O.O.o.o.P j.*X{.}.&XA $ y > @ o o o * & @ & & & @ & o X % ; p f u f m.%X{.%X%X].} Q 6 y.jXC p P I P P r qXqX: o c S A U o.` O.O.O.O.O.O.O.",
"O.O.O.O.O.O.O.O.O.O.O.O.O.O.` n *X{.].].%XD y 5.m.h.} v f i w 6 w w u i a A @.e.v.).u.7.6.v.#X].}.}.+X&X&X].| 0XW.#.|.|. XXX$.$XxX> e fXdX6Xt o.` O.O.O.O.O.O.O.",
"O.O.O.O.O.O.O.O.O.O.O.O.o.o.I b.#X{.}.{.%XA m 5.+X#X+X[.).v.e.&.&.g.v.m.`.+X#X#X#X].q.Z.7.h.#X{.+X}.}.].+Xm.q.kXQ.0.gXpXsXpXuXpXI.O & u.%.z U O.O.O.O.O.O.O.O.O.",
"O.o.O.O.O.O.O.O.O.O.O.O.o.o.x #X{.}.{.{.%XA >.H ].[.[.[.}.#X#X#X#X#X+X+X}.].].].+X).1.R.r.&.#X].}.}.}.}.#Xv.q.vX5X$.uXqXqXwXqXdXx.. = k. Xk.I O.` O.O.O.' O.O.O.",
"O.O.O.O.O.' O.O.O.O.O.o.o./ &.%X].}.}.].#Xz 3.V v.*X%X#X#X+X+X@X#X+X+X@X#X#X%X#X+X$.M.=XB.#.#X{.}.}.}.].#Xh.0.bX0X#.dXtXyXdXqXiX`.. = 0.0.Z U O.O.O.O.O.O.O.O.O.",
"O.O.O.O.O.O.O.O.O.O.O.` o.P m.#X}.}.}.}.+Xf 2.6.C D $.g.l.v.v.v.v.v.v.v.h.g.$.D F r.R.G.D.| }.].}.}.+X%X*Xg.i.bX3X#.hXtX8X.XZ K P.. = z.|.#.U O.o.O.O.O.O.O.O.O.",
"O.O.O.o.O.O.O.O.O.O.O.O.O.k +X+X}.}.{.+X].a 3.t.t.3.<.,.,.G G G G ,.1.5.7.r.N.S.=X-XR.F.G.G }.%X&X&X[.&.m.j.i.xXK.7 x k t P ^ U 9 X O . 8 R O.O.O.O.O.O.O.O.O.O.",
"O.O.O.O.O.O.O.O.O.O.O.O._ b $X[.}.}.[.[.].d 7.9.t.V.V.S.S.D.F.G.R.R.R.;X;X;X;X;X=X=XR.R.R.y.#.n ~ ~ E I U W k r r ) O.O.' O.O.` o.O O O R o.` O.O.O.O.O.O.O.O.O.",
"O.O.O.O.O.O.O.O.O.O.o.O.T #.rX+X].{.{.+X`.d 8.8.t.M.B.B.C.Z.S.S.F.G.G.R.R.=X-X-X-X-X=X=XR.G.G # o.o.O.O.O.O.O.O.O.O.O.' ' ' ' ' _ # O 1 _ O.O.O.O.O.O.O.O.O.O.O.",
"O.O.O.O.O.O.O.O.O.O.o.O.I g.*X{.+X.X+X+X`.d 8.t.t.V.V.C.Z.S.D.F.G.G.R.R.=X;X;X;X:X;X=X=XG.:XS.7 o.o.o.' O.` O.' O.o.O.O.O.O.O.O._ T 8 T O.O.O.O.O.O.O.O.O.O.O.O.",
"O.O.O.O.O.O.O.O.O.O.o.O.q m.@X@X@X.X.X+X).p t.9.t.M.B.V.A.S.D.D.F.G.R.R.;X:X>X>X>X>X;X=X;X-XA.2 O.o.O.O.O.O.O.O.O.O.O.O.O.O.' O.O.O.o.o.O.O.O.O.O.O.O.O.O.O.O.O.",
"O.O.O.O.O.O.O.O.O.O.o.o.t ).@X{.@X@X+X+X).s 9.t.M.B.V.C.A.A.D.F.G.T.R.=X;X:X>X>X>X:X;X:XR.R.G.h O.o.O.O.O.O.O.O.O.O.O.O.O.O.O.O.O.o.o.o.O.O.O.O.O.O.O.O.O.O.O.O.",
"O.O.O.O.O.O.O.O.O.O.O.o.r ].+X{..X{.+X@Xm.s t.t.t.B.M.C.A.S.D.D.F.G.R.=X;X;X>X>X>X>X-X;X;XE.R.n O.` O.O.O.O.O.' O.O.O.' O.O.' O.o.o.o.O.O.O.O.O.O.O.O.O.O.O.O.O.",
"O.O.O.O.O.o.O.O.O.O.o.o.h +X+X{.{.{..X%Xm.s t.8.t.V.B.V.S.D.D.D.G.R.R.R.R.;X;X;XR.:X;X=XR.>X>Xh O.o.O.O.O.O.O.O.O.O.O.O.O.O.O.O.O.O.O.O.O.O.O.O.O.O.O.O.O.O.O.O.",
"O.O.O.O.O.o.O.O.o.O.o.O.j #X}.{.].+X.X@XU.d 9.8.t.M.B.C.V.V.D.T.D.1.A.-XR.;X;XE.:XR.G.:XG.R.<Xx O.o.O.O.O.O.O.O.O.O.O.O.O.O.O.O.O.o.O.o.O.O.O.O.O.O.O.O.O.O.O.O.",
"O.O.O.O.O.O.O.O.O.O.O.O.x *X{.}.+X{.].@Xm.d M.9.t.M.V.C.M.N N r.A.J 4.D.R.R.R.;XE.E.G.R.G.G.=XQ O.' O.O.O.O.O.O.O.O.O.O.O._ O.O.O.O.O.O.O.O.O.O.O.O.O.O.O.O.O.O.",
"O.O.O.O.o.O.O.O.o.O.O.O.Q *X{.}.+X].{.+X).A M.r.t.r.3.r.C.S.A.A.D.=Xu.F.R.-XR.T.=XR.R.G.R.:X<.W O.o.O.O.O.O.O.O.O.O.O.O.o.o.O.O.o.o.o.o.o.O.O.O.O.O.O.O.O.O.O.O.",
"O.O.O.O.O.O.O.O.O.O.o.O.~ *X{.}.+X{.{.+X].B 3.2.t.r.1.r.C.C.i.r.C.4.S.R.S.A.T.T.R.R.R.R.S.<.E O.` O.O.O.O.O.O.O.O._ O.O.o.o.o.o.o.o.o.o.O.o.o.O.o.O.O.O.O.O.O.O.",
"O.O.O.O.O.O.O.O.O.O.O.O.! #X}.}.].].].{.).d <.V ,.7.B.C.C.S.A.A.D.D.S.N.t.C.t.A.S.Z.8.G B <.] O.` O.O.O.O.O.O.O.O.o.o.o.o.o.o.o.o.o.o.o.o.o.o.o.O.O.O.o.O.O.O.O.",
"O.O.O.O.O.O.O.O.O.O.` O.E ].}.}.%X%X%X@X%Xd B V M M M F ,.,.2.<.>.V 3.S.F.R.B.5.7.r.r.N.S.B.E O.O.O.O.O.O.O.O.o.O.o.o.o.o.o.o._ o.o.o.o.o.o.o.o.O.o.O.O.O.o.O.O.",
"O.O.+.O.O.O.O.O.O.O.O.O.( } &.@.$.&.*.e.).A s F M M s s s s s d M 2.S.D.D.D.Z.5.A.F.F.D.F.Z.j o.' O.O.O.O.O.O.' O.O.o.o.o.o.o._ o.o.o.o.o.o.o.o.O.o.O.o.O.O.O.O.",
"O.O.O.O.O.O.O.O.O.O.O.O.O.( } wX|.Y.b.Y.D u >.<.F F 3.B.C.A.t.2.3.A.A.S.S.D.S.7.Z.D.S.S.Z.F.x o.o.O.O.O.O.O.O.O.O.O.o.o.o.o.o.o.o.o.o.o.o.o.o.o.o.O.O.O.o.O.O.O.",
"O.O.O.O.O.O.O.O.O.O.O.O.O.` *.gXiXpXpXhXh.m 8.7.>.F 8.t.t.t.V.1.3.A.V.S.S.S.D.7.V.S.S.A.Z.F.l o.O.o.o.O.O.o.O.O.O.O.o.o.o.O.O._ _ _ _ o.o.o.o.o.O.O.O.O.O.O.O.O.",
"O.O.O.O.O.O.O.O.O.O.O.O.O.` { fXiX8XtXtXoXF 3.3.2.,.8.8.M.t.N.3.7.A.V.C.V.S.V.7.B.A.Z.V.B.S.p o.O.O.O.O.O.O.O.O.o.O.o.o.o.O.o.T T T _ o.o._ o.o.O.O.O.O.O.O.O.O.",
"O.O.O.O.O.o.O.O.O.O.o.O.O.O.Y c 6XyXyXtXsXw.>.7.2.2.7.8.8.t.M.3.r.N.N.V.S.V.N.r.t.C.V.B.B.Z.l ` O.O.O.o.O.o.O.O.O.O.o.o.o.o._ T T T _ O.o.o.o.o.O.O.O.O.O.O.O.O.",
"O.O.O.O.O.O.O.O.O.O.O.O.O.'  .'.$XpX6X$XwXb.B 7.2.6.7.7.7.r.M.r.r.8.M.B.N.N.V.N.r.t.B.M.B.Z.d ( O.O.O.o.O.O.O.O.O.O.o.O.O.o.o.o.o._ O.O.o.o.o.o.O.O.O.O.O.O.O.O.",
"O.O.+.O.O.O.O.O.O.O.O.O.' O.! sXsX6X6XXXXXw.F 3.2.,.1.3.r.7.8.M.4.1.M.M.M.t.t.M.B.B.t.M.9.S.y / O.O.O.o.O.O.O.O.o.O.o.o.o.o._ o.O.O.O.O.` ` o.o.O.O.O.O.O.O.O.O.",
"O.O.+.O.O.O.' O.O.O.O.O.O.O.o.! 0.W.L.k.#.F 2.<.2.F G 7.3.7.7.3.,.t.t.t.t.t.r.t.t.t.t.t.9.t.m T O.o.O.O.O.O.O.O.O.o.o.o.o.o.o.o.O.O.O.O.o.o.o.O.O.O.O.O.O.O.O.O.",
"O.O.O.O.O.O.o.O.O.O.O.O.O.O.O.O._ W { { ,.2.<.2.<.3.3.2.3.3.3.3.3.t.8.8.8.r.r.8.9.9.9.9.9.B.l I o.o.O.O.O.o.O.O.O.o.o.o.o.o.o.o.o.O.O.o.o.o.o.o.O.` O.O.O.O.O.O.",
"O.O.O.O.O.O.O.O.O.O.O.O.O.O.O.O.o.` ` ] 3.2.2.2.<.<.2.1.3.3.3.8.8.3.8.3.8.8.t.3.8.H F 5.9.9.l T o.o.O.o.O.O.O.O.O.O.o.o.o.o.o.o.o.O.O.O.O.O.O.O.O.O.O.O.O.O.O.O.",
"O.O.O.O.O.O.O.O.O.O.' O.O.O.O.O.` ` O.! 6.<.<.<.<.2.<.<.<.<.6.6.6.6.6.8.6.F 1.7.7.F N 6.6.9.B P o.o.O.O.O.O.O.O.O.' O.O.O.O.O.O.O.O.O.O.O.O.O.o.O.O.O.O.O.O.O.O.",
"O.O.O.O.O.O.O.O.O.O.O.O.O.O.O.O.O.O.o.] 6.<.6.<.<.<.6.<.6.6.<.<.<.6.6.2.7.2.2.6.6.7.8.7.6.8.V t o.o.O.o.O.O.O.O.O.O.O.O.O.O.O.O.O.O.O.O.O.O.O.O.O.O.O.O.O.O.O.O.",
"+.O.O.O.O.O.O.O.O.O.O.O.o.O.O.O.o.o.o.] 2.3.2.7.6.2.6.6.7.7.6.6.7.7.7.7.8.9.8.8.3.<.,.<.2.2.m 9 o.o.O.O.O.O.O.O.O.O.O.O.O.O.O.O.O.O.O.O.o.O.o.O.O.O.O.O.O.O.O.O.",
"O.O.O.O.O.O.O.O.O.O.O.O.O.O.O.O.o.o.O.( G 2.>.M V G >.<.F d y y s d d M M s y 6 3 o + 2 2 3 8 ) o.o.O.O.O.O.O.O.O.o.O.O.O._ O.O._ O.O.O.O.O.o.O.O.O.O.O.O.O.O.O.",
"O.O.O.O.O.O.O.O.O.O.O.O.O.O.O.O.O.O.O.o.W W E I 0 . t E P I ^ U I I P 9 t U T ` o.. 1 o.o.o.O.O.O.O.O.O.O.O.O.O.O.O.O.O.O.O.O.O.O.O.O.O.O.O.O.O.O.O.O.O.O.O.O.+.",
"O.O.O.O.O.O.O.O.O.O.O.O.O.O.O.O.O.O.O.O.O.O.O.O.q . _ o.` ` o.o.O.O.o.o.O.O.' O.o.o 1 o.o.o.o.o.O.O.O.O.O.O.O.O.O.O.O.O.O.O.o.O.o.O.O.O.O.O.O.O.O.O.O.O.O.O.O.O.",
"O.O.O.O.O.O.O.O.O.O.O.O.O.O.O.O.O.O.O.O.O.` ` ` q . / o._ o.o.o.' o.o.` o.o.` O.o.+ 1 o.o.o.o.O.O.O.O.O.O.O.O.o.O.O.O.O.O.O.O.O.O.O.O.O.O.O.O.o.O.O.O.O.O.O.O.O.",
"O.O.O.O.O.O.O.O.O.O.O.O.O.O.O.O.O.O.O.` O.O.O.O.q . / o.o.o.o.o.O.` O.` o.o.O.O.o.. 2 o.O.o.o.o.o.o.O.O.O.O.O.o.O.O.O.O.O.O.O.O.O.o.O.O.O.O.O.O.O.O.O.O.O.O.O.O.",
"O.O.O.O.O.o.O.o.O.O.O.O.O.O.o.O.O.O.O.O.^ P W ( 0 . _ o.o.o.o.O.o.o.o.o.o.O.O.O.o.X 2 _ ^ E ^ o.O.' O.O.o.o.O.O.O.O.O.O.O.O.O.O.O.O.o.O.O.O.O.O.O.O.O.O.O.O.O.O.",
"O.O.O.O.O.O.O.O.O.O.O.O.o.o.O.[ +.:.f.0 .     . . . j X.X.;.;.;.f.X.X.f.X.X.X.;.] .   . % % . 2 ' ' ' O.o.o.O.O.O.O.O.O.O.O.O.O.o.O.o.O.O.O.O.O.O.O.O.O.O.O.O.O.",
"O.o.+.o.o.O.o.O.O.O.o.O.[ f.f.i.p.K.q.u : * * * * - 6 p.p.p.A.d.i.p.p.S.A.p.k.A.p * : * y u d , f u.0.;...o.o.O.O.O.O.O.O.O.O.O.O.O.O.O.O.O.O.O.O.O.O.O.O.O.O.O.",
"O.o.+.O.O.O.O.O.O.O.O.O.o.[ +.O.[ ..[ ..f.X.X.X.X.5.;.;.-.f.-.-.f.f.-.f.-.-.X.X.X.X.X.X.f.......[ [ [ +.O.O.O.O.O.o.O.O.O.O.O.O.O.O.O.o.O.O.O.O.o.O.O.o.O.O.O.O.",
"O.O.+.+.o.o.O.O.O.O.O.O.O.O.O.O.o.o.o.o.O.O.O.O.o.O.O.O.` O.O.O.o.o.O.o.O.o.O.O.o.o.O.O.O.O.O.O.O.O.O.O.O.O.O.O.O.O.O.O.O.O.O.O.O.O.O.O.O.O.O.O.O.O.O.O.O.O.O.O.",
"+.O.+.o.O.O.O.O.O.O.O.O.o.O.O.O.o.o.o.o.O.O.O.O.O.O.O.O.` ' O.o.o.o.o.o.O.O.O.o._ o.O.O.o.O.O.o.O.O.O.O.O.O.O.o.O.O.O.O.O.O.O.O.O.O.O.O.O.O.O.O.O.O.O.O.O.O.O.O.",
"o.o.o.o.O.o.o.O.O.O.O.O.O.O.O.+.O.O.O.O.O.O.O.O.O.O.O.O.O.O.O.O.o.O.O.+.o.O.O.O.O.O.O.O.O.O.O.O.O.O.O.O.O.O.O.+.O.O.O.O.O.O.O.O.O.O.O.O.O.O.O.O.O.O.O.O.O.O.O.O.",
"o.o.o.+.O.+.o.O.O.O.O.O.O.O.O.O.O.O.O.O.O.O.O.O.O.O.O.O.O.O.O.O.o.O.O.O.O.O.O.O.O.O.O.O.+.O.O.O.O.O.O.O.O.O.O.O.O.O.O.O.O.O.o.O.O.O.O.O.O.O.O.O.O.O.O.O.O.O.O.O."
};
