/* XPM */
static char *_2d48b934ac5462c8138f701c63958283bxsq84fJqVxl3Tt[] = {
/* columns rows colors chars-per-pixel */
"80 80 237 2 ",
"   c #020201",
".  c #080906",
"X  c #131007",
"o  c #181917",
"O  c #271005",
"+  c #1A2D16",
"@  c #24261C",
"#  c #25351C",
"$  c #181923",
"%  c #232323",
"&  c #292824",
"*  c #2C2C2C",
"=  c #322822",
"-  c #2A3624",
";  c #34352C",
":  c #353535",
">  c #3B3A34",
",  c #3B3A3A",
"<  c #573A36",
"1  c #23451C",
"2  c #2A4724",
"3  c #33442B",
"4  c #2B5522",
"5  c #345D29",
"6  c #3A4736",
"7  c #3C5534",
"8  c #35682A",
"9  c #3B752E",
"0  c #3C6B32",
"q  c #3E7731",
"w  c #43463A",
"e  c #4C523E",
"r  c #42683A",
"t  c #447838",
"y  c #3C424B",
"u  c #484946",
"i  c #534C44",
"p  c #4B5549",
"a  c #56574B",
"s  c #474C56",
"d  c #4C5356",
"f  c #595955",
"g  c #68554F",
"h  c #4D6946",
"j  c #4C7744",
"k  c #547648",
"l  c #4B6650",
"z  c #5E6156",
"x  c #597654",
"c  c #65645C",
"v  c #666958",
"b  c #6E7158",
"n  c #66795C",
"m  c #4F566A",
"M  c #545A66",
"N  c #715B66",
"B  c #5A626D",
"V  c #5D6673",
"C  c #686866",
"Z  c #746E67",
"A  c #6D7367",
"S  c #75736C",
"D  c #787669",
"F  c #666A78",
"G  c #6D727D",
"H  c #797A77",
"J  c #8B7771",
"K  c #847C76",
"L  c #3F8031",
"P  c #468838",
"I  c #499439",
"U  c #4D9B3C",
"Y  c #509B3F",
"T  c #4FAF3C",
"R  c #50A33E",
"E  c #558C4A",
"W  c #579747",
"Q  c #69895B",
"!  c #689457",
"~  c #75915F",
"^  c #55A543",
"/  c #55AB42",
"(  c #58B545",
")  c #59B446",
"_  c #5ABB46",
"`  c #5EBE49",
"'  c #60BC4B",
"]  c #65A75B",
"[  c #68BA57",
"{  c #6E8D64",
"}  c #778968",
"|  c #7D8377",
" . c #75AA69",
".. c #76B867",
"X. c #7DA874",
"o. c #5FC14A",
"O. c #60C24B",
"+. c #68C755",
"@. c #87846B",
"#. c #868678",
"$. c #8B8B7B",
"%. c #978A77",
"&. c #8C937B",
"*. c #9A967A",
"=. c #A2927E",
"-. c #83A37C",
";. c #81AA78",
":. c #84B879",
">. c #8BC47E",
",. c #666C83",
"<. c #6D7584",
"1. c #6D7788",
"2. c #767986",
"3. c #727B8C",
"4. c #757E90",
"5. c #8D7D88",
"6. c #7A828D",
"7. c #778191",
"8. c #7B8494",
"9. c #7D8798",
"0. c #7F8999",
"q. c #8C8B82",
"w. c #888887",
"e. c #928C84",
"r. c #989888",
"t. c #858999",
"y. c #838C9D",
"u. c #8A9290",
"i. c #949594",
"p. c #979795",
"a. c #9C9C9C",
"s. c #A59C86",
"d. c #A88F90",
"f. c #A69C99",
"g. c #8BA681",
"h. c #9BA38A",
"j. c #A6A489",
"k. c #AAA58D",
"l. c #A7A596",
"z. c #AEAA93",
"x. c #ACA99C",
"c. c #B4A997",
"v. c #B4AE9B",
"b. c #ADB496",
"n. c #B4B39B",
"m. c #B9B49D",
"M. c #B5BB9C",
"N. c #858FA0",
"B. c #888FA0",
"V. c #8791A2",
"C. c #8B93A4",
"Z. c #8E97A8",
"A. c #8F98A9",
"S. c #9397A7",
"D. c #939BAC",
"F. c #969FB1",
"G. c #9BA3B4",
"H. c #9DA5B7",
"J. c #A4A4A3",
"K. c #ABA5A6",
"L. c #ACACAC",
"P. c #B3ADA5",
"I. c #B5B2A4",
"U. c #BAB4A2",
"Y. c #BEBAA5",
"T. c #BAB8A9",
"R. c #A2A8B9",
"E. c #A3ABBC",
"W. c #AAB1B7",
"Q. c #B3B3B2",
"!. c #B9B8B7",
"~. c #BBBCBB",
"^. c #C1B9A6",
"/. c #C2BDAB",
"(. c #C2BCB2",
"). c #ACC896",
"_. c #BCC2A2",
"`. c #BFC1BE",
"'. c #C5C5AA",
"]. c #C6C2AD",
"[. c #C6CDAD",
"{. c #C9CEAE",
"}. c #C7D0AE",
"|. c #C9D1AF",
" X c #C5C2B3",
".X c #CAC5B3",
"XX c #CBCCB4",
"oX c #CCC8BA",
"OX c #D0CCB6",
"+X c #D3CDBB",
"@X c #CCD3B2",
"#X c #CED5B9",
"$X c #D1D9B6",
"%X c #D5D1BD",
"&X c #D4DCB9",
"*X c #D8DBBC",
"=X c #D9E0BD",
"-X c #A6AEC0",
";X c #A9AFC1",
":X c #ABB2C4",
">X c #ABB4C6",
",X c #B2B9CA",
"<X c #C3BFC0",
"1X c #B9C1CE",
"2X c #C4C3C3",
"3X c #C9C8C7",
"4X c #CACBCB",
"5X c #D4CCC7",
"6X c #CED0CF",
"7X c #DAD5C2",
"8X c #D9D7C6",
"9X c #DDD9C5",
"0X c #D3D3D3",
"qX c #DBDADA",
"wX c #E2DDC9",
"eX c #E2DDCC",
"rX c #E5DFD0",
"tX c #DBE3C1",
"yX c #E5E1CD",
"uX c #E8E5CF",
"iX c #E6E3D2",
"pX c #E9E6D5",
"aX c #EBE8D6",
"sX c #E8E4D8",
"dX c #EDEAD9",
"fX c #F1EDD6",
"gX c #F2EEDC",
"hX c #F3F1DE",
"jX c #F8F2DE",
"kX c #E8E7E7",
"lX c #F1EFE8",
"zX c #F6F3E1",
"xX c #F9F6E3",
"cX c #FDF9E5",
"vX c #F4F4F3",
"bX c #F7F8F8",
"nX c #FDFEFD",
/* pixels */
"O.O.O.O.O.O.O.+.o.O.O.O.O.O.O.+.O.O.O.O.O.O.O.+.o.O.O.O.O.O.O.O.O.O.O.O.O.O.O.O.o.o.O.O.+.O.O.+.O.O.O.O.O.O.O.O.O.+.O.O.O.O.O.O.O.O.O.O.O.O.O.O.O.O.O.O.O.O.O.O.",
"O.O.O.O.O.O.O.O.O.O.O.O.O.O.O.O.O.O.O.O.O.O.O.O.o.O.O.O.O.O.O.O.O.O.O.O.O.O.O.O.o.o.O.O.O.O.O.O.O.O.O.O.O.O.O.O.o.o.O.+.O.O.O.O.O.O.O.O.O.O.O.O.+.O.O.O.O.O.+.O.",
"O.O.O.O.O.O.O.O.O.O.O.O.O.O.O.O.O.O.O.O.O.o.o.O.O.O.O.O.O.O.O.O.O.O.O.O.O.O.O.O.O.+.o.o.O.O.O.O.O.O.O.O.O.O.O.O.o.O.O.O.O.O.O.O.O.O.O.O.O.O.O.O.O.O.O.O.O.O.O.O.",
"O.O.O.O.O.O.O.o.O.O.O.O.O.O.O.O.O.O.O.O.+.o.o.O.O.+.O.O.O.O.O.O.O.+.O.O.O.+.O.O.O.o.o.o.O.O.O.O.O.O.O.O.O.O.O.O.O.O.O.O.O.O.+.O.O.O.O.O.O.O.O.O.O.O.O.O.O.O.O.O.",
"O.O.O.O.O.` 9 I o.o.o.o.O.O.O.O.o.O.O.O.O.O.O.O.O.O.O.O.O.O.O.O.o.o.o.o.O.o.U 8 4 3 y z C A H S { H z p 6 3 2 8 U ` O.o.O.O.O.O.O.O.O.O.` O.O.O.O.O.O.O.O.+.O.O.",
"O.O.O.o.o.I L.~.| j P _ O.O.O.O.O.O.O.O.O.O.O.O.O.O.O.O.O.o.o.o.o.o.o.R 8 5 A a.#XiXhXhXxXxXxXzXzXhXhXaXeX7XU.q.f 3 8 ^ O.O.o.O.O.O.O.O.O.O.O.O.O.O.O.O.O.O.O.O.",
"O.o.O.o.o.t qXnXnX!.J.w.j U O.O.O.O.O.O.O.O.O.O.O.O.O.O.O.o.O.o.o./ 4 p L.aXxXxXhXaXaXiXiXiXiXiXsXtXrXwXwXwXeXyX9X.X$.6 4 _ O.o.` O.O.O.O.O.O.O.O.O.O.O.O.+.+.O.",
"O.O.O.o.O.j kXnXnXa.vXnXbX6.r ^ O.O.O.O.O.O.O.O.O.O.O.O.O.O.o.o.L 3 _.zXzXaXiXsXaXaXaXaXaXaXpXpXsXiXsXrXeX9X7X%XOXOX$X}.| # U O.O.O.O.O.O.O.O.O.O.O.O.O.O.O.O.O.",
"O.O.O.O.o.Q nXnXnXi.bXnXkX2XvXa.j o.o.o.o.o.O.O.O.O.O.O.o.o.o.9 f sXxXsXpXaXaXaXaXpXpXsXsXaXaXaXpXpXpXiXrXwXwX7X%XOX]./.XXz.; P O.O.O.O.O.O.O.O.O.O.O.O.O.O.O.O.",
"o.O.O.O.o.| nXnXvXa.nXbX6XvXnXnX`.0 o.o.o.o.o.O.O.O.O.O.o.o.q f xXdXsXaXsXpXaXaXpXaXaXaXaXaXaXaXpXpXpXrXrXwXwX7X7XOXXX].^.^.m.> P ' O.O.O.O.O.O.O.O.O.O.O.+.O.O.",
"O.O.o.o.) w.nXnXkXL.nXqXkXbXC u.3Xu ` O.o.O.O.O.O.O.O.o.o./ u dXsXaXaXtXpXaXaXaXaXaXsXaXaXaXaXaXpXaXpXpXrXrXwX7X7X%XoX.X'.m.n.k.# T o.o.' O.` O.O.O.O.O.O.O.O.O.",
"O.O.o.o./ a.nXnX0X!.lXf.vXkX  u `.e ` O.o.o.O.O.O.O.o.o.o.2 oXhXaXsXsXiXpXaXpXaXsXaXaXaXaXaXsXaXpXsXpXpXrXrXwXwX7X%X+X.X/.Y.v.m.@.4 ` o.o.O.O.` O.O.O.O.O.O.O.O.",
"O.O.o.O.R H nXnX0X<XvXlXvXbX4X!.e.r o.o.O.O.' O.O.O.o.O.I C xXiXaXiXsXsXpXpXiXiXaXaXsXaXaXaXsXaXaXaXpXpXiXrXrXwXwX+X/.(.]./.m.m.b.; T _ O.O.O.O.O.O.O.O.O.O.O.O.",
"O.O.O.O.Y Q.nXnX6X3XnXbXvXqXQ.e.H t o.o.O.O.O.O.O.O.` O.5 _.hXiXpXsXsXiXaXzXxXhXaXsXaXaXsXaXsXpXpXpXaXpXpXrXrXaX7X+X=.m.XXU.m.z.M.J 5 o.O.O.+.O.O.O.O.O.O.O.+.O.",
"O.O.o.O.Y ~.nX5X<X0XnXqXkX4Xf.J.w.I O._ O.O.O.O.O.O.O._ w aXiXsXsXsXiXsXaXi.#.I.aXzXpXsXaXaXpXpXaXpXaXpXiXgXyXc.< J 9X+X].P.%.c.b.j.5 o.o._ O.O.O.O.O.O.O.O.O.O.",
"O.O.o.O.Y !.kX5X6X0X5.d.qXf.K.3Xe.^ O.O.O.O.O.O.O.O.O./ v jXqXiXpXiXiXhXA o % $ : h.hXdXaXaXaXaXsXpXpXpXdXr.: $ * o S +XoX+X^.c.=.j.e _ _ o.O.O.O.O.O.O.O.O.O.O.",
"O.O.O.O.R (.vXbX4XJ 5.kX~.f.(.0Xf ` O.O.O.O.O.' ) 7 6 1 $.gXsXiXiXpXsXrX: % : , * o i 8XgXpXaXpXpXiXhX5Xi o * , : % > ].%X+XOXc.m.m.e # 3 5 +.+.+.O.O.O.O.O.O.O.",
"O.O.O.O.R i.5XbX3X3XbXqX<XK.f.N l ' O.O.O.O.O.O.r .XyXa q.zXiXiXiXaXpXlXZ : , o * : % * (.gXpXaXpXgXT.& % : * o , % g < s./.U.^._.b.e e =.b P +.O.O.O.O.O.O.O.O.",
"O.O.o.O.W w.kXvXf.<XkX0XQ.K.J d.x O.O.O.O.O.O.R $.wXwXwX.XsXiXiXaXpXdXrXa qXnXK.* * : . #.cXiXpXpXiXH X : : o J.nXi.f f.J Y.^./.=.=.@.*.%.*.e T _ O.O.O.O.O.O.O.",
"O.O.o.O.R a.5X(.g 2XqX3X5X<Xt.5Xk O.' O.O.' ' P ].+X#.(.gX8XiXpXpXpXdX8XC 4X!.a.% H J., (.hXpXaXpXdXx.u S.S % J.2XQ.i oX+XU./.c.=.*.*.b g *.b I o.O.O.O.O.O.O.O.",
"O.O.O.O._ A 0X5XK.0X0X4X0Xa.~.4Xj O.O.O.O.' O.E +X9X^.> oXpXiXiXpXpXdX9XC l.l.x.P.P.x.D sXsXaXpXpXgX+XS T.P.I.l.x.$.z ]./.^.n.k.=.>.J @ @.%.@.t O.O.O.O.O.O.O.O.",
"O.O.O.O.` A vXqX4X4X0X0XL.K.0XQ.t O.` O.O.` ' ! 7XwXjXD #.gXwXiXpXpXaXgXH Q.oX/.~.oXK.K hXpXrXrXaXpX9XD oX_.(.(.5Xq.J .X^.m.n.k.=.=.w g =.*.%.P O.o.O.O.O.O.O.O.",
"O.O.O.O.o.n kX6X4X X0X~.J.3X4XH 0 O.' O.O.O.O.)  .:.).} S gXwXiXiXpXiXlXI.Z oX X(.7Xi x.xXpXpXpXpXsXaXq.w.5X(.oXP.c v.].U.m.c.k.*.=.< k ;.! W ' O.O.O.O.O.O.O.O.",
"O.O.o.` o.r 4XqX4X~.4XJ.~.3Xp.c 9 O.' O.O.O.O.O.O.O.' _ a aXwXrXiXiXpXiXiXx.| f.x.u f xXrXpXdXsXaXeX5Xe.u C x.r.H v.U./.m.v.j.s.*.*.# o.o._ O.O.O.o.O.O.O.O.O.O.",
"O.O.O.o.o.t 4X0X2X!.Q.L.3XJ.H w.9 O.' O.O.O.' o.O.O.O.O.3 *XrXwXiXiXpXpXeX5XT.r.g f sXsXdXf.8XcXl.(.gXwXI.c > J z.c.Y.Y.m.z.k.s.*.@.1 O.O.O.O.O.O.O.O.O.O.O.O.O.",
"O.O.O.o.o.q L.0X,XP.Q.2XL.#.a.S.8 O.' O.O.O.O.O.O.O._ O.8 r.aXwXyXeXrXiXpX9X.XQ.^.jXdXsXfX5X#.q.p.hXT.C K c.^.f.x.^./.m.z.c.j.*.=.e P O._ O.O.O.O.O.O.O.O.O.O.O.",
"O.O.O.o.O.^ w.0X~.L.!.!.i.u.!.p.8 O.O.O.O.O.O.O.O.O.O.O./ w uX7XwXwXrXiXiXaXgXdXjXiXpXrXiXgXeXoXrXJ 3X!.  J wX+XOX/.^.c.k.k.s.*.%.# o.O.O.O.O.O.O.O.O.O.O.O.O.O.",
"O.O.O.O.O._ A 4XL.Q.!.a.i.L.Q.i.9 O.` O.O.O.O.O.O.O.O.O.O.8 %.fX7XwXwXeXeXrXeXrXrXrXrXrXeXeXeXjXl.f.bXq.o ^.U..X/.Y.m.z.z.s.*.j.e 9 o.o.O.O.O.O.O.O.O.O.O.O.O.O.",
"O.O.O.O.O.O.x 4X~.`.Q.L.W.!.Q.w.9 O.' O.O.O.O.O.O.O.O.O.` ` - m.wX7XwXrX7X7XrXrXwXwXyXjXrXrXrXl.!.4Xw.H @ c.^.(.^.m.n.b.j.=.=.b 1 o.o.o.O.O.O.O.O.O.O.O.O.O.+.O.",
"O.O.O.O.o.O.t H | H A C f p p t ) O.O.O.O.O.O.O.O.O.O.O.o.o.T - ^.pX.X+XwX7XwXwXwXyX(.=.+XOXi.Q.6X6XbXvXc %X^.^.Y.z.z.k.s.j.D # o.o.o.o.O.O.O.O.O.O.O.O.O.O.o.o.",
"O.O.O.O.O.o.` ^ ^ ^ / 1 X . # _ O.O.O.O.O.O.O.O.' ` O.O.O.o.O.T - s.wX%X%X%X7X7X7X%Xm.d.e.L.kXnXkXnX0Xp.=.s.'.m.v.z.k.k.=.v 1 ) o.o.O.o.o.O.O.O.O.O.O.O.O.O.O.O.",
"O.O.O.O.O.O.o.O.o.o.^ 3 X g l.H P ' O.O.O.O.' O.O.O.` O.o.o.o.O./ o a U.wXwX%X%X7X7X(.#.Z !.(.Q.f.e.< e.^.m.m.c.m.c.k.@.> + O.O.o.O.O.O.O.O.O.O.O.O.O.O.O.O.o.O.",
"O.o.O.O.O.O.O.O.o.` n aXz wXcXcXi.I o._ ` o.O.O.( ) O.O.O.O.O.R h f @ o i r. X7X9XwX7X^.OXc.c.]..X^.c.^..X'.^.m.s.D > X - A E o.O.O.O.O.O.O.O.O.O.O.O.O.O.O.O.O.",
"O.O.O.O.O.O.O.O.o.o.b jXK l.T..XhXk o.o.o.o.^ 5 z e P O./ W ~ } [.j.z & . o & w A $.f.I././././././.U.s.%.Z z ; o   @ A j.$X'.j O.O.O.O.O.O.O.O.O.O.O.O.O.O.O.O.",
"O.O.O.O.O.O.O.o.o.W Z S c o > wXyXr P E E P h C kXu.w Q } XX=X&X|.&XM.M u f p ; @ X o & % & & & & & * o o o % 6 u $ C &X$X}.&Xj.P O.` O.O.O.O.' O.O.O.O.O.O.O.O.",
"O.O.' O.O.O.O.` o.t +XfXgXi , cX%X#.XX X]. X#.L.qX| [.=X&X@X}.|.{.@Xb.6.7.i._.b.h.@.A f i w w w w w e f c } h.M.w.y D &X[.}.}.=Xn ` O.O.O.O.O.O.O.O.o.O.O.O.O.O.",
"O.O.O.O.O.O.O.o.o.U f e.r.= X U.pXiXfXaXuXjX$.~.zXw.M.@X}.|.|.|.}.$Xl.4.D.w.|.@X$X$X|._.M.z.h.&.&.r.b.M.}.@X#X@X6.m A &X[.}.}.$Xm.I ' o.O.' O.O.O.O.O.O.O.O.O.O.",
"O.O.O.O.O.O.O.' o.U l.XXl.= . x.fXwXwXwXwXaXq.4XbXw.b.@X|.|.|.|.[.$X$.y.E.3._.$X[.[.}.}.@X$X$X$X$X$X$X|.|.|.[.[.H ,.A &X[.}.}.}.&Xk o.O.O.O.O.O.O.O.O.O.O.O.O.O.",
"O.O.O.O.O.O.O.` o.U Z $.$.= .  XiXwXfXpXyXaX#.qXnXu.z.#X}.|.@X|.}.$X| A.E.y.#.@X@X$X$X$X$X$X@X@X@X$X$X$X$X&X=Xb.V 3.z $X}.|.}.}.&X&.T o.o.O.O.O.O.O.O.O.O.O.O.O.",
"O.O.O.O.O.O.O.o.O.R #. Xc.= . m.K Z XXwXyXzX#.4XnXi.h.=X&X|.|.|.[.|.| G.H.E.t.A | #.h.j.z.b.b.v.b.b.z.k.h.$.D C 6.3.z @X}.|.@X}.$Xm.P O.` O.O.O.O.' O.O.o.O.O.O.",
"O.O.O.O.O.O.O.O.O.O./ 5 X O O 9 U R P t k k e K.vXh.h.b.r._.*X*X=X[.H H.H.E.:XE.A.N.y.4.4.2.2.<.G G G G <.1.7.N.y.3.d |.|.|.|.|.|.@Xj o.O.O.O.O.O.O.O.O.O.O.O.O.",
"O.O.O.O.O.O.O.O.O.O.' R O O O ` O.O.O.O.' O.) r t I W ^ I W Q { v #.8.E.R.-X-X-X:X>X:X:X>X;X-XH.G.G.G.F.S.Z.V.y.y.8.a [.|.|.|.|.[.&Xn o.O.O.O.O.O.O.o.O.+.O.O.O.",
"O.o.O.O.O.O.O.O.O.O.O._ @ O # ' ' O.' ' ' O.O.O.o.O.O.O.o.O.O.O.1 G E.E.E.-X:X:X:X;X;XE.H.F.H.F.D.A.A.A.C.V.N.y.0.9.d '.|.XX|.{.#X8X@.T O.O.O.O.O.o.o.o.o.o.O.O.",
"O.O.O.O.O.O.O.O.O.O.` O.R 5 Y ' O.O.O.O.O.O.O.O.O.O.o.o.o.o.O.O.5 F.>XR.-X;X:X>X>X:X:X;X-X-XR.H.G.G.D.A.C.C.V.y.y.9.d _.@X}.XX@X}.tXh.I O.` O.O.O.O.o.o.o.+.O.O.",
"O.O.O.O.O.O.o.O.O.O.O.O.` O.O.O.O.O.O.O.O.O.O.O.O.O.O.O.O.O.O.O.- C.;X:X;X:X>X,X,X,X:X;X-X-XR.F.G.G.A.A.Z.V.N.y.0.0.d _.@X}.}.#X@X$Xb.t o.o.O.O.O.O.O.O.O.O.O.O.",
"O.O.O.O.O.O.O.O.O.O.O.O.` ` ' ' O.' O.O.O.O.O.O.O.O.O.O.o.O.o.O.h G.E.W.>X:X,X,X,X,X:X:X-XR.R.H.G.A.A.A.Z.C.N.y.0.0.d _.@X@X#X#X|.$X'.t O.o.O.O.O.O.O.O.O.O.O.O.",
"O.O.O.O.O.O.O.O.O.O.O.O.O.O.O.O.' O.O.' O.O.O.O.o.O.o.o.O.O.O.O.Q R.W.:X;X:X>X,X,X,X:X;X-XR.F.H.G.D.D.A.Z.V.V.N.y.0.d M.#XXXXXXX|.@X{.r O.O.O.O.O.O.O.O.O.O.O.O.",
"O.O.O.O.O.O.O.O.O.O.O.O.O.O.O.O.O.O.O.O.O.O.O.' o.o.o.O.O.o.O.O.l :X1XE.W.>X>XE.-X:X;X;X-X-X-XH.G.D.G.A.Z.V.V.y.0.y.s T.#X#X}.}.|.|.@Xt O.o.O.O.O.O.O.O.O.O.O.O.",
"O.O.O.O.O.O.O.O.O.O.O.O.O.O.O.O.o.o.o.o.o.o.O.O.O.O.O.O.O.O.o.O.x 1XE.R.E.R.;X:X;X;X;XE.;XB.5.F.G.G.N.C.C.V.V.N.0.0.d Y.#X@X[.|.[.@X$Xh O.O.O.O.' O.O.O.O.O.O.O.",
"O.o.O.O.O.O.O.O.O.O.O.O.O.O.o.o.o.o.o.o.o.O.O.O.O.O.O.O.O.O.O.O.Q :XH.R.E.R.R.;X;X-X-X-XF.5.H Z.t.N N t.Z.V.N.0.0.N.d M.#X|.@XXX{.}.&Xx O.O.O.O.O.O.O.O.O.O.O.O.",
"O.O.O.O.O.O.O.O.o.O.O.O.O.O.O.o.o.o.o.o.o.O.O.O.O.O.O.O.O.O.o.o.W 1.>XR.R.E.E.E.H.-X;XE.G.S.H.H.S.C.F.S.t.5.y.y.0.V.F _.@X}.}.@X|.[.*XQ O.O.O.O.O.O.O.O.O.O.O.O.",
"O.O.O.O.O.O.O.O.O.o.o.O.O.o.o.o.o.o.o.o.o.O.O.O.o.O.O.O.O.o.o.o.o.E <.D.E.E.E.E.E.R.S.S.E.S.5.S.t.C.A.Z.t.2.t.y.3.4.C '.@X[.@X[.@X[.&X~ O.O.O.O.O.O.O.O.O.O.O.O.",
"O.O.O.o.O.O.O.O.o.o.o.o.O.o.o.o.o.o.o.o.o.O.O.O.O.O.o.O.O.O.o.o.o.] <.B G t.S.D.S.B.B.B.B.D.H.F.S.S.D.A.Z.N.7.<.V 1.f _.XX}.[.}.|.|.&X! O.o.O.O.O.O.O.O.O.O.O.O.",
"O.O.O.O.O.O.O.O.o.o.o.o.o.o.o.o.o.o.o.o.o.O.O.O.O.o.O.O.O.O.o.o.o.E V.D.y.t.t.6.4.B.R.G.D.2.F F <.2.<.G F M M M V B p $X$X$X&X$X@X|.}.W O.o.' O.O.O.O.O.O.O.O.O.",
"O.O.O.O.O.O.o.O.o.o.o.o.o.o.o.o.o.o.o.o.o.O.O.O.O.O.o.o.O.O.O.o.O.j D.F.F.R.G.C.4.D.F.F.F.D.4.M d s d s s s M B F s n Y.h.r.&.$.@.#.} T O.O.O.O.O.O.O.O.O.O.O.O.",
"O.O.O.O.O.O.o.o.O.o.o.o.o.o.o.o.o.o.o.o.O.o.O.O.o.O.O.O.O.O.O.o.o.k F.D.D.D.D.S.t.S.F.D.D.D.S.4.4.y.S.C.C.7.F V 1.,.u D T.x.T..XwX} ' O.O.O.O.O.O.' O.O.O.O.O.O.",
"O.O.O.O.O.O.O.o.O.o.o.o.o._ _ _ o.o.o.o.o.o.O.O.O.O.O.O.O.O.O.O.O.l F.A.A.A.A.Z.9.F.A.A.A.Z.A.4.1.V.y.y.y.9.F ,.8.0.m p.cXaXfXuXjXr.o.O.O.O.O.O.O.O.O.O.O.O.O.O.",
"O.O.O.O.O.O.o.o.o.o.o.o.o._ T T T _ o.o.o.o.O.o.O.O.O.O.O.O.O.O.o.d F.V.C.A.A.C.5.C.D.Z.Z.C.A.4.6.N.N.N.9.9.1.2.4.4.F OXyXwXwXuXfX{ o.O.O.O.O.O.O.O.O.O.O.+.O.O.",
"O.O.O.O.O.O.O.o.o.o.o.o.o._ T T T o.o.o.o.o.o.o.o.O.O.O.O.O.O.O.o.l A.V.V.C.C.N.N.B.C.Z.V.V.C.8.8.B.y.9.8.8.3.4.7.,.u.fXyXyXuX7Xc Y O.o.O.O.O.O.O.O.O.O.O.O.O.O.",
"O.O.O.O.O.O.o.o.o.O.o.o.o.o._ _ _ o.o.o.o.o.o.o.O.O.O.O.O.O.O.O._ d A.N.V.V.y.t.B.C.B.N.C.N.y.9.t.N.9.9.8.8.4.3.8.B I.wX+X7XfX+X X .O.O.O.O.O.O.O.O.O.O.O.O.O.O.",
"O.O.O.O.O.O.o.o.o.o.o.o.o.o.o.O.o.o._ o._ o.O.O.O.O.O.O.O.O.O.O.) s A.y.N.y.V.y.N.t.N.N.B.B.G t.y.8.9.8.8.3.<.3.7.V e.oX+X%X%XpXdX! o.o.O.O.O.O.O.O.O.O.O.+.o.O.",
"O.O.O.O.O.O.o.O.o.o.o.o.o.o.O.O.o.o.o.o.O.O.O.o.O.O.O.O.O.o.o.O.R d V.0.t.y.y.y.y.y.t.9.y.t.t.2.4.9.8.7.8.F F 2.1.3.F w.x.P.I.&.] o.o.o.O.o.O.o.O.O.O.o.O.+.o.O.",
"O.O.O.O.o.O.o.o.o.o.o.O.o.O.O.O.o.o.o.o.O.O.O.o.O.O.O.O.o.o.o.o.I M V.9.9.V.y.0.y.y.9.y.4.t.t.7.4.8.4.4.4.4.7.3.1.3.3.,.{ Q W ' O.o.O.o.O.o.O.O.O.O.O.O.O.O.O.O.",
"O.O.O.O.O.O.O.o.o.o.O.O.O.O.O.O.o.o.o.o.o.O.O.O.O.O.' O.o.o.o.o.P M N.8.3.N 2.0.8.9.8.8.8.9.8.8.9.4.4.3.3.1.1.1.3.3.3.8.] O.O.O.o.O.O.O.O.O.O.O.o.O.O.o.O.+.O.O.",
"O.O.O.O.O.O.O.O.O.O.O.O.O.O.O.O.O.O.O.o.O.o.O.O.O.o.O.o.O.O.o.O.P B 0.7.7.C F 8.8.2.F 4.8.7.7.7.7.7.3.1.3.1.3.1.3.3.1.7.W O.o.O.O.O.o.O.O.O.o.O.o.O.O.O.o.O.O.O.",
"O.O.O.O.O.O.O.O.O.o.o.O.O.o.O.O.O.O.O.O.O.o.O.o.O.O.O.O.O.O.o.O.q V 0.7.8.0.0.7.4.3.4.4.7.7.3.3.3.1.7.3.1.3.1.3.1.1.7.7.] o.o.O.O.O.O.O.o.O.o.O.O.O.o.O.O.O.O.O.",
"O.O.O.O.O.O.O.O.O.O.O.O.O.O.O.o.o.O.o.O.O.O.O.o.O.O.O.O.o.O.o.o.9 M 3.3.<.1.1.4.8.8.y.9.9.8.8.9.7.7.8.7.7.3.7.7.7.7.7.3.] o.o.o.O.O.O.' O.o.O.O.O.o.O.o.O.+.o.O.",
"O.O.O.O.O.O.O.O.O.O.O.O.O.o.O.O.O.O.o.O.O.o.O.O.O.O.O.O.O.O.o.o./ 0 2 2 2 + o 3 6 u s M M m s y y y d F 1.<.,.B B F 3.G ) o.o.o.O.O.O.O.O.O.O.o.O.o.O.O.O.O.o.O.",
"O.O.O.O.O.O.O.O.O.O.O.O.O.O.O.O.O.O.O.O.O.O.O.O.O.O.O.O.O.O.O.O.o.o.o.o.o.1 . o.' ^ W L 9 L I U U ^ E q E L . 8 I E W W o.O.O.O.O.O.O.O.O.O.O.O.O.o.O.O.O.O.O.O.",
"O.O.O.O.O.O.O.O.O.O.O.O.O.O.O.O.O.o.O.O.O.O.O.O.O.O.O.O.O.o.O.O.o.o.o.` o.1 + o.o.o.O.O.o.o.o.o.o.o.o.O.o.( . q O.O.o.O.O.O.O.O.O.O.O.O.O.O.O.O.O.O.O.o.O.+.O.O.",
"O.O.O.O.O.O.O.O.O.O.O.O.O.O.O.O.O.O.O.o.O.O.O.O.O.o.O.O.O.O.O.O.o.o.o.o.o.1 + o.O.o.` ` o.o.o.o.o.o.O.` O./ . t _ ` ` ` O.O.O.O.O.O.O.O.O.O.O.O.O.O.O.O.O.O.O.O.",
"O.O.O.O.O.O.O.O.O.O.O.O.O.O.O.O.O.o.O.O.O.O.O.O.O.O.O.O.O.O.O.O.o.o.o.o.o.2 . o.O.O.O.` o.o.o.o.o.o.' ` O./ . q O.O.O.O.o.O.O.O.O.O.O.O.O.O.O.o.O.O.O.O.O.O.O.O.",
"O.O.O.O.O.O.O.O.O.O.O.O.O.O.O.O.O.O.O.O.O.O.O.O.O.o.O.O.O.O.O.O.o.U E ^ ) - X o.O.O.o.o.O.O.O.O.o.o.O.o.O._   t / ^ P / O.O.O.O.O.O.O.O.O.O.o.O.O.O.O.O.O.+.O.O.",
"O.O.O.O.O.O.O.O.O.O.O.O.O.O.O.O.O.O.O.O.O.O.O.O.O.O.O.O.O.O.O.O.2 X % % . . . ! X. .X.:.;.;.-.;.X.X.X.X.;.j   .         0 >.:...[ O.O.O.O.O.O.O.O.O.o.O.O.O.O.O.",
"O.O.O.O.O.O.O.O.O.O.O.O.O.O.O.O.O.O.o.O.O.O.O.O.O.o.o.O.;.u.g.v y d u s * - * d l.J.a.a.f.a.a.a.a.a.S.a.i.6 * * * * * : u w.K.S.i.h.-.[ O.o.O.O.O.O.O.O.O.O.O.O.",
"O.O.O.O.O.O.O.O.O.O.O.O.O.O.O.O.O.O.O.O.O.O.O.O.o.o.o.O.[ [ [ [ ......X.X.X.X.X.X.X.6.X.g.g.-.-.g.-.g.-.X.:.0.X.;.X.;.:...] ..[ [ [ [ O.O.O.O.O.O.O.O.O.O.+.O.O.",
"O.O.O.O.O.O.O.O.O.O.O.O.O.O.O.O.O.O.O.O.O.O.O.O.O.O.O.O.O.O.O.O.O.O.o.O.O.O.O.O.` O.o.O.O.O.O.O.` o.O.O.O.O.O.O.O.O.O.O.O.O.O.O.o.o.O.O.O.O.O.O.O.O.O.O.O.+.O.O.",
"O.O.O.O.O.O.O.O.O.O.O.O.O.O.O.O.O.O.O.O.O.O.O.O.O.O.O.O.O.O.O.O.o.O.O.O.O.O.O.O.` ' O.` o.o.o.O.o.` o.O.o.O.O.O.O.O.O.O.O.o.O.O.o.o.O.O.O.O.O.O.O.O.O.O.+.+.O.O.",
"O.O.O.O.O.O.O.O.O.O.O.O.O.O.O.O.O.O.O.O.O.O.O.O.O.O.O.O.O.O.O.O.O.O.O.O.O.O.O.O.O.O.O.O.O.O.O.O.o.O.O.O.O.O.O.O.O.O.O.O.O.O.O.O.o.O.O.O.O.O.O.O.O.O.O.O.O.O.O.o.",
"O.O.O.O.O.O.+.O.O.O.O.O.O.O.O.O.O.O.O.O.O.O.O.O.O.O.O.O.O.O.O.O.O.O.+.O.O.O.O.O.O.O.O.O.O.O.O.o.O.O.O.O.O.O.O.O.O.O.O.O.O.O.O.O.o.o.O.O.O.O.O.O.O.O.O.O.O.O.O.+."
};
