/* XPM */
static char *result[] = {
/* columns rows colors chars-per-pixel */
"80 80 226 2 ",
"   c #000000",
".  c #060C04",
"X  c #12230F",
"o  c #162911",
"O  c #1F3F18",
"+  c #43323C",
"@  c #22461B",
"#  c #305627",
"$  c #376C2B",
"%  c #39722D",
"&  c #603B4F",
"*  c #5A6A57",
"=  c #AD497B",
"-  c #448835",
";  c #4B943B",
":  c #51B43D",
">  c #63BF3F",
",  c #57B644",
"<  c #5BBE46",
"1  c #5DBE4A",
"2  c #53AE57",
"3  c #5DB956",
"4  c #5AB559",
"5  c #63BE4E",
"6  c #65BC51",
"7  c #6ABB54",
"8  c #6CB75B",
"9  c #74B95C",
"0  c #4C9E7C",
"q  c #7E947A",
"w  c #55A96C",
"e  c #55AA6D",
"r  c #69AB6A",
"t  c #73AC67",
"y  c #75AC6A",
"u  c #6EB360",
"i  c #7CB263",
"p  c #79B964",
"a  c #7BA675",
"s  c #5FC14B",
"d  c #63C145",
"f  c #60C24B",
"g  c #68C953",
"h  c #72D45D",
"j  c #BC9C7D",
"k  c #85AC68",
"l  c #85AE6B",
"z  c #83B66B",
"x  c #88A676",
"c  c #96A77A",
"v  c #8DBB77",
"b  c #95BA79",
"n  c #B5B57B",
"m  c #FEA754",
"M  c #FEA954",
"N  c #F7A759",
"B  c #FDA758",
"V  c #C39E7A",
"C  c #DFA46B",
"Z  c #D9A370",
"A  c #E9A664",
"S  c #BFC178",
"D  c #FBFF4C",
"F  c #EEF35A",
"G  c #F4FC52",
"H  c #F0F858",
"J  c #CACE6F",
"K  c #367EA5",
"L  c #3C7AB8",
"P  c #417FAE",
"I  c #417DB9",
"U  c #3D7EC1",
"Y  c #427FC3",
"T  c #B24E80",
"R  c #B75486",
"E  c #9A6B87",
"W  c #CC5E9D",
"Q  c #CA689D",
"!  c #D674AA",
"~  c #E07EB7",
"^  c #3C85A7",
"/  c #4C9787",
"(  c #509C83",
")  c #498C9A",
"_  c #4B9191",
"`  c #6C999A",
"'  c #4382A8",
"]  c #4981BA",
"[  c #75FFA4",
"{  c #7AFDA4",
"}  c #3E82C7",
"|  c #4782C6",
" . c #4584CA",
".. c #4986CA",
"X. c #4D89CD",
"o. c #5086C5",
"O. c #548ACC",
"+. c #588ECD",
"@. c #558ED1",
"#. c #5B94D6",
"$. c #5B95D9",
"%. c #6E8CCA",
"&. c #6395D6",
"*. c #6896D7",
"=. c #6596D8",
"-. c #6698D9",
";. c #7A96D5",
":. c #8B9B86",
">. c #8D968B",
",. c #8E9B8B",
"<. c #919B8F",
"1. c #97988E",
"2. c #8E9090",
"3. c #939492",
"4. c #959A94",
"5. c #94959B",
"6. c #9B9C9B",
"7. c #AE8D8C",
"8. c #A89B88",
"9. c #A29C9D",
"0. c #B89A97",
"q. c #87A484",
"w. c #94AF8C",
"e. c #9ABA89",
"r. c #8CA995",
"t. c #99A59C",
"y. c #A3A285",
"u. c #A7A488",
"i. c #A5B787",
"p. c #B3B681",
"a. c #ADAF95",
"s. c #B6B99D",
"d. c #9C9CA3",
"f. c #959CB7",
"g. c #A795A4",
"h. c #9DAAA5",
"j. c #A3A4A3",
"k. c #A8A8A9",
"l. c #B8B2AA",
"z. c #A9A9B4",
"x. c #B4B4B3",
"c. c #B7B7BA",
"v. c #BCBCBC",
"b. c #C1969F",
"n. c #D28FAD",
"m. c #C993A5",
"M. c #CF8EB4",
"N. c #DD8BB7",
"B. c #D491B1",
"V. c #DA92B5",
"C. c #E786BE",
"Z. c #E28CBB",
"A. c #E190BA",
"S. c #C5B8AB",
"D. c #CCB7B2",
"F. c #D8B8BD",
"G. c #8AC89D",
"H. c #91D4A6",
"J. c #82E7A3",
"K. c #C1C1BF",
"L. c #8798D5",
"P. c #9596D3",
"I. c #A892CE",
"U. c #B194CC",
"Y. c #A59DD5",
"T. c #ADA4DA",
"R. c #D88DC5",
"E. c #C692C8",
"W. c #D697D6",
"Q. c #E889C1",
"!. c #EB8CC3",
"~. c #F38CC2",
"^. c #FA89CD",
"/. c #FE89CF",
"(. c #EB94C7",
"). c #EE94C9",
"_. c #F492C8",
"`. c #F493CC",
"'. c #F29BCE",
"]. c #FE8CD0",
"[. c #FC95D2",
"{. c #F59ED0",
"}. c #FD9CD5",
"|. c #FF9FD9",
" X c #D3B0C3",
".X c #E4B6CB",
"XX c #E9B5CE",
"oX c #EFACD3",
"OX c #F5A3D3",
"+X c #FAA4D6",
"@X c #F7A9D7",
"#X c #F9A9D6",
"$X c #FEA4D9",
"%X c #FDAEDD",
"&X c #EBB5D3",
"*X c #F7B7DB",
"=X c #FEB1DE",
"-X c #E993E9",
";X c #FE8EFE",
":X c #F891F9",
">X c #D6B1E3",
",X c #FFADE0",
"<X c #FFB3E1",
"1X c #FEBAE5",
"2X c #FEBEEA",
"3X c #BDC3C5",
"4X c #C3C3C4",
"5X c #C7C6C9",
"6X c #CBCCCB",
"7X c #CFCFD1",
"8X c #D3D4D3",
"9X c #D7D9D7",
"0X c #DBDCDB",
"qX c #EAC9DC",
"wX c #DFE1DF",
"eX c #E1E1DF",
"rX c #FDC6E9",
"tX c #FFC7F5",
"yX c #FAD6F1",
"uX c #E4E5E4",
"iX c #E8E9E7",
"pX c #ECECEB",
"aX c #F1F2EF",
"sX c #FDE9F6",
"dX c #F7F5F5",
"fX c #FEFEFE",
/* pixels */
"f f f f f f f f f f g s s g s s f f f s s s f g s f f f g s s s g s s s s s s g s g s s s s s s s s s s s s g s s s g s s s g s f f f f f g f g s s g s g s s f ",
"f f f f f f f f f f f f s s g s s s g s s g f f s f f f f f s s s s g s g s s s s s s s s g s g g s s s s s s s s g s s s s s s f f f f f s f f s s s s s s s f ",
"f f f f g s f f f f f f s g s s f g f f s f f f f f f f s s f f g s s s s s s g s s s s s g s s s s g s g s s g s s g s s s s s f f f f f f f s f f s f s s s s ",
"f f f f f f f f g s f f s s s s f f f s s s f f g f f f s s g f s s g s s s s s g s s g s s s s g s s s s s s s s s s s g s s g f f f f f f g s f f f f s g s s ",
"f f s f f f f f s g g f s s g s f f f g f f f f s f s g s s s s s s s s g s s s s s s s f f f f s s s g s s s s s s g s s s s s s s f f f f f f f f f f f f s s ",
"g f g f f f f s s s s f s s s s f f f f f f f f f f s s s s s g s g s s s s s g s s s s f f f f s s s s s s s s s s s s s s s s s d f f f f f f f f f f f f g s ",
"f f f f f g s s s s f f s s s s f f f f f f f f f f g s s f f f s s s s s s s s s s s s f f f f s s s s s s s s s s s s s s s s f f f f f f f f f f f f f f f f ",
"f f f f f f s s s s s s s s g s f f f f f f f f f f s s f f s f s s s s s s s s g f s s f f s f s g s s s s g s g s s s s s g s f f f f f f f f f f f f f s s f ",
"f f f f f f f f s s s s s s s s d s s f f f f f f f f f d s 5 f s s g s s s s s s s s s s s s f f f f f f f f s s s s s s f f f f f f f f f f s f f f f f f s d ",
"f f f f f f f f s g s s s g s s f f f f f f s f f f f f s s s f s s s s s s s s < s s s s s s f f f f f s s f f s s s g s s f s f f f f f f f f f f f f f s s s ",
"f f f f f f f f s s s s s s s g f f f f f f f f f f f f s f f f s s s s s s s s : < s s g s s s f s f f f f s f s s s s f f f f f f f f f s s s f f f f f f 5 s ",
"s g f f f f f f s s s s s s s s s f f f f f f f f f f f f f f f s s s s s s s : : : s s s s s s f f f f f s f f s s s s f f f f f f f f f 5 d s f f f f f f f f ",
"f f f f f f f f f s s f f f f f f f f f f s f f f f f f f f f f s s s s s s s < : < s s s s s g f f f f f f s s f f f f f f f f f f d f s s f f s s s d f f f f ",
"f f f f f f s f f f f f f f f f f f f f f f f f s f f f f f f f s s s s s s s g s s s s s g s s f f f f f f f f f f f f f f f f f f s f s s s f f s s s f f f f ",
"f f g s f s f s s f f s f s f f f f f f f f s f f f f f f f f f s s s s s s s s s s s s s s s s s s f d f f f f f f f s f f f f f f f < < < < f f f s s f f f f ",
"f f s s f f f f f f f f f f f f f f f f f f s d f f f f f f f f s s s s s s s s s s s s s s s s s g g f f f f f f f f f f f f f f f f f f f s f g f f f f f f f ",
"g s f f f f f f s f f f f f f f f f f f f f d s f f f f f f f f s f f f s s s s s s f s f f s f g B.{.c d f f f f k c 5 f f f f < s d f f f < < f f f f f f f f ",
"s s f f f f f f f f f f f f f f f f f f f f f f f f f f f f f f f f s s f s s s f s s f f s 5 s b #X+XZ.5 s f f 8.`.|.0.f f f f s s s s f f < < g f d f f f s f ",
"s s s f f f f f f f f f f f f f f f f f f f f f f f f f f s s f f s s s f f s s s f f 1 f f f s m.%X=X_.z s f x }.#X%XZ.5 f f f f f f f f f f g h h g s f f d f ",
"g s s s f s f f f s f f f f f f f f f f f f f f f s f f f d s f f f f s f s s s s s s s f f s 1 n.#X=X}.c f f n.$X=X%XZ.7 f f f f f f f s s f g h g f f f f s f ",
"s s f f f g s s f f f f f f f f d f s f f f f f f f f f f 5 f f s g 7 8 p i k l l l l l i 9 8 5 B.%X=X}.l f l `.%X=X%XB.5 f f f f f f f d s s s f f s f f f f f ",
"f s g f f s s s f s f s f f f f s f f f f f f f f f f f f f 5 c m.V.N.!.!.).`.`.`.}.`.`.`.!.Z.N.Z.`.{.`.c f u.$X=X=X$X8.f f f f f f f f f s < 5 1 < < f f f f f ",
"f f f f f f s s f f f f f f f f f f f f f f f f s f s 5 f 9 B.}.{.`.).{.%X%X%X%X=X%X%X#X{.@X#X$X).!.!.!.Z.m.B.+X=X=X`.i s 5 f f f f f < s s < f s f f f f f f f ",
"f f f f f s f f f f f f f f f f f f f f f s f f s d s f 9 Z.+X=X,X#X!.!.#X%X*X=X=X<X+XQ.(.!.+X<X+X#X+X!.OX}.).C.).OXm.f d f f f f f s s s s < f s f f f f f f f ",
"f g s s f f f f f f f f f s f s f f s f f f f s f s s s b.}.=X=X%X<X#XQ.'.<X%X%X,X#X).yXfXOXQ.,X<X%X%X%X<X=X'.{.!.`.0.f f f f f f f f f f f s f f f f f f f f f ",
"f f f s f f f f f f f f f s f f f f f f s f f f f s f p [.%X=X%X%X%X<X).!.<X=X%X%X{.M.q 9XsXQ.#X<X%X{.+X#X=X%X<X).!._.b.7 f f f f f f f f f f f f s f f f f f f ",
"s s g s f f f f f f f f f f s f s f f f f f f f f d f 0.$X<X=X%X<X<X=XOXQ.%X<X%X=X$X& . * fXQ.#X%X!.!.Q.Q.+X<X%X#X%X#X}.n.5 f f f f f f f f f f f f f f f d f f ",
"g s s s f f f f f f f f s f f f f f f f f f s f f g g A.%XZ.'.<XOX'.<X+X!.%X=X%X<X$XE + uX1XQ.<X{.OXdXsXoX!.=X=X=X=X=X=X}.b.5 f f s d f f f f f f f f f s s f s ",
"s s s s s g f f f f f f f f f s f f f f s f f f f f k }.'.W ! %X! W OX#XQ.%X=X%X<XOX`.=XOXQ.#X=X}.7.+ h.fXC.+X%X%X=X%X=X#X}.c f f f f f f f f f f f f f f f f f ",
"s s s s s s f f f f f f s f f s f f f f f f f d f f c }.#X! C.=X~ Q OX+X!.%X%X<X%X<X{.!.).#X=X%X}.&   ` sXC.,X<X=X=X=X%X=X+XZ.8 f s f f f f f f f f 5 f f f f f ",
"s s s g s s s s f f f f f f f f s f f f f f f f f f c }.=X#X=X=X%X{.<X`.).<X%X<X=X%X=X<X=X=X=X=X[.M.3.qX!.'.=X=X%X=X=X%X=X=X}.y.s f f f f f f f d f s s f f f f ",
"s g s s s s s s f f f f f f s f f f f s f s f f 5 f c {.=X=X=X=X,X<X%X!.'.<X%X%X=X=X=X=X=X%X%X=X+X_.}.~ `.=X=X%X%X=X=X%X%X=X$Xn.5 f f f f f s s s f f f f f f f ",
"f f f f f f 5 f f f f f f f f f f s s s s f f s f s i !.%X=X%X%X%X<X{.Q.%X,X=X%X%X<X%X%X%X=X<X%X,X#X'.#X<X%X%X%X<X<X<X%X%X<X#X`.i f f f f f f f f f s f f f f f ",
"f f f f f s s f f f f f f f f f f s d s f f f f s s 5 m.$X=X=X=X<X#XQ.'.=X%X%X=X%X<X,X<X%X<X%X%X%X<X<X,X%X=X=X%X}.}.|.%X=X=X%X}.c f f f f f f s f f f f f f f f ",
"f f s f f f f f f f d s f f f f f f 6 3 6 s s s f f f i ).OX%X%XOX!.!.%X%X<X%X<X%X,X%X<X,X%X<X<X=X%X=X%X%X<X$X]./././.].#X=X=X}.8.s 5 f f f f s s d f f s f f f ",
"f f s s d f f f f f f f f f 7 y x >.<.4.3.:.x t 5 f f f c _.(.!.Q.).%X,X=X%X=X%X<X%X<X%X<X=X%X%X,X=X%X%X%X%X]./.].].]./.[.=X=X$X0.s d f f f f 5 s f f f s s d f ",
"g f f f f f f f f f f f 5 a 3.k.4X0XuXiXiX0X8Xx.1.a 5 f f c ^.`.OX=X=X%X%X=X=X=X=X%X=X%X=X,X,X<X<X=X%X%X<X}./.].].].].]./.$X=X$X0.f 5 f f f f f f f f f f f f f ",
"f f f f f f f f s f 5 8 ,.x.9XfXfXaXfXfXfXfXfXdX0Xc.1.8 f f l V.}.+X%X%X=X<X%X%X<X=X%X<X=X=X=X%X<X%X,X%X,X}./.].].]./.]./.$X=X}.0.f f f f f f f f f f s f f f f ",
"f f g s f f f f f s 8 4.5XdXfXeXd.d.d.8XfXfXfXfXfXdX5X6.y f f 7 y.V.[.}.$X$X'.Q.+X=X<X%X=X%X%X<X%X%X<X=X=X}./.].]././.[./.%X=X$Xu.d f f f f f s f f f f f f f f ",
"f f s s f f f s s 6 3.6XfXfXeX5.u.J p.2.8XfXfXfXfXfXfX9Xj.y f f f f l u.b.n.Z.!.'.<X%X%X%X<X%X<X%X=X%X%X=X}./.].].].]././.=X@X[.x s 5 f f f f f f f f f f f f f ",
"g s s s s s s s s a v.fXfXdXj.p.D D D J d.pXfXfXfXfXfXfXc.6.8 f f d s f f f 0.}.=X@X=X=X=X%X=X%X1X<X%X<X<X#X]./.].]././.}.<XOX!.9 f 5 d s s f f f f f f f f s f ",
"s s g s s s s s 8 g.aXfXfX8X1.H G G G D 1. XfXfXfXfXiXt.4.g.<.5 f 5 f f 5 f 0.}.<X! Z.1X%X=X%X<XZ.).<X%X%X=X}././.]./.}.%X,X}.m.f s s s f f f f f f f f f f f f ",
"s s s f s s s s a 5XfXdXfXx.n D G G G D n z.fXfXfXdXj.g.-X-Xk.a s 5 f f f f 0.}.1XZ.R @X1X=X1X(.= Z.<X<X,X%X<X|.[.[.}.%X=X@X[.c f 5 f f f f f f f f f f f f s s ",
"g s s s s s s g 4.iXfXfXfXz.J D G G G D S h.fXfXfX0X5.-X;X;XW.q.5 f f f f s y.|.=X<XQ R (.'.N.= Q %X%X%X%X<X%X<X%X%X<X%X=X}.m.5 f f f f f f f f f f f f f f d f ",
"f f f f s s s u x.dXfXfXfXz.J D H G D G 1.T.fXfXfX6Xg.;X;X;X:Xk.t f s f f f l `.#X=X%X! R R T ! @X<X%X%X%X,X=X%X%X,X,X<XOX).k s d f s f s f f f f f f f f f f f ",
"f f f f s f s a 6XfXfXfXfX4Xy.H D D F p.6.pXfXdXfX6X9.;X;X;X;XE.x f f f f f 6 N.+X=X%X<XoX(.+X<X=X=X=X=X<X=X%X=X=X%X<X}._.j > > d d f f f f f f f s f f f f f f ",
"f f s f s s s :.0XfXdXfXfXaXd.y.n n 1.6.eXfXfXfXfX9X6.-X:X:X;XW.,.3 s f f f f u.{.%X%X%X<X<X<X,X%X<X,X=X=X%X=X%X=X<X{.~.E.e > d 5 s f f f f f f f s f f f f f f ",
"f f s s s s s :.uXfXfXfXfXfXpXc.z.z.K.aXfXfXfXfXfXdX4.E.;X;X;XW.4.6 f f f f f r (.~.%X<X%X%X<X%X=X%X=X=X%X=X=X=X%X).~.E.X.^ w s < d f f f f f f f s d f f f f f ",
"f g f s s f f <.aXdXwXiXfXfXfXfXfXfXfXfXfXfXfXfXfXfX4X3.W.-XE.4.j.w.f f s g s ^ ;.~.!.OX,X,X<X,X=X<X,X<X,X,X@X{.~.!.I.=.=.o.I 2 < s f f f f f f 5 d s s f f f f ",
"f f f f f f 6 4.v.d.3.3.c.dXfXfXfXfXfXfXfXfXfXfXfXfXdXx.<.3.4.x.t..X*X.XD.s.q.L O.L.R.~.`.{.@X#X#X%X@X+X{.`.~.!.E.;.$.=.=.#.| ' 1 f f f f f f f s s f f f f f s ",
"f f f f f s s <.t.G.J.H.1.v.fXfXfXfXfXfXfXfXfXfXfXfXfXfXuX0XqX1Xk.u.D.F..X*XY.L *.#.*.I.R.C.!.~.~.~.~.!.Q.R.U.;.#.#.=.=.=.=.+. .( f 5 f f f f f f f f s f f f f ",
"f f f f s s s :.H.[ { [ J.5.iXfXfXfXfXfXfXfXfXfXfXfXfXfXfXfXsX=Xl.3 f f f f ) @.*.&.$.$.&.L.I.I.U.U.I.P.;.&.$.&.*.=.=.=.=.&.=.O.L 3 s f f f f f f f f f f f f f ",
"f f g s s s f x H.[ { { { r.7XfXfXfXfXfXfXfXfXfXfXfXfXfXfXsXrX1XoXt 6 s f f K X.=.=.&.-.=.$.$.$.#.#.$.$.$.=.=.=.=.=.=.=.&.&.=.&.| ( f 1 s f f f f f f f f f f f ",
"f g f f s s f u k.{ { { { r. XfXfXfXfXfXfXdXpXpXfXfXfXfXdX1X=X<X1X1X*XXXF.S.U.Y.;.$.=.&.=.=.*.=.=.=.*.=.=.=.=.=.=.=.=.=.=.=.&.=.X.P 1 f f f f f f f f f f f s s ",
"f f f f s s f 3 4.J.[ { [ r.6XfXfXfXfXfX6Xd.5.5.d.6XfXfXfXdXyX1X.Xs.S.F..XXX1X1XL.#.-.&.=.=.=.=.=.=.=.&.=.=.&.=.=.=.=.=.=.=.&.-.+.I 4 f 1 f f f f f f f f f f d ",
"f f f f s f s f :.H.[ { { 4.0XfXfXfXfX3X2.V C C V 3.4XfXfXfXrXrXb f f f f 6 I *.-.=.=.=.=.=.=.=.=.=.=.=.=.=.=.=.=.=.=.=.=.&.=.=.&...0 f s f f f f f f f f s f f ",
"f f f f f f f d u k.{ { G.9.dXfXfXfXuX3.Z M M m M Z 5.pXfXfXqXg.3 5 f 5 s 3 L @.=.=.=.=.=.=.=.=.=.=.=.=.=.=.=.=.=.=.=.=.=.=.=.=.&...( s s s f f f f f f f f f f ",
"f f f f f f f 5 f :.h.r.3.0XfXfXfXfX3X8.m B B B M M 1.7XfXaXz.y s s s s s 3 P +.-.&.&.=.=.=.=.=.=.=.-.=.=.=.=.=.=.=.=.=.=.=.=.=.&.../ s s s f f d f f f f f f f ",
"f f f f 5 d f f f 8 9.j.uXfXfXfXfXfXc.j M B m B B M j 3XfXc.:.5 f f f s f s ' @.-.&.=.=.=.=.=.=.=.-.=.=.=.=.=.=.=.=.=.=.=.=.=.=.&. .0 f s f f f s s f f f f f s ",
"f f f f f s f 5 f f y k.0XfXfXfXdXfXc.8.M B B B B M 8.3XK.<.7 f s f f d 1 s _ X.=.=.&.=.=.=.=.=.=.-.=.=.=.=.=.=.=.=.=.=.=.=.=.=.+.| e f s s f f f s f f f f f f ",
"f f f f f f 5 f s f f r 4.c.iXfXfXfX8X3.N M B B M N 9.j.:.6 f f f f f f f f w Y &.=.&.&.=.=.=.=.-.=.-.=.=.=.=.=.&.=.-.=.=.=.=.=.o.' 3 f f f f f f f f f f f f f ",
"f f f f 5 f f f f f s s u :.h.D.uXdXdXk.8.A m N Z a.d.x 5 s f f f f f f f f 1 ' X.=.=.=.=.&.&.=.=.=.=.=.=.=.=.=.=.=.&.=.=.#.=.+...0 f f 5 f s f f f f f f f f f ",
"f f f f f f f f f s s s s s y :.6.k.4Xx.d.j.a.k.4.q.8 5 f 5 f f f f f f f s f e  .+.-.=.=.=.=.=.=.=.=.=.=.=.*.$.$.=.=.=.=.=.+...' f f f s f f f f f f f s s f f ",
"f g f f 5 f f s f f s s < s s s u y a :.q.q.a y 6 f s s f f f f f f f f s s 5 f _  .@.=.=.=.=.=.=.=.=.=.=.*.$.L.T.#.=.=.=.+.U ^ 3 f f i.s.6 f f f f f f d f f f ",
"f f f f f f f f f s s s s s s s s g s s s s s s s s f f f f f f f f f f s f f 1 f _  .O.=.-.=.&.&.=.=.=.=.*.$.T.*X*.&.+...L %.e.6 f S..XqXS.f f f f f f f f f f ",
"f f f f f f f f f s s f f s s s s s s s s s s s s s f f f f f f f f f f f f f f f f ( I  .+.&.=.=.-.=.-.=.-.$.T.*X%.] | ^ 0 v rXp s &X8 l.S.f f f f f f f f f f ",
"f f f f f f f s f f f f f f f f s s s s s s s f s s f f f f f f f f f f f f f s f s s w ) } ^ X.O.O.+.O.O.O. .Y.rX%.^ / 4 s f l.2Xi.XX.XXXg f 9 f f f f f f f f ",
"f g f f s s f f s f f f f f f f s s s s f f f s s s f f f f f s f f f f f f d s s s s d p >X` _ ' L L I I I K f.rX` 3 s s f f f s.tX2XtXD.z D.*X6 f f s f f f f ",
"f f f f f f f f s s f f f f f f s g s f f f f f f f f s f f f f f f f f f f f f f f 5 s p tXb d 6 3 4 4 4 3 1 z tXp s s s f f f s p b S.rXtX2Xi.5 s s s f f f f ",
"f f f f f f f f d f f f f f f f s s s s f f f f f f f s f f f f f f f f f f f f , - ; , 9 rXe.s s f f 1 5 f f z yXv s s f f f f f f f f v e.g s f f f d f f f f ",
"f f f f f f f f f f f f f s f f s s g s f f f f f f d s f f f f f f d f f f f 1 o     . X + * s s 1 5 $ o o @ # = 8 f f f f f f f f f f f f f 5 f f f f f f f f ",
"f f f f f s f f f f f f f f f f s s s s f f f f f f f f f f f f f s s f f f f 1 X           @ s 1 f 1             O f 1 f f f s f f f f 5 f f f f f f f f f s f ",
"g f f f s f f f s s f f f f f f f f f f s f f f f f s f f f f f f f f f f f f f , % $ - - : s d f s f $ X o O # $ : 5 5 f f f s f f f f f f f f f f f f s f f f ",
"f f f f f f s f f f f s f f f f d f f f f f f f f f f f f f f f f f f f s d f f 5 f f f f s s f f f f f s s f f s s f 1 f f f d f f f f f f f f f f f f s d f f ",
"f f f f f s f f f f f s f f f f s s f f f f f f f f f f s s f f f f f s s f f f d s f f f f f f f f f f f d f f f f f f s f f f f f f f f f s d f f f f f f f f ",
"g f f f f f f f s s f f f f f s f f f f f f f f f f f f f d f f f f f f f f s f s s f f f f f f f f f f f f f f f f f f f f f f f f f f s f s s d f f f f f f f ",
"s f s f f f s f f f s s s f f f f f f f f f f f f f f f f f f f f f f f f s f f f f f f f f f f f f f f f f f f f f f f f f f f f f f f f f 5 s s s f f f f f f ",
"f f s s f f f f f s s s f f f f f s f f f f f f f f f f f f f s f f f f f f f f f f f f f f f s f f f f f f f f s 5 f f f f f f f f s f f f f f f s f f f f f f ",
"f f g s f f f f f f s s f f f f f f f f s s s f f f f f f f f f s f s 5 f f f f f f f f f f f f f f f f f f f f s s f f f f f f f f f f f f f f f f f f f f f f ",
"f f s s f f f f s f g s f f f f f f f f d f f f f f f f f f f f s d s f f f f f f f f f f f f f f f f f f f f f d s f s f f f f f f f f f f f f f f f f f f s f "
};
