/* XPM */
static char *result[] = {
/* columns rows colors chars-per-pixel */
"80 80 178 2 ",
"   c #DB8C69",
".  c #E18E69",
"X  c #EC9166",
"o  c #E4926A",
"O  c #EB956A",
"+  c #ED996F",
"@  c #F29567",
"#  c #F79867",
"$  c #F19769",
"%  c #F59A6B",
"&  c #FA9F6F",
"*  c #E39A75",
"=  c #EC9C73",
"-  c #E29E7C",
";  c #EA9F79",
":  c #E5A27D",
">  c #EDA57A",
",  c #F9A070",
"<  c #F3A479",
"1  c #4D9CC1",
"2  c #54A6CC",
"3  c #4CAAD7",
"4  c #4DADDA",
"5  c #53ADD8",
"6  c #4FB0DE",
"7  c #52B0DD",
"8  c #79AECA",
"9  c #79B2CE",
"0  c #6CB3D5",
"q  c #64B6DE",
"w  c #72B3D4",
"e  c #4DB4E5",
"r  c #4DB7E9",
"t  c #4DBAED",
"y  c #51B4E3",
"u  c #57B9E7",
"i  c #5CB9E5",
"p  c #54BDED",
"a  c #5CBFEB",
"s  c #4BBDF3",
"d  c #61BFE6",
"f  c #7DC4DB",
"g  c #65C0E6",
"h  c #6DC2E5",
"j  c #64C1E9",
"k  c #74C5E3",
"l  c #79C5E7",
"z  c #7CC6ED",
"x  c #7FC8EE",
"c  c #B99E93",
"v  c #ABA29E",
"b  c #BBA89D",
"n  c #9CA1A4",
"m  c #8DABBA",
"M  c #9AABB4",
"N  c #B5A8A2",
"B  c #CEA48C",
"V  c #D7A287",
"C  c #C5A291",
"Z  c #CDA690",
"A  c #ECAB82",
"S  c #EDB288",
"D  c #EEBA8F",
"F  c #E8B690",
"G  c #F0C298",
"H  c #EEDD9E",
"J  c #F1DE96",
"K  c #F1DF9D",
"L  c #FCE593",
"P  c #F8E396",
"I  c #F5E29B",
"U  c #F3CDA2",
"Y  c #EEDFAA",
"T  c #F3D3A8",
"R  c #F6DAAE",
"E  c #F7DFB2",
"W  c #F3E2A5",
"Q  c #ECE6BF",
"!  c #F2E3B6",
"~  c #FAE5B6",
"^  c #FDE9B7",
"/  c #F4E4BB",
"(  c #F9E5BA",
")  c #F7E8BF",
"_  c #FEECBC",
"`  c #FDF0BF",
"'  c #82ADC2",
"]  c #83B1C7",
"[  c #96BBC6",
"{  c #C8B8D8",
"}  c #DFBCD5",
"|  c #E4B6D3",
" . c #F5BCD5",
".. c #85C9DC",
"X. c #8BCCDB",
"o. c #9BCDD2",
"O. c #92CDD9",
"+. c #A5CFCF",
"@. c #AFD4CF",
"#. c #B8D6CF",
"$. c #BCDACE",
"%. c #A3CFD0",
"&. c #AAD5D3",
"*. c #86C8E6",
"=. c #86C7EE",
"-. c #82C9EE",
";. c #8ACCEF",
":. c #90CFEF",
">. c #87CBF0",
",. c #8DCEF0",
"<. c #91CFF1",
"1. c #95D1F1",
"2. c #9BD3F2",
"3. c #B4D1EC",
"4. c #A2D7F3",
"5. c #A5D8F3",
"6. c #ACDBF4",
"7. c #B3DEF5",
"8. c #B7E0F5",
"9. c #BCE2F6",
"0. c #BEE3F9",
"q. c #C3DAC7",
"w. c #CDDCC6",
"e. c #C5DBCA",
"r. c #CCDCCA",
"t. c #D3DEC4",
"y. c #E9CBDF",
"u. c #F8CFDF",
"i. c #D9E1C5",
"p. c #E3E3C3",
"a. c #E3E8C6",
"s. c #ECECC4",
"d. c #E6E6CC",
"f. c #EBE7C9",
"g. c #EDE8C8",
"h. c #F9E6C0",
"j. c #F5EAC4",
"k. c #FCECC4",
"l. c #F1E9C8",
"z. c #FDEFC8",
"x. c #EEF1C7",
"c. c #F6F2C4",
"v. c #FDF3C2",
"b. c #FEF8C7",
"n. c #F1F3C8",
"m. c #FEF1CA",
"M. c #FCF8CC",
"N. c #FEF2D4",
"B. c #FDF5DA",
"V. c #D5DBF0",
"C. c #C4E5F7",
"Z. c #CAE7F5",
"A. c #CBE8F6",
"S. c #C4E6F9",
"D. c #CEEAF9",
"F. c #D2EAF6",
"G. c #DCEEF7",
"H. c #D2EBF9",
"J. c #DBEEF9",
"K. c #DEF1FC",
"L. c #E9E1EC",
"P. c #F9E4ED",
"I. c #E5F1EF",
"U. c #ECF4ED",
"Y. c #F3F3E3",
"T. c #FDF6E2",
"R. c #FEF8E3",
"E. c #F4F6EC",
"W. c #FBF9EC",
"Q. c #E5F3F5",
"!. c #EBF5F5",
"~. c #E3F2FA",
"^. c #EAF5FC",
"/. c #F1F7F2",
"(. c #F4F9F4",
"). c #FCFBF4",
"_. c #F5FAFB",
"`. c #FAFBF9",
/* pixels */
"s s s s s s s s s s s s s s s s s s s s s s s s s s s s s s s s s s s s s s s s s s s s s s s s s s s s s s s s s s s s s s s s s s s s s s s s s s s s s s s s ",
"s s s s s s s s s s s s s s s s s s s s s s s s s s s s s s s s s s s s s s s s s s s s s s s s s s s s s s s s s s s s s s s s s s s s s s s s s s s s s s s s ",
"s s s s s s s s s s s s s s s s s s s s s s s s s s s s s s s s s s s s s s s s s s s s s s s s s s s s s s s s s s s s s s s s s s s s s s s s s s s s s s s s ",
"s s s s s s s s s s s s s s s s s s s s s s s s s s s s s s s s s s s s s s s s s s s s s s s s s s s s s s s s s s s s s s s s s s s s s s s s s s s s s s s s ",
"s s s s s s s s s s s s s s s s s s s s s s s s s s s s s s s s s s s s s s s s s s s s s s s s s s s s s s s s s s s s s s s s s s s s s s s s s s s s s s s s ",
"s s s s s s s s s s s s s s s s s s s s s s s s s s s s s s s s s s s s s e s s s s s s s s s s s s s s s s s s s s s s s s s s s s s s s s s s s s s s s s s s ",
"s s s s s s s s s s s s s s s s s s s s s s s s s s s s s s s s s s s s s y s s s s s s s s s s s s s s s s s s s s s s s s s s s s s s s s s s s s s s s s s s ",
"s s s s s s s s s s s s s s s s s s s s s s s s s s s s s s s s s s s s s i s s s s s s s s s s s s s s s s r s s s s s s s s s s s s s s s s s s s s s s s s s ",
"s s s s s s s s s s s s s s s s s s s s s s s s s s s s s s s s s s s s s a s e e s s s s s s s s s s s s s s s s s s s s s s s s s s s s s s s s s s s s s s s ",
"s s s s s s s s s s s s t s s s s s s s s s s s s s s s s s s s s r p r e 2 7 3 r s s s s s s s s s s s s s s s s s s s s s s s s s s s s s s s s s s s s s s s ",
"s s s s s s s s s s s s s s s s s s s s s s s s s s s s s s s s s t r t r 4 s s s s s s s s s s s s s s s s s s s s s s s s s s s s s s s s s s s s s s s s s s ",
"s s s s s s s s s s s s s s s s s s s s s s s s s s s s s s s s s s s s r 7 t e s t s s s s s s s s s s s s s s s s s s s s s s s s s s s s s s s s s s s s s s ",
"s s s s s s r s s s t s s s s s s s s s s s s s s s s s s s s s s r 3 4 4 1 e e r s s s s s s s s s s s s s s s s s s s s s s s s s s s s s s s s s s s s s s s ",
"s s s s s s s s s s s s s s s s s s s s s s s s s s s s s s s s s s s s r r s s s s s s s s s s s s s s s s s s s s s s s s s s s s s s s s s s s s s s s s s s ",
"s s s s s s s s s s s s s s s s s s s s s s s s s s s s s s s s s s s t y 6 r s s s s s s s s s s s s s s s s s s s s s s s s s s s s s s s s s s s s s s s s s ",
"s s s s s s s s s s s s s s s s s s s s s s s s s s s s s s s s s s t 4 5 3 6 s s s s s s s s s s s s s s s s s s s s s s s s s s s s s s s s s s s s s s s s s ",
"s s s s s s s s s s s s s s s s s s s s s s s s s s s s s s s s s s t s r t s s s s s s s s s s s s s s s s s s s s s s s s s s s s s s s s s s s s s s s s s s ",
"s s s s s s s s s s s s s s s s s s s s s s s s s s s s s s s s s p M N v n m 9 q u t s s s s s s s s s s s s s s s s s s s s s s s s s s s s s s s s s s s s s ",
"s s s s s s s s s s s s s s s s s s s s s s s s s s s s s s s s t b + O o . , < - - B [ s s s s s s s s s s s s s s s s s s s s s s s s s s s s s s s s s s s s ",
"s s s s s s s s s s s s s s s s s s s s s s s s s s s s s s s 0 B + o O   o O o O O D n.*.s s s s s s s s s s s s s s s s s s s s s s s s s s s s s s s s s s s ",
"s s s s s s s s s s s s s s s s s s s s s s s s s s s s s s w V + O $ O $ O O $ O D ( ` x...s s s s s s s s s s s s s s s s s s s s s s s s s s s s s s s s s s ",
"s s s s s s s s s s s s s s s s s s s s s s s s s s s s s 8 & O o o o $ o   o O : ^ _ _ _ c...s s s s s s s s s s s s s s s s s s s s s s s s s s s s s s s s s ",
"s s s s s s s s s s s s s s s s s s s s s s s s s s s s ] ; O O $ O O O O $ $ S ^ _ _ _ _ _ x.O.s s s s s s s s s s s s s s s s s s s s s s s s s s s s s s s s ",
"s s s s s s s s s s s s s s s s s s s s s s s s s s s 8 ; O . % O o # O O O > ( ^ _ _ _ _ _ _ M...s s s s s s s s s s s s s s s s s s s s s s s s s s s s s s s ",
"s s s s s s s s s s s s s s s s s s s s s s s s s s 0 * O o $ o o O o . O : ( ^ _ _ _ _ _ _ _ _ x.l s s s s s s s s s s s s s s s s s s s s s s s s s s s s s s ",
"s s s s s s s s s s s s s s s s s s s s s s s t s r B % O O $ O # O O $ < ^ ^ ^ _ _ _ _ _ _ _ _ ` a.d s s s t s s s s s s s s s s s s s s s s s s s s s s s s s ",
"s s s s s s s s s s s s s s s s s s s s s s t s s c &   O O   O . . $ + ~ ^ ` ^ _ _ _ _ _ _ k._ ^ ` i.p s s s s s s s s s s s s s s s s s s s s s s s s s s s s ",
"s s s s s s s s s s s s s s s s s s s s s s s p M & o $ $ O $ O O $ > ! _ _ _ _ _ _ _ _ _ _ ^ ` ` ^ c.&.p s s s s s s s s s s s s s s s s s s s s s s s s s s s ",
"s s s s s s s s s s s s s s s s s s s s s s s 9 = $ . O o O o O @ < E _ _ ^ _ _ _ _ _ _ _ _ _ _ ^ _ _ c.o.s s s s s s s s s s s s s s s s s s s s s s s s s s s ",
"s s s s s s s s s s s s s s s s s s s s s s i : + . $ O . O . O o T _ _ _ _ _ _ _ _ _ _ _ _ ` _ ` _ _ _ v.X.s s s s s s s s s s s s s s s s s s s s s s s s s s ",
"s s s s s s s s s s s s s s s s s s s s s a Z % O % $ O $ O # $ U ` _ _ _ _ _ _ _ _ _ _ _ _ _ _ _ _ _ _ _ s.f s s s s s s s s s s s s s s s s s s s s s s s s s ",
"s s s s s s s s s s s s s s s s s s s s s M , o . O O o   $ O A ^ _ _ _ _ ` _ _ v._ _ _ _ _ _ _ _ _ _ _ _ _ i.s s s s s s s s s s s s s s s s s s s s s s s s s ",
"s s s s s s s s s s s s s s s s s s s s ' < O O O o X O $ $ + R ^ _ _ _ _ _ _ _ _ _ _ _ _ _ _ _ _ _ _ _ _ _ c.e.p s s s s s s s s s s s s s s s s s s s s s s s ",
"s s s s s s s s s s s s s s s s s s s 0 < O O $ O $ O @ # O T _ _ _ _ _ _ _ _ _ _ _ _ _ _ k._ ` _ _ _ _ _ ` _ c.X.s s s s s s s s s s s s s s s s s s s s s s s ",
"s s s s s s s s s s s s s s s s s s u C O o O . O O o O O G _ _ _ _ _ _ _ _ _ _ _ _ _ _ _ ` ^ _ _ _ _ _ _ _ _ _ a.a s s s s s s s s s s s s s s s s s s s s s s ",
"s s s s s s s s s s s s s s s s s s M = o $ O O @ o @ O S ~ ^ _ _ _ _ _ _ _ ` _ _ _ _ _ _ _ _ _ _ ` _ _ _ _ _ _ _ q.t s s s s s s s s s s s s s s s s s s s s s ",
"s s s s s s s s s s s s s s s s s q % O % $ O # O # # = ( _ _ _ _ _ _ _ _ _ _ _ _ _ _ _ _ _ _ _ _ _ _ _ _ _ _ _ ^ b.%.s s s s s s s s s s s s s s s s s s s s s ",
"s s s s s s s s s s s s s s s s u C = o O o O O O O + R _ _ _ _ _ _ _ _ _ _ _ _ _ _ _ v._ _ _ _ _ _ ` _ _ _ _ _ _ _ s.X.s s s s s s s s s s s s s s s s s s s s ",
"s s s s s s s s s s s s s s s s M % O % o + % o O O G _ ^ _ _ _ _ _ _ _ _ _ k.^ _ _ _ _ _ ` _ _ _ _ _ _ _ _ _ ` _ _ _ n.f s s s s s s s s s s s s s s s s s s s ",
"s s s s s s s s s s s s s s s a F : : = * % + + # S _ _ _ _ _ _ _ ` _ ` _ _ _ ` _ _ _ _ _ _ _ _ _ _ _ _ _ _ k.^ _ _ _ ^ n.h s s s s s s s s s s s s s s s s s s ",
"s s s s s s s s s s s s s s s j k.j.j.h.h.( E h./ ~ _ _ _ ^ _ _ ^ ^ ^ ^ _ _ _ _ _ _ _ _ _ _ _ _ ^ _ _ ^ _ ^ _ _ _ _ _ _ _ $.t s s s s s s s s s s s s s s s s s ",
"s s s s s s s s s s s s s s s k M.z.N.z.z.k.z.z.k./ _ _ _ _ k.B.B.B.B.B.N.k.^ _ _ _ _ ^ _ _ _ _ ^ ^ _ ^ _ ^ _ _ _ _ _ _ ) s.p s s s s s s s s s s s s s s s s s ",
"s s s s s s s s s s s s s s s ..N.v.(.J._.Q.W.z.j._ _ _ _ _ m.J.7.7.H.A.9.H.!.N._ _ _ _ _ _ _ ^ T.U.U.U.E.Y.Y.N.N._ _ _ _ s.p s s s s s s s s s s s s s s s s s ",
"s s s s s s s s s s s s s s s o.N.m.!.1.^.1.^.z.z.( _ _ _ ( m.0.x >.8.2.x -.7.N._ _ _ _ _ _ _ ^ Y.2.1.;.9.9.2.5.J.k._ _ _ x.p s s s s s s s s s s s s s s s s s ",
"s s s s s s s s s s s s s s s +.N.z.!.2.G.<./.z.k.( _ ^ _ _ z.C.>.>.9.2.-.x 6.N._ ^ _ _ _ _ _ ^ Y.1.>.>.7.6.-.x Z._ _ _ _ s.a s s s s s s s s s s s s s s s s s ",
"s s s s s s s s s s s s s s s #.M.z.Q.2.F.;.!.z.z.( _ _ _ _ m.S.x x 9.1.z x 6.B.^ _ _ _ _ _ _ ^ Y.1.z z 6.6.-.x Z.k._ _ _ ) j s s s s s s s s s s s s s s s s s ",
"s s s s s s s s s s s s s s s e.N.m._.H.^.C.(.z.j._ ( _ _ _ z.^.D.D.~.S.5.2.9.N.^ _ _ _ _ _ _ ^ Y.C.8.6.C.8.1.2.D.` _ _ _ _ k s s s s s s s s s s s s s s s s s ",
"s s s s s s s s s s s s s s s r.M.m.Q.7.F.4.(.z.j.~ _ _ _ _ k.F.;.<.A.7.6.6.A.N.^ v._ _ _ ` _ _ Y.8.6.6.D.F.8.7.Q.k._ _ _ v...s s s s s s s s s s s s s s s s s ",
"s s s s s s s s s s s s s s s d.N.m.~.4.A.<./.z.j.~ ^ _ _ _ j.F.-.-.S.2.-.-.7.N.^ _ ` ^ _ _ ^ ^ Y.1.-.x 7.6.>.-.Z.k._ _ _ v.o.s s s s s s s s s s s s s s s s s ",
"s s s s s s s s s s s s s s s d.m.m.~.4.A.1./.m.j.^ _ _ _ _ _ F.-.>.C.1.-.-.7.N._ _ _ k._ _ _ ^ Y.2.-.>.7.6.-.-.Z.k._ _ _ c.#.s s s s s s s s s s s s s s s s s ",
"s s s s s s s s s s s s s s s n.m.m.^.7.H.1./.k.j._ _ _ _ _ _ K.5.2.H.2.;.-.C.z._ _ _ _ _ _ _ _ Y.2.-.z 6.6.-.-.Z.k._ _ _ c.t.s s s s s s s s s s s s s s s s s ",
"s s s s s s s s s s s s s s p l.m.m.R.).`._.).m.j._ _ _ _ _ k.T.R.).).`.`._.`.z._ _ _ _ _ _ ^ _ T.^.D.A.K.~.S.7.Q._ _ _ _ _ p.s s s s s s s s s s s s s s s s s ",
"s s s s s s s s s s s s s s p l.m.m.k.k.k.N.N.k._ _ _ ^ _ _ _ _ _ _ _ _ k.v._ _ _ _ _ _ _ _ _ _ k.k.m.N.m.M.N.B.T._ _ _ _ k.Q p s s s s s s s s s s s s s s s s ",
"s s s s s s s s s s s s s s a k.m.z.m.m.m.m.k.z.) _ _ _ _ _ _ _ _ _ _ _ _ _ _ _ _ _ _ _ _ _ _ _ _ _ _ _ _ _ _ _ _ _ _ _ _ ^ _ a s s s s t s s s s s s s s s s s ",
"s s s s s s s s s s s s s s a m.m.m.m.m.m.m.k.m.) _ _ _ _ _ _ _ _ _ _ _ _ _ _ _ _ ` _ _ _ _ _ _ _ _ _ _ _ _ _ _ _ _ _ _ _ ^ v.g s s s s t s s s s s s s s s s s ",
"s s s s s s s s s s s s s s d M.m.k.m.m.k.m.z.m.) _ _ _ _ _ _ _ _ _ _ _ _ _ _ _ _ _ _ _ v._ _ _ _ _ _ _ _ _ _ _ _ _ _ _ _ _ b.h s s s s s s s s s s s s s s s s ",
"s s s s s s s s s s s s s s i m.m.m.m.m.z.m.m.k.j._ _ _ k._ _ _ _ _ _ _ _ _ v._ _ k._ _ _ _ _ _ _ ` _ _ _ _ _ ` _ _ _ _ _ ^ b.k s s s s s s s s s s s s s s s s ",
"s s s s s s s s s s s s s s j m.k.m.z.m.k.m.m.k.j._ _ _ _ _ _ _ _ _ _ _ _ _ _ _ _ _ _ _ _ _ _ _ _ _ _ _ _ _ _ ^ _ _ _ _ _ k.b.k s s s s s s s t s s s s s s s s ",
"s s s s s s s s s s s s s s d M.z.m.k.m.m.m.k.m._ _ _ _ _ _ _ _ _ _ _ _ _ _ _ _ _ _ _ _ _ _ _ _ _ _ _ _ ` _ _ k._ _ _ _ _ _ b.k s s s s s s s s s s s s s s s s ",
"s s s s s s s s s s s s s s d m.m.m.m.m.m.m.m.k.) _ _ ^ ` _ _ _ _ _ k.^ _ _ _ _ _ _ _ _ _ _ _ _ _ _ _ _ _ _ _ _ _ _ _ _ _ _ v.g s s s s s s s s s s s s s s s s ",
"s s s s s s s s s s s s s s d z.m.m.k.m.m.m.z.m.) _ _ _ _ _ _ ^ _ _ _ _ _ _ _ _ _ _ _ _ _ _ _ _ _ _ _ _ _ _ _ _ _ ` _ _ _ _ v.j s s s s s s s s s s s s s s s s ",
"s s s s s s s s s s s s s s d z.m.k.m.m.k.m.z.k.) _ _ _ _ _ _ _ ^ _ _ _ _ _ _ _ _ _ _ _ _ _ _ _ _ _ ` _ _ _ _ _ _ _ _ _ _ _ _ a s s s s s s s s s s s s s s s s ",
"s s s s s s s s s s s s s s a k.m.m.m.z.m.m.z.z.h.^ _ _ _ _ _ N.B.N.N.m.m.m.m.m._ _ _ _ _ _ _ _ _ _ _ _ _ _ ^ _ ^ _ _ _ ` ^ Q p s s s s s s s s s s s s s s s s ",
"s s s s s s s s s s s s s s p k.m.m.k.z.m.k.z.z.h._ _ _ _ _ ( U.6.5.C.J.7.9.Z.E.^ _ _ _ _ _ ^ N.W.E.W.R.R.B.N.m.k._ _ _ _ ` Q t s s s s s s s s s s s s s s s s ",
"s s s s s s s s s s s s s s a k.m.m.z.z.m.m.k.m.) _ _ _ _ _ ( I.-.-.4.9.l -.;.U.^ _ _ _ _ _ ^ N.S.;.<.8.9.6.S.~.B._ _ ^ ` ` p.s s s s s s s s s s s s s s s s s ",
"s s s s s s s s s s s s s s p l.m.z.Y W W Y / m._ ^ _ _ _ _ _ I.;.-.5.9.x ;.,.U.^ _ _ _ ` _ ^ B.S.-.-.5.5.x z 0.N._ ) ^ _ ` i.s s s s s s s s s s s s s s s s s ",
"s s s s s s s s s s s s s s a l.m.m.W L L L ! m.j._ _ _ _ _ ^ I.z z 2.9.z x >.!.^ _ _ _ ^ _ ^ B.0.x -.5.6.x x 8.N._ _ _ _ ` i.s s s s s s s s s s s s s s s s s ",
"s s s s s s s s s s s s s s p z.z.z.W L L P ! m.) _ _ _ _ _ _ U.C.9.A.K.7.8.7.E._ _ _ _ ` ^ ` N.H.5.2.8.8.<.<.0.B._ _ _ _ v.w.s s s s s s s s s s s s s s s s s ",
"s s s s s s s s s s s s s s p l.m.m.W L L L ! m.j._ _ _ _ _ _ I.>.1.6.D.:.2.5./.^ _ _ _ _ _ ^ B.H.6.6.C.Z.6.7.H.B._ _ _ ^ ` w.s s s s s s s s s s s s s s s s s ",
"s s s s s s s s s s s s s s p z.m.m.W L L L ! m.j._ _ _ _ _ ^ I.>.>.1.H.-.;.:.E.^ _ _ _ ^ ` ^ B.0.=.-.3.6.z z 6.B._ _ _ _ c.e.s s s s s s s s s s s s s s s s s ",
"s s s s s s s s s s s s s s p l.m.m.W L L L ! m._ _ _ _ _ _ _ I.>.x >.J.-.-.,.U.^ _ _ _ _ ` _ B.V.| } y.6.x x 8.B._ _ _ _ v.w.s s s s s s s s s s s s s s s s s ",
"s s s s s s s s s s s s s s p z.m.z.Y L L L ! m.) _ _ _ _ ^ ~ E.8.6.8.^.6.5.7.E.^ _ _ _ _ _ ^ B.7.{  .u.4.x x 6.B.^ _ _ _ v.e.s s s s s s s s s s s s s s s s s ",
"s s s s s s s s s s s s s s p n.m.k.H L L P ! m.h._ _ _ _ _ _ z.B.B.B.R.R.R.R.N.^ _ _ _ _ _ ^ R.!.L.u.P.A.6.6.C.B._ _ _ _ ` e.s s s s s s s s s s s s s s s s s ",
"s s s s s s s s s s s s s s p l.m.z.J L L P ! m.) _ _ _ _ _ _ _ _ _ _ _ _ ^ _ ^ _ _ _ _ _ _ _ k.k.z.N.N.N.N.N.B.z._ _ _ _ c.e.s s s s s s s s s s s s s s s s s ",
"s s s s s s s s s s s s s s p l.m.z.H L L P ! m.) _ _ _ _ _ _ _ _ _ _ _ _ _ _ _ _ _ ` _ _ _ _ _ _ _ _ _ _ ^ ^ _ _ _ _ _ _ ` $.s s s s s s s s s s s s s s s s s ",
"s s s s s s s s s s s s s s p g.m.z.I L L P / m.) _ _ _ _ _ _ _ _ _ _ _ _ _ ` _ _ _ _ _ _ _ _ _ _ _ _ _ _ _ ` ^ _ _ _ _ _ ` $.s s s s s s s s s s s s s s s s s ",
"s s s s s s s s s s s s s s p g.m.k.K L L P k.m.j._ _ _ _ _ _ _ _ _ _ _ _ _ _ _ _ ` _ _ _ _ _ _ _ _ _ _ _ _ _ ` _ _ _ _ _ b.@.s s s s s s s s s s s s s s s s s ",
"s s s s s s s s s s s s s s s g.M.l.I L L P j.m.) _ _ _ _ _ _ _ _ _ _ _ _ _ ` _ _ _ _ _ _ _ _ _ _ _ ^ _ _ _ _ _ _ _ _ _ _ v.+.s s s s s s s s s s s s s s s s s ",
"s s s s s s s s s s s s s s s f.z.n.H L L P j.z./ ^ _ _ _ ^ _ k._ _ _ _ _ _ _ _ _ _ _ _ _ _ _ _ _ _ _ _ _ _ k._ _ _ _ _ _ v.O.s s s s s s s s s s s s s s s s s ",
"s s s s s s s s s s s s s s s f.m.z.I L L P k.m./ _ _ _ _ k._ ^ v._ _ _ _ _ _ _ _ _ _ _ _ _ _ k._ _ _ _ _ _ _ _ _ _ _ _ _ _ k s s s s s s s s s s s s s s s s s "
};
