/* XPM */
static char *_c550ce8849d48a8fe7100823413f531R3lQQc8CHWx6u632[] = {
/* columns rows colors chars-per-pixel */
"80 80 83 1 ",
"  c #7C7655",
". c #767A54",
"X c #7A7955",
"o c #7C7659",
"O c #757958",
"+ c #7D7C5A",
"@ c #817356",
"# c #817558",
"$ c #827C5A",
"% c #3DAE39",
"& c #4AAF37",
"* c #42B13B",
"= c #4DB23A",
"- c #51B230",
"; c #52B63F",
": c #5CBD3B",
"> c #62BE3F",
", c #6F884E",
"< c #6B944E",
"1 c #679E4B",
"2 c #6A9C4E",
"3 c #6F8D52",
"4 c #748553",
"5 c #738952",
"6 c #6D9650",
"7 c #709050",
"8 c #45B541",
"9 c #4CB942",
"0 c #4EBE4A",
"q c #5FB647",
"w c #56BB43",
"e c #5BBE45",
"r c #53BF4C",
"t c #5DBE49",
"y c #66A44C",
"u c #68A54D",
"i c #65AB4C",
"p c #64BE46",
"a c #63B34C",
"s c #64BE4A",
"d c #5EC246",
"f c #55C24D",
"g c #5EC14B",
"h c #57C451",
"j c #5CC351",
"k c #5ECA57",
"l c #64C241",
"z c #61C245",
"x c #61C146",
"c c #64C346",
"v c #60C446",
"b c #66C547",
"n c #69C642",
"m c #69C146",
"M c #6FCA45",
"N c #6EC946",
"B c #60C24B",
"V c #64C049",
"C c #64C349",
"Z c #67C248",
"A c #60C54A",
"S c #60C34C",
"D c #61C44D",
"F c #63C44C",
"G c #60C64D",
"H c #65C54D",
"J c #64C84A",
"K c #6DC84E",
"L c #74CE4B",
"P c #60C351",
"I c #64C351",
"U c #65C750",
"Y c #65C752",
"T c #69CB54",
"R c #6DCF58",
"E c #71D35C",
"W c #7CD85C",
"Q c #7DD95D",
"! c #72C662",
"~ c #85825B",
"^ c #8CE262",
"/ c #93EA68",
"( c #96D18E",
/* pixels */
"BBBBBBBBBBBBBBBBBBBBBBBBBBBBBBBBBBBBBBBBBBBBBBBBBBBBBBBBBBBBBBBBBBBBBBBBBBBBBBBB",
"BBBBBBBBBBBBBBBBBBBBBBBBBBBBBBBBBBBBBBBBBBBBBBBBBBBBBBBBBBBBBBBBBBBBBBBBBBBBBBBB",
"BBBBBBBBBBBBBBBBBBBBBBBBBBBBBBBBBBBBBBBBBBBBBBBBBBBBBBBBBBBBBBBBBBBBBBBBBBBBBBBB",
"BBBBBBBBBBBBBBBBBBBBBBBBBBBBBBBBBBBBBBBBBBBBBBBBBBBBBBBBBBBBBBBBBBBBBBBBBBBBBBBB",
"BBBBBBBBBBBBBBBBBBBBBBBBBBBBBBBBBBBBBBBBBBBBBBBBBBBBBBBBBBBBBBBBBBBBBBBBBBBBBBBB",
"BBBBBBBBBBBBBBBBBBBBBBBBBBBBBBBBBBBBBBBBBgBBBBBBBBBBBBBBBBBBBBBBBBBBBBBBBBBBBBBB",
"BBBBBBBBBBBBBBBBBBBBBBBBBBBBBBBBBBAggggtttBBBBBBBBBBBBBBBBBBBBBBBBBBBBBBBBBBBBBB",
"BBBBBBBBBBBBBBBBBBBBBBBBBBBBBBBBBBgggtgggggBBBBBBBBBBBBBBBBBBBBBBBBBBBBBBBBBBBBB",
"BBBBBBBBBBBBBBBBBBBBBBBBBBBBBBBBBBBBgtggDggBBBBBBBBBBBBBBBBBBBBBBBBBBBBBBBBBBBBB",
"BBBBBBBBBBBBBBBBBBBBBBBBBBBBBBBBBBgSgdgggDBBBBBBBBBBBBBBBBBBBBBBBBBBBBBBBBBBBBBB",
"BBBBBBBBBBBBBBBBBBBBBBBBBBBBBBBBBBggggteegBBBBBBBBBBBBBBBBBBBBBBBBBBBBBBBBBBBBBB",
"BBBBBBBBBBBBBBBBBBBBBBBBBBBBBBBBBBgggBtw;eBBBBBBBBBBBBBBBBBBBBBBBBBBBBBBBBBBBBBB",
"BBBBBBBBBBBBBBBBBBBBBBBBBBBBBBBBBBgggggwwwBBBBBBBBBBBBBBBBBBggBggBBtBBBBBBBBBBBB",
"BBBBBBBBBBBBBBBBBBBBBBBBBBBBBBBBBBgggggBBggBBBBBBBBBBBBBBBBBBBBtdBBBgBBBBBBBBBBB",
"BBBBBBBBBBBBBBBBBBBBBBBBBBBBBBBBBBgBBAggggBBBBBBBBBBBBBBBBBBHBtxttSDBBBBBBBBBBBB",
"BBBBBBBBBBBBBBBBBBBBBBBBBBBBBBBBBBggggBgSggSBBBBBBBBBBBBBBBBgBBDBgHHBBBBBBBBBBBB",
"BBBBBBBBBBBBBBBBBBBBBBBBBBBBBBBBBBBggSgggBgBBBBBBBBBBBBBBBBBetBBtwtBeBBBBBBBBBBB",
"BBBBBBBBBBBBBBBBBBBBBBBBBBBBBBBBBBgSggSAggBBBBBBBBBBBBBBBBBBBgBBSHREHBBBBBBBBBBB",
"BBBBBBBBBBBBBBBBBBBBBBBBBBBBBBBBBBggSgggAggBBBBBBBBBBBBBBBBBBBBtBHTTSBBBBBBBBBBB",
"BBBBBBBBBBBBBBBBBBBBBBBBBBBBBBBBBBBgSggDSgBBBBBBBBBBBBBBBBBBBBDBBtBBtBBBBBBBBBBB",
"BBBBBBBBBBBBBBBBBBBBBBBBBBBBBBBBBBgSgSggggSBBBBBBBBBBBBBBBBBABBBtgdtBBBBBBBBBBBB",
"BBBBBBBBBBBBBBBBBBBBBBBBBBBBBBBBBBgggBBgBggBBBBBBBBBBBBBBBBBBBBBtBBBBBBBBBBBBBBB",
"BBBBBBBBBBBBBBBBBBBBBBBBBBBBBBBBBBBBBBBBBBBBBBBBBBBBBBBBBBBBBBBBBBBBBBBBBBBBBBBB",
"BBBBBBBBBBBBBBBBBBBBBBBBBBBBBBBBBBBBBBBBBBBBBBBBBBBBBBBBBBBBBBBBBBBBBBBBBBBBBBBB",
"BBBBBBBBBBBBBBBBBBBBBBBBBBBBBBBBBBBBBBBBBBBBBBBBBBBBBBBBBBBBBBBBBBBBBBBBBBBBBBBB",
"BBBBBBBBBBBBBBBBBBBBBBBBBBBBBBBBBBBBBBBBBBBBBBBBBBBBBBBBBBBBBBBBBBBBBBBBBBBBBBBB",
"BBBBBBBBBBBBBBBBBBBBBBBBBBBBBBBBBBBBBBBBBBBBBBBBBBBBBBBBBBBBBBBBBBBBBBBBBBBBBBBB",
"BBBBBBBBBBBBBBBBBBBBBBBBBBBBBBBBBBBBBBBBBBBBBBBBBBBBBBBBBBBBBBBBBBBBBBBBBBBBBBBB",
"BBBBBBBBBBBBBBBBBBBBBBBBBBBBBBBBBBBBBBBBBBBBBBBBBBBBBBBBBBBBBBBBBBBBBBBBBBBBBBBB",
"BBBBBBBBBBBBBBBBBBBBBBBBBBBBBBBBBBBBBBBBBBBBBBBBBBBBBBBBBBBBBBBBBBBBBBBBBBBBBBBB",
"BBBBBBBBBBBBBBBBBBBBBBBBBBBBBBBBBBBBBBBBBBBBBBBBBBBBtxgBBtggBBBBBBBBBBBBBBBBBBBB",
"BBBBBBBBBBBBBBBBBBBBBBBBBBBBBBBBBBBBBBBBBBBBBBBBBBBtgBDDHBgesBBBBBBBBBBBBBBBBBBB",
"BBBBBBBBBBBBBBBBBBBBBBBBBBBBBBBBBBBBBBBBBBBBBBBBBBBgsgDDDBBxBBBBBBBBBBBBBBBBBBBB",
"BBBBBBBBBBBBBBBBBBBBBBBBBBBBBBBBBBBBBBBBBBBBBBBBBBBBBdgBBttBBBBBBBBBBBBBBBBBBBBB",
"BBBBBBBBBBBBBBBBBBBBBBBBBBBBBBBBBBBBBBBBBBBSBBBBBBBggtdBBttggBBBBBBBBBBBBBBBBBBB",
"BBBBBBBBBBBBBBBBBBBBBBBBBBBBBBBBBBBBBBBBBBBgBBBBBBBBBBttdBBBBBBBBBBBBBBBBBBBBBBB",
"BBBBBBBBBBBBBBBBBBBBSBBBBBBBBBBBBBBBBBBBBBBgSSSSBBBBDBgttgADBBBBBBBBBBBBBBBBBBBB",
"BBBBBBBBBBBBBBBBBBBBggBBBBBBBBBBBBBBBBBBSSBsstgSgBBABsBsAVdDBBBBBBBBBBBBBBBBBBBB",
"BBBBBBBBBBBBBBBBBSBBSsgsgsBBBBBBBBBBBBBBsgjsStPgggDxppKWQb>VsBBBBBBBBBBBBBBBBBBB",
"BBBBBBBBBBBBBBBBBgsBSsSBSBBBBBBBBBBBBBBBSSSPsjjggdgxppN^/N>xxBBBBBBBBBBBBBBBBBBB",
"BBBBBBBBBBBBBBBBBBBBsSsBsSBBBBBBBBBBBBBBBBBBgjjjggdxbmnLMnlxxBBBBBBBBBBBBBBBBBBB",
"BBBBBBBBBBBBBBBBBBBBgSVBBBBBBBBBBBBBBBBBBBBBggPjggddxxe:-:xedABBBBBBBBBBBBBBBBBB",
"BBBBBBBBBBBBBBBBBBBBSSSssBBBBBBBBBBBBBBBBBgBggSAggddedJJxdAwBBBBBBBBBBBBBBBBBBBB",
"BBBBBBBBBBBBBBBBBBBBBsSSBBBBBBBBBBBBBBBBBAxdxpBBAgxgdddddtgYBBBBBBBBBBBBBBBBBBBB",
"BBBBBBBBBBBBBBBBBBBBBBBBBBBBBBBBBBBBBBBBBBAxvxxVVsDsdADHPjtIBBBBBBBBBBBBBBBBBBBB",
"BBBBBBBBBBBBBBBBBBBBBgBggBBBBBBBBBBBBBBBBBdxxxxBPssgAAdjPttIBBBBBBBBBBBBBBBBBBBB",
"BBBBBBBBBBBBBBBBBBBBBgggggBBBBBBBBBBBBBBBBggxdddstjgxxsjstBDBsBBBBBBBBBBBBBBBBBB",
"BBBBBBBBBBBBBBBBBtSSggtSggBBBBBBBBBBBBBBBgBggggffjjggdgPttgggBBBBBBBBBBBBBBBBBBB",
"BBBBBBBBBBBBBBBBgggggddgggggBBBBBBBBBBBBgggtgf9*9rhrxxxBBSgdgDDgBBBBBBBBBBBBBBBB",
"BBBBBBBBBBBgBBggggggggtgggggBBBBBBBBBBBBAgjjjh*%8fjjBcVVsBddgggDBBBBBBBBBBBBBBBB",
"BBBBBBBBBBBgBBBgggdgdgddgggPSSSSBBBBBBBBStgjjj900hjgsspmsBBdggBBBBBBBBBBBBBBBBBB",
"BBBBBBBBBBBsBBgSgggg=9wggggDggsSBBBBBBBBSSgjggjkhjtSZssppVxBABBBBBBBBBBBBBBBBBBB",
"BBBBBBBBBgSsBBgBgdgB&=9ddgggDggSBBBBBBBBsgSSBsjPjttssSssssSsBBBBBBBBBBBBBBBBBBBB",
"BBBBBBBBBsHSBBSggdghwewdjgggDgggBttBsBBBggtsIjPPjtSSssAdcBsjBBBBBBBBBBBBBBBBBBBB",
"BBBBBBBBBBSVBBgggggggjdfgdgggggsBBBBBBBtstdedttsSSStjgggdBPsggBBBBBBBBBBBBBBBBBB",
"BBBBBBBBBBsBBSgBggdDDDDggggdBssaaiuy27,4X.3yaPtSsgggjBggggSjgsBBBBBBBBBBBBBBBBBB",
"BBBBBBBBBBBsgSggggSBggggBBSu3..XXo$$$$$$  #$X<uaaiiadgggggggSgSBBBBBBBBBBBBBBBBB",
"BBBBBBBBBBBBgSBBBBBggSgBBB7$o@  $       X X @#$ooooo41ggggBBsgBBBBBBBBBBBBBBBBBB",
"BBBBBBBBBBBBBBBBBBBBBBBBBa$O.XX  @ @       XX X oXXX#~yBBBBBBBBBBBBBBBBBBBBBBBBB",
"BBBBBBBBBBBBBBBBBBBBBBBBBa# XX                  @    +4BBBBBBBBBBBBBBBBBBBBBBBBB",
"BBBBBBBBBBBBBBBBBBBBBBBBBt5$ooXX  XX      @   @     .$4BBBBBBBBBBBBBBBBBBBBBBBBB",
"BBBBBBBBBBBBBBBBBBBBBBBSsgs4$#@   X. ..     XXXoXXXX$#uAtBBBBBBBBBBBBBBBBBBBBBBB",
"BBBBBBBBBBBBBBBBBBBBBBSSsSSsu3X++$~~$$o$+~++$$4$~$ X5iBBSSBBBBBBBBBBBBBBBBBBBBBB",
"BBBBBBBBBBBBBBBBBBBBBBSggSStddauy<6766<<<6666666<2uasBBBBBBBBBBBBBBBBBBBBBBBBBBB",
"BBBBBBBBBBBBBBBBBBBBBBBBBBBBgBBBSSSSSSSBBgSSSBBSSSSBBsgBBBBBBBBBBBBBBBBBBBBBBBBB",
"BBBBBBBBBBBBBBBBBBBBBBBBBBBBSBgstgststSttsStStststtBBBBBBBBBBBBBBBBBBBBBBBBBBBBB",
"BBBBBBBBBBBBBBBBBBBBBBBBBBBBBBgBBBBBgSBBSSSSBBBBgSSBBBBBBBBBBBBBBBBBBBBBBBBBBBBB",
"BBBBBBBBBBBBBBBBBBBBBBBBBBBBBBBBBBBBSSBBBggsBBBBgSSBBBBBBBBBBBBBBBBBBBBBBBBBBBBB",
"BBBBBBBBBBBBBBBBBBBBBBBBBBBBBBBBBBBBBBBBBBBBBBBBBBBBBBBBBBBBBBBBBBBBBBBBBBBBBBBB",
"BBBBBBBBBBBBBBBBBBBBBBBBBBBBBBBBBBBBBBBBBBBBBBBBBBBBBBBBBBBBBBBBBBBBBBBBBBBBBBBB",
"BBBBBBBBBBBBBBBBBBBBBBBBBBBBBBBBBBBBBBBBBBBBBBBBBBBBBBBBBBBBBBBBBBBBBBBBBBBBBBBB",
"BBBBBBBBBBBBBBBBBBBBBBBBBBBBBBBBBBBBBBBBBBBBBBBBBBBBBBBBBBBBBBBBBBBBBBBBBBBBBBBB",
"BBBBBBBBBBBBBBBBBBBBBBBBBBBBBBBBBBBBBBBBBBBBBBBBBBBBBBBBBBBBBBBBBBBBBBBBBBBBBBBB",
"BBBBBBBBBBBBBBBBBBBBBBBBBBBBBBBBBBBBBBBBBBBBBBBBBBBBBBBBBBBBBBBBBBBBBBBBBBBBBBBB",
"BBBBBBBBBBBBBBBBBBBBBBBBBBBBBBBBBBBBBBBBBBBBBBBBBBBBBBBBBBBBBBBBBBBBBBBBBBBBBBBB",
"BBBBBBBBBBBBBBBBBBBBBBBBBBBBBBBBBBBBBBBBBBBBBBBBBBBBBBBBBBBBBBBBBBBBBBBBBBBBBBBB",
"BBBBBBBBBBBBBBBBBBBBBBBBBBBBBBBBBBBBBBBBBBBBBBBBBBBBBBBBBBBBBBBBBBBBBBBBBBBBBBBB",
"BBBBBBBBBBBBBBBBBBBBBBBBBBBBBBBBBBBBBBBBBBBBBBBBBBBBBBBBBBBBBBBBBBBBBBBBBBBBBBBB",
"BBBBBBBBBBBBBBBBBBBBBBBBBBBBBBBBBBBBBBBBBBBBBBBBBBBBBBBBBBBBBBBBBBBISBBBBBBBBBBB",
"BBBBBBBBBBBBBBBBBBBBBBBBBBBBBBBBBBBBBBBBBBBBBBBBBBBBBBBBBBBBBBBBSI!(!BBBBBBBBBBB"
};
