/* XPM */
static char *_bc23f0489a44e00a8310ae502fb1326kD6aKqs21s1QusSr[] = {
/* columns rows colors chars-per-pixel */
"80 80 72 1 ",
"  c #6F6844",
". c #716644",
"X c #726A45",
"o c #756E48",
"O c #796E49",
"+ c #6F7546",
"@ c #6D7B46",
"# c #737449",
"$ c #7A724B",
"% c #81764E",
"& c #3FB03C",
"* c #44B33C",
"= c #4DB23A",
"- c #55B634",
"; c #51B53E",
": c #5EBF3E",
"> c #6C8347",
", c #6A8C47",
"< c #6D8349",
"1 c #6B8F49",
"2 c #67904A",
"3 c #6A9048",
"4 c #669D4A",
"5 c #689B49",
"6 c #4CBA46",
"7 c #4FBF4B",
"8 c #56BB43",
"9 c #5BBE45",
"0 c #55BF4A",
"q c #5DBF49",
"w c #64A349",
"e c #63AD4A",
"r c #64BE45",
"t c #62B34A",
"y c #63BD4A",
"u c #5EC146",
"i c #55C04C",
"p c #5EC24B",
"a c #57C351",
"s c #5CC351",
"d c #5DC855",
"f c #63C242",
"g c #61C245",
"h c #61C247",
"j c #64C247",
"k c #68C542",
"l c #6BC744",
"z c #6ECA45",
"x c #60C24B",
"c c #63C34B",
"v c #64C049",
"b c #64C04B",
"n c #62C648",
"m c #62C34F",
"M c #60C44C",
"N c #63C74D",
"B c #65C54D",
"V c #69C349",
"C c #66CA4C",
"Z c #70C848",
"A c #73CD49",
"S c #60C050",
"D c #61C650",
"F c #65C750",
"G c #6ACC55",
"H c #72CD52",
"J c #79CF51",
"K c #70D25B",
"L c #78D458",
"P c #7FDA5F",
"I c #8AE260",
"U c #93E868",
/* pixels */
"xxxxxxxxxxxxxxxxxxxxxxxxxxxxxxxxxxxxxxxxxxxxxxxxxxxxxxxxxxxxxxxxxxxxxxxxxxxxxxxx",
"xxxxxxxxxxxxxxxxxxxxxxxxxxxxxxxxxxxxxxxxxxxxxxxxxxxxxxxxxxxxxxxxxxxxxxxxxxxxxxxx",
"xxxxxxxxxxxxxxxxxxxxxxxxxxxxxxxxxxxxxxxxxxxxxxxxxxxxxxxxxxxxxxxxxxxxxxxxxxxxxxxx",
"xxxxxxxxxxxxxxxxxxxxxxxxxxxxxxxxxxxxxxxxxxxxxxxxxxxxxxxxxxxxxxxxxxxxxxxxxxxxxxxx",
"xxxxxxxxxxxxxxxxxxxxxxxxxxxxxxxxxxxxxxxxxxxxxxxxxxxxxxxxxxxxxxxxxxxxxxxxxxxxxxxx",
"xxxxxxxxxxxxxxxxxxxxxxxxxxxxxxxxxxxxxxxxxxxxxxxxxxxxxxxxxxxxxxxxxxxxxxxxxxxxxxxx",
"xxxxxxxxxxxxxxxxxxxxxxxxxxxxxxxxxxxxxxxxxxxxxxxxxxxxxxxxxxxxxxxxxxxxxxxxxxxxxxxx",
"xxxxxxxxxxxxxxxxxxxxxxxxxxxxxxxxxxxxxxxxxxxxxxxxxxxxxxxxxxxxxxxxxxxxxxxxxxxxxxxx",
"xxxxxxxxxxxxxxxxxxxxxxxxxxxxxxxxxxxxxxxxxxxxxxxxxxxxxxxxxxxxxxxxxxxxxxxxxxxxxxxx",
"xxxxxxxxxxxxxxxxxxxxxxxxxxxxxxxxxxxxxxxxxxxxxxxxxxxxxxxxxxxxxxxxxxxxxxxxxxxxxxxx",
"xxxxxxxxxxxxxxxxxxxxxxxxxxxxxxxxxxxxpxxxxxxxxxxxxxxxxxxxxxxxxxxxxxxxxxxxxxxxxxxx",
"xxxxxxxxxxxxxxxxxxxxxxxxxxxxxxxxxxppqpmmppxxxxxxxxxxxxxxxxxxxxxxxxxxxxxxxxxxxxxx",
"xxxxxxxxxxxxxxxxxxxxxxxxxxxxxxxxpppqupqmxpxxxxxxxxxxxxxxxxxxxxxxxxxxxxxxxxxxxxxx",
"xxxxxxxxxxxxxxxxxxxxxxxxxxxxxxxxpppppq99pxxxxxxxxxxxxxxxxxxxxxxxxxxxxxxxxxxxxxxx",
"xxxxxxxxxxxxxxxxxxxxxxxxxxxxxxxxppppx9=8pxxxxxxxxxxxxxxxxxxxxxxxxxxxxxxxxxxxxxxx",
"xxxxxxxxxxxxxxxxxxxxxxxxxxxxxxxxppqpM9;8pxxxxxxxxxxxxxxxxxxxqxxuxxpxxxxxxxxxxxxx",
"xxxxxxxxxxxxxxxxxxxxxxxxxxxxxxxxpcppppcpppxxxxxxxxxxxxxxxxxxxhpqmppxxxxxxxxxxxxx",
"xxxxxxxxxxxxxxxxxxxxxxxxxxxxxxxxppppppppxxxxxxxxxxxxxxxxxxxxxquqxcxxxxxxxxxxxxxx",
"xxxxxxxxxxxxxxxxxxxxxxxxxxxxxxxxpppmpMpMpxxxxxxxxxxxxxxxxxqqxxBpqMBxxxxxxxxxxxxx",
"xxxxxxxxxxxxxxxxxxxxxxxxxxxxxxxxpppMpppMppxxxxxxxxxxxxxxxxxqqxxq9qp9xxxxxxxxxxxx",
"xxxxxxxxxxxxxxxxxxxxxxxxxxxxxxxxMMppppppxxxxxxxxxxxxxxxxxxxxhxqxFKKBxxxxxxxxxxxx",
"xxxxxxxxxxxxxxxxxxxxxxxxxxxxxxxxpppMcpppppxxxxxxxxxxxxxxxxxxpxxxMGGmxxxxxxxxxxxx",
"xxxxxxxxxxxxxxxxxxxxxxxxxxxxxxxxppmppppppxxxxxxxxxxxxxxxxxxxxxxxupuqxxxxxxxxxxxx",
"xxxxxxxxxxxxxxxxxxxxxxxxxxxxxxxxcpppppmMppxxxxxxxxxxxxxxxxxcxxxqqpqxxxxxxxxxxxxx",
"xxxxxxxxxxxxxxxxxxxxxxxxxxxxxxxxppppmppxppxxxxxxxxxxxxxxxxxxxxxppypxxxxxxxxxxxxx",
"xxxxxxxxxxxxxxxxxxxxxxxxxxxxxxxxMpxxpxxxxxxxxxxxxxxxxxxxxxxxxxxxxxpxxxxxxxxxxxxx",
"xxxxxxxxxxxxxxxxxxxxxxxxxxxxxxxxxxxxxxxxxxxxxxxxxxxxxxxxxxxxxxxxxxxxxxxxxxxxxxxx",
"xxxxxxxxxxxxxxxxxxxxxxxxxxxxxxxxxxxxxxxxxxxxxxxxxxxxxxxxxxxxxxxxxxxxxxxxxxxxxxxx",
"xxxxxxxxxxxxxxxxxxxxxxxxxxxxxxxxxxxxxxxxxxxxxxxxxxxxxxxxxxxxxxxxxxxxxxxxxxxxxxxx",
"xxxxxxxxxxxxxxxxxxxxxxxxxxxxxxxxxxxxxxxxxxxxxxxxxxxxxxxxxxxxxxxxxxxxxxxxxxxxxxxx",
"xxxxxxxxxxxxxxxxxxxxxxxxxxxxxxxxxxxxxxxxxxxxxxxxxxxxxxxxxxxxxxxxxxxxxxxxxxxxxxxx",
"xxxxxxxxxxxxxxxxxxxxxxxxxxxxxxxxxxxxxxxxxxxxxxxxxxxxxxxxxxxxxxxxxxxxxxxxxxxxxxxx",
"xxxxxxxxxxxxxxxxxxxxxxxxxxxxxxxxxxxxxxxxxxxxxxxxxxxxxxxxxxxxxxxxxxxxxxxxxxxxxxxx",
"xxxxxxxxxxxxxxxxxxxxxxxxxxxxxxxxxxxxxxxxxxxxxxxxxxxqpxxxpqxxxxxxxxxxxxxxxxxxxxxx",
"xxxxxxxxxxxxxxxxxxxxxxxxxxxxxxxxxxxxxxxxxxxxxxxxxxqpmxBxxpqxxxxxxxxxxxxxxxxxxxxx",
"xxxxxxxxxxxxxxxxxxxxxxxxxxxxxxxxxxxxxxxxxxxxxxxxxxxxccmmxxxxxxxxxxxxxxxxxxxxxxxx",
"xxxxxxxxxxxxxxxxxxxxxxxxxxxxxxxxxxxxxxxxxxxxxxxxxxxqqxxuqhxxxxxxxxxxxxxxxxxxxxxx",
"xxxxxxxxxxxxxxxxxxxxxxxxxxxxxxxxxxxxxxxxxxxxxxxxxxxqqhxxqqxxxxxxxxxxxxxxxxxxxxxx",
"xxxxxxxxxxxxxxxxxxxxxxxxxxxxxxxxxxxxxxxxxxxxxxxxxxxxpqqhxxxxxxxxxxxxxxxxxxxxxxxx",
"xxxxxxxxxxxxxxxxxxxxxxxxxxxxxxxxxxxxxxxxxxxxxxxxxxxxxq9qxxxxxxxxxxxxxxxxxxxxxxxx",
"xxxxxxxxxxxxxxxxxxxxxxxxxxxxxxxxxxxxxxxxxxxxppspxxmruqNcruxxxxxxxxxxxxxxxxxxxxxx",
"xxxxxxxxxxxxxxxxxxxmxxpyxxxxxxxxxxxxxxxxxxqmysmppuhrhHILfqhyxxxxxxxxxxxxxxxxxxxx",
"xxxxxxxxxxxxxxxxxxxcmyxxxxxxxxxxxxxxxxxxxyySssaphhrrrJUIlfhxxxxxxxxxxxxxxxxxxxxx",
"xxxxxxxxxxxxxxxxxxxyxyxxxxxxxxxxxxxxxxxxxxmsssppuurVrZAzlfhhxxxxxxxxxxxxxxxxxxxx",
"xxxxxxxxxxxxxxxxxxxxjBxyxxxxxxxxxxxxxxxxxppppspppuufh:--:u9hxxxxxxxxxxxxxxxxxxxx",
"xxxxxxxxxxxxxxxxxxxxxyxxxxxxxxxxxxxxxxxxxppppMxxpp9:MCnuhu8xxxxxxxxxxxxxxxxxxxxx",
"xxxxxxxxxxxxxxxxxxxxxyxxxxxxxxxxxxxxxxxxxuufxxrmxpnuuu9quMcmxxxxxxxxxxxxxxxxxxxx",
"xxxxxxxxxxxxxxxxxxxxxxxxxxxxxxxxxxxxxxxxhhhhhcycxpuppMDSx9mmxxxxxxxxxxxxxxxxxxxx",
"xxxxxxxxxxxxxxxxpmppppppxxxxxxxxxxxxxxxxMxuuxBsymmqxcxpyqsmxxxxxxxxxxxxxxxxxxxxx",
"xxxxxxxxxxxxxxxxppmpppppxxxxxxxxxxxxxxxxxxuuhSqqqmxhuusqpymmxxxxxxxxxxxxxxxxxxxx",
"xxxxxxxxxxxxxxypppppppppxxxxxxxxxxxxxxxxpppiyi00spxhrxMSqSmpxxxxxxxxxxxxxxxxxxxx",
"xxxxxxxxxxxxxppppppuppppxxxxxxxxxxxxxxxxpppui*&6appuhxmysqppxxxxxxxxxxxxxxxxxxxx",
"xxxxxxxxxxxxpxppppppuuppxxxxxxxxxxxxxxxxpisd6*&6aaxhrrVyppppxxxxxxxxxxxxxxxxxxxx",
"xxxxxxxxxxxxpppppMuuiusppxxxxxxxxxxxxxxxppsm06iidpxxcyyVhpuxxxxxxxxxxxxxxxxxxxxx",
"xxxxxxxxxxxxppp9pM;;iupupxxxxxxxxxxxxxxxmqppqddaiqSyyrryxhpxxxxxxxxxxxxxxxxxxxxx",
"xxxxxxxxxxxmppp9uu=*-ispxxxxxxxxxxxxxxxxpmmssMsq0DyxyrVrcyxxxxxxxxxxxxxxxxxxxxxx",
"xxxxxxxxxxxxpxpxppuu8upppxxxxxxxxpxxxxxxpuxxmmmxpSMsxxhhxymqmxxxxxxxxxxxxxxxxxxx",
"xxxxxxxxxxxxpppqpppdpiiupxxxxpppxxxmpxxxpuuppymmMpppppuupmppxxxxxxxxxxxxxxxxxxxx",
"xxxxxxxxxxyxpppppMMMppppxxxxxxpxpqxMxpxxhhuppqyqMpppppppppSyxxxxxxxxxxxxxxxxxxxx",
"xxxxxxxxxxppMxpppxpppppppxxxxt5>+++@4yxxxpupppppxxpppppppppmxxxxxxxxxxxxxxxxxxxx",
"xxxxxxxxxxxxxxxxxxppmpxpxxxy3o%OXX.X%5xxxxxrxpxxxmppqpmppyxxxxxxxxxxxxxxxxxxxxxx",
"xxxxxxxxxxxxxxxxxxxxpxxxxxy9ew,+XOXX<txxupxxqteeetqppppmpxxxxxxxxxxxxxxxxxxxxxxx",
"xxxxxxxxxxxxxxxxxxxxxxxxxxxxxxxqteetpxxxypt1+XooO#+<wyxxpxxxxxxxxxxxxxxxxxxxxxxx",
"xxxxxxxxxxxxxxxxxxxxxxxxxxxxxxxpmpxxxxhxy,XOXXX .XXX<exxxxxxxxxxxxxxxxxxxxxxxxxx",
"xxxxxxxxxxxxxxxxxxxxxxxxxxxxxxxxxxxxxxxy@$ XX .. X@qyxxxxxxxxxxxxxxxxxxxxxxxxxxx",
"xxxxxxxxxxxxxxxxxxxxxxxxxxxxxxxxxxxxxppy#  X X  X+yxppxxxxxxxxxxxxxxxxxxxxxxxxxx",
"xxxxxxxxxxxxxxxxxxxxxxxxxxxxxxxxxxxxxxxp2$. XXXXotxxxxxxxxxxxxxxxxxxxxxxxxxxxxxx",
"xxxxxxxxxxxxxxxxxxxxxxxxxxxxxxxxxxxxxxxxpw+OXoo+exqxxxxxxxxxxxxxxxxxxxxxxxxxxxxx",
"xxxxxxxxxxxxxxxxxxxxxxxxxxxxxxxxxxxxxxxxpmyttttmxxxxxxxxxxxxxxxxxxxxxxxxxxxxxxxx",
"xxxxxxxxxxxxxxxxxxxxxxxxxxxxxxxxxxxxxxxxxpxxxpxxxxxxxxxxxxxxxxxxxxxxxxxxxxxxxxxx",
"xxxxxxxxxxxxxxxxxxxxxxxxxxxxxxxxxxxxxxxxxxxxxxxxxxxxxxxxxxxxxxxxxxxxxxxxxxxxxxxx",
"xxxxxxxxxxxxxxxxxxxxxxxxxxxxxxxxxxxxxxxxxxxxxxxxxxxxxxxxxxxxxxxxxxxxxxxxxxxxxxxx",
"xxxxxxxxxxxxxxxxxxxxxxxxxxxxxxxxxxxxxxxxxxxxxxxxxxxxxxxxxxxxxxxxxxxxxxxxxxxxxxxx",
"xxxxxxxxxxxxxxxxxxxxxxxxxxxxxxxxxxxxxxxxxxxxxxxxxxxxxxxxxxxxxxxxxxxxxxxxxxxxxxxx",
"xxxxxxxxxxxxxxxxxxxxxxxxxxxxxxxxxxxxxxxxxxxxxxxxxxxxxxxxxxxxxxxxxxxxxxxxxxxxxxxx",
"xxxxxxxxxxxxxxxxxxxxxxxxxxxxxxxxxxxxxxxxxxxxxxxxxxxxxxxxxxxxxxxxxxxxxxxxxxxxxxxx",
"xxxxxxxxxxxxxxxxxxxxxxxxxxxxxxxxxxxxxxxxxxxxxxxxxxxxxxxxxxxxxxxxxxxxxxxxxxxxxxxx",
"xxxxxxxxxxxxxxxxxxxxxxxxxxxxxxxxxxxxxxxxxxxxxxxxxxxxxxxxxxxxxxxxxxxxxxxxxxxxxxxx",
"xxxxxxxxxxxxxxxxxxxxxxxxxxxxxxxxxxxxxxxxxxxxxxxxxxxxxxxxxxxxxxxxxxxxxxxxxxxxxxxx",
"xxxxxxxxxxxxxxxxxxxxxxxxxxxxxxxxxxxxxxxxxxxxxxxxxxxxxxxxxxxxxxxxxxxxxxxxxxxxxxxx"
};
