/* XPM */
static char *f9bfb522c6724512eb01f541d541f3d7BUhqx0yT01Rikone[] = {
/* columns rows colors chars-per-pixel */
"80 80 210 2 ",
"   c #010301",
".  c #0B0D0B",
"X  c #0F110E",
"o  c #191919",
"O  c #1B211C",
"+  c #2E302E",
"@  c #413E3F",
"#  c #3D4440",
"$  c #464444",
"%  c #585C59",
"&  c #7A596E",
"*  c #5D6662",
"=  c #6C6B6C",
"-  c #787878",
";  c #DA3B3C",
":  c #E5353E",
">  c #EA3138",
",  c #E9313B",
"<  c #BC5B3D",
"1  c #CC4A3E",
"2  c #C3543F",
"3  c #E93840",
"4  c #ED3B45",
"5  c #F13A44",
"6  c #F63C47",
"7  c #BC5D42",
"8  c #AC6E43",
"9  c #B66745",
"0  c #A87442",
"q  c #CE4A40",
"w  c #D24741",
"e  c #D44845",
"r  c #C35541",
"t  c #CB5044",
"y  c #E6444E",
"u  c #EC434C",
"i  c #F1414B",
"p  c #E64D53",
"a  c #EA4855",
"s  c #EA4C54",
"d  c #EF4F59",
"f  c #F24B55",
"g  c #F14C57",
"h  c #E75155",
"j  c #EA5156",
"k  c #E6545A",
"l  c #EB555E",
"z  c #EA585F",
"x  c #F0515A",
"c  c #CC685E",
"v  c #EA5961",
"b  c #EA5A66",
"n  c #EA5F73",
"m  c #E9657B",
"M  c #769E3E",
"N  c #5CBD3B",
"B  c #61BD3E",
"V  c #63C13F",
"C  c #55B842",
"Z  c #5BBE46",
"A  c #5DBE49",
"S  c #77A848",
"D  c #67B947",
"F  c #62BF4A",
"G  c #6BBE55",
"H  c #6BBC56",
"J  c #74BB5C",
"K  c #7AA660",
"L  c #7BB963",
"P  c #7BBB63",
"I  c #5FC245",
"U  c #5FC14A",
"Y  c #63C345",
"T  c #6AC647",
"R  c #60C24B",
"E  c #64C351",
"W  c #6BC155",
"Q  c #69CA52",
"!  c #6DC15A",
"~  c #72C25C",
"^  c #71D155",
"/  c #79C368",
"(  c #8A8F40",
")  c #968745",
"_  c #889648",
"`  c #A88C5C",
"'  c #84B56B",
"]  c #86B76D",
"[  c #95AB70",
"{  c #93AE78",
"}  c #9AAD7E",
"|  c #8DB272",
" . c #82D261",
".. c #86C376",
"X. c #9ACA75",
"o. c #93C07C",
"O. c #D03983",
"+. c #907C86",
"@. c #D4458E",
"#. c #D64C93",
"$. c #DA569A",
"%. c #DB7D83",
"&. c #EB6C87",
"*. c #EB7189",
"=. c #E97497",
"-. c #D766A6",
";. c #DD7BB5",
":. c #E269A9",
">. c #E778B5",
",. c #8A8A8A",
"<. c #978D92",
"1. c #979797",
"2. c #B09A87",
"3. c #BE9E9C",
"4. c #9FAC81",
"5. c #9BBE84",
"6. c #9FBF88",
"7. c #A5A887",
"8. c #ABA58B",
"9. c #A2BC8A",
"0. c #B4A394",
"q. c #BDA19C",
"w. c #A9BE94",
"e. c #B0BE97",
"r. c #A8A8A8",
"t. c #A9BFA5",
"y. c #BABCA3",
"u. c #B7B8B5",
"i. c #BEBEBE",
"p. c #C29E9E",
"a. c #DB8BA9",
"s. c #C99AA5",
"d. c #D296AD",
"f. c #DB93B5",
"g. c #D994B4",
"h. c #EB84BC",
"j. c #E889BC",
"k. c #E98BBE",
"l. c #E592BE",
"z. c #C3A1A1",
"x. c #C4BCAA",
"c. c #CBBCB6",
"v. c #D3BCBB",
"b. c #8EC582",
"n. c #96C287",
"m. c #9BC393",
"M. c #9CD091",
"N. c #A5C08C",
"B. c #A4C598",
"V. c #AAC2A5",
"C. c #ABC5A5",
"Z. c #B4C6AC",
"A. c #B8C7B4",
"S. c #BEC1BD",
"D. c #C1CEA5",
"F. c #E68EC1",
"G. c #EA8DC3",
"H. c #FE89CF",
"J. c #EC92C5",
"K. c #ED94CA",
"L. c #EB99C9",
"P. c #F394CA",
"I. c #F796CD",
"U. c #F39BCE",
"Y. c #FE8BD0",
"T. c #FD94D3",
"R. c #F49ED1",
"E. c #FC9BD3",
"W. c #FC9FD8",
"Q. c #DEBCC4",
"!. c #EBA2CC",
"~. c #E1BCC6",
"^. c #E4BDCC",
"/. c #EDABD1",
"(. c #F6A3D4",
"). c #FBA3D6",
"_. c #F6AAD6",
"`. c #FDA4D9",
"'. c #F7A9D8",
"]. c #FDAEDE",
"[. c #EFB4D6",
"{. c #EDBDD5",
"}. c #F1BAD6",
"|. c #FDB1DE",
" X c #F5BDDE",
".X c #F9BCDF",
"XX c #FFAEE1",
"oX c #FEB1E0",
"OX c #FEB2E1",
"+X c #FBBCE5",
"@X c #FEBDE8",
"#X c #BFC5C2",
"$X c #C5C5C5",
"%X c #C7C9C6",
"&X c #CACACA",
"*X c #CBD0CD",
"=X c #D4D1D3",
"-X c #E2C3C9",
";X c #E5CEDC",
":X c #EECDE1",
">X c #F9C6E8",
",X c #F9D8EB",
"<X c #FEC4F2",
"1X c #FFC9F7",
"2X c #FFCDFC",
"3X c #FFD1FF",
"4X c #FFDAFF",
"5X c #F6E5F1",
"6X c #F8F7F8",
"7X c white",
/* pixels */
"R R R R U U Q U U Q R R Q U R R R R R E U U U U U U U U R R E R R R R R R R R R R Q U U R Q R R Q U U Q U Q U U U Q U U U U U U U U U U U U R R R R R R U Q U U ",
"R R R R U U U U U U R R U U Q R R R R R E U U Q Q U R R R R R R R R R R R R Q R R R U U U U R R U U U U U U U U U U U U U Q U U E U Q U U Q R R R R U Q U U U U ",
"E U R R U Q U Q U R R R R R U U R R R R U Q U U R R R R R R R R R R Q R U U U U R R R R U R R R U U U U U U R R U U U Q Q U U Q U U R R U Q U U U U U U Q U U U ",
"U U E U U U U U U R R R R R U U R R R R U U U U R R R R R R R U R R U U U Q U U R R R R R R R R Q U U Q U Q R U U Q U U U U U U E R R R U U U U U Q R R U U U Q ",
"U U R Q U U R R R R R R R R R R R R R R R R R R R Q R R R R U U U U U U U E U U Q U U R E R R R U U R Q U U U U U U U U U Q U U R R R R R R R R R U R U R R R R ",
"U R R R U U R R R R R R R R R R R R R R R R R R U U R R R R L J.W.(.W.L./ E U E U U U R U R R R U U R R R R Q R U Q U U U U U U R R R R R R U R U R R R Q R R R ",
"Q U U R U R R R R R R R R R R R R R R R R R R R R R R R R R 4.W.|.OXOXR.F.! E U U U U U U R R R R R R R U U U R U Q U Q U U U U U R R R R R R R R R R R U R R R ",
"U U U U U R R R R R R R R R R R R R R R R R R F R R R R R R 4.`.|.].OXOX(.4.U E Q R U U Q R R R R R R R Q U U R ..U U U U U Q U R R R R R R R R R U R R U R R R ",
"R R R R R R R R R R U R R R R R R R R R R R R R R R R R R U | T.'.|.].OX).s.Z F F R R R R L { 8.3.d.l.J.P.W.W.W./.g.4.A A U U U U U U R R R R R R R R R R R R R ",
"R R U R R R U R R R R R R U R U R R R R R Z R ] 0.0.| R R R G f.'.OX].|.).g.C C A L 4.s.f.K.E.`.].].).G.(.|.'._.'.'.T.r.H A U U U U R R R R R R R R R R R R R U ",
"R R R R R R R R R R R U R U R R F R R R R Y } I.).).I.z.H U R 8.`.|.|.|.).g.K 8.g.P.`.XX].].|.OX].OX(.J.|.|.OX].OXOX/.W.q.U E U U U U U R R R R R R R R R R U U ",
"Q R R R R R U U R R R R R R R U R R R R R R l.).|.|.'.E.s.R R G l.'.OX'.K.G.I.`.'.].'.K.L.(.].].].].U.U.|.].XXOXOX'.OX'.E.} U U U U U U U R U R R R R R R R U Q ",
"U U U U U Q U U U U R R R R U R F R R R R G l.'.|.].|._.E.8.R R | U.U.G.k.K.].|.OX).F.{./.F.K.XX].OXR.K.XXXX(.'.OX;.;.|.).g.F U U U U U U R U U U R R R U U U R ",
"U U R R U U U U U Q U R R R U R R R R R R E f.`.|.].].|.).J.! R 7.G.J.'.].OX].].|.G.,X6X7X,XF.(.OX].).G.XX'.-.;.].-.-.].'.K.L R U U U Z U U U U R R R R Q R R R ",
"U U R R U U U U U U R U R U R R R R R R R R 8.).|.|.|.|.].I.p.d.`.).].].R.U.].|.(.(.$XX = 7XL.U.|.].].J.(.'.-.;.OX(.(.OX].E.{ R U U U U U U R Q Q R R U R R R R ",
"U U Q R U Q U U U U R U R R R U R R R R R F G f.).|.].].|.J.P.).].OX_.G.L.J.G.]._.P.Q.O * 6XF.(.OX].|.R.J.OX'.'.XXOX|.|.].E.{ U R U U U I U U U U U R R R R R R ",
"U U U U U U U U U R R R R R R R U R R R I F U ' J.`.|.|.J.J.L.|.|.|.G.:X7X6X!.K.OXK.!.:X:XK.K.OX].].].].G.R.|.XX].].].OX'.P.L A F U U U Z R Q E U U R U Q U U R ",
"U Q U U Q U U U F R R R R I R R R R R R R R R U ] J.).L.J.].|.].OXU./.6X=X7X5XG.].XXP.G.G.U.].].].].].XX(.j.R.XXXX|.|.'.E.s.F F R R U R R Q ^ ^ E U U R R U U U ",
"U U U U U U Q U R R U R R R R R F R R R R R U R R J l.J.].].].].OXK.>X%   u.7XF._.XXXX].].].].].].XX].].OX(.F.J.(.(.(.L.P.' R R R R U R R R ^ Q R U R R U U U U ",
"U U Q U R U U U R R R R R R R R U R R R R R R R R } I.(.].].].].].R._.r.# =X,XG.XX].].].XX].].|.].].].].].|.`.P.F.J.k.T.} R R R R R R U R R R A U U E U U Q U Q ",
"R R R R R R R R R R R R R R R I I R R R R R F U L K._.|.].].].].].].J._.,X+Xk.(.OX].].].].].].].OX].].].].].OX|.|.R.E.8.U F R R U R R I I U U I U U R R R R U U ",
"R R R R R R R R R R R R R R R R R R R R R R R R s.`.].].|.].].].].|.].U.G.J.`.].].].OX].XX].XX|.].].].].].].].|.R.I.8.R A R R R U U R U U R U R R U R R R R U E ",
"R U R R R U R R R R R R R R R R R R R R U F R ' I.].].].].XX].XX].].].OXOX|.|.].].].].].XX].XX].].|.].].].|.'.U.J.4.R F R R R R R R R R U U R R R R R R R R R U ",
"U Q R R R R R R R I R R R R R R R R R R R R F 3.].|.].|.].].].].].].].].].].].OX].XX].XX].OX].].].].OXOX|.(.E.f.] R R R R R R R R R R R U U R R R R R R R R R R ",
"U U U Q U R R R R R Y U R R R R R R R R U U J l.].|.].|.].XXXXOX].].XX].XX].].].].].OX].].].|.].].OX).U.E.J.0.H R R R R F R R R Q U U U U Q U R R R R R R U U Q ",
"U U U U R R R R R R R U R R R R R R F R F R { W.|.].].W.T.T.T.`.].|.].].|.].].OX].XX].OXOX].XX].].).J.J.z.L R R R R R R R R R R U U U U U U R R R R R R R U U R ",
"U U U U R R R R R R U R U R R R R R U U F U 0.`.|.|.E.H.H.H.Y.H.T.].].].].XX].].XX].|.XX].].XX].].'.'.`.8.R F R R R R R I R R R U U U U U U R R R R R R R R R R ",
"U Q U U R R R R R R R R R R R R R R R R R U s.`.|.`.H.Y.Y.Y.Y.Y.H.T.].].].].].OX].OX].|.XX|.].].].].OX_.J.J R R R R R R R R R R U U U U U U R R R R R R R R R R ",
"U U U U U Q U R R R R R R R R R R R R R R R d.].OX`.H.Y.Y.Y.Y.Y.Y.H.`.OX].].XX].|.].XX].OX].XXXXOX|.].|.`.8.R R R R R R R R F U U R R U R R R R U R U R R R R U ",
"Q U U U U U U U R R R R U Y R R R R R R R F f.].OX).Y.Y.Y.Y.Y.Y.Y.H.W.OX].].].OX].|.|.XX].].].OX`.R.|.|.'.d.R R R R R R R R R R R U U Q U R R R R R R R R R Q U ",
"U U U U U U Q U R R U R U R R R R R I R R F f.`.|.'.Y.Y.Y.Y.Y.Y.Y.Y.E.].].].XX].].XXXX].XX].].OXh.-.+X].'.l.H R Z R R R R U R R R R U R R R R R R R U R R R U U ",
"U U U Q U U U U R R R R R U R R R R R R R R g.`.|.|.T.Y.Y.Y.Y.Y.Y.Y.].].].].].].|.].].].].].].OX>.:.OX].'.I.' R R R R R R R R R U R R R U R R R U R U R R R R U ",
"R U F R I R R R Z Y R R R R R R F R R R R R s.`.|.OX'.Y.H.Y.Y.Y.H.T.].].].XX|.].XX].].].].].].XX$.h.OXOX|.I.| R F R R R R R R R R R R R R R R R R R R F U U U U ",
"R R U R R R R R R R R R R R R R U R R R F R q.E.|.XXOX'.T.Y.Y.Y.T.].].OXP.#.(.OX].].].].].XX+X>.#.'.XX|.|.I.| R R R R R R R R R R R R R R R R R R R I R Q U U Q ",
"R R R R R R R R R R R R R R R R R R R R R R } E.].|.].].XX`.).`.].].].].'.$.#.P.OX@XOX|.OX'.:.@.U.OX].|.'.K.L R R Q R R R Z F R R R R R R R R R R R R R U U U U ",
"R R R R R R R R R R R R R R R R U R R R R R J l.(.|.].XX].XX|.OXXX].].].OX(.$.O.$.>.h.>.:.#.$.W.OX].].OX`.f.R R R R R R R R R R R R R R R R R R R R R R U Q U E ",
"R R R R R F I R R R R R R R R R R R R R R R R s.E.|.|.].].].].].].].].].XXOXXXh.-.#.#.$.:.G.|.OX].].|.|.).8.F A R R R A F R R R R R R R R U R R R R I R R R U U ",
"R R R R R R U R R R R R R R ! o.R R R R R R R | U.(.|.].].XX].|.XX].XX].XX].OXOXOXOX'.OXOXOX].].].].OX).G.J Z Z R R A A Z R B.~ R R R R R Y R F R R F R U R U E ",
"R R U R R R R R R R R R R R o.4X5.R R R R R R R s.I.].].].].XX].].OX].].].].XX].].XX].].XXXX].].].OX'.E.7.R R F U R U A F e.4X] R R R R R R R R R R R R R R R R ",
"R R R R R R R R R R R F R ! R v.}.R F F R R R R L K.U.|.].].].].].].OX].XX].].].].].].].XX].].].|.'.R.s.R R R R Z Z A F F }.D.W ] W R R R R R R R I R R R R R R ",
"R R R R R R R R U R U R n.>X~.v.>X] R R R R R R R } P.U.].].].].XX].].].XXXX].].].|.].XX].].].OX_.U.a.R R U A A A A I A / @X~.}.<X..R R R R R R U R R U U U U U ",
"R R R R R R U Y F R R R J w.}.<X<X-X9.R R R R R F R 2.P.U.'.OX].].].].].].].].].].].].].XX|.'.R.K.=.u ) R F F T Q Q ~ e..X<X2X{.o.E R R R R R R Q U R R U Q U U ",
"R R U R R R U U R R R R R o.>X-Xx.}.3X{.N.E R R R D ; n k.U.(.'.].OX|.OXXXOXOXXXXXOXOX].'.R.K.k.&.k y : S D D T  .D.+X2Xv.e.x.>X9.R Y R R R R R U U U R U R U Q ",
"R R R R R R R R R R R R R ' n.R R ! 6.^.3X}.9.F R 9 6 h b =.j.K.R.(.(.]._.].].'._.(.R.U.J.h.=.b j v z 5 r B B w..X1X-XX.B Y R ~ W U U R R R R R U U R R U R U U ",
"R R R I R R R R R R U R E F T R F R R F o.^.3X^.[ , p z l s b =.>.k.J.K.K.K.K.K.K.F.h.=.&.b p l l l l p , ` -X4X-XX.^ T D Y Y R R R R R R R R R U R U R U U U U ",
"R R R R R R R U R R R R A F F F R Y G R U R 9.;X1X*.s k l v k s k b m &.=.=.=.*.&.n b j j k l l l l k b : x ^.o.V N N V Y V F R R R R R R R R U U U R R U U U Q ",
"R R R R R R R R R R R R R U R R F R F R F A F S *.*.s l l l j b l k j s s s j s s s l l l l l l l l k v p : ( I V V N I Y Z Z R R R R R R R R R R R R R R Q R R ",
"R R R R R R R R R R R R R R R R F R R R R F F 8 , s v k l l l l l l l v l l v l l l l l l l l l l l l l z i < Q Y V I I R N F R R R U R R R R R R R R R R U R R ",
"R R U R R R R R R R U R R R R R R R R R R R F ; a v l l l l l l l l l l l v l l l l l l k d d v j l l l z y : S Z Z Z A U E E U R R R R R I R R U R R R R R R R ",
"R R R R R I R R R R F R R R R I R R R R R R _ 4 s v j l l l l l l l l l l l l x l l l l v v v d v l l j l k 5 ) R R E E A U U E R R R R R R R R R R R R R R R R ",
"R R R R R R R R R R R R R R R U U U U U R R 9 4 l l l l l l v l l l l v x v b l l l l l l l l v l l l l l z 4 t R E F A A U E U R R I R R F U R R R R R R R R R ",
"R R R R R R R R R U R R R R R U R U U U U F w u b l l l l l l l l l l l l l l l l l l l l l l l l l l l l v y ; D F A A A E E U R R R R R R R R Z R R R R R R R ",
"R R R R R R R R R R U U R R R U U U U A R S : s k l l l l l l l l l l l l l l l l l l l l l l v v l l l l v p 3 _ E A A U U A E R R R R R R R R R R R R R R R R ",
"U R R R U R R R R R A U R R U A I ! ~ U F ) 4 k l k l l l l l l l l x l l l l l l v l l l l v d l l l v k l l 4 8 U A U U U U U R R R R R R R R R R R R R R R R ",
"R R R R R R R R R R U U R U U U | >X<X9.R 9 i z l l l l l l l l l l v l l l l l l l l l x v l l l l v d d d b 4 7 H U E U U U U R R R R R R R U R R R R R R R R ",
"R R R R R R R U U U U U I B.] R +X^.v.+XJ 1 u v l l l l l l l v l l l l l l l l l l l l v l l l l l l l v k b y ; D U U U U U U R R U R R R R R R R R R R R R R ",
"R R R R R U U R U R U U Z +XQ.R @X5.5.<XK ; u v l l l l l v v l l l l l l l l l l l l l l l l l l l l l l l l p 3 M F F R U U U R R R R R R R R U U U U U Q U U ",
"R R R R U R R R U U U U U N.3Xv.[. X<XZ.M 4 k z l v d l l x l l l l l l l l l l l l v l l l v l l l l l l l z h 4 ) F F I U U U R R R R R R R R U U U U U U U Q ",
"R R R R R R R U U U U Z A A 6. XOX[.+X:X%., j l d l l l l l l l l l l b l l l x l l l l l l l l l l l l k l b k 5 0 H F F R R R R R R R R R R U R R U Q U U U U ",
"R R R U E U R U R U U Z U A C C G A J M.c : l l l l l l l v l l l l l l l l l b l v l l v l x v l v l l l l l k 5 7 A F R F R R U R R R U R Y U R R U U U U U U ",
"R R E F R U R R U U U U U U U U U I U U < i z k l l l l l l l l l v l l l l l l l l l l l l l l l l l l l l l z u q U F F F E F R Y U R R R R R R R R R U U U Q ",
"R R T R R U R U U U U U A U U U U U I U 1 y b l l l l l l l l v l l l l l l b x l l l l l l l l l l l v l l l z s ; D F R R A R R R U R R U R R R R R R Q U U U ",
"U E F F R R R R U U R U U R U R U U U D ; y z k l l l l l l l l l l l l v d l l l l l l l l l l l l l l j l s k p : S F F U E U R U R R R R R R R R U R U U Q U ",
"U R F R R R R U U U U R U U R R U U U S : s v b k l l b l v l v v l l v l v b l z l l z l v l z l l z l v b v b k 3 S U F E U A R R R R R R R R R R R R U U U U ",
"R R R R R R R R R R R R R R U U U U U _ 6 i f f i f f f s y a f j x x d d d d d d v d d l s s x x x d d d g x f i 6 ) R R R F R R R R R R R R R R U R R R R U U ",
"U E R R R R R R R U R R R R U Y R R U S 9 7 7 < 9 r 2 2 q l e q q e q q w w w e w w w w e y e e q w e q q r r r 7 9 S R R R R R R R R R R R R R R R R R R R U U ",
"U U U R R R U R R R R R R U R R R R U U R R R R F R R R o.3Xm.R U U U F A F F F F F F F L @Xx.F F F F R R R F R R R R R R R R R R R R R R R R R R R R R R R R U ",
"U E U R R R R R R R R U R R R R R R R U F F F R F R F R n.2Xn.R E U U U A R R R R R R F L 1Xx.R R R U U R R F R R R R R R R R R R R R F R R F R R R R R R R R Q ",
"R R R R R R R R R R R U U R R R R U R R R U R R U E F U N.3Xo.R F U E F U U E A R F F R ] 2Xy.A R R R R R R A R U R R R R R R R R R R R R R R R R R U R U Q U U ",
"R R U R R R R R U R R Y R R R R R R R R R R R R U U U U 9.3X] R E A U U U U U A R R R R ] 2Xe.U R R R R R R R R U U R R U R U U R R R R R R R R R R R R U U U Q ",
"R R R R R R U R R R R R R R U U R R R R R R R R U E ! / y.<Xe.n.m.B.C.C.Z.t.V.t.t.t.t.t.A.+Xc.m.m.n...../ ! R R U U U U R R R R R U F U I R R R R R R U U U U U ",
"R R R R R R R R R R R R R R Y R R R R R R R / n.V.A.#X#X:X<X;X*X&XS.r.r.u.&X&X#X%X%X%X$X;X<X:X&X#XQ.u.r.r.$XA.t.m./ E E U R U U R R R R R R R R R R R U U U U E ",
"R R R R R R R R R R R R R U R R U U U U / A.$X&X$X#Xi.i.+.& @ + o X     X % &Xi.i.i.i.#X<.& $ + o X     . $ #X$X&X$XA.5.E U U U R R R R I R R R R R R R R U R R ",
"R R U R R R U R R R R R R R R R U E U E n.&X&X%X$Xi.i.#XO                 $ &Xi.i.#Xu.%X$                 O i.$X$X&X&Xt.E R U U R R R R R R R R R R R R R R R R ",
"U U Q U R R R U R U R R R R R R R R U U U ! b.B.u.A.i.*X$Xr.1.1.,.K = = <.i.i.i.c.i.S.$Xi.r.r.1.,.,.- - ,.A.A.Z.B.b.P E R R R R R R R R R R R R R R U R R R E R ",
"Q U U U R R R U R R R R R R R R R R U U U U R U U ! / L b.M.C.Z.A.A.*X*X&Xi.i.i.i.#XS.S.S.S.A.A.C.C.B.M.b./ ! U E U U U R R R R R U I F R R R R R R R R U U U R ",
"U U U U U U U U R R R R R R R R R R R R Q U U U R R R R R R R R R R R R R R R R U U U U R R R R R U U U U U U U U U R R R R R R R R R R R R R R R R R R R R R R ",
"U U U U U Q U U R R R U R R R U R R R R U U U U R R R R R R R R R R R R R R R R U U U E R U R U U U U U U U U U U U R R R R R R R R R R R R R R R R R R R R R R ",
"U U U U U U U U R R R R R R R R R R R R U U U U R R U U R U R R R R R R R R R R R R U U U U R R U U U Q U U U U U U U R R R R R R R R U R R R R R R I R R U R R ",
"Q U U Q U U Q U R R R R R R R R R R R U U U Q U E R U E U U E U R E R R R R R R R U U E E R R R U Q U U Q U U Q E U U U R R R R R R R R R R R U R R R R R R R R "
};
