/* XPM */
static char *_6456a167eed422aa15d228392678b85s0kOCu09ystbAhxv[] = {
/* columns rows colors chars-per-pixel */
"80 80 214 2 ",
"   c #060604",
".  c #453F2D",
"X  c #4C4731",
"o  c #5D623F",
"O  c #725F46",
"+  c #666746",
"@  c #6C6C45",
"#  c #6B674A",
"$  c #6D6A4A",
"%  c #756B4A",
"&  c #726D4D",
"*  c #687547",
"=  c #6B734C",
"-  c #6A7B4C",
";  c #75754A",
":  c #74734D",
">  c #746E51",
",  c #767452",
"<  c #7B7653",
"1  c #747952",
"2  c #7C7955",
"3  c #7E7B59",
"4  c #717070",
"5  c #EC3C48",
"6  c #9C5B4D",
"7  c #B4554A",
"8  c #87624C",
"9  c #936D53",
"0  c #9B6D56",
"q  c #9E6E59",
"w  c #837353",
"e  c #8B7356",
"r  c #817C57",
"t  c #83765B",
"y  c #827B5B",
"u  c #987552",
"i  c #B16646",
"p  c #A96857",
"a  c #B66458",
"s  c #BB6359",
"d  c #8A7B65",
"f  c #937C6D",
"g  c #84747E",
"h  c #997C74",
"j  c #D1494A",
"k  c #CA5A58",
"l  c #CD5D5A",
"z  c #DB575A",
"x  c #D35B5B",
"c  c #DB595C",
"v  c #EC434E",
"b  c #EC4452",
"n  c #F24752",
"m  c #F24953",
"M  c #E65055",
"N  c #E5555D",
"B  c #EA535D",
"V  c #E6595E",
"C  c #E9595E",
"Z  c #F2525E",
"A  c #C2625A",
"S  c #CD625D",
"D  c #E85960",
"F  c #EB5961",
"G  c #F45360",
"H  c #E76477",
"J  c #4DB23A",
"K  c #55B83F",
"L  c #62BE3F",
"P  c #5F8644",
"I  c #66884A",
"U  c #65934A",
"Y  c #6A974D",
"T  c #659C4B",
"R  c #739451",
"E  c #7A9A57",
"W  c #5FA34A",
"Q  c #58B945",
"!  c #5BBD46",
"~  c #5DBE49",
"^  c #64A44B",
"/  c #68A44F",
"(  c #63AA4D",
")  c #64BD45",
"_  c #62B34C",
"`  c #61BD4C",
"'  c #6FA750",
"]  c #75A858",
"[  c #68BD52",
"{  c #71BA56",
"}  c #79B965",
"|  c #5EC047",
" . c #5EC14A",
".. c #64C345",
"X. c #6DC747",
"o. c #60C24B",
"O. c #73CB4B",
"+. c #65C351",
"@. c #6AC156",
"#. c #6BCD56",
"$. c #6DC35B",
"%. c #70C05B",
"&. c #7AD55A",
"*. c #77C465",
"=. c #8B8E49",
"-. c #958949",
";. c #98964B",
":. c #8B8656",
">. c #8C9251",
",. c #A6894C",
"<. c #B0864D",
"1. c #90BF57",
"2. c #B3AD5B",
"3. c #B7AC58",
"4. c #94836C",
"5. c #9A8375",
"6. c #A1847B",
"7. c #88B56C",
"8. c #8CB072",
"9. c #ACAC61",
"0. c #83C752",
"q. c #96C954",
"w. c #9FD356",
"e. c #B4CD53",
"r. c #89C274",
"t. c #92C17D",
"y. c #90E666",
"u. c #DACE4E",
"i. c #CFD556",
"p. c #D8D953",
"a. c #DBE253",
"s. c #E5E757",
"d. c #DBD966",
"f. c #E1D765",
"g. c #EFE766",
"h. c #FFEF62",
"j. c #FEF463",
"k. c #FAF66A",
"l. c #FFFB6B",
"z. c #CD3E84",
"x. c #967386",
"c. c #CC4A8A",
"v. c #D1488B",
"b. c #D85697",
"n. c #CD798E",
"m. c #F16C8D",
"M. c #DC67A5",
"N. c #DE74AD",
"B. c #E379B2",
"V. c #A58483",
"C. c #AD8C90",
"Z. c #B98895",
"A. c #B99397",
"S. c #98BE82",
"D. c #A9A88A",
"F. c #A3BD8E",
"G. c #B8A298",
"H. c #AABE94",
"J. c #B1BD9B",
"K. c #BE95A1",
"L. c #BABDA7",
"P. c #BCBEB8",
"I. c #D286AB",
"U. c #C397A3",
"Y. c #CD9DAC",
"T. c #D199AD",
"R. c #D59BB3",
"E. c #E78ABE",
"W. c #E297BD",
"Q. c #C6BAAD",
"!. c #D6A3B7",
"~. c #C9BBB2",
"^. c #98C187",
"/. c #A6C29F",
"(. c #BBC1A3",
"). c #B1CCAC",
"_. c #CAC3B7",
"`. c #EC8BC2",
"'. c #FC8BCE",
"]. c #EB93C5",
"[. c #EE95C9",
"{. c #EC9BC9",
"}. c #F195CA",
"|. c #F29ACD",
" X c #FE8CD4",
".X c #FB97D3",
"XX c #F49ED1",
"oX c #DBBCC4",
"OX c #E9A7CB",
"+X c #ECADD2",
"@X c #F5A2D4",
"#X c #FAA3D5",
"$X c #F2ABD6",
"%X c #F6A1DB",
"&X c #FCA5DB",
"*X c #FDAEDE",
"=X c #EAB9D6",
"-X c #EDBCD5",
";X c #F4B6DB",
":X c #FEB0DE",
">X c #FEADE1",
",X c #FEB2E2",
"<X c #FCBBE6",
"1X c #FFB5EA",
"2X c #FFBBE9",
"3X c #FFB9F2",
"4X c #C6C9C9",
"5X c #D7C2C5",
"6X c #DBD2D7",
"7X c #FCC1E7",
"8X c #FBCAED",
"9X c #EBEDEB",
"0X c #F7EBF3",
"qX c #FEFFFF",
/* pixels */
"o.o.o.o.o.o.o.o.o.o.o.o.o.o.o.o. .o.o.o.o.o.o.o.o.o.o.o.o.o.o.o.o. .o.o.o.o.o.o.o.o.o.o.o.o.o.o.o. .o.o.o.o.o.o.o.o.o.o.o.o.o.o.o.o.o.o.o.o.o.o.o.o.o.o.o.o.o.o.",
"o.o.o.o.o.o.o.o.o.o.o.o.o.o.o.o.o.o.o.o.o.o.o.o.o.o.o.o.o.o.o.o.o.o.o.o.o.o.o.o.o.o.o.o.o.o.o.o.o.o.o.o.o.o.o.o.o.o.o.o.o.o.o.o.o...o.o.o.o.o.o.o.o.o.o.o.o.o.o.",
"o.o.o.o.o.o.o.o.o.o.o.o.o.o.o.o.o.o.o.o.o.o.o.o.o.o.o.o.o.o.o.o.o.o.o.o.o.o.o.o.o.o.o.o.o.o.o.o.o.o.o.o.o.o.o.o.o.o.o.o.o.o.o. .o.o.o.o.o.o.o.o.o.o.o.o.o.o.o.o.",
"o.o.o.o.o.o.o.o.o. .o.o.o.o.o.o.o.o.o.o.o.o.o.o.o.o.o.o.o.o.o.o.o.o.o.o.o.o.o.o.o.o.o.o.o.o.o.o.o.o.o.o.o.o.o.o.o.o.o.o.o.o.o.o.o.o.o.o.o.o.o.o.o.o.o.o.o.o.o.o.",
"o.o.o.o.o.o.o.o.o.o.o.o.o.o.o.o.o.o.o.o.o.o.o.o.o.o.o.o.o.o.o.o.o.o.o.o.o.o.o.o.o.o.o.o.o.o.o.o.o.o.o.o.o.o. .o.o.o.o.o.o.o.o.o.o.o.o.o.o.o.o.o.o.o.o.o.o.o.o.o.",
"o.o.o.o.o.o.o.o.o.o.o.o.o.o.o.o.o.o.o.o.o.o.o.o.o.o.o.o.o.o.o.o.o.o.o.o.o.o.o.o.o. .o.o.o.o.o.o.o.o.o.o.o.o.o.o.o.o.o.o.o.o.o.o.o.o.o.o.o.o.o.o.o.o.o.o.o.o.o.o.",
"o.o.o. .o.o.o.o.o.o.o.o.o.o.o.o.o.o.o.o.o.o.o.o.o.o.o.o.o.o.o.o.o.o.o.o.o.o.o.o.o.o.o.o.o.o.o.o.o.o.o.o.o.o.o.o.o.o.o.o.o.o.o.o.o.o.o.o.o.o.o.o.o.o.o.o.o.o.o.o.",
"o.o.o.o.o.o.o.o.o.o. .o.o.o.o.o.o.o.o.o.o.o.o.o. .o.o.o.o.o.o.o.o.o.o.o.o. .o.o.o.o.o.o.o.o.o.o.o.o.o.o.o.o.o.o.o.o.o.o.o.o.o.o.o.o.o.o.o.o.o.o.o.o.o.o.o.o.o.o.",
"o.o.o.o.o.o.o.o.o.o.o.o.o.o.o.o.o.o.o.o.o.o.o. .o.o.o.o.o.o.o.o.o. . . .~  .~  . . . . .o.o.o.o.o.o.o.o.o.o.o.o.o.o.o.o.o.o.o.o.o.o.o.o.o.o.o.o.o.o.o.o. .o.o.o.",
"o.o.o.o.o.o.o.o.o.o.o.o.o.o.o.o.o.o.o.o.o.o.o.o.o.o.o.o.o.o.o.o.o. . . . . .!  . . . . . .`  .o.o.o.o.o.o.o.o.o.o.o.o.o.o.o.o.o.o.o.o.o.o.o.o.o.o.o.o.o.o.o.o.o.",
"o.o.o.o.o.o.o.o.o.o.o.o.o.o.o.o.o.o.o.o.o.o.o.o.o.o.o.o.o.o.o.o. . . . . . . .~  .~  .o.o.o.o.o. .o.o.o.o.o.o.o. .o.o.o.o.o.o.o.o.o.o.o.o.o.o.o.o.o.o.o.o.o.o.o.",
"o.o.o.o.o.o.o.o.o.o.o.o.o. .o.o.o.o.o.o.o.o.o.o.o.o.o. . .o.o.o. . . . . . .+.o. .o.~ Y - U o. .o.o.o.o.o.o.o.o.o.o.o.o.o.o.o.o.o.o.o.o.o.o.o.o.o.o.o.o.o.o.o.o.",
"o. .o.o.o.o.o.o.o.o.o.o.o.o.o.o.o.o.o.o.o.o.o. . . .o.o.~ o.`  . .o. . . . .o.o. .` - < < w I  . .o.o.o.o.o.o.o.o.o.o.o.o.o.o.o.o.o.o.o.o.o.o. .o.o.o.o.o.o.o.o.",
"o.o.o.o.o. .o.o.o.o.o.o.o.o.o.o.o.o.o.o.o.o.o.o.o.o.` _ ` `  .o. .o.o.o.~ ~ ! ~ ` U < 2 2 3 *  .o. .~ o.o.o.o.o.o.o.o.o.o.o.o.o.o.o.o.o.o.o.o.o.o.o.o.o.o.o.o.o.",
"o.o.o.o.o.o.o.o.o.o.o.o.o.o.o.o.o.o.o.o.o.o. . .( I @ # $ = I U ] 8.{ o.~ Q Q ! ` + 1 2 2 : - ~ ~ o.o.o.o. .o.o.o.o.o.o.o.o.o.o.o.o.o.o.o.o.o.o.o.o.o.o.o.o.o.o.",
"o.o.o.o.o.o.o.o.o.o.o.o.o.o.o.o.o.o.o.o.o. . .^ $ < , < < : > : C.&X{.R.G.8.' ! +.V.4.y r 6.7.~ o.` Y I _ o.o.o.o.o. . .o. . .o.o. . .o.o.o.o.o.o.o.o.o.o.o.o.o.",
"o.o.o.o.o.o.o.o.o.o.o.o.o.o.o.o.o.o.o.o. .o.( $ < y 3 3 2 < $ ; K.2X:X&X>X&X{.Y.D.{.:X$X;X{.@.+.W : < < @ ( o.o.o.o.o.o.o.~ | o. . . .o.o.o.o.o.o.o. .o.o.o.o.o.",
"o.o.o.o.o.o.o.o.o.o.o.o...o.o.o.o.o.o.o.o.o.* 2 + # y 3 3 < $ < OX,XXXXX[.|.>X:X&XE.].*X#X7...%.h @ : 2 < I o.~ o.o.o.o. . .~  . . . .o.o.o.o.o.o.o.o.o.o.o.o.o.",
"o.o.o.o. .o.o.o.o.o.o.o. .o.o.o.o.o.o. .~ ( $ 2 X X : X # 2 + A.2XXXI.g 6X+X|.:X,X*X$X].E.L.).Y.#X!.U.4.< U  .` o.o. .o.o.o.o.~  .#.o. .o.o.o.o.o.o.o.o.o.o.o.o.",
"o.o.o.o.o.o.o.o.o.o.o.o. . .o.o.o.o.o. .o.I w R & > & . # > + 6.,X&Xx.  4X0X].,X@X[..X;X@XXX;X[.,X1X3XY.+ _ o. .o.o.! ~ o.o.| Q |  .| +.o.o.o.o.o.o.o.o.o.o.o.o.",
"o.o.o.o.o.o.o.o.o.o.o.o. .o.o.o.o.o.o. .o.U < 3 r r < < < + < % Y..X{.6XqX+X{.*X}.7X$X[.1X*X`.].*X*X,X5.I  . .o.o.o.o.o.o.o.o.+.#.&. . .o.o.o.o.o.o.o.o.o.o.o. .",
"o.o.o.o.o.o.o.o.o.o.o.o.o.o.o.o.o.o.o. .o._ $ , 2 < 2 < # > y : 5.1X[.{.].].;X.XC.4 9XOX@X,X*XXX].*X&XR  . .o.o.o.o.o.o.o.| ..+.#.#. . .o.o.o.o.o.o.o.o.o.o.o.o.",
"o.o.o.o.o.o.o.o.o.o.o.o.o.o.o.o.o.o.o.o. . .I > , > % # @ : : & U.1X,X@X@X,X>X&X4   9X8X[.,X:X,X@X[.D.o. .o.o.o.o.o.o.o.o. . . . . . .o.o.o. .o.o.o.o.o.o.o.o.o.",
"o.o.o.o.o.o.o.o.o.o.o.o.o.o.o.o.o.o.o.o.o. .` - & $ $ & f A.U.!.,X*X*X,X:X*X,X|.=X9XqXOXXX,X*X:X$X&XA.o. .o.o.o.o.o.o.o.o. .| |  . . .o.o.o. . .o.o.o.o.o.o.o.o.",
"o.o.o.o.o.o.o.o.o.o.o.o.o.o.o.o.o.o.o.o.o. .o.` - , 3 : Y.3X1X,X*X*X*X:X*X*X:X*X].$XOX[.>X*X*X:X:X,X&XD.o.` o.o.o.o.o.o. . . . .o.o.+. . . . .+.o.o.o.o.o.o.o.o.",
"o.o.o.o.o.o.o.o.o.o.o.o.o.o.o.o.o.o.o.o.o.o. .o.~ * > : C.,X*X*X*X:X:X:X:X:X*X*X*X#XXX*X,X*X*X*X,X,X$XT.[ o.o.o.o.o.o.o.o.o.o.o.o.o. . . . . . .o.o.o.o.o.o.o.o.",
"o.o.o. .o.o.o.o.o.o.o.o.o.o.o.o.o.o.o.o.o.o.o.~ o.~ I @ t ;X,X>X,X*X:X:X*X:X*X*X:X:X,X*X*X*X*X,X+X5.r t Y o.o.o.o.o.o.o.o.o.o.o.o.o.o.o.+. . .+.o.o.o.o.o.o.o.o.",
"o.o.o.o.o. .o.o.o.o.o.o.o.o.o.o.o.o.o.o.o.o.o.o.o. . .^ 5.|.|.&X:X*X*X>X,X*X:X:X:X*X:X:X*X:X,X$Xd ; < 2 * ` o.o.o.o.o.o.o.o.o.o.o.o.o.o. . . .+.o.o.o.o.o.o.o.o.",
"o.o.o.o.o.o.o.o.o.o.o. .o.o.o.o.o.o.o.o.o.o.o.o.o.o. .o.` G..XOX,X*X*X*X:X,X*X*X:X*X:X*X:X#X.Xx.* w 2 2 $ _ o. .o.o.o.o.o.o.o.o.o. .o.o.o.o.o.+.o.o.o.o.o.o.o.o.",
"o.o.o.o.o.o.o.o.o.o.o.o.o.o.o.o.o.o.o.o.o.o.o.o.o.o.o.` o.R.,X;X*X*X:X,X*X:X:X:X:X*X*X:X.X'. XI.< 2 2 2 < ( o.o.o.o.o.o.o.o.o.o.o.o.o.o.o.o.o.+.o.o.o.o.o.o.o.o.",
"o.o.o.o.o.o.o.o.o.o.o.o.o.o.o.o.o.o.o.o.o.o.o.o.o.o.o.o.8.&X,X,X,X:X:X*X:X:X:X*X:X*X:X*X'.'.'. Xh ; 2 2 < U o. .o.o.o.o.o.o.o.o.o.o.o.o.o.o.o.+.o.o.o.o.o.o.o.o.",
"o.o.o.o.o.o.o.o.o.o.o.o.o.o.o.o.o.o.o.o.o.o.o.o.o.o.o.o.G.,X,XXXXX,X*X*X:X>X:X:X:X:X,X&X'.'. X`.f ; < 2 < U o. .o.o.o.o.o.o.o.o.o.o.o.o.o.o.o.+.o.o.o. .o.o.o.o.",
"o.o.o.o.o.o.o.o.o.o.o.o.o. .o.o.o.o.o.o.o. .o.o.o.o.o.` T.,X<XN.B.<X*X*X*X:X:X*X;X>X,X&X'. XE.w & w < 2 < U o.` o.o.o.o.o.o.o.o.o.o.o.o. .o.o.o.o.o.o.o.o.o.o.o.",
"o.o.o.o.o.o.o.o.o.o.o.o.o.o.o.o.o.o.o.o.o.o.o.o.o.o.o.[ W.*X1XE.M.<X*X*X*X:X*X*X,X,X*X>X X XZ.* t < 2 2 < T o.~  .o.o.o.o.o.o.o.o.o.o.o.o.o. .+.o.o.o.o.o.o.o.o.",
"o.o.o.o.o.o.o.o.o.o.o.o.o.o.o.o.o.o.o.o.o.o.o.o.o.o.o.[ W.*X:X:Xv.`.2X*X*X>X*X2X|.M.*X*X$X X`.h ; < < 2 & ( o.o. .~ | o.o.o.o.o.o.o.o.o.o.o.o.o.o.o.o.o.o.o.o.o.",
"o.o.o.o.o.o.o.o.o.o.o.o.o.o.o.o.o.o.o.o.o.o.o.o.o.o.o.o.T.*X,X1X|.c.B.*X,X,X;X`.z.N.,X*X,X&X&X*XU.t 2 < $ ` o. .o. . .o.o.o.o.o.o.o.o.o.o.o.o.+.o.o.o.o.o.o.o.o.",
" .o.o.o.o.o.o.o.o.o.o.o.o.o.o.o.o.o.o.o.o.o.o.o.o.o.o.o.G.,X!.;X3X&XM.c.b.b.v.v.B.1X>X*X*X:X:X>X3XC.; 2 -  . .~  .o.o.o.o.o.o.o.o.o.o.o.o.o. .+.o.o.o.o.o.o.o.o.",
"o.o.o.o.o.o.o.o.o.o.o.o.o.o.o.o.o.o.o.o.o.o.o.o.o.o.o.o.7.h ; 4.U.A.OX@XE.E.`.&X<X+X*X,X:X:X*X,XOXr 2 & ^  .~ | ~  .| o.o.o.o.o.o.o.o.o.o.o.o.o.o.o.o.o.o.o.o.o.",
"o.o.o.o.o.o.o.o.o.o.o.o.o.o.o.o.o.o.o.o.o.o.o.o.o.o.o.o.o.I w ; : @ d ,X1X2X,X1XA.: 4.OX,X*X*X,XY.@ < * ! ~ ~  .o.o.o.o.o.o.o.o.o. .o.o.o.o.o.+.o.o.o.o.o.o.o.o.",
"o.o.o.o. .o.o.o.o.o.o.o.o.o.o.o.o.o.o.o.o.o.o.o.o.o.o.o.o.` * % r : V.,X*X&X,X,Xd , $ A.1X*X*X;X;X6.@ ( ~ ! ~ | o.o.o.o.o.o.o.o.o.o.o.o.o.o.o.+.o.o.o.o.o.o.o.o.",
"o.o.o.o.o.o.o.o.o.o.o.o.o.o.o.o.o.o.o.o.o.o.o.o.o.o.o.o.~ o.R 8 = > A.1X>X>XY.5.< 3 < 5.+X$X,X:X#X$X] | | #...| | o. .o.o.o.o.o.o.o.o.o.o.o.o.+.o.o.o.o.o.o.o.o.",
"o.o.o.o.o.o.o.o.o.o.o.o.o.o.o.o.o.o.o.o.o.o.o.` o.o.o.` o./ 5 z 8 o h >X1XK.= , < < < < t t Z.%X].H >.) O.&.&.X..... .) o.o.o.o.o.o.o.o.o. . .+.o.o.o.o.o.o.o.o.",
"o.o.o.o.o.o.o.o.o.o.o.o.o.o.o.o.~ ` ..o...` o.o.o.o.o.o.o.j v F F 7 n.].%XV.$ < < < < , % + + N.H 7 % ) O.y.y.O.L ....o.o.o.o.o.o.o.o.o.o.o.o.#.o. .o.o.o.o.o.o.",
"o.o.o.o.o.o. .o.o.o.o.o.o.o.o.o.o.o.o.` +.o.o.` o.o.o.o.>.j B V F B N H m.n.O # # + # % 8 6 k z 9 I $ Y X.O.X.X.....` o.o.o.o.o.o.o.o.o.o.o.o.&.o.o.o.o.o.o.o.o.",
"o.o.o.o.o.o.o.o.o.o.o.o.o.o.o.o.o.o. . .` o.o.o...t.~.Q.# < S B B B B M M B D x k k k z B G Z 0 1 r , $ Q.Q.7.K ..~ |  .o.o.o.o.o.o.o.o. . .+.*.o.o.o.o.o.o.o.o.",
"o.o.o.o.o.o.o.o.o.o.o.o.o.o.o.o.o.o.+.J.S.{ *.J.-X7X_.E % 1 u Z B B B N B B B B Z B Z B B B N e , < < & ] (.=X-X(.{ +.t._.r.o.o.o.o.o.o. . . .*.o.o.o.o.o.o.o.o.",
"o.o.o.o.o.o.o.o.o.o.o.o.o.o.o.o.o.o.+.(.7X;X2X-X/.@. .* > 1 a B N B B B N N B D 0 w a B N N B s , < < < P ! ` S.=X7X-X;X_.r.o.o.o.o. . .+. .o.$.o.o.o.o.o.o.o.o.",
"o.o.o.o.o.o.o.o.o.o.o.o.o.o.o.o.o.o.o.t.7X8XH.o. . .` @ < 2 s B B l 9 s Z B B 9 , , w D B N B B 9 2 3 < $ ` +.o.~ ^.<X7X^.o.o.o.o.o. .+. . .o.#.o.o.o.o.o.o.o.o.",
"o.o.o.o.o.o.o.o.o.o.o.o.o.o.o.o. . .#.4X4X). . .+.o.( & 2 1 - p G p - < a x p , < < w N B N B N e 2 < < , W ~ ` ~ +.oXoXoX} +. .o.o.o.o.o.o.o.o.o.o.o.o.o.o.o.o.",
"o.o.o. .o.o.o.o.o.o.o.o.o.o.o.o. . .#. . . . . . . .I , 2 0 p x B k < < , 3 2 < : , 0 B B N B k , < , 3 : ; +.Q ~ +.$.+.+.+.o.o.o.o.o.o.o.o.o.o.o.o.o.o.o.o.o.o.",
"o.o.o.o.o.o.o. .o.o.o.o.o.o.|  . . . . . . . . .+.~ = , q Z Z B B x < < < < < < w , 9 B B N B l w < e q z j ` ~  . . .o.o.o.o.o.o.o.o.o.o.o.o.o.o.o.o.o.o.o.o.o.",
"o.o.o.o.o.o.o.o.o.o.o.o.o.o. . . . . . . . . . . ._ + - A B B B G k 2 < < < < < 2 < < s B B N Z N c V G x 6 _ ~ ~  . . .o.o.o.o.o.o.o.o.o.o.o.o.o.o.o.o.o.o.o.o.",
"o.o.o.o.o.o.o.o.o.o.o.o. .o. . . . . . . . . . . .R j A N N M C a w < < < < t 3 < 2 2 , s F N N B B Z c 2 = ^ .. . . . .o.o.o.o.o.o.o.o.o.o.o.o.o.o.o.o.o.o.o.o.",
"o.o.o.o.o.o.o.o. .o.o.o. . . . . . . . .!  . . .` -.v Z B N N 0 1 < < < < 3 < < < w < 3 e z Z N B N B l 2 < Y o.o. . . .o.o.o.o.o.o.o.o.o.o.o.o.o.o.o.o.o.o.o.o.",
"o.o.o.o.o.o.o.o.o.o. .o. .|  . . . .J J K  . . .o.i v C M Z S 1 < 1 2 < < < < < , 1 , 2 < N B N B B Z z < , 1 _.7X=XQ.5XJ.o.o.o.o.o.o.o.o.o.o.o.o.o.o.o.o.o.o.o.",
"o.o.o.o.o.o.o.o.o.o. . . .|  .|  . .J J J  . . .o.7 n C B B x w < p k 0 < < < < p s p q k B M B B B k p 2 < = 7.F.Q.oX(.$.o.o.o.o.o. .o.o.o.o.o.o.o.o.o.o.o.o.o.",
"o.o.o.o.o.o.o.o.o.o.o.o. .+. . . . . . .|  . . . .* p F N B C V c F Z x , < , p Z Z Z B B B N B B V 2 1 < < =  .o.+. .+. . . . .o.o.o.o.o.o.o.o.o.o.o.o.o.o.o.o.",
"o.o.o.o.o.o.o.o.o.o.o.o. . . . . .#. .o. .| K | _ # , p B B B B B B B N e 1 w c C V B B B B B B B Z a 1 2 , # W +.`  .`  . .o. .o. .o.o.o.o.o.o.o.o.o.o.o.o.o.o.",
"o.o.o.o.o.o.o.o.o.o.o.o. . . . . . . .+. . . . .( & 2 2 A Z B V N C F F D A c F F V V V N N C V C x p 1 2 2 & (  .~ ~  .o.o.o.o.o.o.o.o.o.o.o.o.o.o.o.o.o.o.o.o.",
"o.o.o.o.o.o.o.o.o.o.o.o. . . . . . . .o. . . . .( & & : 9 m m m m b b b m m m m m m m n n n v 5 j $ & < , > > T +.~  .+.o.o.o.o.o.o.o.o.o.o.o.o.o.o.o.o.o.o. .o.",
"o.o.o.o.o.o.o.o.o.o.o.o. . .o.o.o. . . .o. . . .~ W W ( ^ =.=.=.-.;.<.<.-.-.-.-.-.-.-.-.=.;.;.,.>.] ' ^ ( ( ( `  . .+.o. .o.o.o.o.o.o.o.o.o.o.o.o.o.o.o.o.o.o.o.",
"o.o.o.o.o.o.o.o.o.o.o.o.+. .o.o.o.o.o.o.o.o.o.o.` +. . .o.o. .o.w.s.a.a.s.&. .` o.o.~ o. .e.s.p.a.s.0...o.o.o.o. . . .o.o.o.o.o.o.o.o.o.o.o.o.o.o.o.o.o.o.o.o.o.",
"o.o.o.o.o.o.o.o.o.o.o.o.o.o.o.o.o.o.o.o.o.o.o.o.o.o. . . .o.+.` e.j.j.j.j.q.`  .` o. . .o.e.h.k.l.s.0.` o. . .o.o.o.o.o.o.o.o.o.o.o.o.o.o.o.o.o.o. .o.o.o.o.o.o.",
"o.o.o.o.o.o.o.o.o.o.o.o.o.o.o.o.o.o.o.o.o.o.o.o.o.o.o. .+.q.i.i.u.h.l.k.h.q.o.o.o.o.w.p.p.u.k.k.2.< ( ..o.o.o.o.o.o.o.o.o.o.o.o.o.o.o.o.o.o.o.o.o.o.o.o.o.o.o.o.",
"o.o.o.o.o.o.o.o.o.o.o.o.o.o.o.o.o.o.o.o.o.o.o. . . .` *.} e g.l.g.2.>.:.2.q. . .o.{ 3.f.l.k.d.y > > /  .~ o.o.o.o.o.o.o.o.o.o.o.o.o.o.o.o.o.o.o.o.o.o.o.o.o.o.o.",
"o.o.o.o.o.o.o.o.o.o.o.o.o.o.o.o.o.o.o.o. . .o.#.^./.P.4XP.# :.9.:.> < < > U +.~ o.( $ 3 :.>.t 2 y , ( o.o.o.o.o.o.o.o.o. .o.o.o.o.o.o.o.o.o.o.o.o.o.o.o.o.o.o.o.",
"o.o.o.o.o.o.o.o.o.o.o.o.o.o.o.o.o.o.o.o. . . .#./.).4X4X^.- , $ : 2 < < < / +.~ o.` - < , > < < < < ( o.o.o.o.o.o.o.o.o.o.o.o.o.o.o.o.o. .o.o.o. .o.o.o.o.o.o.o.",
"o.o.o.o.o.o.o.o.o.o.o.o.o.o.o.o.o.o.o.o. . . .o. .+.$.*.+.o.( T Y T T ( / ` ~ ~ o. .` / ^ Y Y T T ( ` o.o.o. .o.o.o.o.o.o.o.o.o.o.o.o.o.o.o.o.o.o.o.o.o.o.o.o.o.",
"o.o.o.o.o.o.o.o.o.o.o.o.o.o.o.o.o.o.o.o.o.o. . .o.o.o.o. . . . .o.o.o.o.o.o.o.o.o.o.o.o.o.o.o.o.o.o.o.o.o.o.o.o.o.o.o.o.o.o.o.o.o.o.o.o.o.o.o.o.o.o.o.o.o.o.o.o.",
"o.o.o.o.o.o.o.o.o.o.o.o.o.o.o.o.o.o.o.o.o.o.o.o.o.o.o.o.+. . . . . .o. . .o.o.o.o.o.o.~ ~ o. .` o.~ o.o.o.o.o.o.o.o.o.o.o.o.o.o.o.o.o.o.o.o.o.o.o.o.o.o.o.o.o.o.",
"o.o.o.o.o.o.o.o.o.o.o.o.o.o.o.o.o.o.o.o.o.o.o.o.o.o.o.o.o.o.o.o.o.o.o.o.o.o. .o.o.o.o.o.o.o.o.o.o.o.o.o.o.o.o.o.o.o.o.o.o.o.o.o.o.o.o.o.o.o.o.o.o.o.o.o.o.o.o.o.",
"o.o.o.o.o.o.o.o.o.o.o.o.o.o.o.o.o.o.o.o.o.o.o.o.o.o.o.o.o.o.o.o.o.o.o.o.o.o. . .o.o.o.o.o.o.o.o.o.o.o.o.o.o.o.o.o.o.o.o.o.o.o.o.o.o.o.o.o.o.o.o.o.o.o.o.o.o.o.o.",
"o.o.o.o.o.o.o.o.o.o.o.o.o.o.o.o.o.o.o.o.o.o.o.o.o.o.o.o.o.o.o.o.o.o.o.o.o.@.+.@.+.+.o.o.o.o.o.o.o.o.o.o.o.o.o.o.o.o.o.o.o.o.o.o.o.o.o.o.o.o.o.o.o.o.o.o.o. .o.o.",
"o.o.o.o.o.o.o.o.o.o.o.o.o.o.o.o.o.o.o.o. .o.o.o.o.o.o.o.o.o.o.o.o.o.o.o.o. .o.o.o.o.o.o.o.o.o.o.o.o.o.o.o.o.o.o.o.o.o.o.o.o.o.o.o.o.o.o.o.o.o.o.o.o.o.o.o.o.o.o.",
"o.o.o.o.o.o.o.o.o.o.o.o.o.o.o.o.o.o.o.o.o.o.o.o.o.o.o.o.o.o.o.o.o.o.o.o.o.o.o.o.o. .o.o.o.o.o.o.o.o.o.o.o.o.o.o.o.o.o.o.o.o.o.o.o.o.o.o.o.o.o.o.o.o.o.o.o.o.o.o.",
"o.o.o.o.o.o.o.o.o.o.o.o.o.o.o.o.o.o.o.o.o.o.o.o.o.o.o.o.o.o.o.o.o.o.o.o.o.o.o.o.o.o.o.o.o.o.o.o.o.o.o.o.o. .o.o.o.o.o.o.o.o.o.o.o.o.o.o.o.o.o.o.o.o.o.o.o.o.o.o.",
"o.o.o.o.o.o.o.o.o.o.o.o.o.o.o.o.o.o.o.o.o.o.o.o.o.o.o.o.o.o.o.o.o.o.o.o.o.o.o.o.o.o.o.o.o.o.o.o.o.o.o.o.o.o.o.o.o.o.o.o.o.o.o.o.o.o.o.o.o.o.o.o. .o.o.o.o.o.o.o.",
"o.o.o.o.o.o.o.o.o.o.o.o.o.o.o.o.o.o.o.o.o.o.o.o.o.o.o.o.o.o.o.o.o. .o.o.o.o.o.o.o.o.o.o.o.o.o.o.o.o.o.o.o.o.o.o.o.o.o.o.o.o.o.o.o.o.o.o.o.o.o.o.o.o.o.o.o.o.o.o.",
"o.o.o.o.o.o.o.o.o.o.o.o.o.o.o.o.o.o.o.o.o.o.o.o.o.o.o.o.o.o.o.o.o.o.o.o.o.o.o.o.o.o.o.o. .o.o.o.o.o.o.o.o.o.o.o.o.o.o.o.o.o.o.o.o.o.o.o.o.o.o.o.o.o.o.o.o.o.o.o.",
"o.o.o.o.o.o.o.o.o.o.o.o.o.o.o.o.o.o.o.o.o.o.o.o.o.o.o. .o.o.o.o.o.o.o.o.o.o.o.o.o.o.o.o.o.o.o.o.o.o.o.o.o.o.o.o.o.o.o.o.o.o.o.o.o.o.o.o. .o.o.o.o.o.o.o.o.o.o.o."
};
