/* XPM */
static char *aefcdfaa01d349e093b8f3c539efeb9chIlxrdc4is3lbYNk[] = {
/* columns rows colors chars-per-pixel */
"80 80 215 2 ",
"   c #060604",
".  c #453F2D",
"X  c #4C4731",
"o  c #5D623F",
"O  c #666746",
"+  c #6C6C45",
"@  c #6B674A",
"#  c #6D6A4A",
"$  c #756B4A",
"%  c #726D4D",
"&  c #687547",
"*  c #6B734C",
"=  c #6A7B4C",
"-  c #75754A",
";  c #74734D",
":  c #746E51",
">  c #6C7650",
",  c #767452",
"<  c #7B7653",
"1  c #747952",
"2  c #7C7955",
"3  c #7E7B59",
"4  c #717070",
"5  c #EC3C48",
"6  c #9C5B4D",
"7  c #B4554A",
"8  c #87624C",
"9  c #936D53",
"0  c #9B6D56",
"q  c #9E6E59",
"w  c #837353",
"e  c #8B7356",
"r  c #817C57",
"t  c #83765B",
"y  c #827B5B",
"u  c #B16646",
"i  c #A96857",
"p  c #B66458",
"a  c #BB6359",
"s  c #8A7B65",
"d  c #937C6D",
"f  c #84747E",
"g  c #997C74",
"h  c #D1494A",
"j  c #CA5A58",
"k  c #CD5D5A",
"l  c #DB575A",
"z  c #D35B5B",
"x  c #DB595C",
"c  c #EC434E",
"v  c #EC4452",
"b  c #F24752",
"n  c #F24953",
"m  c #E65055",
"M  c #E5555D",
"N  c #EA535D",
"B  c #E9595E",
"V  c #F2525E",
"C  c #C2625A",
"Z  c #CD625D",
"A  c #D85E60",
"S  c #E85960",
"D  c #EB5961",
"F  c #F45360",
"G  c #E76477",
"H  c #4AAF37",
"J  c #4DB23A",
"K  c #55B83F",
"L  c #62BE3F",
"P  c #5F8644",
"I  c #66884A",
"U  c #65934A",
"Y  c #6A974D",
"T  c #659C4B",
"R  c #739451",
"E  c #7A9A57",
"W  c #5FA34A",
"Q  c #58B945",
"!  c #5BBD46",
"~  c #5DBE49",
"^  c #64A44B",
"/  c #68A44F",
"(  c #63AA4D",
")  c #64BD45",
"_  c #62B34C",
"`  c #61BD4C",
"'  c #6FA750",
"]  c #75A858",
"[  c #68BD52",
"{  c #71BA56",
"}  c #79B965",
"|  c #5EC047",
" . c #5EC14A",
".. c #64C345",
"X. c #6DC747",
"o. c #60C24B",
"O. c #73CB4B",
"+. c #65C351",
"@. c #6AC156",
"#. c #6BCD56",
"$. c #6DC35B",
"%. c #7AD55A",
"&. c #77C465",
"*. c #8B8E49",
"=. c #958949",
"-. c #98964B",
";. c #8B8656",
":. c #8C9251",
">. c #A6894C",
",. c #B0864D",
"<. c #90BF57",
"1. c #B3AD5B",
"2. c #B7AC58",
"3. c #94836C",
"4. c #9A8375",
"5. c #A1847B",
"6. c #88B56C",
"7. c #8CB072",
"8. c #ACAC61",
"9. c #83C752",
"0. c #96C954",
"q. c #9FD356",
"w. c #B4CD53",
"e. c #89C274",
"r. c #92C17D",
"t. c #90E666",
"y. c #DACE4E",
"u. c #CFD556",
"i. c #D8D953",
"p. c #DBE253",
"a. c #E5E757",
"s. c #DBD966",
"d. c #E1D765",
"f. c #EFE766",
"g. c #FFEF62",
"h. c #FEF463",
"j. c #FAF66A",
"k. c #FFFB6B",
"l. c #967386",
"z. c #CC4A8A",
"x. c #D1488B",
"c. c #D85697",
"v. c #CD798E",
"b. c #F16C8D",
"n. c #DC67A5",
"m. c #DE74AD",
"M. c #E379B2",
"N. c #A58483",
"B. c #B18489",
"V. c #AD8C90",
"C. c #B98895",
"Z. c #B99397",
"A. c #98BE82",
"S. c #9ABF90",
"D. c #A9A88A",
"F. c #B8A298",
"G. c #B1BD9B",
"H. c #BE95A1",
"J. c #BABDA7",
"K. c #BCBEB8",
"L. c #D286AB",
"P. c #C397A3",
"I. c #CD9DAC",
"U. c #D199AD",
"Y. c #D59BB3",
"T. c #E78ABE",
"R. c #E297BD",
"E. c #C6BAAD",
"W. c #D6A3B7",
"Q. c #C9BBB2",
"!. c #98C187",
"~. c #A6C29F",
"^. c #BBC1A3",
"/. c #B1CCAC",
"(. c #CAC3B7",
"). c #EC8BC2",
"_. c #FC8BCE",
"`. c #EB93C5",
"'. c #EE95C9",
"]. c #EC9BC9",
"[. c #F195CA",
"{. c #F29ACD",
"}. c #FE8CD4",
"|. c #FF8CD8",
" X c #FB97D3",
".X c #F49ED1",
"XX c #DBBCC4",
"oX c #E9A7CB",
"OX c #E5BCCA",
"+X c #ECADD2",
"@X c #F5A2D4",
"#X c #FAA3D5",
"$X c #F2ABD6",
"%X c #F6A1DB",
"&X c #FCA5DB",
"*X c #FDAEDE",
"=X c #EAB9D6",
"-X c #EDBCD5",
";X c #F4B6DB",
":X c #FEB0DE",
">X c #FFA6E0",
",X c #FEADE1",
"<X c #FEB2E2",
"1X c #FCBBE6",
"2X c #FFB5EA",
"3X c #FFBBE9",
"4X c #FFB9F2",
"5X c #C6C9C9",
"6X c #D7C2C5",
"7X c #DBD2D7",
"8X c #FCC1E7",
"9X c #FBCAED",
"0X c #EBEDEB",
"qX c #F7EBF3",
"wX c #FEFFFF",
/* pixels */
"o.o.o.o.o.o.o.o.o.o.o.o.o.o.o.o.o.o.o.o.o.o.o.o.o.o.o.o.o.o.o.o.o.o.o.o.o.o.o.o.o.o.o.o.o. .o.o.o.o.o.o.o.o.o.o.o.o.o.o.o.o.o. .o.o.o.o.o.o.o.o.o.o.o.o.o.o.o.o.",
"o.o.o.o.o.o.o.o.o.o.o.o.o.o.o.o.o.o.o. .o.o.o.o.o.o.o.o.o.o.o.o.o.o.o.o.o.o.o.o.o.o.o.o.o.o.o.o.o.o.o.o.o.o.o.o.o.o.o.o.o.o.o.o.o.o.o.o.o.o.o.o.o.o.o.o.o.o.o.o.",
"o.o.o.o.o.o.o.o.o.o.o.o.o.o.o.o.o.o.o.o.o.o.o.o.o.o.o.o.o.o.o.o. .o.o.o.o.o.o.o.o.o.o.o.o.o.o.o.o.o.o.o.o.o.o. .o.o.o.o.o.o.o.o.o.o.o. .o.o.o.o.o.o.o.o.o.o.o.o.",
"o.o.o.o.o.o.o.o.o. .o.o.o.o.o.o.o.o.o.o.o.o.o.o.o.o.o.o.o.o.o.o.o.o.o.o.o.o.o.o.o.o.o.o.o.o.o.o.o.o.o.o.o.o.o. .o.o.o.o.o.o.o.o.o.o.o.o.o.o.o.o.o.o.o.o.o.o.o.o.",
"o.o.o.o.o.o.o.o.o.o.o.o.o.o.o.o.o.o.o.o.o.o.o.o.o.o.o.o.o.o.o.o.o.o.o.o.o.o.o.o.o.o.o.o.o.o. .o.o.o. . . .+.+. .o.o.o.o.o.o.o.o.o.o.o.o.o.o.o.o.o.o.o.o.o.o.o.o.",
"o.o.o.o.o.o.o.o.o.o.o.o.o.o.o.o.o.o.o.o.o.o.o.o.o.o.o.o.o.o.o.o.o.o.o.o.o.o.o.o.o.o.o.o.o.o.o.o.o.o.+. . . . . .o.o.o.o.o.o.o.o.o.o.o.o.o.o.o.o.o.o.o.o.o.o.o.o.",
"o.o.o. .o.o.o.o.o.o.o.o.o.o.o.o.o.o.o.o.o.o. .o.o.o.o.o.o.o.o.o.o.o.o.o. ...o.o.o.o.o.o.o.o.o.o.o.o.o.o. . . . .o.o.o.o.o.o.o.o.o.o.o.o.o.o.o.o.o.o.o.o.o.o.o.o.",
"o.o.o.o.o.o.o.o.o.o. .o.o.o.o.o.o.o.o.o.o.o.o.o.o.o. .o.o.o.o.o.o.o.o. . .o.o.o.o.o.o.o.o.o. . .o.o.o.o. . . .+.o.o.o.o.o.o.o.o.o.o.o.o.o.o.o.o.o.o.o.o.o.o.o.o.",
"o.o. .o.o.o.o.o.o.o.o.o.o.o.o.o.o.o.o.o.o.o.o.o.o.o.o.o.o.o.o.o.o.o.o.o.o.o.o.o.~  . .~  . . . .o.o.o.o.o.o.o.o. .o.o.o.o.o.o.o.o.o.o.o.o.o.o.o.o.o.o.o.o.o.o.o.",
"o.o.o.o.o.o.o.o.o.o.o.o.o.o.o.o.o.o.o.o.o.o.o.o.o.o.o.o.o.o.o.o.o. . . .o. .o. . .! | |  . . . .o.o.o.o.o.o.o.o.o.o.o.o.o.o.o.o.o.o.o.o.o.o.o.o.o.o.o.o.o.o.o.o.",
"o.o.o.o.o.o.o.o.o.o.o.o.o.o.o.o.o.o.o.o.o.o.o.o.o.o.o.o.o.o.o.o.o.o.o.o.o.o. . . . .|  .~  . .o.o.o.o.o.o.o.o.o.o.o.o.o.o.o.o.o.o.o.o.o.o.o.o.o.o.o.o.o.o.o.o.o.",
"o.o.o.o.o.o.o.o.o.o.o.o.o. .o.o.o.o.o.o.o.o.o.o.o.o.o.o.o.o.o.o.o.` I I U `  . . .o. . . . .+.o.o.o.o. . . .o. .o.o.o.o.o.o.o.o.o.o.o.o.o. .o.o.o.o.o. .o.o.o.o.",
"o.o.o.o.o.o.o.o.o.o.o.o.o.o.o.o.o.o.o.o.o.o.o. .o.o.o.o.o.o.o. .o.I 2 2 < & `  .o.o. .~  . .`  . .o.o.o.o.o. .` o.o.o.o.o.o.o.o.o.o.o.o.o.o.o.o.o.o.o.o.o.o.o.o.",
"o.o.o.o.o.o.o.o.o.o.o.o.o.o.o.o.o.o.o.o.o.o.o.o.o.o.o.o.o.o. .o.o.= 2 3 r < Y  . .| ~ ~  . .o.~ o.o.o._ _ ~ o.o.o.o.o.o.o.o.o.o.o.o.o.o. .o.o.o.o.o.o.o.o.o.o.o.",
"o.o.o.o.o.o.o.o.o.o.o.o.o.o.o.o.o.o.o.o.o.o.o.o.o.o. .o.o.o.o. .o.& ; < < < O o.! Q Q Q o.{ 7.] I I & @ @ + I _ o. .o.o.o.o.o.o.o.o.o.o.o.o.o.o.o.o.o.o.o.o.o.o.",
"o.o.o.o.o.o.o.o.o.o.o.o.o. . .o.o. .o.o. . .o.o.o.o. .( I U ` o.o.6.5.y y d N. .! { 7.Z.Y.].>XB.- : , 2 < < < & ( o. .o.o.o. .o.o.o.o.o.o.o.o.o.o.o.o.o.o.o.o.o.",
"o.o.o.o.o.o.o.o.o.o.o.o.o. . .o.o. . . . .o.o.o.~ o.( + 2 < ; W o.[ `.;X;X<X{.D.I.{.&X&X&X<X3XH.- % < 2 3 2 y 2 # ^ o. .o.o.o.o.o.o.o.o.o.o.o.o.o.o.o.o.o.o.o.o.",
"o.o.o.o. .o.o.o.o.o.o.o.o.o.o. . .|  . .o.o.o.o.o.o.I < 3 ; + g }  .6.#X&X`.T.&X,X<X{.'.@X.X<X+X2 # < 3 3 y @ O < & o.o.o.o.o.o.o.o.o.o.o.o.o.o.o.o.o.o.o.o.o.o.",
"o.o.o.o.o.o.o.o.o.o.o.o.o. .#. . .|  .o. . .o.o.~ o.U < 3.P.W.@XI./.J.T.`.@X*X<X:X{.+X7Xf L.@X2XV.O < @ X % X X < # (  . .o.o.o.o.o.o.o.o.o.o.o.o.o.o.o.o.o.o.o.",
"o.o.o.o.o.o.o.o.o.o.o.o.o.| | | | |  . . .| o.o. .o._ O I.4X2X<X@X;X.X.X;X@X'.%X1X`.qX5X  l. X,X5.+ , @ . % , % 3 < U  . .o.o.o.o.o.o.o.o.o.o.o.o.o.o.o. .o.o.o.",
"o.o.o.o.o.o.o.o.o.o.o.o. .+.%.#.+.o.o.o. .o.o.o.o.~ o.P 4.<X:X*XR.T.:X1X].oX8X[.$X{.+XwX7XY.&XI.- 2 @ < < < r 3 3 < U o.~ o.o.o.o.o.o.o.o.o.o.o.o.o.o.o.o.o.o.o.",
"o.o.o.o.o.o.o.o.o.o.o.o. . .#.#.+.o. .o.o.o.o.o.o. .o.` R $X*XT..X:X<X.X+X0X4 V. X:X`.`.{.{.2X5.- t % @ < 2 < 2 < @ _ o.o.o.o.o.o.o.o.o.o.o.o.o.o.o.o.o.o.o.o.o.",
"o. .o.o.o.o.o.o.o.o.o.o. .|  . . . .o.o.o.o.o.o.o.o.o.o.` D.[.@X<X:X<X[.9X0X  4 &X:X:X@X#X:X2XP.% ; ; + @ $ < , % I o.o.o.o.o.o.o.o.o.o.o.o.o.o.o.o.o.o.o.o.o.o.",
"o.o.o.o.o.o.o.o. .o.o.o. . . . . . .o.o.o.o.o.o.o.o.o.+.o.Z.#X:X:X*X<X.XoXwX0X=X{.:X:X:X:X*X:X<XY.P.H.d % + @ # = `  .o.o.o.o.o.o.o.o.o.o.o.o.o.o.o.o.o.o.o.o.o.",
"o.o.o.o.o.o.o.o.o.o.o.o.o.o.o.o. . . . .o.o.o.o.o.o.o.o.D.&X<X:X*X:X*X,X'.oX@X`.&X:X:X*X:X*X*X,X<X<X3XI.; 3 : = ~  .o.o.o.o.o.o.o.o.o.o.o.o.o.o.o.o.o.o.o.o.o.o.",
"o.o.o.o.o.o.o.o.o.o.o.o.o.o.o.o. ... . .o.o.o.o.o.o.o.@.U.$X<X<X:X*X*X:X:X#X@X*X:X*X:X<X*X:X*X*X,X*X1XV.- % = ` o. .o.o.o.o.o.o.o.o.o.o.o.o.o.o.o.o.o.o.o.o.o.o.",
"o.o.o.o.o.o.o.o.o.o.o.o.o.o.o.o.o.o.o.o.o.o.o.o.o.o.o.Y r 2 4.+X<X*X*X:X:X<X:X:X*X:X:X*X:X:X:X*X,X<X:Xs @ I ~ o.~ o.o.o.o.o.o.o.o.o.o.o.o.o.o.o.o.o.o.o.o.o.o.o.",
"o.o.o.o.o.o.o.o.+.o.o.o.o.o.o.o.o.o.o.o.o.o.o.o.o.o.o.& 2 w & s $X<X,X:X*X*X:X*X*X<X*X:X:X*X*X<X*X].{.3.^ o.o. .o.o.o.o.o.o.o.o.o.o.o.o.o.o.o.o.o.o.o.o.o.o.o.o.",
"o.o.o.o.o.o.o.o.+. .o.o.o.o.o.o.o.o.o.o.o.o.o.o.o.o._ % 2 < w - B.|.#X<X:X:X*X*X*X:X:X:X*X*X*X<XoX XF.` o. .o.o.o.o.o.o.o.o.o.o.o.o.o.o.o.o.o.o.o.o.o.o.o.o.o.o.",
"o.o.o.o.o.o.o.o.+.o.o.o.o.o.o.o.o.o.o.o.o.o.o.o.o.o.^ : r 2 w ; L.}._..X:X*X:X:X:X:X<X*X:X*X*X*X,X,XI.+.` o.o.o.o.o.o. .o.o.o.o.o.o.o.o.o.o.o.o.o.o.o.o.o.o.o.o.",
"o.o.o.o.o.o. .o.+.o.o.o.o.o.o.o.o.o.o.o.o.o.o.o.~ o.U < 2 r - g _._.}._.&X:X*X:X*X:X:X*X:X*X*X<X<X<X&X7.o.o.o.o.o.o.o.o.o.o.o.o.o.o.o.o.o.o.o.o.o.o.o.o.o.o.o.o.",
"o.o.o.o.o.o.o.o.+.o.o.o.o. .o.o.o.o.o.o.o. .o.o. .o.U < < < ; d ).}._._.&X<X*X:X<X*X*X<X:X*X<X@X{.1X,XF.o.o.o.o.o.o.o.o.o.o.o.o.o.o.o.o.o.o.o.o.o.o.o.o.o.o.o.o.",
"o.o.o.o.o.o.o.o.+.o.o.o.o.o.o.o.o.o.o.o.o.o.o. .o.o.I < 2 < < < t T.|._.&X<X*X*X*X:X:X:X*X*X<XM.m.3X<XU. .o.o.o.o.o.o.o.o.o.o.o.o.o.o.o.o.o.o.o.o.o.o.o.o.o.o.o.",
"o.o.o.o.o.o.o.o.+.o.o.o.o.o.o.o.o.o.o.o.o.o.o. .| o.T < 2 < r y + C.|.[.,X*X2X<X*X*X:X*X*X*X3Xn.T.2X*XR.[ o.o.o.o.o.o.o.o.o.o.o.o.o.o.o.o.o.o.o.o.o.o.o.o.o.o.o.",
"o.o.o.o.o.o.o.o.o. .o.o.o.o.o.o.o.o.o.o.o. .~ | o.o.( % 2 < < + d ).}.&X:X:Xn.{.3X*X*X*X*X8X).c.,X*X*XR.[ o. .o.o.o.o.o.o.o.o.o.o.o.o. .o.o.o.o.o.o.o.o.o.o.o.o.",
"o. .o.o.o.o.o.o.+. .o.o. .o.o.o.o.o.o.o.o. . .o.o.o.` + 2 < s P.&X&X*X:X:X<Xn.z.).,X<X<X&XM.z.'.2X<X*XU.o.o.o.o.o.o.o.o.o.o.o.o.o.o.o. .o.o.o.o.o.o.o. . .o.o.o.",
"o.o.o.o.o.o.o.o.+. . . .o.o.o.o.o.o.o.o.o.o.o. .o. .o.= 2 ; V.2X:X:X:X*X*X<X1XM.x.x.c.c.z.n.&X2X$XW.,XF. .o.o.o.o.o.o.o.o.o.o.o.o.o. . .o.o.o.o.o.o.o.o.o.o.o.o.",
"o.o.o.o.o.o.o.o.+. .o. .o.o.o.o.o.o.o.o.o.o. .|  .~ | ^ ; < 2 oX<X*X,X*X:X*XoX2X%X).T.).@XoXP.H.3.- N.} o.o.o.o.o.o.o.o.o.o.o.o.o.o. . .o.o.o.o.o.o.o.o.o.o.o.o.",
"o.o.o.o.o.o. . .+.o.o.o. .o.o.o.o.o.o.o.o.o.o.o. .| ! ~ & , + I.2X*X*X<X+Xs , Z.<X1X2X2X<Xs + % < < P o.o.o.o.o.o.o. .o.o.o.o.o.o.o.o.o.o.o.o.o.o.o.o.o.o.o.o.o.",
"o.o.o.o.o.o.o. .+.o.o.o.o.o.o.o.o.o.o.o.o.o.o.o. .~ ! ~ ( % 5.;X*X*X*X2XZ.+ < s <X<X*X*X<X5., 3 , = ` o.o.o.o.o.o.o.o.o.o.o.o.o.o.o.o.o.o.o.o.o.o.o.o.o.o.o.o.o.",
"o.o.o.o.o.o.o.o.o.o.o.o.o.o.o.o.o.o.o.o.o.o.o.~ | o...o.o.] '.#X:X<X$X$X4., 2 < 5.Y.:X*X<XV.; * $ *. . .o.o. . .o.o.o.o.o.o.o.o.o.o.o.o. .o.o.o.o.o.o.o. .o.o.o.",
"o.o.o.o.o.o.o.o.#. . .o.o.o.o.o.o.o.o.o.o.o...L X.%.%.O.| :.b.].@XV.t t < w < 2 ; + Z.2X,Xf o 9 m 5 '  .o.o. .+.o.o.` o.o.o.o.o.o.o.o.o.o.o.o.o.o.o.o.o.o.o.o.o.",
"o.o.o.o.o.o.o. .#. .o.o.o.o.o.o.o.o.o.o.o.o...L X.t.t.X.) $ 7 G m.O & % : < < < 3 # N.>X'.v.7 S M c h ) o.o. . .o.o...o.o.` ` o.o.o.o.o.o.o.o.o.o.o.o.o.o.o.o.o.",
"o.o.o.o.o.o.o.o.&.o.o. .o.o.o.o.o.o.o.o.` ) ....X.X.O.X.Y ; I 9 l j 6 8 $ @ O @ @ @ v.b.G F F M M N h E +.o. . .` o.o.` o.o...o.o.o.o.o.o.o.o.o.o.o.o.o.o.o.o.o.",
"o.o.o.o.o.o.o.o.&. . . .o.o.o.o. . .| | o...! ..| 6.E.E.# ; r 1 0 V V B l j j j z M N m m N N N N Z $ % Q.Q.7. .o...o.+.` o.o.o.o.o.o.o.o.o.o. .o.o.o.o.o.o.o.o.",
"o.o.o.o.o.o.o.o.&.o.+. .o.o.o.o. . .e.(.r.o.{ J.-X-X^.] # 2 < < e M M M V V N V F M N N M N M N V 0 1 @ ] E.8X1X^.&.$.7.G.@.o.o.o.o.o.o.o.o.o.o.o.o.o.o.o.o.o.o.",
"o.o.o.o.o.o.o.o.$.o.o.o.o.o.o.o.o.o.e.(.1X-X8X-XA.~ ! P < t 2 , a N N m N p w 0 l N N N N N N N N p 1 < I  .@.G.-X3X;X8X^.@.o.o.o.o.o.o.o.o.o.o.o.o.o.o.o.o.o.o.",
"o.o.o.o.o.o.o.o.#.o.o.o.o.o.o.o.o.o. .!.1X3X!.~  . .[ @ 2 2 1 9 N N N N M w 1 1 9 S N V a 9 k N M a < < @ ` o...+.!.9X8Xr.o.o.o.o.o.o.o.o.o.o.o.o.o.o.o.o.o.o.o.",
"o.o. .o.o.o.o.o.+. .o.o.o.o.o.o.o.o.e.OX6XXX+.~ ~ ` W : r < < 9 M N N N M w < < 1 q x p < = i V i = 1 2 : T  . . . .E.6XXX$. .o.o.o.o.o.o.o.o.o.o.o. .o.o.o.o.o.",
"o.o.o.o.o.o.o.o.o.o.o.o.o.o.o.o.o.o.o. .o.{  .+.Q +.1 < 1 1 < 1 j N M N N 0 ; < < < < , < , j V z p 0 2 , I  . . . . . . .+.o.o.o.o.o.o.o.o.o.o.o.o.o.o.o.o.o.o.",
"o.o.o.o.o.o.o.o.o.o.o.o.o.o.o.o.o.o.o.o.o.o. . . .~ h z q e < e k M M N N 9 < < 2 2 < w 2 < k N M V V q 1 * o. . . . . . . .o.o. . .o.o.o.o.o.o.o.o.o.o.o.o.o.o.",
"o.o.o.o.o.o.o.o.o.o.o.o.o.o.o.o.o.o.o.o.o.o. . . .( 6 z V M l M V M N N a < < < < < < < < < j V B M V C > O ~  . . . . . . . . . . .o. .o.o.o.o.o.o.o.o.o.o.o.o.",
"o.o.o.o.o.o.o. .o.o.o. .o.o.o.o.o.o.o.o. . . . . .^ * < z V M N M N N C 1 3 < < 2 < w < < < w a M N N M C 7 *. . . .| |  . . . . . . . .o.o.o.o.o.o.o.o.o.o.o. .",
"o.o.o.o.o.o.o.o.o.o.o.o.o.o.o.o.o.o.o.o. . . .` ) U < < k N m N M N l e < t 3 < < 2 < 2 < 2 < 1 0 M N N V 5 =. .|  . .|  .|  . . . . . .o.o.o.o.o.o.o.o.o.o.o.o.",
"o.o.o.o.o.o.o.o.o.o.o.o.o.o.o.o.o.o. .G.6X^.=X3X(.1 , r l V N N N N l w , , , < < y < < < 1 < < 1 k V N V c u .. . . .| Q J  . .|  .o.o.o.o.o.o.o.o.o.o.o.o.o.o.",
"o.o.o.o.o.o.o.o.o.o.o.o.o.o.o.o. . . .&.^.XXQ.S.6.* < 3 i Z N N N M B k q i a i < < < < 0 C i e w z N M B b 7 .. . . .J H H  . .|  .o.o.o.o.o.o.o.o.o.o.o.o.o.o.",
"o.o.o.o.o.o.o.o.o.o.o.o.o.o.o.o.o.o.o.o.o.o. .` ! @ 2 2 1 2 M N N M N N V N V V i , y , z V N x M N M F S i O `  . . .K !  . . . .o.o.o.o.o.o.o.o.o.o.o.o.o.o.o.",
"o.o.o.o.o.o.o.o.o.o.o.o.o.o.o.o.o.o.o.~ o.` ` +._ @ < 2 ; p V M N N N M M N N N x e 1 9 l M M N N M M S i > @ [  . .K  . . . . .|  .o.o.o.o.o.o.o.o.o.o.o.o.o.o.",
"o.o.o.o.o.o.o.o.o.o.o.o.o.o.o.o.o.o.o.o.o.+. .o.^ % < 2 2 q z B M S S B S S B S S A C A S D M B M S F C 3 3 @ (  . . . . .#. . .o.o.o. .o.o.o.o.o.o.o.o.o.o.o.o.",
"o.o.o.o.o.o.o.o.o.o.o.o.o.o.o.o.o.o.o.o.o.~ ~ ` T , % , < ; # h 5 5 v n n n n n n n n 5 v v v n n b n 9 > : > W  . . . . . . . .o.o.o. .o.o.o.o.o.o.o.o.o.o.o.o.",
"o.o.o.o.o.o. .o.o.o.o.o.o.o.o.o.o.o.o.o.o.o.o.o.~ ( ( / / / ] -.>.-.=.*.*.=.=.=.=.=.=.>.,.,.>.=.*.*.*.^ Q Q `  . . . . . . . . .o.o.o.o.o.o.o.o.o.o.o. . .o.o.o.",
"o.o. .o.o.o.o.o.o.o.o.o. .o.o.o.o.o.o.o.o.o.o.o.~ o. . .o.9.a.p.p.a.w.o. .o. .| o...%.a.i.p.a.q. .o.o.o. . . .+. . . .#. . .#. .o.o.o.o.o.o.o.o.o.o.o.o.o.o.o.o.",
"o.o.o.o.o.o.o.o.o.o.o.o.o.o.o.o.o.o.o.o.o.o.o.o.o. . .o. .9.a.k.k.h.w.) o.o.` o.` ` 0.g.k.k.h.w.o.o.o.o. . . . . . . . . . . . .o.o.o.o.o.o.o.o.o.o.o.o.o.o.o.o.",
"o.o.o.o.o.o.o.o.o.o.o.o.o.o.o.o.o.o.o.o.o.o.o.o.o.o.o.o. ./ 2 1.j.h.y.u.i.q.o. .o.~ 0.h.j.k.g.i.u.u.0.o. . . . . .#. . . . . . .o.o.o.o.o.o.o.o.o.o.o.o.o.o.o.o.",
"o.o.o.o.o.o.o.o.o.o.o.o.o.o.o.o.o.o.o.o.o.o.o.o.o.o.o.|  ._ ; % r s.j.k.d.2.{ o.o.o.<.1.;.;.1.f.k.f.;.} } +. . .o.o.o.o.o.o.o.o.o.o.o.o.o.o.o.o.o.o.o.o.o.o.o.o.",
"o.o.o.o.o.o.o.o.o.o.o.o.o.o.o.o.o.o.o.o.o.o.o.o.o.o.o. .o._ , r < 2 :.;.< : ( o.`  .Y % 2 ; , ;.8.;.@ Q.5XK.~.!.+.o.o.o.o.o.o.o.o.o.o.o.o.o.o.o.o. .o.o.o.o.o.o.",
"o.o.o.o.o.o.o.o.o.o.o.o.o.o.o.o.o.o.o.o.o.o.o.o.o.o.o.o.o.( < < 2 2 , , < > ` o.~  ./ 3 < < 2 , % , = !.5XK.K.~.$.o. .o.o.o.o.o.o.o.o.o.o.o.o.o. . . .+.o.o.o.o.",
"o.o.o.o.o.o.o.o.o.o.o.o.o.o.o.o.o.o.o.o.o.o.o.o.o.o.o.o.o.` ^ T T Y Y T / `  .o.+.~ ` / ^ T Y Y T (  . .&.$.+.+.o.o.o.o.o.o.o.o.o.o.o.o.o.o.o.o.+. . .o.o.o.o.o.",
"o.o.o.o.o.o.o.o.o.o.o.o.o.o.o.o.o.o.o.o.o.o.o.o.o.o.o.o.o.o.o.o.o.o.o.o.o.o.o.o. . .o.o.o.o.o.o.o.o.o.o. . . .+. .o.o.o.o.o.o.o.o.o.o.o.o.o.o.o. .o.o.o.o.o.o.o.",
"o.o.o.o.o. .o.o.o.o.o.o.o.o.o.o.o.o.o.o.o.o.o.o.o.o.o.o.o.o. . . . .o. . . .o.o.o. .o. .`  . . . . .o.o. . . . .o.o.o.o.o.o.o.o.o.o.o.o.o.o. .o.o.o.o.o.o.o.o.o.",
"o.o.o.o.o.o.o.o.o.o.o.o.o.o.o.o.o.o.o.o.o.o.o.o.o.o.o.o.o.o.o.o.o.o.o.o.o.o.o.o.o. .o.o. .o.o.o.o.o. .o. .+. . .o.o.o.o.o.o.o.o.o.o.o.o.o.o.o.o.o.o.o.o.o.o.o.o.",
"o.o.o.o.o.o.o.o.o.o.o.o.o.o.o.o.o.o.o.o.o.o.o.o.o.o.o.o.o.o.o.o.o.o.o.o.o.o.o. .o.o.o.o.o.o.o.o.o.o. . . . .+. .o.o.o.o.o.o.o.o.o.o.o.o.o.o.o.o.o.o.o.o.o.o.o.o.",
"o.o.o.o.o.o.o.o.o.o.o.o.o.o.o.o.o.o.o.o.o.o.o.o.+. .o.o.o.o.o.o.o.o.o.o.o.o.+.+.+.+.+.+.o.o.o. .o.o.o.o.o.o.o.o.o.o.o.o.o. .o.o. .o.o.o.o.o.o.o.o.o.o.o.o.o.o.o.",
"o.o.o.o.o.o.o.o.o.o.o.o.o.o.o.o.o.o.o.o.o.o.o.o.o. .o.o.o.o.o.o.o.o.o.o.o.o.o.o.o.o.o.o.o.o.o.o.o.o.o.o.o.o.o.o.o.o.o.o.o.o.o.o.o.o.o.o.o.o.o.o.o.o.o.o.o.o.o.o.",
"o. .o.o.o.o.o.o.o.o.o.o.o.o.o.o.o.o.o.o.o.o.o.o.o.o.o.o.o.o.o.o.o.o.o.o.o.o.o.o.o.o.o.o.o.o.o.o.o.o.o.o.o.o.o.o.o.o.o.o.o.o.o.o.o.o.o.o.o.o. .o. . .o.o.o.o.o.o.",
"o.o.o.o.o.o.o.o.o.o.o.o.o.o.o.o.o.o.o.o.o.o.o.o.o.o.o.o.o.o.o.o.o.o.o.o.o.o.o.o.o.o.o.o.o.o.o.o.o.o.o.o.o.o.o.o.o.o.o.o.o.o.o.o.o.o.o.o.o.o.o.o. .+. .o.o.o.o.o.",
"o.o.o.o.o.o.o.o.o.o.o.o.o.o.o.o.o.o.o.o.o.o.o.o.o.o.o.o.o.o.o.o.o.o.o.o.o.o.o.o.o.o.o.o.o.o.o.o.o.o.o.o.o.o.o.o. .o.o.o.o.o.o.o.o.o.o.o.o.o.o.o. . .o.o.o.o.o. .",
"o.o.o.o.o.o.o.o.o.o.o.o.o.o.o.o.o.o.o.o.o.o.o.o.o.o.o.o.o.o.o.o.o.o.o.o.o.o.o.o.o.o.o.o.o.o.o.o.o.o.o.o.o.o.o.o.o.o.o.o.o.o.o.o.o.o.o.o.o.o.o.o.o. .o.o.o.o.o.o.",
"o.o.o.o.o.o.o.o.o.o.o.o.o.o.o.o.o.o.o.o.o.o.o.o.o.o.o. .o.o.o.o.o.o.o.o.o.o.o.o.o.o.o.o.o.o.o.o.o.o.o.o.o.o.o.o.o.o.o.o.o.o.o.o.o.o.o.o.o.o.o.o.o.o.o.o.o.o.o.o.",
"o.o.o.o.o.o.o.o.o.o.o.o.o.o.o.o.o.o.o.o.o.o.o.o.o.o.o.o.o.o.o.o.o.o.o.o.o.o.o.o.o.o.o.o.o.o.o.o.o.o.o.o. .o.o.o.o.o.o.o.o.o.o.o.o.o. .o.o.o.o.o.o.o.o.o.o.o.o.o."
};
