/* XPM */
static char *_bdb83adf3ab45b4c5cd7f2136d04ddcv8cvtRWuSD0XFd0G[] = {
/* columns rows colors chars-per-pixel */
"80 80 213 2 ",
"   c #010301",
".  c #0B0D0B",
"X  c #0F110E",
"o  c #191919",
"O  c #1B211C",
"+  c #2E302E",
"@  c #3D4440",
"#  c #464444",
"$  c #585C59",
"%  c #7A596E",
"&  c #5D6662",
"*  c #6C6B6C",
"=  c #787878",
"-  c #DF2F38",
";  c #DA3B3C",
":  c #E5353E",
">  c #EA3138",
",  c #E9313B",
"<  c #BC5B3D",
"1  c #CC4A3E",
"2  c #D3443F",
"3  c #C3543F",
"4  c #E93840",
"5  c #ED3B45",
"6  c #F13A44",
"7  c #F63C47",
"8  c #BC5D42",
"9  c #AC6E43",
"0  c #B66745",
"q  c #A87442",
"w  c #CE4A40",
"e  c #D24741",
"r  c #D44845",
"t  c #C35541",
"y  c #CB5044",
"u  c #E6444E",
"i  c #EC434C",
"p  c #F1414B",
"a  c #E64D53",
"s  c #EA4855",
"d  c #EA4C54",
"f  c #EF4F59",
"g  c #F24B55",
"h  c #F14C57",
"j  c #E75155",
"k  c #EA5156",
"l  c #E6545A",
"z  c #EB555E",
"x  c #EA585F",
"c  c #F0515A",
"v  c #CC685E",
"b  c #EA5961",
"n  c #EA5A66",
"m  c #EA5F73",
"M  c #769E3E",
"N  c #5CBD3B",
"B  c #61BD3E",
"V  c #63C13F",
"C  c #55B842",
"Z  c #5BBE46",
"A  c #5DBE49",
"S  c #77A848",
"D  c #67B947",
"F  c #62BF4A",
"G  c #6BBE55",
"H  c #6BBC56",
"J  c #74BB5C",
"K  c #7AA660",
"L  c #7BB963",
"P  c #7BBB63",
"I  c #5FC245",
"U  c #5FC14A",
"Y  c #63C345",
"T  c #6AC647",
"R  c #60C24B",
"E  c #64C351",
"W  c #6BC155",
"Q  c #69CA52",
"!  c #6DC15A",
"~  c #72C25C",
"^  c #71D155",
"/  c #79C368",
"(  c #8A8F40",
")  c #968745",
"_  c #889648",
"`  c #A88C5C",
"'  c #80B15C",
"]  c #84B56B",
"[  c #86B76D",
"{  c #95AB70",
"}  c #93AE78",
"|  c #9AAD7E",
" . c #8DB272",
".. c #94BE7A",
"X. c #82C16C",
"o. c #82D261",
"O. c #86C376",
"+. c #9ACA75",
"@. c #93C07C",
"#. c #D03983",
"$. c #907C86",
"%. c #D4458E",
"&. c #D64C93",
"*. c #DA569A",
"=. c #DB7D83",
"-. c #EB6C87",
";. c #EB7189",
":. c #E97497",
">. c #D766A6",
",. c #DD7BB5",
"<. c #E269A9",
"1. c #E879A1",
"2. c #E778B5",
"3. c #8A8A8A",
"4. c #978D92",
"5. c #979797",
"6. c #BE9E9C",
"7. c #9FAC81",
"8. c #9BBE84",
"9. c #9FBF88",
"0. c #A5A887",
"q. c #ABA58B",
"w. c #A2BC8A",
"e. c #B4A394",
"r. c #BDA19C",
"t. c #A9BE94",
"y. c #B0BE97",
"u. c #A8A8A8",
"i. c #A9BFA5",
"p. c #BABCA3",
"a. c #B7B8B5",
"s. c #BEBEBE",
"d. c #C29E9E",
"f. c #DB8BA9",
"g. c #C99AA5",
"h. c #D296AD",
"j. c #DB93B5",
"k. c #D994B4",
"l. c #EB84BC",
"z. c #E889BC",
"x. c #E98BBE",
"c. c #E592BE",
"v. c #C3A1A1",
"b. c #C4BCAA",
"n. c #CBBCB6",
"m. c #D3BCBB",
"M. c #8EC582",
"N. c #96C287",
"B. c #9BC393",
"V. c #9CD091",
"C. c #A5C08C",
"Z. c #A4C598",
"A. c #AAC2A5",
"S. c #ABC5A5",
"D. c #B4C6AC",
"F. c #B8C7B4",
"G. c #BEC1BD",
"H. c #C1CEA5",
"J. c #E68EC1",
"K. c #EA8DC3",
"L. c #FE89CF",
"P. c #EC92C5",
"I. c #ED94CA",
"U. c #EB99C9",
"Y. c #F394CA",
"T. c #F796CD",
"R. c #F39BCE",
"E. c #FE8BD0",
"W. c #FD94D3",
"Q. c #F49ED1",
"!. c #FC9BD3",
"~. c #FC9FD8",
"^. c #DEBCC4",
"/. c #EBA2CC",
"(. c #E1BCC6",
"). c #E4BDCC",
"_. c #EDABD1",
"`. c #F6A3D4",
"'. c #FBA3D6",
"]. c #F6AAD6",
"[. c #FDA4D9",
"{. c #F7A9D8",
"}. c #FDAEDE",
"|. c #EFB4D6",
" X c #EDBDD5",
".X c #F1BAD6",
"XX c #FDB1DE",
"oX c #F5BDDE",
"OX c #F9BCDF",
"+X c #FFAEE1",
"@X c #FEB1E0",
"#X c #FEB2E1",
"$X c #FBBCE5",
"%X c #FEBDE8",
"&X c #BFC5C2",
"*X c #C5C5C5",
"=X c #C7C9C6",
"-X c #CACACA",
";X c #CBD0CD",
":X c #D4D1D3",
">X c #E2C3C9",
",X c #E5CEDC",
"<X c #EECDE1",
"1X c #F9C6E8",
"2X c #F9D8EB",
"3X c #FEC4F2",
"4X c #FFC9F7",
"5X c #FFCDFC",
"6X c #FFD1FF",
"7X c #FFDAFF",
"8X c #F6E5F1",
"9X c #F8F7F8",
"0X c white",
/* pixels */
"R R R R R R R R R Q U U R R R R R R Q R R R R R R R R R U Q U U U U U Q U U Q U U E U E U U U U R R R R U E U E U U R R R R R R R R Q U U R R R R R R R R R R U ",
"R R R R R R R R U U Q R R R R R R R R R R R R U R R U Q U U U U U U U U U U U U U U U U Q U Q R R R R R U U U R R U R R Q U R R R R U U R R R R R R Q R R R Q U ",
"E U R R R R R R R R R R U U R R R R U U R R R U R R R R Q U U Q U U U Q U U U Q R E R U U U R R R R R R U E E R R R R U R R R R R R R R R R R Q R R U U R R U U ",
"U U E U R U Q R R R R R R U Q R R R R U R R Q U R R R R U U U U Q U U U U U U U R R R R U U R R R U U Q R U U R R R Q U R R R R R R R R R R R R R R U U R R R U ",
"U U R R R R U R Q R R R R U U U R R R U R R R R R R R R R R U U U U U U Q U U Q R R R R R U U U R R R R R E R R R R R R R R R R R R R R R R R R R R R R R R R Q ",
"U Q R R R R R R U R R U Q U R R R R Q U R R R R Q R U U R R U U U U Q U U U U U R R R  .U.!.`.'.U.~ U U U U R R R R R R R R R R R R R U R R R R R R R R R R R R ",
"U R R R R R R R U U U U Q U U R R U R R R E U R U R R U R U U Q U U U U U U U U R R G c.[.XX@X@X{.7.U U U R R R R R R R R R R R R R R R R R R R R R R R R R R R ",
"U U R R R R R R U U U U U R R U R R R R R U E  .U U Q U Q U R R U Q U Q U U U Q R U 0.!.XX}.XXXX'.0.U E R R R R R R R R R R R R R R R R U R R R R R R R R R R R ",
"U U Q R U R R R U R R R U U R U R R R R R 7.k.T.!.!.!.T.P.c.h.6.B.} P E A U U F F A g.~.XX}.XX{.T. .R R R Y R R R R U R R R R R R R R R R U R U U U R R U U R R ",
"U U U R R R R R R R U R R R R R R U R F r.!.!.{.{.}.XX`.K.[.[.+X|.{.I.k.d.7.P F Z C k.[.XXXXXX{.c.H R R R  .e.e./ R U U R R R R R R R R R R R R U Q U U R U Q R ",
"U Q R R R R U R R R R R R R U R R F U r.!.].XX}.XXXXXXXXI.`.@X}.#X@X@X+X@X[.I.k.q.K k.~.@X@X}.[.q.U R W d.T.'.'.~.7.U U R R R R R R R U R R R U U U R R U R R R ",
"U U R R R R U U U U R U U U R U R R } W.{.@X}.}.XXXXXX@XI.R.@X}.+X@X/.I.I.`.+X+X[.Y.J.I.[.XX[.c.H U R g.!.{.XXXX{.k.E E R U R R R R R R R R Y U R U U R U R R R ",
"U R R R U Q U U U U U U U U U U U U h.[.@X,.,.@X}.`.}.@XI.Q.@X}.}.I.J._.|.J.`.+X@X+XI.J.P.R.!.] U R q.!.{.XXXXXX[.c.H R F R R R R Y U R R R R R R R U R U U U R ",
"U U R R U U U U U U U I U U U U E P Y.{.|.>.>.@X2.>.`.}.J.'.}.@X`.J.2X0X9X2XJ.+X}.+X}.}.{.J.K.0.R H P.`.XX}.}.XX[.j.F R U R R R R R U R R R R U R R R R Q U U U ",
"R R Q U U U U E E R U U R U U U A } Q.}.#X`.`.@X,.>.{.`.K.@X}.@XI./.9X* X ^./.`.+X}.Q.Q.@X}.`.[.h.d.!.}.{.XXXXXX[.q.R R R R R R R R R R R R R R R R R R R R R R ",
"R R R R U U U U U R U U U U U U A } !.+X+X#X+X@X+X{.@XK.Q.@X}.@X{.J.9X& O -XI.+X}.J.J.U.K.[.@XXX'.P.I.XXXXXXXX'.c.H R A R R U R R R U R R R R R R R R R R R R U ",
"R R R R R R R U Q Q U U U U U U U L I.{.@X}.}.}.}.@XR.J.}.}.}.}.}.I.P.1X,X`.I.@XI./.9X0X1XK.}.}.XXY.P.I.}.XX[.I.] I R R R U R R R R Y R R R R R R U R R R R R U ",
"R R R R R R U Q ^ ^ Q R U U U U U U h.Q.}.@X}.}.XXQ.J.`.@X}.}.}.}.XXU.K.K.I.@X}.K.8X0X:X9X_.Q.@X}.XXXXP.Y.`.P.] U R R R Y U R R R R A R R R R R R F R R R R E U ",
"R U U R U U U R Q ^ R U U U U U U U [ I.P.`.`.`.I.x.`.@X}.}.@X@X}.}.@X}.}.@X}.[.P.0Xa.  $ 1XI.@X}.}.}.}.P.c.J R R R R R R R R U R R R R R R R U R R R R U U R R ",
"R Q R R R U U U U U U U U R E R U U U 7.W.J.P.K.I.[.}.}.}.}.}.}.@X}.}.+X}.}.}.+XK.2X:X@ u._.Q.@X}.}.XX{.`.T.| R R R R R R R R R R R R R R R R R R R U R U E R R ",
"R R R R R R R U U I U I U R R R R R F R 0.!.R.XXXXXX}.}.}.}.}.}.}.}.@X}.}.}.}.@X`.x.oX2X|.K.@X}.}.}.}.}.@X}.Y.L R A R R R R R R R R R A R R R R R Y R R R R R R ",
"R Q R R R R R R R U U U U U U U R R R R R q.T.R.XXXX}.XX@X}.}.}.@X}.}.@X@X}.}.}.}.[.K.K.Y.}.@X}.}.}.}.}.}.XX[.g.R F R R R R R R R R R R Y R R R U U R R R R R R ",
"R R R R R U R R R R R R U U R R R R R R R R | Y.R.{.@X}.}.}.}.@X}.+X}.@X+X}.}.+X}.@X@X@X@X}.}.@X}.XX}.}.}.XX{.T.] R R R R R R U R R R R U U R R R R R R R R R R ",
"R R R R U R R R R U R U R R R R R R R R R R R [ j.W.`.}.@X@X}.@X}.}.@X}.}.@X}.}.@X}.}.@X}.}.}.}.}.}.}.}.}.}.XX}.6.R R A Y R R R R R R U R R U R R R U R R R U R ",
"R Q U U R R R R R U R R R R U R R R R R U R F R G e.P.!.R.`.@X}.}.}.}.@X}.}.}.}.}.}.@X+X}.@X}.}.+X@X}.}.XX}.}.}.P.H U U R R R R R R R U R R R R R R U R U U U U ",
"R R U U R R R U U R R U R R R R R R R R F R R R U R L v.P.P.[.@X}.+X@X@X+X}.@X@X}.@X}.}.}.}.}.}.'.W.W.W.[.XX}.XX!.} U F R R R R R R Y U R U R R R R R U U U Q U ",
"R R R R R U R R U Q R U R R U R Y R R R R R R R R R R q.[.`.{.XX}.@X+X}.}.@X}.@X}.}.}.}.}.}.}.W.L.E.L.E.L.!.@X@X[.e.A F R R R R R R R R R R R R R R U U U U R E ",
"R R R R R R R R U U R R R R R R F R R R R U R R R R J P.}.@X}.XX}.}.}.}.@X}.+X}.+X+X}.}.}.@XE.L.E.E.E.E.E.L.{.@X}.g.R R R R R R R R U R R R R R R R U U U Q R R ",
"R R R Q U U R R U U R R R R R U R R R R R R R R F R 0.'.}.}.@X@X}.+X}.@X}.+X}.@X}.@X}.}.@X'.L.E.E.E.E.E.E.L.'.@X+Xh.R R R U R R R R R R R R R U R R R R R R R R ",
"U Q U U U U R R U U U R R R R U R R R R R R U U R R h.}.XX}.!.[.}.}.}.}.@X}.@X}.+X}.}.}.@X~.L.E.E.E.E.E.E.L.~.@X[.j.F R R R R R R R R R R R R R R R R U R R R R ",
"U R R U U U U R R R R R U U R R R R R R F R R Y U G c.[.XX%X>.2.@X}.}.@X+X}.}.}.}.@X}.}.+X'.L.E.E.E.E.E.E.E.[.XX+Xk.F R R R R R R R R U R R R R R R R R R R R R ",
"U R Q U U U R R R R R R R R R U R U R R U U R R R ] T.}.}.@X<.2.@X}.}.}.}.+X}.}.}.+X}.+X@X{.E.E.E.E.E.E.E.W.@X@X'.k.R U R A Y R R U R U Y R R R R R R R U R R R ",
"R R R R R R R U R R R R R R R R R R U Y R R R R A  .!.}.XX@X2.*.@X@X@X+X}.}.}.}.}.@X}.+X}.}.W.L.E.E.E.L.E.}.XXXX[.g.R R R R R R R R R R R R R R R R R R R R R R ",
"R R R R R R R F R R R R R R R R R U U R R R R R U  .R.}.XX@X+X&.2.%X@X@X}.}.}.}.%X`.&.Y.@X}.}.W.L.E.L.W.[.XX}.XX'.6.U F R R R R R R R R Y R R R R R R R R R R R ",
"R U R R R R R R R R R R R R R R R A R R E R R R R J I.{.@X}.@XQ.%.<.+X@X%X#X@X@XY.%.*.[.+X}.}.+X[.'.{.+XXX}.@X{.!.| U R R R R U R R R U U R R R R R F U R R R R ",
"U E R R R U R R R R U A Y R R R R R R R R E R R R G h.[.XX}.}.@XQ.*.%.<.2.l.2.*.#.*.`.@X}.}.}.+X@X+X+X+XXXXXXX`.x.J U R R R R R R R R R U R U R R R R U R R R R ",
"U E U U R R R R U R R F R R R R R R R U A R R R R I q.!.XXXXXX}.@X@XK.<.*.&.&.*.K.}.@X}.}.}.@X}.}.}.}.}.XX}.XX'.g.R R R R U R R U R R R R R R R R R R R R R R R ",
"R U Q U U U R U R R R U R R R F ~ C.R A A A R R A A J P.`.@X}.}.+X+X@X@X@X}.#X#X@X@X}.+X}.+X}.}.}.}.@X}.}.XX`.T. .R F F Y U U R @.! R R R R R F R R R R R R R R ",
"R R U U R Y R R R R R R R R F Y X.7Xt.R A I R U F R U 0.!.{.@X}.+X}.}.}.}.@X@X@X}.}.}.}.}.}.}.@X@X}.}.}.}.}.!.g.R R R R R R R 8.7X@.R R U R R R R U U R R A R R ",
"R R U U R R R U R R R R R R W O.W n..XR F A A A R R R R g.Q.{.@X}.}.}.}.}.}.+X@X}.}.}.+X}.@X+X}.}.+X}.}.}.R.P.L R U R R R F R .Xm.R ! F R R Y R R Y U R R R R R ",
"R R R R R R R R R R R R R R O.3X.X(.%XL U F F Z A U U R R f.Q.{.@X}.}.XX+X}.}.}.}.+X}.@X}.}.}.@X}.}.@X@XT.L.| R R R R R R R X.3Xm.(.3X8.R R R R U R R R U R R R ",
"U Q R R R R R R R R R U R R R .. X5X3XOXA.~ Q T R R F R ) 5 :.I.Q.[.XX+X}.+X}.}.}.}.}.}.}.}.}.}.@X@X{.U.T.| R F R F U U E 9.).3X3X.XC.~ R R R R R R R R R R R R ",
"R R R R U R R R R R R R R U R t.1Xb.y.^.6X$XH.o.T D U S 4 u l -.z.I.Q.{.+X+X@X}.+X}.}.+X@X@X@X@X[.`.I.P.m ; D F R U E C. X6X.Xb.).3X..R R R R R R R R R R R R R ",
"R R R R R R R R R R R R R F R W ~ Y Y B +.>X5XOX9.D D w 5 z l k n :.z.I.R.Q.`.}.}.}.}.{.{.{.~.I.I.x.:.n d 7 0 R F w. X6X).8.G R R N.P F R R R R R R R R R R R R ",
"U Q U U R R U R R R R U R R R R R Y Y V V ^ +.>X5X>X` 4 a b l z j a n -.1.l.x.J.I.U.I.I.I.K.K.2.;.m a l x a - { ).6X X..R F R F F R R R R R R R R R R R R U R R ",
"U R R U U R U R R R Y A R R R R R I I I V N V V ..).f 4 z z z z z z l d f l m -.-.:.:.;.-.-.n z f l z z x d ;.4X XN.R R R E R E R R F R R U R R R R R R R R R R ",
"U R U U R R R U R R R U R R R R R I I I I N V V F ( 4 a b l z z b b b z b f f f a d k a a s l l l b z l x k ;.;.S R R F Y E D R F U R R R R U R R R R U R R R R ",
"R R Q R U U R R R R R R R R U U U I I I I I Y V F 8 5 z z z z z l l f b l b b l b b b b b z b z b z z z z c k > 9 R F R F R R R R R R R R R U Y R R R R R R R R ",
"R R R R U R R U R R R R R R R R U E E U U Z A Z D ; d n z z z z z z n c z z z z z z z z b f z z f b f b z l b d ; F R R R R R R E U U E U U R R R R R R R U R R ",
"R R R R R R U R R R R R R U R U A E E A U U A U q 5 l z f z z z z b c z z z z z z z z z l z z z b f f b z z z a 5 _ F A R R R R U R R U R U R R R R R R R R R R ",
"Q R R R R U U R R R R R R U R R U E E A A E E A 8 5 z z z z z z z z z z z z z z z z z z b z z z b z b z z z f b 5 0 A F U U A R U R U U R R R R R R U R R R R R ",
"R R R R R U R R R R R U R R R U U U E U A A U G ; 5 n l z z z z z z n z z z z z z z z z z z z z f z z z z z l n s e F A R U R U R U U U R R U R R R R R R R R R ",
"R R R R R R R R R R R R R R R U U R R R A F R _ 5 s b f l b z b z z z z z z z z z z z z z b f z b z z z z z z z d 4 S U A U U A U U U U U U R R R R R R R R R R ",
"R R U U R R R R U R U U U R R R U U R R F F F 9 5 n b z z z z z z z z z z z z z z z b z z b b z z z z z z z l z l 6 ) U U / ! A U U E U U U R U R R U R U Y R U ",
"R R Q U R R R R R R R R R R U R U U U U E A R y 5 b z l z z z z z z z z z z z z z z z z b f f b z z z z z z z z z 5 0 U w.3X$X..U U U U U U U U R R R R U R R R ",
"R R U U R R R U U R R U R U R R U U U U U F D ; 5 m z l z z z z z z z z z z z z z z z z b f b z z z b z z z z l b s 1 ! %Xm.).oXE P Z.U U U U U U R R R R R F U ",
"R U R R R U R R Q U R U R R R Y U U U U U R S > u b z z z z z z z z z z z z z z z z c z z b z z z z z z z z z z z s ; J 3X8.8.1XA ).$XA U U U E R R R R R R E R ",
"R R R R R R R R U U R R R R U U U U U U F F ) 6 j z z z z z z z z z z z z n z c b z b z z z z z b z z z z z z z z d 5 M D.%XOX|.n.5X9.U U A U U R R R R R R R R ",
"R Q R R R R U R U R R R R U R R U U U F D F q 6 b z f b z b z z z n c z z b n c z z z z z z z b z z z z z z l z b l > =.1X@X.X}. X8.U U A Z U U R R F R R E R R ",
"U U R R R R U Y U U R R R R R R U E F F R Y < 7 b f z z z z z z z z z z z b c n z z z b z z c b z z z z z z z z z z : v B.L F H N I U U A U U U F R R R F Y R R ",
"U U Q U R U R R R R R U R R R R E U F E F F y i b l l b l z b z z z z z z b z z z z z z b z z z z b l b z z z z z z p < U U C I U U U U U U U R R R R F R R R R ",
"U U U U R R R R U R R U R R R R F U E A U D ; u b z l z b b z z z z z b b f z z z z z z z z z z z z z z z z z z z b i w U U U U R E U U U U U U R R R R R R R R ",
"U U U U R R R R R R R Y R U R R F U F A U S 4 u b l z z l f z f z z f l f b z f z z z z f l z z l f z z z z z l z z u ; A U U U R U U U U U U U R R F R U R U U ",
"U U Q U R R R R R R R R R R R R E U U F F S 4 a b z b b b z b b z b b b b l b b z z z b b b b b b b b b x b b b x b l ; S U U U U U U U U U R U I R F R U U Q U ",
"U R R R R R U R R R R R R Y R R R R U F F ) 7 g g g f f f c c c c f d f z f k k c f f f f f f g h d u d g g p g p h i 7 _ R F U R U R R U Y U U U U U U R R U U ",
"R R R U R R U R R R R R U U R R R R R R R S 0 t 3 3 y 1 1 2 2 1 r r u r w r e r r r r 2 w w w w w r z y t t t 8 8 8 8 0 S R R R R R R R R R R R Q U U U R R U Q ",
"R R Q U U Q R U U R R R U R R R U R R R R U R R R R R R R R R R R b.%XP F F F F F F F F F F R F U C.6XM.R U R R U R E U R R R R R R R R U R R R U U Q U R R R R ",
"R R U U U U R R R R R R R R R R R R R R R R F F R R R R R R R R U b.5X/ A F F R R R R R R R R E U N.6X8.R R F R R F U R R R R R R R R R R R R R U U U R U R R R ",
"Q R R R U U Q U R R R R R R R R R R R R R R R R R U U U F R R F U p.5XP U E U U R R F A R R R F R N.5Xw.R F R R R R R U R U R R R U R R R R R R R R U R R R R R ",
"U R R R U U U U R R R R R U R R R R R U R R R U R R U U R R R R U t.5XL U U U U R R R R R R F R R [ 5X8.R R R R U R R R R R U U R U Y R R R U F U R R U R R R R ",
"U U R R R R U U U R R R R R R R Y R R R F R R U R E ! / O.@.N.B.9.^.$Xa.i.i.A.A.i.i.i.A.S.S.Z.B.N.t.3Xp./ ! E R R R U R U R R R U R R R U R R R R R R R R R R R ",
"U U R R U R R U U U Y R R R R R A R R R U R / B.A.F.&Xu.u.a.s.-X;X<X3X,X*X-X&X&X=X*X:Xa.u.u.s.=X;X,X4X<X&XG.a.A.N./ E R U R U R R R R R R R R R R R R R R R R R ",
"U U U U U U R R R R U R R R R R U U U E 8.F.&X;X=X*X@ .     X o + # % 4.G.s.s.G.s.*X$ .     . o + + % $.&Xs.^.&X=X&XG.P R R U R R R R F U U R R R R R R U Q U U ",
"Q U U U U U R R R R R R U R R R U E U E i.;X-X;X*Xs.O                 # =Xs.&Xa.s.-X#               . O s.s.&X&X=X-X;XM.U R R U R R R U U Y R R R R R R U U U U ",
"U U R R U U U U R R R R R R R R U U U U E / M.B.i.G.a.3.= K = 3.5.u.u.G.s.s.s.^.s.s.s.4.* * K $.4.u.u.*X-X&XF.D.Z.M.G E U R R R R R R R R R R R R R R U U U U U ",
"U Q U R Q U R U R R R R R R R R U U U U U A R R U W / M.Z.V.S.F.F.F.F.&XG.&Xs.s.s.s.s.-X;X;X=XF.S.S.B.N./ / ! U A U A E R R R R R U R R R R R R R R R R U Q U E ",
"U U R R R R U U R R R R R R R R U U U E U R R R R R R R F E E U R U Q U U U U Q U U U E R R R U U U R R R R U U E U R R R R R R R R R R R R R R R R R R R R R R ",
"Q U R R R R U U R R R R R R R U E U U U U U R R R R R U F F U U U R U U U U U U U U U U R R R R U U U U R R U Q U U U U R R R U R R R R R R R R R R R R R R R R ",
"U R R R U R R U U R R R U I U U R U U R U E U U R R U U U U E U R R U U R R U U U E U E U U U U U Q U U R U U U U R U U R R R R R R R U R R R U F R U R R R U R ",
"U U R R R R R Q R R R R R Q U U R U U E R R R E U R E R R E R U U U U Q R R E U U U U U U E U E R R U U Q U U U E U R E R R R R R R R R R R R R U R R R R R R R "
};
