/* XPM */
static char *_210e48b0a98469ac779407bd35e61a8BUINbFQYErUVSquY[] = {
/* columns rows colors chars-per-pixel */
"80 80 214 2 ",
"   c #0F1814",
".  c #393E3B",
"X  c #5E6260",
"o  c #DA2716",
"O  c #C93212",
"+  c #D6301B",
"@  c #E92319",
"#  c #F1281D",
"$  c #CB3D21",
"%  c #EC2C22",
"&  c #F92B21",
"*  c #E83124",
"=  c #F7362A",
"-  c #F5352C",
";  c #F63D34",
":  c #F93D36",
">  c #B34D1B",
",  c #B45726",
"<  c #9D722E",
"1  c #9F6C33",
"2  c #8B7F30",
"3  c #967A34",
"4  c #A4642D",
"5  c #AA632A",
"6  c #A46B2C",
"7  c #A36E31",
"8  c #C54222",
"9  c #D1513B",
"0  c #E64339",
"q  c #F34237",
"w  c #F4433B",
"e  c #F9443C",
"r  c #867B4F",
"t  c #857B52",
"y  c #847955",
"u  c #8A7E54",
"i  c #897D58",
"p  c #EE4E46",
"a  c #F84B44",
"s  c #E9564D",
"d  c #FA5249",
"f  c #E75C53",
"g  c #EA5A54",
"h  c #EA5B55",
"j  c #E86157",
"k  c #E76058",
"l  c #E9615A",
"z  c #EA6669",
"x  c #EE6A6C",
"c  c #ED7177",
"v  c #7F9A3B",
"b  c #52B43A",
"n  c #62AC3E",
"m  c #7B8A4E",
"M  c #6A9947",
"N  c #7A954F",
"B  c #7D8B53",
"V  c #759550",
"C  c #7C9352",
"Z  c #779C51",
"A  c #799A51",
"S  c #57BC44",
"D  c #5BBD45",
"F  c #5DBE49",
"G  c #66AF4A",
"H  c #6CAC4D",
"J  c #74A845",
"K  c #72A44F",
"L  c #63BE45",
"P  c #69B44D",
"I  c #63BD4C",
"U  c #68B849",
"Y  c #6EA252",
"T  c #6EAD51",
"R  c #73A352",
"E  c #71A952",
"W  c #69B751",
"Q  c #6CBE55",
"!  c #6FBF58",
"~  c #74BD5B",
"^  c #7BBB64",
"/  c #5DC246",
"(  c #5EC14A",
")  c #5BC550",
"_  c #63C246",
"`  c #6AC647",
"'  c #60C24B",
"]  c #74CC4B",
"[  c #65C351",
"{  c #69C154",
"}  c #69CB54",
"|  c #6FD15A",
" . c #7BD75B",
".. c #79C365",
"X. c #95843A",
"o. c #83963C",
"O. c #89844F",
"+. c #95894A",
"@. c #848452",
"#. c #8D8156",
"$. c #828A54",
"%. c #928559",
"&. c #978A58",
"*. c #889752",
"=. c #A4974B",
"-. c #A89A4A",
";. c #A29452",
":. c #B0905F",
">. c #84B969",
",. c #86B96C",
"<. c #9CAE7F",
"1. c #8BB971",
"2. c #98B47B",
"3. c #A4AB70",
"4. c #CBB84F",
"5. c #8DCF56",
"6. c #98D950",
"7. c #B0D44D",
"8. c #BADD4E",
"9. c #BEE351",
"0. c #82C46D",
"q. c #8AC773",
"w. c #94C67E",
"e. c #93E868",
"r. c #D8C646",
"t. c #E5D246",
"y. c #E7D547",
"u. c #F0DB46",
"i. c #F6E54D",
"p. c #F7E651",
"a. c #F8E752",
"s. c #F9EA58",
"d. c #FEF35B",
"f. c #FFF85D",
"g. c #F7ED65",
"h. c #FAEE63",
"j. c #FBF367",
"k. c #FCF164",
"l. c #E54B8C",
"z. c #EA5D9A",
"x. c #C07196",
"c. c #EA7C8D",
"v. c #EA649C",
"b. c #EC7E94",
"n. c #EB6DA3",
"m. c #EB74A7",
"M. c #959D99",
"N. c #9FB481",
"B. c #ABAF8D",
"V. c #A3B284",
"C. c #AAB38C",
"Z. c #B6AD95",
"A. c #BBAE9A",
"S. c #A6ABA9",
"D. c #EB8399",
"F. c #C0AA9E",
"G. c #D696AC",
"H. c #DA9ABA",
"J. c #EF8CB8",
"K. c #EA9ABC",
"L. c #C9A9A6",
"P. c #D0AAAC",
"I. c #DAA9B5",
"U. c #CAB3B1",
"Y. c #E3A7BD",
"T. c #8DCD81",
"R. c #97C583",
"E. c #A2C58A",
"W. c #AAC897",
"Q. c #B4C196",
"!. c #BAC9A5",
"~. c #B8D3AD",
"^. c #CBCAB5",
"/. c #D2C9BE",
"(. c #F09CC2",
"). c #EBA5C5",
"_. c #E5A9C5",
"`. c #EBAAC7",
"'. c #EDA6C9",
"]. c #EDACCB",
"[. c #F3A6CB",
"{. c #F4ABCD",
"}. c #ECB1CE",
"|. c #F1B0CF",
" X c #F5ADD1",
".X c #EDB8D5",
"XX c #F2B3D3",
"oX c #F5B4D7",
"OX c #F2BAD6",
"+X c #FEB7DA",
"@X c #F3BCD9",
"#X c #FCBADB",
"$X c #FFBDE1",
"%X c #D8CBC4",
"&X c #E0CECB",
"*X c #E9CBD4",
"=X c #F4C3DD",
"-X c #F9C2DD",
";X c #F4CCDF",
":X c #EAD1DA",
">X c #F7D2DF",
",X c #F5C7E1",
"<X c #FEC4E4",
"1X c #F5CAE2",
"2X c #F6CEE5",
"3X c #FACBE5",
"4X c #FFCAE9",
"5X c #F5D0E6",
"6X c #F6D3E9",
"7X c #FCD3EA",
"8X c #FFDDF7",
"9X c #E9E3E6",
"0X c #FFE6FC",
"qX c #FCFAFC",
/* pixels */
"' ' ' ' ' ' ' ' ' ' ' ' ' ' ' ' ' ' ' ' ' ' ' ' ' ' ' ' ' ' ' ' ' ' ' ' ' ' ' ' ' ' ' ' ' ' ' ' ' ' ' ' ' ' ' ' ' ' ' ' ' ' ' ' ' ' ' ' ' ' ' ' ' ' ' ' ' ' ' ' ",
"' ' ' ' ' ' ' ' ' ' ' ' ' ' ' ' ' ' ' ' ' ' ' ' ' ' ( ' ' ' ' ' ( ' ' ' ' ' ' ( ' ( ' ' ' ' ' ( ' ' ' ' ' ' ' ' ' ' ' ' ' ' ' ' ( ' ' ' ' ' ' ( ' ' ' ' ' ( ' ' ",
"' ' ' ' ' ' ' ' ' ' ( ' ' ' ' ' ' ' ' ' ( ' ' ' ' ' ' ' ' ' ' ' ' ' ' ' ' ' ' ' ' ' ' ' ' ' ' ' ' ' ' ' ' ( ' ' ' ' ' / ' ' ' ' ' ' ' ' ' ' ' ' ' ' ' ' ' ' ' ' ",
"' ( ' ' ' ( ' ' ' ' ' ' ' ' ( ' ' ' ' ( ' ' ' ' ' ' ' ' ' ' ' ' ' ' ' ' ' ' ' ' ' ' ' ' ' ' ' ' ' ' ' ' ' ' ' ' ' ' ' ' ' ' ' ' ' ' ' ' ' ' ' ' ' ' ' ' ' ' ' ' ",
"' ' ' ' ( ' ' ' ' ' ' ' ' ' ' ' ' ' ' ' ' ' ' ' ' ' ' ' ' ' ' ( ' ' ' ' ' ' ' ' ' ' ' ' ' ' ' ' ( ' ' ' ' ' ' ' ' ' ' ' ' ' ' ' ' ' ' ' ' ' ' ' ( ' ' ' ' ' ' ' ",
"' ' ' ' ' ' ' ' ' ' ' ' ' ' ' ' ' ' ' ' ' ' ' ' ' ' ' ' ' ' ' ' ' ' ' ' ' ' ' ' ' ' ' ' ' ' ' ' ' ' ' ' ( ' ' ' ' ' ' ' ' ' ' ' ' ' ' ' ' ' ' ' ' ' ' ' ' ' ' ' ",
"' ' ' ' ' ' ' ' ' ' ' ' [ ' ' ' ' ' ' ' ( ' ' ' ' ' ' ( ' ' ' ' ' ' ' ' ' ' ' ' ' ' ' ' ' ' ' ' ' ' ' ' ' ' ' ' ' ' ' ' ' ) ' ' ' ' ' ' ' ' ' ' ' ' ' ' ( ' ' ' ",
"' ' ' ' ' ' ' ' ' ' ' ' ( ' ' ' ' ' ' ' ' ' ' ' ' ' ' ' ' ' ' ' ' ( ' ' ' ' ' ( ' ( ' ' ' ' ( ' ' ' ' ' ' ' ' ' ' ' ' ' ' ' ' ' ( ' ' ' ' ' ( ' ' ' ' ' ' ' ' ' ",
"' ' ' ' ' ' ' ' ( ' ' ' ' ' ( ' ' ' ' ' ' ' ' ' ' ' ( ' ' ' ' ' ' ' ' ' ' ' ' ' ' ' ' ' ' ' ' ' ' ' ' ' ' ' ' ' ' ' ' ' ' ' ' ' ' ' ' ' ' ' ' ' ' ' ' ' ' ' ' ' ",
"' ' ' ' ' ' ' ' ' ' ' ' ' ' ' ' ' ' ' ' ' ' ' ' ' ' ' ' ' ' ' ' ' ' ' ' ' ' ' ' ' ' ' ' ' ' ' ' ' ' ' ' ' ' ' ' ' ' ' ' ' ' ' ' ' ' ( ' ' ' ' ' ' ' ' ' ' ' ' ' ",
"' ' ' / ' ' ' ' ' ' ' ' ' ' ' ' ' ' ' ' ' ' ( ' ' ' ' ' ' ' ' ' ' ' ' ' ' ' ' ' ' ' ' ' ' ' ' ' ' ' ' ' ' ' ' ' ' ' ' ' ' ' ' ' ' ' ' ' ' ' ' ' ' ' ' ' ( ' ' ' ",
"' ' ' ' ' ' ' ' ' ' ' ' ' ' ' ' ( ' ' ' ' ' ' ' ' ' ' I ' ' ' ' ' ' ( ( ( F ( F ' ' ' C.L.C.[ ' ' ' ' ' ' ' ' ' ' ' ' ' ' ' ' ' ' ' ' ' ' ' ' ' ' ' ' ' ' ' ' ' ",
"' ' ' ' ' ' ' ( ' ' ' ' ' ' ' ' ' ' ' ' ' ' ' ' ' ' ' ' I ' ' ' ' ' ' ( ( ( ' F D I P.<X,X<XC.' ' ' ' ' ' ' ' ' ' ' ' ' ' ' ' ' ( ' ' ' ' ' ' ' ( ' ' ' ' ' ' ' ",
"' ' ' ' ' ' ' ' ( ' ' ' ' ' ( ' ' ' ' ' ' ' ' ' ' ' [ >.1.^ ! ' ' ' ( ( ( ( ' D b N.$X;X2X4XL.( ' ' ' ' ' ' ' ' ' ' ' ' ' ' ' ' ' ' ' ' ' ' ' ' ' ' ' ' ' ( ' ' ",
"' ' ' ' ' ' ' ' ' ' ' ' ' ' ' ' ' ' ' ( ' ' ( ' ' N.I. XoX{.).I.L.Z.<.>.Q ' ' D S L.$X1X1X<XZ.( ' ' ' ' ' ' ' ' ' ' ' ' ( ( / ' ( ( ' ' ( ( ' ( ' ' ' ' ' ' ' ' ",
"' ' ' ' ' ' ' ' ' ' ' ' ' ' ' ' ' ' ' ' ' ' ' [ A.+X-X1X1X2X|.@X7X3X<X#X}.U.C.,.F I.4X1X1XoX^ I [ C.I.P.,.' ' ' ' ' ' ' ' ' ' ( ( ( ' ( _ ( ' ' ' ' ' ' ' ' ' ' ",
"' ' ' ' ' ' ' ' ' ( ' ' ' ' ' / ' ' ' ' ' ' ' C.#X1X2X1X2X2X@X].5X1X2X.X].#X<X+XI.K.@X2X<XL.F Q P.$X1X<X).Q ' ' ' ' ' ' ' ' ' / ' D ' ' ' ' ' ' ' ' ' ' ' ' ' ' ",
"' ' ' ' ' ' ' ' ' ' ' ' ' ' ' ' ' ' ' ' ( ' { `.1XG.H.1X}.2X.X}.1X1X]._.7X=X.X2X2XXX`.{.].! ' Z.<X;X1X2X X^ ' ' ' ' ' ' ( ( ' ' ' ' ( ' } ' ' ' ' ' ' ' ' ' ' ' ",
"' ' ' ' ' ' ' ' ' ' ' ' ' ' ' ' ' ' ' ' ' ' 2.+X2XH._._.x.=X}..X5X@X).qXM.U.XX,X2X=X1XOX{.Z.,.'.1X1X1X3XY.Q ' ' ' ' ' ' F D ' ' ' ' D ( ( F ' ' ' ' ' ' ' ' ' ' ",
"/ ' ' ' ' ' ' ' ' ' ' ' ' ' ' ' ' ' ' ' ' ' 2.#X5X2X6X=X.X.X'.,X1X=X).9X  M.+X;X{.`.`.@X2X<X[.].2X;X2X$XV.' ' ' ( ' ' ' ' ' ' ( ' ' ' | | ' ' ' ' ' ' ' ' ( ' ' ",
"' ' ' ' ' ' ' ' ' ' ' ' ' ' ' ' ' ' ' ' ' ' ,. X;X1X1X5X2X'.XX3X1X2X.X'..X}.OX@X}.qXqX|.@X5X@X'.{.1X<XZ.' ' ' ' ' ' ' ' ' ' ' ' ' ' ' } } ' ' ' ' ' ' ' ' ' ' ' ",
"' ' ' ' ' ' / ' ' ' ' ' ' ' ' ' ' ' ' ' ' ' ' L.+X=X=XOX'.{.2X1X1X,X2X@XXX@X2X'.0XS.. :XXX2X2X,X].[.C.' L ' ' ' ' ' ' ' ' ' ' ' ' ( ' ' / / ' ' ' ' ' ' ' ' ' ' ",
"' ' ' ' ' ' ' ' ' ( ' ' ' ' ' ( ' ' ' ' ' ' ' { Y.{._.'.XX2X1X1X2X,X1X2X2X1X3X|.7XS.X =XOX2X,X2X=XXX2.' ' ' ' ' ' ' ' ' ' ' ' ' ' D ( ( ( ' ' ' ' ' ' ' ' ' ' ' ",
"' ' ' ' ' ' ' ' ' ' ' ' ' ' ' ' ' ' ' ' ' ' ' ' ~ Y.#X1X2X1X1X1X,X,X2X,X,X;X2X-X'.-X3X|.,X,X,X,X2X3X{.~ ' ' ' ' ' ' ' ' ' ' ' ' ' / ( ( ' ' ' ' ' ' ' ' ' ' ' ' ",
"' ' ' ' ' ' ' ' ' ' ' ' ' ' ' ' ' ' ' ' ' ' ' ' ' ~ I.+X-X3X1X1X1X2X,X2X,X,X1X1X2X@XXX,X2X,X,X2X1X1X3XF.( L ' ' ' ' ' ' ( ' ' ' ' ' ' ' ' ' ' ' ' ' ' ' ' ' / ' ",
"' ' ' ' ' ' ' ' ' ' ' ' ' ' ' ' ' ' ' ' ' ' ' ' L ' { A. X-X1X1X1X,X1X2X,X2X1X1X1X3X2X1X,X2X,X2X1X1X2X|.^ ' ' ' ' ' ' ' ' ' ' ' ' ' ' ' ' ' ' ' ' ' ' ' ' ' ' ' ",
"' ' ' ) ' ' ' ' ' ' ( ' ' ' ' ' ' ' ' ' ' ' ' ' ' ' ( ' 1.P.`.|.,X,X,X,X1X1X1X1X,X1X1X1X,X1X,X@X=X1X2X<XB.( ' ' ' ' ' ' ' ' ' ' ' ' ' ' ' ' ' ' ' ' ' ' ' ' ' ' ",
"' ' ' ' ' ' ' ' ' ' ' ' ' ' ' ( ' ' ' ' ' ' ' ' ' ' ' ' ' ' Y.oX,X,X2X,X1X1X1X1X1X1X,X1X,XXX[.[.[.XX2X3XP.( ' ' ' ' ' ' ' ' ' ' ' ' ' ' ' ' ' ' ' ' ' ' ' ' ' ' ",
"' ' ' ' ' ' ' ' ' ' ' ' ' ' ' ' ' ' ' ' ' ' ' ' ' ' ' L ' 2.$X2X1X1X1X1X,X1X4X1X1X1X1X,X X[.[.{.[.[.-X3XY.[ ' ' ' ' ' ' ' ( ' ' ' ' ' ' ' ' ' ' ' ' ' ' ' ' ' ' ",
"' ' ' ' ' ' ' ' ' ' ' ( ' ' ' ' ' ' ' ' ' ' ' ' ' ' ' ' ( P.3X1X,X,X,X1X1X1X,X1X1X1X1X=X[.[.{.{.{.[.@X4X).! ' _ ' ' ( ' ' ' ' ' ' ' ' ' ' ' ' ' ' ' ' ' ' ' ' ' ",
"' ' ' ' ' ' ' ' ' ' ' ' ' ' ' ' ' ' ' ' ' ' ' ' ' ' ( ' ! '.1X2Xm.$X1X1X,X1X1X1X,X=X1X-X[.{.[.{.{.[.=X3X`.! ' ( ' ' ' ' ' ' ' ' ' ' ' ' ' ' ' ' ' ' ) ' ' ' ' ' ",
"' ' ' ' ' ' ' ' ' ' ' ' ' ' ' ' ' ' ' ' ' ' ' ' ' ' ' ' ,.oX1X5Xn..X5X,X1X1X1X,X1X5X1X<X{.{.{.{.[.{.;X1X_.Q ' ' ' ' ' ' ' ' ' ' ' ' ' ' ' ' ' ' ' ' ' ' ' ' ' ' ",
"' ' ' ( ' ' ' ' ( ' ' ' ' ' ( ' ' ' ' ' ' ' ' ' ' ' I ' ,.+X1X6XJ.n.6X5X2X,X,X5X1X(..X1X$X'.].{. X,X,X,XI.F F ' ' ' ' ' ' ' ' ' / ' ' ' ' ' ' ' ' ' ' ' ' ' ' ' ",
"' ' ' ' ' ' ' ' ' ' ' ' ' ' ' ' ' ' ' ' ' ' ' ' ' ' ' ' ^ {.;X;X1Xn.n..X5X5X5X@Xz.z.1X1X1X$X.X@X,X2X1X<XL.( ' ' ' ' ' ' F ' ' ' ' ' ' ' ' ' ' ' ' ' ' ' ' ' ' ' ",
"' ' ' ' ' ' ' ' ' ' ' ' ' ' ' ' ' ' ' ' ' ' ' ' ' ' ' ' I Y.3X2X,X5XJ.z.z.n.v.l.m.,X2X,X1X1X1X1X2X,X1X#X2.( ( [ [ ' ' ' ( ' ' ' ' ' ' ' ' ' ' ' ' ' ' ' ' ' ' ' ",
"' ' ' ' ' ' ( ' ' ' ' ' ' ' ' ' ' ' ' ' ' { q.( ' ' ' ' ' V.-X1X,X,X6X$X'.(.(..X6X1X,X1X1X1X1X1X,X,X,XY.Q ( ( ( ' [ { ' ' ' ' ' ' ' ' ' ' ' ' ' ' ( ' ' ' / ' ' ",
"' ' ' ' ' ' ' ' ' ' ' ' ' ' ' ' ' ' ' ' I ' ;XR.' ' ' ' ' { I.<X1X1X,X1X6X6X6X5X,X,X2X,X1X1X1X1X2X,X+X<.' _ / L ' /.W.) ' ' ' ' ' ' ' ' ' ' ' ' ' ' ' ' ( ' ' ' ",
"' ' ' ' ' ' ' ' ' ' ' ' ' ' ' ' ' ( ' [ ^.!./.%X' ' ' ' ' ' ~ _.$X1X1X1X1X,X,X,X1X,X,X2X1X1X,X1X1X#XL.' ' ' ( ( ..>XR.W.0.' ' ' ' ' ' ' ' ' ' ' ' ' ' ' ' ' ' ' ",
"' ' ' ( ' ' ' ' ( ' ' ' ' ' ( ' ' ' ' ' w.*X0X7X^.0.' ' ' ' U 9 K..X@X2X1X1X1X1X1X1X1X1X,X1X1X,XoXG.[ / ' ' ' q.%X8X2X/.q.( ' ' ( ' ' ' ' ' ( ' ' ' ' ' ' ' ' ' ",
"' ' ' ' ' ' ' ' ' ' ' ' ' ' ' ' ' ' ' ' ' !.W.R.%X7X%X0.' ( 8 = l b.'..X$X,X1X1X1X1X1X1X1X$X.X'.D.* *./ ' w.&X7X%XQ.*X0.' L ' ' ' ' ' ' ' ' ' ' ' ' ' ' ' ' ' ' ",
"' ' ' ' ' ' ' ' ' ' ' ' ' ' ' ' ' ' ' ' I ' ' L L 0./.7X~.+.# j h h z c.J.'.XXoX@X@X.X.X{.(.D.z j q O q.&X7X^.q. . .` ` ' ' ' ' ' ' ' ( ' ' ' ' ' ' ' ' ' ' ' ' ",
"' ' ( ' ' ' ' ' ' ' ' ' ' ' ' ' ' ' ' ' ' ' I [ [ ' ' ..^.- 0 h f h s s h z c b.b.m.D.c.x z g g j p c :X!.~ ` ] e.e.` n _ _ ' ' ' ' ' ' ' ' ' ' ' ' ' ' ' ' ' ' ",
"' ' ' ' ' ' ' ' ' ' ' ' ' ' ' ' ' ' ' ' ' ' ' ' ' I I ' 2 % h g h h h h h g s h s f f s g g h h h j l 9 n ` ` ] ` ` ` ` _ _ ' ' ' ' ' ' ' ' ' ' ' ' ' ' ' ' ' ' ",
"' ' ' ' ' ' ' ' ' ' ' ' ' ' ' ' ' ' ' ' ' I ' ' ' ' ' I $ ; l g h h h h h h h h h h h h h h h h h h s # o.` b _ b n n L D ' ' ' ' ' ' ' ' ' ' ' ' ' ' ( ' ' ' ' ",
"' ' ' ' ( ' ' ' ' ' ' ' ' ' ' ' ' ' ' ' ' ' I ' ' ' ' J @ f h f h h h h h h h h h h h h h h h h g s l q , S _ ' Z #.&.H b ' ' ' ' ( ' ' ' ' ' ' ' ( ' ' ' ' ( ' ",
"' ' ' ' ' ' ' ' ' ' ' ' ' ' ' ' ' ' ' ' ' ' ' ' ( L ' 7 & f g g h h h h h h h h h h h h h h h h g g j p + D / K &.#.Y ) [ ' ' ' ' ' ' ' ' ' ( ' ' ' ' ' ' ' ' ' ",
"( ' ' ' _ ' ' ' ' ' ' ' ' ' ' ' ' ' ' ' ' ' ' ' ' ' ( 8 w h f g h h h h h h h h h h h h h h h h h h h h # v ) B Z ! ( F ' ' ' ' ' ' ' ' ' ' ' ' ' ' ' ' ' ' ' ' ",
"' ' ' ( ( ' ' ' ' ' ' ' ' ' ' ' ' ' ' ' ' ' ' ' ' ' P o p l h h h h h h h h h h h h h h h h h h h h h l ; 7 ( 1.q.I F ( } ' ' ' ' ' ' ' ' ' ' ' ' ' ' ' ' ' ' ' ",
"' ' ' ' ' ' ' ' ' ' ' ' ' ' ' ' ( ( ' ' ' ( ( ( ( ( o.# f h h h h h h h h h h h h h h h h h h h h h h j e > T.2X>Xw.F ^ I I ( ( ' ' ' ' ' ' ' ' ' ' ' ' ' ' ' ' ",
"' ' ' ' ' ( ' ' ' ' ' ' ' ' ' ' ( F ' ' ( F ( ( F ( < - k h h h h h h h h h h h h h h h h h h h h h g j p O Q.^.!.^.W.&X) ( ' ' ' ' ' ' ' ' ' ' ' ' ' ' ' ( ' ' ",
"' ' ' ' ' ' ' ' ' ' ' ( ' ' ' ' ( ( W I ( ( F D ( ( , ; l h h h l h h h h h h h h h h h h h h h h h g h s o 3.0X7X;X>Xq.I E $.$.#.C ' ' ' ' ' ' ' ' ' ' ' ' ' ' ",
"' ' ' ' ' ' ' ' ' ' ' ' ' ' ( ( [ B u t $.E ( F ( ( 8 w f h h h g g h h h h h h h h h h h h h h h g g h g @ :.!.E.E...G $.#.u r u i I ' ( ' ' ' ' ' ' ' ' ' ' ' ",
"( ' ' ' ' ' ' ' ' ' ' ' ' ' ( ( F @.i t t #.C ( ( I o p f h h h h h h h h h h h h h h h h h h h g g f g j = < _ ' ' N %.i t u #.#.T ' ( ' ' ' ' ' ' ' ' ' ' ' ' ",
"' ' ' ' ' ' ' ' ' ' ' ' ' ' ( ( ( G $.u #.i &.B ( J @ s f h f h g h h g h h h h h h h h h h h h g g g g j ; , U U $.&.t t @.$.R I ' ' ' ' ' ' ' ' ' ' ' ' ' ' ' ",
"' ' ' ' ( ' ' ' ' ' ' ' ' ' ( ' ( F F W M M M V ) v * l l k k k l h h z l h l h h h h l f h f h g s j f j w 8 _ P K P P I I ' ' ' ' ' ' ' ' ' ' ' ' ' ' ' ' ' ' ",
"' ' ' ' ' ' ' ' ' ' ' ' ' ' ' / ( ( ( ( D F S ) ( X.& w a e a a d d d d d d d a e a : e : : e : q ; = = = = + ' _ _ ' I ' L ' ' ' ' ' ' ' ' ' ' ' ' ' ' ' ' ' ' ",
"' ' ' ' ' ' ' ' ' ' ' ' ' ' ' ' ( ( ( ( ( ( ( ( D P X.3 7 6 5 5 5 5 4 5 4 4 4 5 5 5 5 5 5 4 1 1 3 2 3 3 2 X.*./ ' _ ( ( ) I ' ' I ( ( ' ' ' ' } ' ' ' ' ' ' ' / ",
"( ' ' ' ' ' ( ' ( ' ' ' ' ' ' ( ( ( F ( ( ( ( ( ( F ' ( ( ( ( F ( 7.8.8.9.6.' ( ( ( ' ' / 6.9.8.8.7.( ' ( / / ( ( ' ( ( I I I ' ' ( ( ' ' ' ' ' } ' ' ' ' ' ' ' ",
"' ' ' ' ' ' ' ' ( ' ' ' ' ' ( ( L ( ( ( ( ( ( ( ( ( ' L ' ' U L F y.f.k.d.r.$.@.@.@.m V Y r.f.f.k.u.` ' ( F ( ( I R B $.@.t @.B R W ' ' ' ' ' } / / ' ' ' ' ' ' ",
"' ' ' ' ' ' ' ' ( ' ' ' ' ' ' ' ' I R Z Z C A Z T L ' ' ' P 5.7.7.t.g.k.d.r.u u t y ;.4.4.r.s.j.j.y.*.R I ( ( ( I E $.%.t t u u #.#.T ' ( ' ' ' } ' ' ' ' ' ' ' ",
"' ' ' ' ' ' ' ' ' ' ' ' ' ' ' ' A #.#.#.#.u %.@.T I ( W B ;.a.k.k.s.h.h.s.r.t t t O.t.d.d.s.h.h.h.t.&.u #.K ( ' ' ' ( R i u t t t #.B ( ( ' ( } ' ( ( ' ' ' ' ' ",
"' ' ' ' ' ' ' ' ' ' ' ' ' ( ' Z %.t t t t #.$.' ' ' ( $.i =.a.j.k.h.h.h.h.r.t t t +.u.j.g.j.h.g.h.t.O.r t u I ' ' I ) ( Y #.u t t %.Z ' ' ( ( ' } ( ' ' ' ' ' ' ",
"( ' ' ' ' ' ' ' ' ' ' ' ' ' ' B #.u t t u #.T ( I ' I u t +.t.a.a.a.i.i.i.r.y r t r r.i.a.a.a.p.p.t.u u #.t I ' ( ' ' L ' T @.t $.C ' ' ' ' ' ' } ' ' ' ' ' ' ' ",
"' ' ' ' ' ' ( ' ' ' ' ' ' ' ' I C u i t $.H ' ( ( ' I B u u &.-.-.-.-.-.-.=.X r t t t ;.-.-.-.=.=.=.t @.$.R ' ( ' ' ' ' ' ' ' P L ' ' ' ' ' ' / ' [ ' ' ' ' ' ' ",
"' ' ( ( ' ' ' ' ' ' ' ' ' ' ' ' ' I P P ' ' ( ' ' ' ' ' P H Z B y u i t i i #.#.#.#.#.i i i i i i B P ( ( ' ' ' ' ' ' ' ( ' ' ' ' ' ' ' ' ' ' ' ' ' } ' ' ' ' ' ",
"' ' _ ' ' ' ' ' ' ' ' ' ' ' ' ( ( ' ' ' ' ' ' ' ' ' ( ' ' ' ( ( U R Z C C C V Z C C A R H P K Z P ( ' ' ( ' ' ' ' ' ' ' ' ' ( ' ( ' ' ' ' ( ' ' } ' ' } ' ' ' ' ",
"' ' ' ' ' ' ' ' ' ' ' ' ( ' ' ' ' ' ' ' ' ' ( ' ' ' ' ' ' ( ( ( ' ' ' ' ( ' ( ' ' ' _ ( ( ' ( ' ( ' ' ' ' ' ' ' ' ' ' ' ' ' ' ' ' ' ' ' ' ' ' } ' } } [ ' ' ' ' ",
"' ' ' ' ' ' ' ( ' ' ' ( ' ' ' ' ' ' ' ' ' ' ' ' ' ' ' ' ' ' ' ' ' ' ( ' ' ' ' ' ' ' ' ' I F ' ' F ( ' ' ' ' ' ' ' ' ' ' ' ' ' ' ' ' ' ' ' ' ' ' } ' ' ' ' ' ' ' ",
"' ' ' ' ' ' ' ' ' ' ' ' ' ' ' ' ' ' ( ' ' ' ' ' ' ' ' ' ' ' ' ' ' ' ' ' ' ' ' ' ' ' ' ' ' ' ' ' ' ' ' ' ' ' ' ' ' ' ( ' ' ' ' ' ' ' ' ' ' ' ' ' ' ' ' ' ' ' ' ( ",
"' ' ' ' ' ' ' ' ' ' ' ' ' ' ' ' ' ' ' ' ' ' ' ' ' ' ' ' ' ' ' ' ' ' ' ' ' ' ' ' ' ' ' ' ' ' ' ' ' ' ' ' ' ' ' ' ' ' ' ' ' ( ' ' ' ' ' ' ' ' ' ' ( ' ' ' ' ' ' ' ",
"' ' ' ' ( ' ' ' ' ' ' ' ( ' ' ' ' ' ' ' ' ' ' ' ' ' ' ' ' ' ' ' ' ' ( ' ' ' ' ' ' ' ' ' ' ' ' ' ' ' ' ' ' ' ' ' ' ' ' ' ' ' ' ' ' ' ' ' ' ' ' ' ' ' ' ' ' ' ' ' ",
"' ' ' ' ' ' ' ' ' ' ' ' ' ' ' ' ' ' ' ' ' ' ' ' ' ( ' ' ' ' ' ( ' ' ' ' ' ' ' ' ' ' ' ' ' ' ' ' ' ( ' ' ' ' ' ( ' ' ' ' ' ' ' ' ' ' ' ' ' ' ' ' ' ' ' ' ' ' ' ' ",
"' ' ' ' ' ' ' ' ' ' ' ' ' ' ' ' ' ' ' ' ' ' ' ' ' ' ' ' ' ' ' ' ' ( ' ' ' ' ' ( ' ' ' ' ' ' ' ' ' ' ' ' ' ' ' ' ' ' ' ' ' ' ' ' ' ' ' ' ' ' ' ' ' ' ' ' ' ' ' ' ",
"' ( ' ' ' ' ( ' ' ' ' ' ' ( ' ' ' ' ' ' ' ' ' ' ' ' ' ' ' ( ' ' ' ' ' ' ' ' ' ' ' ' ' ' ' ' ' ' ' ' ' ' ( ' ' ' ' ' ' ' ' ' ' ' ' ' ' ' ' ' ' ' ' ' ' ' ' ' ' ' ",
"' ' ' ' ' ' ' ' ' ' ' ' ' ' ' ' ' ' ' ' ' ' ' ' ' ' ' ' ' ' ' ' ' ' ' ' ' ' ' ' ' ' ' ' ( ' ' ' ' ' ' ' ' ' ' ' ' ( ' ' ' ' ' ' ' ' ' ' ' ' ' ' ' ' ' ' ' ' ( ' ",
"' ' ' ' ' ' ' ' ' ' ' ' ' ' ' ' ' ' ( ' ' ' ' ' ' ' ' ' ' ' ' ' ' ' ' ' ' ' ' ' ' ' ' ' ' ' ' ' ' ' ' ' ' ' ' ' ' ' ' ' ' ( ' ' ' ' ' ' ' ' ' ' ' ' ' ( ' ' ' ' ",
"' ' ' ' ' ' ' ' ' ( ' ' ' ' ' ' ' ' ( ' ' ' ' ' ' ( ' ' ' ' ' ( ' ' ' ' ' ' ' ' ( ' ' ' ' ' ' ' ' ' ' ' ' ' ' ' ' ' ' ' ' ( ' ' ' ' ' ' ' ' ' ' ' ' ( ' ' ' ' ' ",
"' ' ' ' ' ' ' ' ' ' ' ' ' ' ' ' ' ' ' ' ' ' ( ' ' ' ' ' ' ' ' ' ' ' ' ' ' ' ' ' ' ' ' ' ' ( ' ' ' ( ' ' ' ' ' ' ' ' ' ' ' ' ' ' ' ' ' ' ' ' ' ' ' ' ' ' ' ' ' ' ",
"' ' ' ' ' ' ' ' ' ' ' ' ' ' ' ' ' ' ' ' ' ' ' ' ' ' ' ' ' ' ' ' ' ( ' ' ' ' ' ( ' ' ' ' ' ' ' ' ' ' ' ' ' ' ' ' ' ' ' ' ' ' ' ' ' ' ' ' ' ' ' ' ' ' ' ' ' ' ' ' ",
"' ( ' ' ' ' ( ' ' ' ' ' ( ' ' ' ' ' ' ' ' ' ' ' ' ' ' ' ' ' ' ' ' ' ' ' ' ' ' ' ' ' ' ' ' ' ' ' ' ' ' ' ( ' ' ' ' ' ' ' ' ' ' ' ' ' ' ' ' ' ' ' ' ' ' ' ' ' ' ' "
};
