/* XPM */
static char *result[] = {
/* columns rows colors chars-per-pixel */
"80 80 202 2 ",
"   c #010101",
".  c #0B0708",
"X  c #11080C",
"o  c #220C15",
"O  c #29101B",
"+  c #213F1B",
"@  c #391022",
"#  c #383C3A",
"$  c #561833",
"%  c #651C3B",
"&  c #24461D",
"*  c #25481E",
"=  c #2C5323",
"-  c #2F5A26",
";  c #35672A",
":  c #427C35",
">  c #7F1E47",
",  c #787D7B",
"<  c #E63E36",
"1  c #FA353F",
"2  c #902554",
"3  c #B82E6A",
"4  c #BC326D",
"5  c #EE3D40",
"6  c #FD3642",
"7  c #F53C42",
"8  c #FF3A45",
"9  c #FF3D49",
"0  c #C1316F",
"q  c #CB3677",
"w  c #D5387C",
"e  c #AC7E48",
"r  c #B67648",
"t  c #DA5243",
"y  c #D05E45",
"u  c #E84641",
"i  c #FE424D",
"p  c #FF4752",
"a  c #FE4A54",
"s  c #FD5057",
"d  c #FD545D",
"f  c #FB585F",
"g  c #C56745",
"h  c #CA7257",
"j  c #FC5661",
"k  c #FC5961",
"l  c #C57E67",
"z  c #FB667B",
"x  c #458637",
"c  c #4A933B",
"v  c #49AE36",
"b  c #52B73F",
"n  c #5EC03E",
"m  c #59B245",
"M  c #56BA42",
"N  c #5BBE46",
"B  c #5DBF49",
"V  c #7EA547",
"C  c #7BAB4B",
"Z  c #63BD45",
"A  c #62BF4B",
"S  c #6BBA49",
"D  c #74B24C",
"F  c #6EBF58",
"G  c #77BB5A",
"H  c #74BC5C",
"J  c #7EAC63",
"K  c #76BC60",
"L  c #7DBB64",
"P  c #5CC047",
"I  c #5EC14A",
"U  c #63C245",
"Y  c #6AC747",
"T  c #60C24B",
"R  c #72C84C",
"E  c #65C351",
"W  c #6BC155",
"Q  c #6AC757",
"!  c #73C25D",
"~  c #6FD15A",
"^  c #77D458",
"/  c #75C362",
"(  c #7CC166",
")  c #9E8746",
"_  c #968C46",
"`  c #9A8946",
"'  c #9E8A4A",
"]  c #899B48",
"[  c #929449",
"{  c #95954A",
"}  c #A6844A",
"|  c #A98850",
" . c #81A346",
".. c #82A349",
"X. c #848D73",
"o. c #81BA66",
"O. c #89B76D",
"+. c #84BA6A",
"@. c #9CAE7C",
"#. c #8CBA72",
"$. c #94B375",
"%. c #96B67A",
"&. c #84DB5C",
"*. c #82C16C",
"=. c #88C374",
"-. c #98C377",
";. c #92C27C",
":. c #95EB6B",
">. c #D93B81",
",. c #E03B83",
"<. c #E8458D",
"1. c #F64B98",
"2. c #FD4E9D",
"3. c #FC6E87",
"4. c #FA738F",
"5. c #FC7596",
"6. c #ED5EA2",
"7. c #FE57A4",
"8. c #EE66A7",
"9. c #FC65AD",
"0. c #FC7AA3",
"q. c #FF6DB4",
"w. c #F875B6",
"e. c #8F9492",
"r. c #ABAD88",
"t. c #B4A88F",
"y. c #A2B887",
"u. c #BAA795",
"i. c #BAA995",
"p. c #A7BF91",
"a. c #B5B89A",
"s. c #B790A4",
"d. c #BDBDA5",
"f. c #B9B0B0",
"g. c #D28D82",
"h. c #ED8C9D",
"j. c #C4A49B",
"k. c #C0A89A",
"l. c #D49EA9",
"z. c #D69EAA",
"x. c #DA9DAD",
"c. c #FC80AA",
"v. c #FB85B5",
"b. c #FC88BB",
"n. c #E499B4",
"m. c #EC96BB",
"M. c #E69BBA",
"N. c #EC99BD",
"B. c #CDA2A4",
"V. c #D1A1A6",
"C. c #D3A1AB",
"Z. c #C5BDAC",
"A. c #CCBEB4",
"S. c #D4BEBD",
"D. c #E2A0BA",
"F. c #9BC185",
"G. c #9FC28A",
"H. c #A0C38B",
"J. c #B8C5A6",
"K. c #C9C3B7",
"L. c #F987C3",
"P. c #FB8CC6",
"I. c #FD8EC9",
"U. c #EF97C0",
"Y. c #F495C3",
"T. c #F896C7",
"R. c #FC94CB",
"E. c #FC9BCE",
"W. c #FD87D2",
"Q. c #FD8BD3",
"!. c #FD95D4",
"~. c #FD9CD3",
"^. c #FE9CD9",
"/. c #D7A5C7",
"(. c #DBBEC5",
"). c #DEBEC8",
"_. c #EBB6CC",
"`. c #FCA3D6",
"'. c #F9A7D7",
"]. c #FEA4DB",
"[. c #FDAEDE",
"{. c #FCB1DF",
"}. c #F3BBDB",
"|. c #FFA6E0",
" X c #FEAEE0",
".X c #FDB2E1",
"XX c #FBBAE3",
"oX c #FFBDE8",
"OX c #D8C1C2",
"+X c #E5C4D6",
"@X c #FCC4E5",
"#X c #FEC2ED",
"$X c #FFCBE9",
"%X c #E9D4E0",
"&X c #FFC5F2",
"*X c #FFC9F7",
"=X c #FFCBFA",
"-X c #FFD8F7",
";X c #DFE1E0",
":X c #E5EDEA",
">X c #FEE9F7",
",X c #FCFFFD",
/* pixels */
"T T T T T T T T T T T T T T T T T T T I I I T T T T E T T T T T T T I I T T T T T T T T T T T T T T T T T T T T T T T T T ~ I I T T T T T T T T T I I T T T T T ",
"T T T T T T T T T T I I T T T T T T T E E T T E T T T T T T T E T T I I T T T T T T E T T T T T E T T T T T T T T T T T T T I I T T T E T T T T ~ I T T T I T T ",
"E I T T T T T T T T T I T T T T I T T T I E I T T T T T E T E T T T T ~ T T T T T T T I T T T T T T T T T E T T T T T T ~ T I I T T T T T T T T T T T T T T T T ",
"I I I E T T T T T T ~ I T T T T I U T T I I I T T T T T I I I T T T T T T T T T T I T I T T T T T T T E T T T T T T T E P T T I T T Y T T T T T T T T T T T T T ",
"I I T T T T T T T T T T T T T T T T T T T T T T T T T T T T I I E I T I T I I I I I I P I I I I T T T T T T T T T T T T I I I I T T T T I I T T T T T T T T I I ",
"I E T E T T I T T T T T T T T T T T T T T T T T T T T T T T I I #.M.Y.M.F.T I I I I B B I I I I T T T T T T T T T T T T I I I I T T T T I Y I T T T T T T T I P ",
"I I I T T T T T T T T T T T T T P T T T T T T T T T T T T T T Q T.|. X].|.y.I I T T I I I I I E T T T T T I T T T T T T T T I I T T T I I I T I T T T T T T T ~ ",
"I E T T T T T T T T T T T T T T A T T T T T T T T T T T T T T *.~.{..X.X'.E./ T I I I B I I T I T T T T T T T T T T T T T I T I T T T T T I T T T T T T T T T E ",
"T T T T I I I E T T T T T T T T T A I T T T T T T T T T A A T L R.[.{.[.{.].r.I B B B B I I I I E G O.y.i.x.M.z.a.( T T T T T T T T T T I T T I T I T T I T T ~ ",
"T T E T T I I I T T T T T I T I T T T T T T T T T T E T I T T W m.[..X{..X[.B.B M M B T H $.t.C.U.T.~.^.^.].'.`.'.^.i.T T A T T I T I T T T T T T T T I T T T T ",
"T T T T I T I I T T T T T T T I T T T T T T A T o.C.N.C.%.T T T i.].{.[.{.].x.M m J t.x.T.'.|. X X[..XT.'..X.X.X.X'.^.C.E T A T T T T I I T I I T I T T T T T T ",
"T T Y T T T I I I T I T I I I I T T T T T T P W N.|.].].~.u.I T L R.{.{..X`.m.u.N.^.|. X{..X.X{.{..X].T..X X X X X.X.X^.B.I T T I T T T T T T T T T I T T I T T ",
"E T T T T I I I I I I I I T I I T T T T T T I $.^.{.{.XX'.].r.T T u.]..X'.R.R.|.|..X{.T.P.P.`.[.[..X].T..X.X.X.X{.`.'.'.!.O.B T T T T T T T T T T T T I T T T T ",
"T T T T T T T Y Y I P P I P T T T T T T T T T @.`.{.[.[.XX].Y.H T E U.R.R.E.'..X.X.XR.$X>X@XP.~..X[.].R.'..XY.^.'.8.w.XX'.V.I A T T T T T T T T I T T T T T T T ",
"T T T T T I T E E I I T T I T T T T A T T T T H T.{.{.{.{.{.].k.L x.R.~..X.X.X[..X'.`.e., ,X@XP..X{..XR.'.|.6.w..Xv.L..X].N.W I I T T T T T T T T T I T T T T T ",
"T T T T T I I I T P P T T T T I N T I T T T T T j.].{.{.{.{.].P.T.].[..X`.P.R.]..X~.{.#   ;X-Xm..X[.{.`.R..XL.T..X.X.X.X[.T.H I T T T T T T T I T T T T T E T T ",
"T T T T T T I T E P P T T T I P P T T I Y I I I F N.]..X.X{.E.P.`.{..X~.E.$X{.P.].'.R.+Xf.>XE.~..X[..X].P.].XX{.[.[.{.{.].m.W T T T T T T T T I T T T T T T T T ",
"~ T T T T T ~ ~ ~ ~ E T I I I T T T T T I I T I T o.T. X{.R.R.].[. X[.E.%X:X,X}.!.XXE.E.{.R.R.{.[.{..X.X~.R.[.{.{.[.[.{.].V.T T I T T T T T T T T T T T T T T T ",
"I I T T I I I ~ ~ E E I P T T T I T I I T T T T T T o.D.E.E.[..X{..X~..X#   ;X>XR.{..X'.~.'..X X X[.{. X{.R.T.]..X.X{.`.R.+.T T T T T T T T T T T T T T T T T T ",
"I I T T I I P P T I I I T T T T T T T T T T T T T T T k.!.'..X[.[..X^.|.e.= :X-XR.{.[..X.X.X{.[..X.X[.{.[.{.~.P.R.R.R.!.t.T A T T T T I T T T T T T T T T T T I ",
"E T T T I I P P I P P I T T T T T T T T I T T T A T $.~.[..X[.[.[..X[.T.-X,X>XE.~..X[.{.[.{. X X[..X X.X[.[..X].`.E.!.V.T T T T I I I I I T T T T T T T T T I E ",
"T T T T I I T T I T P I T I I T T T T T T T T T T T M.].{.[.{. X{. X[.].R.T.P.E.{.[.[.{. X.X X.X.X[.{..X.X[..X.X'.^.C.W T T T T I I E I T T I T T T T T T T I Y ",
"T T T T T T T T I T I I T T I I T T T T T T T T I @.].{.{.{. X{.[..X[..X[.].[..X[.[..X[.[. X.X X X[..X[.[.[.{.`.^.V.A T A T T T Y I I T T T T I T T T T T T T I ",
"T T T T T T T T I T I T T T T T T T T T T T T T T n. X{.[.{.[.[.{. X X[..X.X X[..X X X.X.X{. X[.[.{.[..X.X{.~.~.i.T T T T T T T I T T T T I T T I T T T T T T T ",
"T T T T T T T T T T T T T T I I T T T T T T T T +.~..X{. X.X.X.X.X[..X X[.[.{.{.[..X[..X X.X[..X[.{.{.].].^.m.@.T T T T T T T T T T I T I T T I T I T I T T T T ",
"T T T T T I T I T T T T I T T T T T T T T T A I u.].{.{..X].].].]..X[. X.X X X X{. X.X X.X[. X.X{.{.`.R.Y.i.W T T T T T T T T T T T T T T T T T T T T I T T T T ",
"I I T ~ T T I T T T T T T T T T U T T T T T T I x. X.X{.^.W.Q.Q.Q.^..X[.[.{.[.{..X[. X[..X X[.[.[.[.E.].k.T T T T T T T T T T T T T T T I T I I I T I I T T T T ",
"I I I I I T T T T T T T T T T T I T T T T T T W Y. X{.].Q.Q.Q.Q.Q.Q.^..X{.[. X.X X.X.X.X[.{..X[.[.{..X.XT.K A T T T T T T A T T T T T T T T T T T T I I I ~ T T ",
"T T I I I I I T T T T T T T T T I I T T U I T G T. X.X!.W.Q.Q.Q.Q.Q.Q.]..X[.[.{. X.X X[.{. X X X{.'.{..X|.u.I T T T T T T T T T T T T T T I I T T T T T T E T T ",
"T T I I T I T T T T T T T T T T T T T T I T T o.~.{..X!.Q.Q.Q.Q.Q.Q.Q.]..X[.[. X.X{. X.X.X[.[..X{.7.w.XX[.T.F I T T T T T T T T T T T T T T T T T T T T T T T T ",
"T T T I T T T I T T T T T T T T T T T T T T T +.~.{.{.^.W.Q.Q.Q.Q.Q.W.]..X[.[..X X X X[.[.[..X.Xq.w <.].{.'.@.T A T T T T T T T I T T T I T T I T T I T T T T T ",
"T T T ~ T T T T T T I T T T T I T T T T T T T o.R.[.{.].W.Q.Q.Q.Q.Q.W.].{..X.X[.[.[.[.[. XXX'.q.>.O 4 R.XX].B.T T T T T T P A T T T T I T T T T T T T T T E T T ",
"T T T T P A T T T P T T T T T T T T T T I U T H T.[.{.{.!.W.Q.Q.Q.Q.!. X X X]..X.X.X.X.X'.L.7.3 o   3 I.XX[.M.A T T T T T T T T I I T T T T P T T T T T I I I T ",
"T T T T T T T T T U T T T T T P P T P T T T T W m.].{.{. X^.Q.W.Q.!.]..X.X8.1.9.q.w.w.7.1.q >       w I.XX].T.G T T T T T T T T A T T T T T T T T T T T E I Y T ",
"T T U I T T T T T T T A T T T T T N T T T T T E z.]..X[..X.X].].^. X X[..Xq.3 $ > 2 2 % @ .       @ 1.'..X[.R.G T I I T T I T T T T T T T T T T T T T T I I T T ",
"I E T T T T T T T T T T T T T T T P T T T E T T t.^.{.{.[.[..X.X.X.X X[..XP.,.X                   3 q.XX{.].Y.H T A T T T T T T T T T T T T T T T T A T E T T T ",
"I I I I T T T T T T T T T T T T T T T T T T T T +.R.]..X{.[..X X X[..X[..X[.7.4 X               2 2.'..X{.[.m.A T T T T T I T T T T T T T I E I T T T T T T T T ",
"I E I E T T T T T T T T A T T T T T N N N T T B I n.].{. X{.[.[..X.X[. X[..X~.7.0 $ .     o % 0 2.!..X[.{.|.j.T A T T T T A T T T T T T T I I T T T T P T T T T ",
"T T I I T T T P T T T T T T T T T T A N N T I A T %.~.'..X[. X{.[.[..X[.{.[..X'.w.7.>.q w <.2.q.`.XX]..X{.~.O.T T T T T T T T T T T T T T T T T T T T A T T T T ",
"T T T Y T T T A T T T T T T T T T T T T I I N A T T x.].{.[.{.{. X.X[. X.X X{..XXX].~.I.I.R.'..X.X[..X.X].l.I T T T P T T T T T I T T T T T I T T T T T T T T T ",
"E T T T T T T T T T T T T T T T T T T T N N N N T T o.P.].{.[.[.{.[. X[.[. X.X[.[..X.XXX.XXX.X[.[.{.{.`.T.G T T T T T T T T T T T T T T T T I T T T T T I I T T ",
"T T T T T T T T T T T T T T T T T T T N T U T T N A T y.~.'..X[.[..X X.X{. X X{..X[. X[.[.[. X[.{.{.`.!.O.T A T T T T T T T T T T T T T T T T T T T T T I ~ T T ",
"T T T T T T T T T T T T A T T T T T Z A Q ^ ^ R Z Z U } 0.E.`.{. X[.[..X.X[..X X.X X X[.[.[.[.[.[.~.R.z ] I A A A T A A T T T A T T I I T T I I T T I T I I T T ",
"T T T T T T T T P U T T P T T T U U n Y ^ :.&.R Z Z D 1 a c.R.E.]..X.X{.[.[.[.[.[..X[. X.X{.[.`.!.b.3.9 u A T T T T T A A A T T T T I I T T T T T I T T T T T T ",
"T T T T T T T T T T T T T T T T U U n Y ^ :.&.Y Z S h i d d 3.L.R.~.].[.{.{. X.X.X{.[.[.].`.!.P.5.k d f 6 } =.F.y.p.p.p.H.#.;.H.F.Q I I T T T T T T T I T T T E ",
"T T T T T T T T T A T T T T T T U U U U Y Y &.-.A.%Xb.s d j a j 4.b.R.R.~.~.`.].].~.~.!.R.v.4.z s d s f i 6 _.&X*X*X*X&X#X#X#X&X=X=XF.I T T T T I T T T T T T T ",
"T T T T T T T T T T T T T T W / T b U n G a.}.#X).h.j d d d j s s k z 5.0.v.v.v.v.c.0.4.z k s s d d d d d 6 | / L ( ( G.).&X}.=.=.H.~ T I T T T T I T I T T T T ",
"T T T T T T T T T T T T T T d.-X+Xy.=.K.#X=XOX-.N < i f d d d d d d a s s d k k k d s s a s d d d d d d k i t T I I B A.@XOXXX( T T T T T I T I T T T T T T T T ",
"~ I T T I T T T T T T T I T ~ F.(.=XoX*Xf.( T T ] 9 j d d d d d d d d d d d d d d d d j j d d d d d d d f a 1 C A T A W ! K.@XW E T I T T T T T T T T T T T T T ",
"I I T T T T T T T T T T T T I F.}.XX(.K T T B B g p j d d d s d d d d j d d d d d d d d d d d d d d d d d d 8 e T A T T T %.=.T T T T T T T T T T T T T T T T T ",
"T T T T T T T T T T T T I I J.>X(.=XF.B E Q E B 5 p j d d d d d d d d d d d d d d d d d d d d d d d d d d f i t T T T T I I B T I T T T T T T I T T T T T T T T ",
"I T T T T T T T T T T T I P F.F.Q (.F B I I I C 6 d d d d d d d j d d d d d d d d d d d d d d d d d d d d d a 1 D T T T I T T T I T T I T T T T T T T T T T T T ",
"T T T T T T T T I T T T I T T T I E I B B A T } 9 f d d d d d d d d d d d d d d d d d d d d d j s d d d d d d 6 { T I I T I T I I I E I T I T I T I T I T T T T ",
"T T T I T T I T T T I T T T I T I I T B A A T y i f d d d d d d d d d d d j d d d d d d d d d d d d j d s d f 8 r T A I I I I I I I I I I I T T T T T I I T T T ",
"T I I I I I T T T T T I T T T T I I I I T A T u a f d s d d d d d d d d d d d d d d j d d d d d d d d d d d d i t T I I P I I B I I T T I I T T T T T T T T T T ",
"T ~ I I T T T I T T T T I T I T I I I I A T C 1 s d d d d d d d d d d j d d d d d d d d d j d d d d d d d d j p 5 S I I I B B I I I I I I I T I T I I T T T T T ",
"I E T T T T T I T T T I T T T I I I I U T U [ 6 s d s d d d d d d d d d d d d d d d d d d d d d d d d d d d f s 6 C I B I I N I P P I I I I I I T T T T T T T T ",
"I T T T T T I A T T T T T I T T I I I T Z A e 9 f d d d d d d d d d j d d d d d d d j d d d d d d j d d s d d s 6 { I B I I P I P P I I P I I I I I T T T T T T ",
"I E T T T T T T T T I I T T I E I I T I A A g 9 k d d d d d d d d d d d d d d j d d d d d d d d d d d d d d f f 9 e T B I P N M M P I I P I I I T T T T T T T T ",
"I I T T T T T T I T T T T I I I A T A I S U t i f d d d d d d d d d d d d d d d f d d d d d j d d d d d d d s f 9 g B B I M M v v M I I P I I I T I T T E T T T ",
"I I I I I T T T T I I T T T I T T A E A A Z 5 a f d d d d d d d d d d d d d d d d d d d d d d d d d d d s d d f 9 y T T I P P M b P I I I I I I T T T I T T T T ",
"E I E T I I T T T T T T T T T T B A B A B D 1 a f d d s d d d d d d d d d d d d d d d d d d d d d d d d d d d j a u T B I P P P I I I I I I T T I T T T T T T T ",
"E T I I I E T T I T T T T T T T T E I I I  .6 d f d s d d d d s d d d d d d d d d d d d d d d d d d d d d d d j a 7 A B P P P P T I T P P I I I T T T T I T I I ",
"I T T I T T I I T T T T T T T T A T I I I ' 7 s d s d f f j k f f d j d j j j j f f f f f f j f f j f j d j d j j 8 G P P I I I T T T I T I T I T T T T T I I ~ ",
"I T T T T T T T T T T T T T T T I P T I I ' 8 1 6 6 8 8 9 9 6 6 9 9 9 p p p p p p a p p a p 6 p a p p p 9 9 9 9 i 1 V I P T T I I T I T I I T I I T T T T T T T ",
"E T T T T T T T I T I T T T T T T I I I T T C V V V V  . ...h.g.] [ [ _ ` ` ) ) ) ` ` ` _ l 4.| _ _ _ { [ ] ] V V D I T I T I I I I T T T T T T T T T T T T T T ",
"T T T T T T T T I T I T T T T T T T I T T T T T T T T T I E #XK.T T I T T I I I T T T T I J.=XQ I I I I T I I I T T I T T T T I T T T T T T T T T T T T T T T T ",
"T T T T T T T T T T T T T T T T T T T T T I U T U T T T T ! XXK.A T A A A A A A A A A A B Z.oXW B A A A A T T T T T T T T T U I T T T T T T T T T T T T T T T I ",
"T T T T T T T T I T T T T T T T T T T T T T T T T T T T T / &XK.T T T I I I T T I T T A I Z..XE T T T T T T T T T T T T T T T T T T T T T T T T T I T T T T T I ",
"T T T T T T T T T T T I T I T T T T T T T T T T T T T A T / #Xa.B B B A I I U T T T T T T Z.}.F B B B B B B T T T T T T T T T T T T T T T T T T T T T T T T T T ",
"E T T T T T T T T T T T T T T T I T T T T T T T T T T T T ! =XJ.I A I I T T E T T T T A T S.oXA T A I T T T T T T T T T I T T T T T T T T T T U T T T T T T T T ",
"T T T I T I T T T T T T T T T T T T T T T T T I T T T A T K /.X.x ; = & & = c T I T T T T f.s.x ; - * + & : T T T T T T T T T T T T T T T I I I T T T T T T T T ",
"T T T T T T T T I T I T T T T T T T T T T T T T T T T N T :                 = T B T T T N .               . P I T I T T T T T T T T T T I T T T T Y I I T ~ I I ",
"T T T T T T I T T T I T T T T T T T T T T T T T A T T T T m : ; ; - = & * ; m T T T T T I c ; ; - = * * - c I I T T T T T T T T I T T T T T T I T I I I T T I I ",
"T T T T T T T T T I T T T T I T T T T T T T T T T T T T T T T T I T T T I T T T T T T T I T T T T I I T T T T I T T T T I T T T T I T T I T T T I I E I T T T T ",
"T T T T T T T T T T T I T T T T T T T T T I T T T T T T T B A N I I I I B B I T T T T T T I I I B B I I I I T I T T T T T T T I T I U T T T T T Y I I I T T T T ",
"~ I T T T T T T T T I T T T T T T T I T T T T T T T T T T T T T I I T T T T T I T T T I I I I I T T T T T T I I T T T T T T I I T T I T T T T T T T T T T T T T ",
"I I T T T T T T T T T T T T T T T T T T T I T T T T T T T T A T I I T T T T T I T T T T E T T T T T T T T T E I T T T T T T E I T T I I T T T T T T T T T T T T ",
"I T T T T T I T T T T T T T T T T T T T I I T T T T T T T T T T I E I I T T E I E T T T T T T T T T T T T I I I T T T T T I I I T T T E T I I T T T T T E T T T ",
"T T T T T T T T T T T T T T T T T T T T I E T T T T T I T T T T I I E I E T I I I T T T T T T T T T T T E I E I T T I T E I E I I T T T E I E T T T E T T T T T "
};
