/* XPM */
static char *result[] = {
/* columns rows colors chars-per-pixel */
"80 80 202 2 ",
"   c #010101",
".  c #0B0708",
"X  c #11080C",
"o  c #220C15",
"O  c #29101B",
"+  c #213F1B",
"@  c #391022",
"#  c #383C3A",
"$  c #561833",
"%  c #651C3B",
"&  c #24461D",
"*  c #25481E",
"=  c #2C5323",
"-  c #2F5A26",
";  c #35672A",
":  c #3F7B32",
">  c #427C35",
",  c #7F1E47",
"<  c #E63E36",
"1  c #FA353F",
"2  c #902554",
"3  c #B82E6A",
"4  c #BC326D",
"5  c #EE3D40",
"6  c #FD3642",
"7  c #F53C42",
"8  c #FF3A45",
"9  c #FF3D49",
"0  c #C1316F",
"q  c #CB3677",
"w  c #D5387C",
"e  c #AC7E48",
"r  c #B67648",
"t  c #DA5243",
"y  c #E84641",
"u  c #FE424D",
"i  c #FF4752",
"p  c #FE4A54",
"a  c #FD5057",
"s  c #FD545D",
"d  c #FB585F",
"f  c #C56745",
"g  c #CA7257",
"h  c #FC5661",
"j  c #FC5961",
"k  c #FC5F6F",
"l  c #C57E67",
"z  c #FB667B",
"x  c #458637",
"c  c #4A933B",
"v  c #49AE36",
"b  c #4FB43C",
"n  c #52B73F",
"m  c #5EC03E",
"M  c #51A340",
"N  c #59B245",
"B  c #56BA42",
"V  c #5BBE46",
"C  c #5DBF49",
"Z  c #7EA547",
"A  c #7BAB4B",
"S  c #63BD45",
"D  c #62BF4B",
"F  c #6BBA49",
"G  c #74B24C",
"H  c #6EBF58",
"J  c #77BB5A",
"K  c #74BC5C",
"L  c #7EAC63",
"P  c #76BC60",
"I  c #7DBB64",
"U  c #5CC047",
"Y  c #5EC14A",
"T  c #63C245",
"R  c #6AC747",
"E  c #60C24B",
"W  c #72C84C",
"Q  c #65C351",
"!  c #6BC155",
"~  c #6AC757",
"^  c #7ACC53",
"/  c #73C25D",
"(  c #6FD15A",
")  c #77D458",
"_  c #75C362",
"`  c #7CC166",
"'  c #9E8746",
"]  c #968C46",
"[  c #9A8946",
"{  c #9E8A4A",
"}  c #899B48",
"|  c #929449",
" . c #A6844A",
".. c #A98850",
"X. c #82A349",
"o. c #848D73",
"O. c #81BA66",
"+. c #89B76D",
"@. c #84BA6A",
"#. c #9CAE7C",
"$. c #8CBA72",
"%. c #94B375",
"&. c #96B67A",
"*. c #84DB5C",
"=. c #82C16C",
"-. c #88C374",
";. c #98C377",
":. c #92C27C",
">. c #95EB6B",
",. c #D93B81",
"<. c #E03B83",
"1. c #E8458D",
"2. c #F64B98",
"3. c #FD4E9D",
"4. c #FB519E",
"5. c #FC6E87",
"6. c #FA738F",
"7. c #FC7596",
"8. c #ED5EA2",
"9. c #FE57A4",
"0. c #EE66A7",
"q. c #FC65AD",
"w. c #FC7AA3",
"e. c #FF6DB4",
"r. c #F875B6",
"t. c #8F9492",
"y. c #ABAD88",
"u. c #B4A88F",
"i. c #A2B887",
"p. c #BAA795",
"a. c #BAA995",
"s. c #A7BF91",
"d. c #B5B89A",
"f. c #B790A4",
"g. c #BDBDA5",
"h. c #B9B0B0",
"j. c #D28D82",
"k. c #ED8C9D",
"l. c #C4A49B",
"z. c #C0A89A",
"x. c #D49EA9",
"c. c #DA9DAD",
"v. c #FC80AA",
"b. c #FB85B5",
"n. c #FC88BB",
"m. c #E499B4",
"M. c #EC96BB",
"N. c #E69BBA",
"B. c #EC99BD",
"V. c #CDA2A4",
"C. c #D1A1A6",
"Z. c #D3A1AB",
"A. c #C5BDAC",
"S. c #CCBEB4",
"D. c #D4BEBD",
"F. c #E2A0BA",
"G. c #9BC185",
"H. c #9FC28A",
"J. c #A0C38B",
"K. c #B8C5A6",
"L. c #C9C3B7",
"P. c #F987C3",
"I. c #FB8CC6",
"U. c #FD8EC9",
"Y. c #F495C3",
"T. c #F896C7",
"R. c #FC94CB",
"E. c #FC9BCE",
"W. c #FD87D2",
"Q. c #FD8BD3",
"!. c #FD95D4",
"~. c #FD9CD3",
"^. c #FE9CD9",
"/. c #D7A5C7",
"(. c #DBBEC5",
"). c #DEBEC8",
"_. c #EBB6CC",
"`. c #FCA3D6",
"'. c #F9A7D7",
"]. c #FEA4DB",
"[. c #FDAEDE",
"{. c #FCB1DF",
"}. c #F3BBDB",
"|. c #FFA6E0",
" X c #FEAEE0",
".X c #FDB2E1",
"XX c #FBBAE3",
"oX c #FFBDE8",
"OX c #D9D2D5",
"+X c #E5C4D6",
"@X c #FCC4E5",
"#X c #FEC2ED",
"$X c #FFCBE9",
"%X c #E9D4E0",
"&X c #FFC5F2",
"*X c #FFC9F7",
"=X c #FFCBFA",
"-X c #FFD8F7",
";X c #DFE1E0",
":X c #E5EDEA",
">X c #FEE9F7",
",X c #FCFFFD",
/* pixels */
"E E E E E E Q E E E E E E E E E E E E E E E Y E E E E E E E E E E E E E E E E E E Q Y Q Y Y Y E E E E E Q Y Y Y Y Y E E E E E E E E E E E E E E E E E E E E E E ",
"E E E E E E E E E E E E E E E E E E E E E E Y Q E E E E E Q E E E E E E E E ( E E E Y Y Q Y Y Q E E Q E Y Y Y Q E Q E Q E E E E E Y E E E E E E E E E E E E E E ",
"Q Y E E E E E E E ( U E Y Y E E E E E E E E Q Y E E E Q E E E E E Y Y E E E U Y E E E E Y Q Y Y E E E Q Q Y Y E E E E E ( E E E Q Y E E E E E E E E ( U E E Y U ",
"Y Y Y Q E E E E E E U E E Y ( E E E E Y E Y Y Y E E E Q E E E E E ( Y E Y E E U Y E E E Y Y Y Y E E E E E E E E E E E E Y E E E E E E E E Q E E E E E E E E Y ( ",
"Y Y Q Y Y Y E Y E Y E Y E E E E E E E E E E E E E E E E E E E E Y Y Y Y Y U Y U Y Y Y D E E E E E E E E E E E E E E E E Y Y E E E E E E E E E E E E E E E E E E ",
"Y Q Y Y E E E E E E E E E E E Y E E E E E E E E E E E E E E Y E Y Y Y Y U Y Y Y Y C Y i.N.Y.N.$.E E Y Y E E E E E E E E Y E E Y E E E E E E E E E E Y E E E E E ",
"Q Y Y Y E E E E E Y Y E E E E E E D E E E E E E E E E E E Y Y E E E Y U Y Y E E Y Y y.].[. X].T.( E Y Y E E E E E E E E Y E E E Y Y Y Y R Y E E E Y E E E E E E ",
"Q Y Y Q E E E E E E E E E E E E E E E E E E E Y E E E E E E Y E Y Q Y Y Y Y E E Y I R.'..X.X[.~.` E Q Y E E E E E E Y E E E E Y Y Q Y Y Y Y E E E E E Y E E E E ",
"R E E E Q Y Y Y E Y E E E E E E E E E D E E @.a.c.m.c.a.i.+.K ! Y Y Y Y C C C C E y.^..X{.{.[.R.O.E E D E E E E E E Y Y Y Y Y E Y E E Y Y Y E E E E E E E E E Y ",
"Y Y E E Y Y Y Y E E E E E E E E E E E E Q a.R.^.].].].~.~.^.T.B.A.u.G.H C V B B C V.]..X[..X[.M.Q Y D D E E E Y E E Y Y Q Y E E E E E Q E E E E E E E E E E E Y ",
"Q Y E E Y Y E R Y E E E E E E E E D E D c.^.'.[.{.{.XX`.T.[.[.[. X|.^.Y.F.u.L N B x.|..X[.{.].p.E D E &.Z.B.Z.=.U Y Y Y E E E E Y Y Y Y E E E E E E E E E E Y Y ",
"E E E E E E Y E E E E E E E E U E E E l.^.{.XX[.[.[.{.{.E.]..X{..XXX.X X.X|.~.N.p.B.'..X.X.XR.I E Y p.^.].[.].B.( Y Y Y E E E Y Y Y Y Y Y Y E Y Y E E E E E ( E ",
"E E E E Y E E E E E E E E E E E E E $.!.'.'.~..X.X.X X.XR.'.{.[..X~.Q.P.Y..X{.[.|.R.I.`.{.].p.E E y.^.'.XX{.{.~.$.E E E E E E Y E E E Y U Y E U Y Y E E E E E E ",
"E E E E E E E Y Y E Y Y E E E E E Y x.].XXr.0. X~.T.{.[.U.[.{..X'.P.oX-X#XR..X{..X].~.R.R.Y.Q E K T.'..X[.{.{.^.%.Y T E E E E E E E U U U U E U E E E E E E E E ",
"E E E E Y E E E E E E E E E E E Y Q M.'..XP.r.XXr.8.'.].R.{.[..XI.@X,XL t.'.'..X{.{.XX.X~.T.c.I z.].{.XX{.{.[.R.K E E E E E E E E E E E E Y E ( E E E Y E E E E ",
"E Q E E E E Y E Y E E Y E E E E Y K T.[. X}..X.XT.P..XR.~..X{..XP.-XOX  # .X~..X].R.P.`.XX[.].T.I.]..X[.{.{.|.l.E E E E E E E Y E E E E E U Y E E Y E E E E E Q ",
"E E Y Y E E E E E E E E E E Y E E ~ M.[.{.{.[. X{.XX].U.[.{.[..X~.T.>Xh.+XR.'.[.I.}.$XE.~..X.X`.I.E.{.{.{.[.B.H E D E Y E E D V U T Y T Y U U Q Y Y E E E Q E E ",
"E E Y Y E Y E Y E E E E E E E E Y Y C.].{.[.{.[.{.[.U.~.{.[. X{.{.!.T.{.E.E.XXR.{.,X:X%XE.[.{.[.'.R.R.{. XT.O.E E E E E E E E E E E Y Y E Q ( ) ( E E E E E E E ",
"E E E Y E Y E E E E E E Y E Y Y Y Y =.E.`.{..X.X`.U.R.{.{..X[.[..X.X].~.`..X{.R.>X;X  # {.`..X{.XX{.E.R.F.O.E E E E E E E E E E E E E E E E ~ ( ( E Y E E E E E ",
"E E E ( E E E Y U E E E E E E E Y R Y u.!.R.R.R.I.~..X{.[.[..X X[.{..X.X.X[.{.U.-X:X# t.{.~..X[.[.{.].!.l.E D E E E E E E E E E E E E E Y Y Y E Y Y E E E E E Y ",
"E E E E E E E E E E E E E E Y E E E E Y C.!.E.`.[.{.{.[..X X.X[. X[.{. X[.[..X^.E.>X,X-XR.[.[.[.[.[.{.[.~.%.E D E E E E E E Y E E E E E Y Y U U U U E E E E Q Y ",
"E E E E E E E Y E E E E E E E E E E E Y E Z.^.[.{.{.{.{. X{.[.{..X X X.X.X X[..XE.T.T.n.]..X[.[.[.[.[..X[.m.E E E E E E E E E E E Y Y E Y U E Y T E E E E E Y Y ",
"E E E E E E E E E E E E E E Y E E E E D E ! C.~.`.{.[.[.{.[.{. X X X.X[.[..X{. X.X[.'.{..X[..X X{..X[.{.{.].#.E E E D Y E E E E E Y Y E Y Y E U Y Y E E E E E Y ",
"E E E E E E E E E E E E Y E E E E E E E E E E p.!.^.[..X.X{.[.{.{..X[..X.X[. X[.[.{.[.XX[..X[.[.[. X{.[.{. Xm.E E E E E E E E E E E E E E Y E Y Y E E E E E E Q ",
"E U Y E E E E E E E E E E E Y Y E E Y E E E E E %.M.~.].[.{.[.{. X[. X.X X{.[..X{. X[..X X X[..X.X.X.X[.{.{.~.+.E D E E E E E E E E E E E E E E E E E E E E E E ",
"E ( E E E E Y E E E E E Y E E E D E E E E E E D E H a.Y.I.`.{.[.[..X{. X.X[. X[. X{..X[.[.{. X[.].].]..X{.{.|.p.Y D D E E E E E E E E E E E Y E E E E E E E E E ",
"E E E E E E E E Y E Y E E E E Y E E E E E E E E E E E z.].E.[..X[.[..X.X.X[..X X[. X{.[.{.[.^.Q.W.Q.Q.!.[.XX Xc.Y E E E E D E E E E E E E E E E Y E E E E ( E E ",
"E E E E E E E E E E Y E E E E E E E E E Y E E E E E P T.{..X[.[..X[.[..X X X.X.X{..X[.[..X^.W.Q.Q.Q.Q.W.^.{. XM.Q E E E E E E E E E E E E Y Y E E E Y Y Y Y E E ",
"E E Y Y Y Y E E E E E E E E E E E E E E E E E E E E p.|..X[.[..X[..X X[.[..X X.X{. X[..X|.Q.Q.Q.Q.Q.Q.Q.!..X XR.J E E E Y E E E E U E E E E E E E E E Y E E E E ",
"E E Y Y E E E E E Y E E E E E E E E E E E E Y Y E H Y.[.XXr.9..X.X[.[. X.X X{.[.{. X[..X].Q.Q.Q.Q.Q.Q.Q.!..X{.~.O.E D Y E E E E E E E E E E Y E E E E E Q Q E E ",
"E E E Y E Y E E E E E Y E E E E E E Y E E E E D E #.]..X].1.w e..X.X[.[.[..X X X X[.[..X].W.Q.Q.Q.Q.Q.Q.~..X[.~.@.E D Y E Y E E E E E E E E E Y E E E U E E E E ",
"E E E ( E E E E Y E E E E E E E D Y E E E E E D E V.].XXU.4 O ,.e.'.XX.X[.[.[.[.[..X{.[.[.W.Q.Q.Q.Q.Q.Q.].{.[.R.O.E E E E Y T E E E E E E E E E E E E E E E E E ",
"Y E E E E E E E E E E E Y E E E E E E E E E E E E B.].XXI.3   o 4 9.P.].[..XXX.XXX|.[..X.X!.W.Q.Q.Q.W.^.{.{.[.R.K Y E E E E Y E E E E E E E E E E E E E Y Q Y E ",
"E E E E E E E Y E E E E E E E E E E E E E E E E J R.[.XXU.q .     % q 2.q.e.r.e.9.2.q..X X].Q.W.Q.Q.^.[.{.{.].M.E Y E E E Y Y E E E E E T E E E E E Y D Y Y Y E ",
"E E E E E E D Y E D E E E E E E E E E E E E Y E J R.[. X].2.@         @ % , 2 , $ 3 q.XX[..X[.].^.'..X[.[..X].c.E E E Q E Y V V E E E E Y E E E E E E E Y Q E E ",
"E E E E E E E E Y Y Y Y T E E E E E Y Y D E E E H Y.[.[.XXe.4     .             X <.I..X[. X[..X.X.X[.[.{.{.].u.E Q Q E E E E E E Y E E Y E Y E E Y E E Y Y Q E ",
"E E E E E E E E E E E E E D Y E E E E E E E E Y D M.[.[..X`.3.2 .             X 4 9.[.[. X{..X[..X X{..X.X'.R.@.E E E E E E E E E E E E E E E E E E Y E E Y E E ",
"E E E E Y Y E E E E E E E E E E E E E V E E E D D l.].{.{..XR.4.0 $ o     X $ q 4.~.XX[.[.[. X.X.X X{.[..X].m.C V E E V V V E E E E E E E E E E E E Y T E E E E ",
"Y Y Q Y E T Y E E E E E E E E E E E E E E E Y D Y +.~.[.{.[..X`.e.3.1.w q ,.2.r.].XX[.[..X.X[.[. X X[..X'.~.&.C E E E E V Y S Y E E E E E E E E E E E E E E E E ",
"Y Q Y Y E E E E E E E E E E E E E E E E E E E E E Y x.|.{..X[..X.X`.!.U.U.~.'..X.X[.[..X X[..X X{.{.[..X].c.D C V D V Y E E E E E E E E E Y E E E E E E E E E E ",
"E E E E E E E E E E Y E E E E E E E E E E E E D E E P Y.].{.{.[.{..X.XXX.X.X.X[..X{. X{. X X[.{.[.[.{.].R.O.E D V V E Y E E E E E E E E E E E E E E E E E E E Y ",
"E Q E E E E E E E E E E E E E E E E E E E E E E E E E $.!.`.{.[.[..X X[.[. X.X.X[. X[. X.X[.{. X[.XX'.^.#.E V T T E E E U E T E E E E E E E E E E E E E E E E Y ",
"E E E E E E E E E E E E E Y E D D D E E D D E D E D Y } z R.^.[..X X[.[.[. X X.X X.X{. X X{.[. X{.`.E.7. .R S S W ( ) ~ E S E E E E Y E E E Y E E E E E E E ( Y ",
"E E E E E E E E E E E E E D E E E E E D E E E E Y Y Q y 8 z n.E.`.[. X.X.X[.{.[.{. X[.{.[..X.X[.~.R.v.p 1 A S S W *.>.) R S T T E E E E E E E E E E E E E E E E ",
"E E E E E E E E E E E Y Y E K :.H.:.:.J.s.s.s.i.G.-.e 6 s a k 7.P.~.`.].[.{.{..X.X.X.X[.[.].~.R.n.5.s s u g T F R *.>.^ R m R T Y Y Y E E E E E E E E E E E E E ",
"E E E E E E E E E E E D E G.=X=X&XoX#XoX&X=X*X&X&X_.6 u h s a p k 7.b.I.!.~.~.].^.`.`.^.R.R.b.7.j a s s p T.+XL.;.^ R R m T T T Y Y Y Y Y Y E E E E E Y E E E E ",
"E E E E E Y E E E E E E E _ H.-.-.}.&X).G.=.` ` _ ..6 a d s s s a a h z 6.w.v.b.b.b.b.w.6.z h p a s s s s h k.+X*X}.d.J m T n T _ Q E E E E E E E E E E E E Q E ",
"E E E Y E E E E E E E E E Y Y Y ` XX).@XA.E E E Y t u j a s s s s s s a p a d j j j a a a a a h s s s s s u < W ;.L.=X&XL.-.J._.>XK.E E Y E E E E E E Y E E E E ",
"E E E E E E E E E E E E Y Y E E ! XXL./ ! E D E A 6 p h s s s s s s s s s h s s s s s h s s s s h s s s s d 8 | Y Y ` S.&X&X*X(.:./ Y E E E E Y E E E E E Q E E ",
"E Q E E E E Y E E E E E E E E E Y -.:.E E E D E r 8 s d a s s s s s s h s s s s s s s s s s s s s s s s a j u f Y Y Y Y _ ).XX}.H.Y Y E E E E E E E T E E E E E ",
"E E E E E E E E E E E E E Y E E Y Y Y Y E E E Q t u d a s s s s s s s s s s s s s s s s s s s s s s s s s s i y E Q Q Q C $.=X(.-XK.E E E E E E E E Y Y E E E Y ",
"E E E E E E E E E E E E E E E E Y Y Y Y E C E G 1 p s d s s h s s s s s s s s s s s s s s s h s s s s a s h a 6 X.E Y Y C H (.~ G.G.E E E E E E E E E E E E E Y ",
"E E E E E E E E E E Y Y E E E Y Y Y Y Y E C Q { 8 a s a s s s s s s s s s s s s s s s s s s s s h s s s s s d 8 e C C C C Q Q C E E E E E E E E E E E E E E Y Q ",
"E E E E E E E E E Y Y Y Y E E Y Y Y Y Y Y C Y r 8 d s s s s s s s h s s s s s h s s s s s s s s s s s s s a h i f Q C C C C C Y E E E E E Y E Y E E E E E E Y Y ",
"E E E E E E E E Y E Y U E E Y U C Y Y Y C Y N t u d a s s s h s s h s s s s s s s s s s h s s s s s s s s s h i y H Q C Y Y Q Y E Y E E Y E E E Y E E E E E E Q ",
"E E E E E E E E E E E E Y Y Y Y Y C C Y Q E D 5 p d s s s s s s s s s s s s h s s s s s s s s s s s s s s a h p 7 G Y Y Y Y Y Y E E Y Y E E Y E E E E E E E E Y ",
"E E E E E Y E E Y E Y Y Y Y Y Y U U U Y Y Y L 6 p s s s s s s h s s s s s h s s s s s s s s s s s s s s s s a d 6 | D D D Y Y Y E E E E E E E E E E E E E E E E ",
"E E E E E E E E E E Y U Y Y Y U U U U Y Y Y | 6 a s s s s s s s s s s s s s s s s h s s s s s s s h s s s s s d 9 e D F D Y Y Y E E E Y E Y Y E E E E E E E E E ",
"E E E E Y Y E E Y Y Y Y U Y U U U U Y Y Y Y ] 9 h d s s s s s s s s h s h s s s s s s s h s s s s s s s s s a j 9 f D D T E Y Y E E E E E E E E E E E E E E E E ",
"E E E E E Y E E E E U U Y U b v v b U Y Y Y r 9 j a s s s s s s s s s s s s s s s s s s s s s s s s a s s s s d 9 t D D D E E Y E E E E E Y Y E E E E E E E E E ",
"E E E E E E E E Y Y Y Y Y Y U U B B U Y E Y t u d d s s s s s s s s s s s s s s s s s s s s s s s s s s s s s s i y F D T D D E E E E E Y E E E E E E E E E E U ",
"E Q E E E E E E E Y Y Y Y E U U U U U U E E y i j a s s s s s s s s s s s s s s s d s s s s s s s s s s s a s d p 1 G C D E D E E E E E E E E E E E E E E E ( U ",
"E Q E E E E E E Y Y Y U U Y U Y E Y U V Y F 7 p d a a s d a s s s s a d s s s s d a s a s s a s d a s s s s d d a 6 A Y D C Y E E E E E E E E E E E E E E E E E ",
"E E E E E E E Y Y E Y Y Y Y Y E E E Y C D A 6 a h d d d d d d d j h h h h h h h h d h d d d d d h j h s d s a a s 8 { Y C Q D E U E E E E E E E E E E E E E E E ",
"E E E E E Y E E E E Y Y E E Y E E Y Y U Y G u 8 8 u 8 u i i i p i 8 u i i i p i i i i i i 9 8 u 8 6 9 9 8 8 6 6 1 8  .Y Y Y E E C E E Y E E E E Y E E E E E E E ",
"E E E E E E E E E Y E E Y E E E Y E E E E Y F Z Z } } | | ] ] ] { 7.l ] [ [ { [ ' ' [ [ ] | | } j.k.X.Z Z Z Z Z Z A Y Y Y E D E E E E E E E E E E E E Y E E Q E ",
"E E E E E E Y E E E E E E Y E Y E Y E E E E E E Y E E E E Y D Y ~ =XK.E Y E E E E Y C E E E E E L.#XQ Y E E E E E E E E E E E E Y Y Y E E E E E E Y E E E E E E ",
"Q E E E E E Y E E Y E Y E E E E E E E Y Y E E E E E D D D D D D ! oXA.C D D D D D D D D D D D D S.oX/ Y D D E D E E E Y E E E E Q Y E E E E E E E E Y E E E E E ",
"E E E E E E E E E E E E E E E E E Y E E Y E E E E E E E Y E E E Q XXA.Y D E E E Y Q E E E E E E A.#X/ E Y E E E E E E Y E E E E E E E E E Y Y E E E E Y E E E E ",
"E E E E E E E E E E E E E E E E E E E E Y E Y E E E V Y Y C D V D XXA.Y E E E E Y Y C C D C C Y g.&X_ E E E E E E Y E T E E E E E Y E E E D E E E E E E E E E Q ",
"E E E E E E Y E E E E E E E E E E E E E E Y E E E E Y Y E E E E F oXD.E D Y E E Y E E E E E E E g.=X_ E E D E E E E E E E E Y E E D E E E E E E E E E E E E Y Y ",
"E Q E E Y E Y E E E E Y E E E E Y E E E E E E Y E E > & & * - ; x f.h.E E E E Y E M = + & = ; > o./.K Y D E E E E E E E E E E E E Y E E E E E E E E E E E E Y Q ",
"E E E E E E Y E E E E Y Y E E E E E E E E E E E E V .               . C Y E E C Y =                 > E Y E E E Y E E E E E E E E E E E E E E E E E E E E E Q Y ",
"E E E E E E E E Y E E E E E E E E Y E Y E E E E E D c = & & = - ; : x Y E E E E E N ; & * = ; ; ; : N E E E E E E E E E E E E E E E E E E E E E E E E E E E Y Y ",
"E E E E E E E Y E E E Y E E E E Q Y E E E E E E E E E E E E Y Y Y Y E E E Y E E E E Y E Y Y E E E E E C E E E E E E E E E E E E E E E E E E E E E Y E E Y E E E ",
"E E E E E E E Y E Y E E E E E E Y Y Y E E E E E E E C C C C C C Y Y Y E D Y E E E Y C C Y Y E E C C E E E E E E E E E E E E E E E Y E E Y E E E E Y Y T E E E E ",
"E E ( U Y Y Y Y Y E E E E E Y E E E E E E E E E E E Y Y E E E E E E Y E Y Y E Y E E E E E E E E E D E E E E Y E E E E E E E E E E E E Y E E E E E E E E Y E E E ",
"E E E E E Y U U E E E E E E Y Y E E E E E E E E E E Y Q E E E E E E E E E Y Q E E E E E E E E E E E E E E E Y Y E E E E E E E Y E E E E E E E E E E E E E E E E ",
"E E E E E E E ( E E E E E ( U Y E E E E E E Q Y E Y E E Q E E E Q Y Q Y E E E E E E E E E E E E E E E E E E E Y E E E E E E E E D E E E E E E E E E E E E E E E ",
"Q E E E E E E E E E Q E E E Y Y E E E E E E Y Y Y Q E Y Y E E E Y Y Y Y Y Q E E E E E E E E E Q E Y E E E E E Q E Y E E E E E E Y E E E E E E E E E E E E E E E "
};
