/* XPM */
static char *_8dbed3193d84a8f85770d32c3793ddfXsUzt0ScbsjnnVJq[] = {
/* columns rows colors chars-per-pixel */
"80 80 218 2 ",
"   c #0F1814",
".  c #393E3B",
"X  c #5E6260",
"o  c #DA2716",
"O  c #C93212",
"+  c #D6301B",
"@  c #E92319",
"#  c #CB3D21",
"$  c #EC2C22",
"%  c #F92B21",
"&  c #E83124",
"*  c #F7362A",
"=  c #F5352C",
"-  c #F63D34",
";  c #F93D36",
":  c #B34D1B",
">  c #BF4D24",
",  c #B45726",
"<  c #9D722E",
"1  c #9F6C33",
"2  c #8B7F30",
"3  c #967A34",
"4  c #A4642D",
"5  c #AA632A",
"6  c #A46B2C",
"7  c #A36E31",
"8  c #C6411F",
"9  c #C54222",
"0  c #D1513B",
"q  c #F34237",
"w  c #F4433B",
"e  c #F9443C",
"r  c #867B4F",
"t  c #857B52",
"y  c #847955",
"u  c #8A7E54",
"i  c #897D58",
"p  c #EE4E46",
"a  c #F84B44",
"s  c #E9564D",
"d  c #FA5249",
"f  c #E75C53",
"g  c #EA5A54",
"h  c #EA5B55",
"j  c #E86157",
"k  c #E9615A",
"l  c #EA6669",
"z  c #EE6A6C",
"x  c #ED7177",
"c  c #7F9A3B",
"v  c #52B43A",
"b  c #62AC3E",
"n  c #7B8A4E",
"m  c #6A9947",
"M  c #7A954F",
"N  c #7E8751",
"B  c #7D8B53",
"V  c #759550",
"C  c #7C9352",
"Z  c #779C51",
"A  c #799A51",
"S  c #57BC44",
"D  c #5BBD45",
"F  c #5DBE49",
"G  c #66AF4A",
"H  c #6CAC4D",
"J  c #74A845",
"K  c #72A44F",
"L  c #63BE45",
"P  c #69B44D",
"I  c #63BD4C",
"U  c #68B849",
"Y  c #6EA252",
"T  c #6EAD51",
"R  c #73A352",
"E  c #71A952",
"W  c #69B751",
"Q  c #6CBE55",
"!  c #6FBF58",
"~  c #74BD5B",
"^  c #78BA5E",
"/  c #7BBB64",
"(  c #5DC246",
")  c #5EC14A",
"_  c #5BC550",
"`  c #63C246",
"'  c #6AC647",
"]  c #60C24B",
"[  c #74CC4B",
"{  c #65C351",
"}  c #69C154",
"|  c #69CB54",
" . c #6FD15A",
".. c #79C365",
"X. c #95843A",
"o. c #83963C",
"O. c #89844F",
"+. c #95894A",
"@. c #94934E",
"#. c #848452",
"$. c #8D8156",
"%. c #828A54",
"&. c #928559",
"*. c #978A58",
"=. c #889752",
"-. c #A4974B",
";. c #A6994B",
":. c #A89A4A",
">. c #A29452",
",. c #B0905F",
"<. c #84B969",
"1. c #86B96C",
"2. c #9CAE7F",
"3. c #8BB971",
"4. c #98B47B",
"5. c #A4AB70",
"6. c #CBB84F",
"7. c #8DCF56",
"8. c #98D950",
"9. c #B0D44D",
"0. c #BADD4E",
"q. c #BEE351",
"w. c #82C46D",
"e. c #89C06D",
"r. c #8AC773",
"t. c #94C67E",
"y. c #93E868",
"u. c #D8C646",
"i. c #E5D246",
"p. c #E7D547",
"a. c #F0DB46",
"s. c #F6E54D",
"d. c #F7E651",
"f. c #F8E752",
"g. c #F9EA58",
"h. c #FEF35B",
"j. c #FFF85D",
"k. c #F7ED65",
"l. c #FAEE63",
"z. c #FBF367",
"x. c #FCF164",
"c. c #897E83",
"v. c #E54B8C",
"b. c #EA5D9A",
"n. c #C07196",
"m. c #EA7C8D",
"M. c #EA649C",
"N. c #EC7E94",
"B. c #EB6DA3",
"V. c #EB74A7",
"C. c #959D99",
"Z. c #9FB481",
"A. c #ABAF8D",
"S. c #A3B284",
"D. c #AAB38C",
"F. c #B6AD95",
"G. c #BBAE9A",
"H. c #A6ABA9",
"J. c #EB8399",
"K. c #C0AA9E",
"L. c #D696AC",
"P. c #DA9ABA",
"I. c #EF8CB8",
"U. c #F096B2",
"Y. c #C9A9A6",
"T. c #D0AAAC",
"R. c #DAA9B5",
"E. c #CAB3B1",
"W. c #E3A7BD",
"Q. c #8DCD81",
"!. c #97C583",
"~. c #A2C58A",
"^. c #AAC897",
"/. c #B4C196",
"(. c #BAC9A5",
"). c #B8D3AD",
"_. c #CBCAB5",
"`. c #D2C9BE",
"'. c #F09CC2",
"]. c #EBA5C5",
"[. c #E5A9C5",
"{. c #EBAAC7",
"}. c #EDA6C9",
"|. c #EDACCB",
" X c #F3A6CB",
".X c #F4ABCD",
"XX c #ECB1CE",
"oX c #F1B0CF",
"OX c #F5ADD1",
"+X c #EDB8D5",
"@X c #F2B3D3",
"#X c #F5B4D7",
"$X c #F2BAD6",
"%X c #FEB7DA",
"&X c #F3BCD9",
"*X c #FCBADB",
"=X c #FFBDE1",
"-X c #D8CBC4",
";X c #D2D1C0",
":X c #E0CECB",
">X c #E9CBD4",
",X c #F4C3DD",
"<X c #F9C2DD",
"1X c #F4CCDF",
"2X c #EAD1DA",
"3X c #F5C7E1",
"4X c #FEC4E4",
"5X c #F5CAE2",
"6X c #F6CEE5",
"7X c #FACBE5",
"8X c #FFCAE9",
"9X c #F5D0E6",
"0X c #F6D3E9",
"qX c #FCD3EA",
"wX c #FFDDF7",
"eX c #E9E3E6",
"rX c #FFE6FC",
"tX c #FCFAFC",
/* pixels */
"] ] ] ] ] ] ] ] ] ] ] ] ] ] ] ] ] ] ] ] ] ] ] ] ] ] ] ] ] ] ] ] ] ] ] ] ] ] ] ] ] ] ] ] ] ] ] ] ] ] ] ] ] ] ] ] ] ] ] ] ] ] ] ] ] ] ] ] ) ] ] ] ] ] ) ] ] ] ] ] ",
"] ] ] ] ] ] ] ] ] ] ] ] ] ] ] ] ] ) ] ] ] ] ] ) ] ] ] ] ] ] ] ] ] ] ] ] ] ] ] ] ] ] ] ] ] ] ] ] ] ] ] ] ] ] ] ] ) ] ] ] ] ] ) ] ] ] ] ] ] ] ] ] ] ] ] ] ] ] ] ] ",
"] ] ] ] ] ] ] ] ] ] ) ] ] ] ] ] ] ] ] ] ] ] ] ] ] ] ] ] ] ] ] ] ] ] ] ] ] ] ] ) ] ] ] ] ) ] ] ] ] ] ) ] ] ] ] ] ] ] ] ] ] ] ] ] ] ] ] ] ] ] ] ] ] ] ] ] ] ] ] ] ",
"] ) ] ] ] ) ] ] ] ] ] ] ] ] ) ] ] ] ] ] ] ] ] ] ) ] ] ] ] ] ] ] ) ] ] ] ] ] ] ] ] ] ] ) ] ] ] ] ] ] ] ] ] ] ] ] ] ] ] ] ] ] ] ] ] ] ] ] ] ] ] ] ] ] ] ] ] ] ] ] ",
"] ] ] ] ) ] ] ] ] ] ] ] ] ] ] ] ] ] ] ] ] ] ] ] ] ] ] ] ] ] ] ] ] ] ] ] ] ] ] ] ] ] ] ] ] ] ] ] ] ] ] ] ] ] ] ) ] ] ] ] ] ] ] ] ] ] ] ] ] ] ] ] ] ] ] ] ] ] ] ] ",
"] ] ] ] ] ] ] ] ] ] ] ] ] ] ] ] ] ] ] ] ] ] ] ] ] ] ] ] ( ] ] ] ] ] ] ] ] ] ] ] ] ] ] ] ] ] ] ] ] ] ] ] ] ] ] ] ] ] ] ] ] ] ] ] ] ] ) ] ] ] ] ) ] ] ] ] ] ] ] ) ",
"] ] ] ] ] ] ] ] ] ] ] ] ] ] ] ] ] ] ] ] ] ] ] ] ] ] ] ] ] ] ] ] ] ] ] ] ] ) ] ] ] ] ] ] ) ] ] ] ] ] ] ) ] ] ] ] ] ] ] ] ] ] ] ] ] ] ( | ] ] ] ] ] ] ) ] ] ] ] ] ",
"] ] ] ] ] ] ] ] ] ] ] ] ) ] ] ] ] ) ] ] ] ] ] ) ] ] ] ] ] ] ] ] ] ] ] ] ] ] ] ] ] ] ] ] ] ] ] ] ] ] ] ] ] ] ] ] ] ] ] ] ] ] ] _ ] ] ) ] ] ] ] ] ] ] ] ] ] ] ] ] ",
"] ] ] ] ] ] ] ] ] ] ] ] ] ] ] ] ] ] ] ] ] ] ] ] ] ] ] ] ] ] ] ] ] ] ] ] ] ] ] ] ) ] ] ] ] ] ] ] ] ] ] ] ] ] ] ] ] ] ] ] ] ] ] ] ] ] ] ) ' _ ] ] ] ] ] ( ] ] ] ] ",
"] ] ] ] ) ] ] ] ) ] ] ] ] ] ) ] ] ] ) ] ] ] ] ] ] ] ] ] ] ] ] ] ) ] ] ] ] ] ] ] _ ] ] ] ] ] ] ] ] ] ] ] ] ] ] ] ] ] ] ] ] ] ] ] ] ] ] ] ) ) ] ] ] ] ] ] ] ] ] ] ",
"] ] ] ] ] ] ] ] ] ] ] ] ] ] ] ] ] ] ] ] ] ] ] ] ] ] ] ] ] ] ] ] ] _ ] ] ) ] ] ] ] ) ] ] ] ] ] ] ] ] ] ] ] ] ] ] ] ] ] ] ) ` ] ] ] ] ] ] ) ] ] ] ] ] ] ] ] ] ] ] ",
"] ( ] ] ] ] ] ] ] ] ] ] ] ] ] ] ] ] ] ] ] ] ] ] ] ] ] ] ] ] ] ] ] ' D.Y.D.I { F ) F ) ] ) ) ] ] ] ] ] ] ] ] ] ] ] ] ] ] ) ] ] ] ] ] ] ] ] ] ] ] ] ] ] ] ] ] ) ] ",
"] ] ] ] ] ] ] ] ] ] ] ] ] ] ] ] ] ] ] ] ] ] ] ] ] ] ] ] ] ] ] ] ] D.4X4X4XT.I S F ) ) ) ) ) ] ] ] ] ] ] ] ] ] ] ] ] ] ] ] ] ] ] ] ) ] ] ] ] ] ] ] ] ] ] ] ] ] ] ",
"] ] ] ] ] ] ] ] ] ] ] ] ] ] ] ] ] ] ] ] ] ) ] ] ] ] ] ] ] ] ] ] ] Y.7X7X1X=XZ.v F ] ) ) ) ) ) ) ] ! <.3.<.{ ] ] ] ] ] ] ] ] ] ] ] ] ] ] ] ] ) ] ] ] ] ] ] ] ] ] ",
"] ] ] ] ] ) ] ] ] ] ] ) ] ] ) ) ] ) ) ) ] ] ] ] ] ] ] ] ] ] ] ) ) F.7X1X5X7XY.v D { ) Q <.Z.F.Y.R.[..X#X.XR.S.] ] ] ) ] ] ] ] ] ] ] ] ] ] ] ] ] ] ] ] ] ] ] ] ] ",
"] ] ] ] ] ] ] ] ] ] ) ) ] ] ) ( ] ) ] ] ] ] ] ] ] ] ] 3.T.R.D.{ ] <.#X1X6X4XR.] <.D.T.XX&X4X8X8X&X.X6X1X6X<X*XG.] ] ] ] ] ] ] ] ] ] ] ] ] ] ] ] ] ] ] ] ] ] ] ] ",
"] ] ] ] ) ] ] ] ] ] ] ] ] ] F ] D ] ] ] ] ] ] ] ] ] ! [.4X7X=XT.} ] Y.7X6X&XW.R.#X8X=X|.&X5X5X9X|.$X6X6X6X6X5X=XA.F ) ] ] ] ] ) ] ] ] ] ] ] ] ] ] _ ) ) ] ] ] ] ",
"] ] ] ] ] ] ] ] ] ] ] | ] ] ] ] ] ] ] ) ] ] ] ] ] ] <..X1X6X6X*XF.) ! {..X}.oX7X9X+X&XwX|.XX5X5XoX@X6XXX5XR.L.3X}.! ) ) ] ] ] ] ] ] ) ] ] ] ] ] ) ' ] ) ] ] ] ) ",
"] ] ] ] ] ] ] ] ] ] D D ] S D ] ] ] D ) ] ] ] ] ] ] Q W.7X5X6X3X}.1.G..X$X5X<X6X5X@XE.C.tX[.,X9X$XXX,Xn.[.[.P.6X%X4.F F ] ] ] ] ] ] ] ] ] ] ] ] ] ] ] ] ] ] ] ] ",
"] ] ] ] ] ] ] ] ] ] ]  . .| ] ] ] ] ] ] ] ] ] ] ] ] ` 2.*X6X5X6X|. X4X7X$X].{.oX,X%Xc.  eX|.&X3X3X{.+X+X,X6X6X5X=XZ.) ) ] ] ] ] ] ] ] ] ] ] ] ] ] ] ] ] ] ] ] ] ",
"] ] ] ] ] ] ) ] ] ] ] | | ] ] ) ] ) ] ] ] ] ] ] ] ] ] ] F.4X7XXX}.&X6X,XXXtXtXXX&X#XXX+X|.+X3X5X6X+X}.6X6X5X5X5XOX<.] ] ] ] ] ] ) ] ] ] ] ] ) ] ] ] ] ] ] ] ] ] ",
"] ) ] ] ] ] ] ] ] ] D ) ] ) ) ] ] ] ] ] ] ] ] ] ] ] ] ] I D. X.X5X5X5X@X2X. H.rX}.9X&X+X=X5X5X3X5X5X.X}.$X3X,X%XY.] ] ] ] ] ] ] ] ] ] ] ] ] ] ] ] ] ] ] ] ] ] ] ",
"] ] ] ] ] ] ] ] ] ] ] ) ] ) ( ] ] ] ] ] ] ] ] ] ] ] ] ] ) 4.OX1X5X3X6X@X,XX H.7XoX5X5X6X6X5X5X5X5X5X5X#X}.{. XR.! ] ] ] ] ] ] ) ] ] ] ] ] ] ] ] ] ] ] ] ] ] ] ] ",
"] ] ] ] ] ] ] ] ] ] ] ] ) ] ( ) ] ] ] ] ] ] ] ] ] ] ] ] ~ |.7X5X5X3X5X1XoX4X4X}.5X5X3X5X5X5X5X5X5X5X5X6X5X&X[.~ ] ] ] ] ] ] ] ] ] ] ] ] ] ] ] ] ] ) ] ] ] ] ] ) ",
"] ] ] ] ] ] ] ] ] ] ] ] ] ] ] ] ] ] ] ] ] ] ] ] ] ] ] ] K.7X7X5X5X5X5X5X5X+X&X5X5X5X4X6X5X5X5X3X5X<X6X<X%XR.~ ] ] ] ) ] ] ] ] ] ] ] ] ] ] ] ] ] ] ] ) ) ] ] ] ] ",
"] ] ] ] ] ] ] ] ] ] ) ] ] ] ] ] ] ] ] ] ] ] ] ) ] ] ] ^ oX6X1X5X5X5X5X5X5X5X6X5X5X5X3X5X5X3X3X5X5X7X4XOXG.Q ] ] ] ] ] ] ] ] ] ] ] ] ] ] ] ) ] ] ] ] ) _ ] ] ] ] ",
"] ] ] ] ] ] ] ] ] ] ] ] ] ] ] ] ] ] ] ] ] ] ] ] ) I ] A.4X6X5X,X*X,X5X5X5X5X5X5X5X3X5X5X3X3X5X5XXX{.T.3.) ) ] ] ] ] ] ] ] ] ] ] ] ] ] ] ] ] ] ] ] ] ) ' ] ] ] ] ",
"] ) ] ] ] ] ) ] ] ] ] ] ] ] ] ] ] ] ] ] ] ] ] ] ) ] ] T.7X7X@X X X.X@X<X5X5X5X5X5X5X5X5X3X5X5X3X@XW.] ] ] ) ] ] ] ] ] ] ] ] ] ] ] ] ] ] ] ] ] ] ] ] ] ] ] ] ] ] ",
"] ] ] ) ] ] ] ] ] ] ] ] ] ] ] ] ] ] ] ] ] ] ] ] ] ] U W.qX<X X.X X.X X@X3X3X5X5X5X5X5X5X5X5X5X6X6X*X4.] ] ] ] ] ] ] ] ) ] ] ] ] ] ] ] ] ] ] ] ] ] ] ] ] ] ] ] ] ",
"] ] ] ] ] ] ] ] ] ] ] ] ] ] ] ] ] ] ] ] ] ] ] ] ] ] Q {.7X&X X X.X X X X=X5X3X5X5X5X5X5X5X5X5X7X6X7XT.] ] ] ] ] ] ] ] ] ) ] ] ] ] ] ] ) ) ] ] ] ] ] ) ] ] ] ] ) ",
"] ] ] ] ] ] ] ] ] ] ] ] ] ] ] ] ] ] ] ] ] ] ] ] ) ] ! {.7X,X X.X X.X.X X&X5X3X3X5X5X3X5X5X5X&XV.5X7X|.~ ] ) ] ] ] ] ] ] ] ] ] ] ] ] ] ] ] ] ] ] ] ] ] ] ] ] ] ] ",
"] ] ] ] ] ] ] ] ] ] ] ] ] ] ] ] ] ) ] ] ] ] ] ) ] ] Q [.7X1X.X X.XOX.X|.3X5X0X3X3X5X5X5X5X6XoXM.6X1X#X<.] ] ] ] ] ] ] ] ] ] ] ] ] ] ] ] ] ] ] ] ] ] ] ] ] ] ] ] ",
"] ] ] ] ) ] ] ] ] ] ] ] ] ] ] ] ] ] ] ] ) ) ) ) ] ) F R.5X6X<X.X X X X&X5X=XI.5X9X3X3X3X5X0XB.'.6X3X#X3.] ] ] ] ] ] ] ] ] ) ] ] ] ] ] ] ] ) ] ] ] ] ] ) ] ] ] ] ",
"] ] ] ] ] ] ] ] ] ] ] ] ] ] ] ] ] ] ] ) ) ) { { { ] F Y.4X5X5X5X&X*X3X5X5X5Xb.b.&X9X0X9X&XB.B.0X3X3XOX/ ] ] ] ] ] ] ] ] ] ] ] ] ] ] ] ] ] ] ] ] ] ] ] ] ] ] ] ] ",
"] ] ] ] ] ] ] ] ] ] ] ] ] ] ] ] ] ] ] ] ) ) ] ' ] ] ] 4.%X1X5X5X5X5X5X5X5X5X5XV.v.b.V.b.b.I.6X3X5X6XR.I ] ] ] ] ] ) ) ] ] ] ] ] ] ] ] ] ] ] ] ] ] ] ] ] ] ] ] ] ",
"] ) ] ] ] ] ] ] ] ] ] ] ) ] ] ] ] ] ] ] ] } ] ) ] F I } R.<X5X5X5X5X5X5X5X5X5X9X+X'.'.}.3X0X3X3X5X=XA.F ] ] ] ] ] t.} ] ] ] ] ] ] ] ] ] ] ] ] ] ] ] ] ] ] ] ] ] ",
"] ] ] ] ] ] ] ] ] ] ] ] ] ) ] ] ] ] ] ) ] ^.`.` ] F I ) S.*X1X5X3X5X3X5X5X3X3X5X9X9X0X0X5X3X5X1X4XR.} ) ] ] ` ] !.>X] ] ] ] ] ] ] ] ] ] ] ) ] ] ] ] ] ] ] ] ] ] ",
"] ] ] ] ] ] ] ] ] ) ] ] ] ] ] ] ] ] ] w.^.!.6X..F ] ] ] ] Y.%X5X5X3X5X5X5X5X5X3X5X5X3X3X5X1X1X=X[./ ) ) ] ] ] ] -X-X(._.{ ] ] ] ] ] ) ] ] ] ] ] ] ] ] ] ] ] ] ( ",
"] ] ] ] ) ] ] ] ] ] ] ] ] ] ] ] ] ] ] r.`.6XwX-Xw.] ] ] ) | L.$X3X5X5X5X3X5X5X3X5X5X5X6X5X,X=XU.0 U F I ] ] w._.8XrX>Xt.] ] ] ] ] ] ] ] ] ] ] ] ] ] ) ] ] ] ] ] ",
"] ] ] ] ] ] ] ] ] ] ] ] ] ] ] ] ] ] ] ] w.:X(.-XqX:Xt.] ' o.& J.}.#X3X5X6X6X5X5X5X5X3X&X#X].N.h * > ) ) w.;XqX-X!.^.(.] ] ] ] ] ] ] ] ] ] ] ] ] ] ] ] ] ] ] ] ] ",
"] ) ] ] ] ] ] ) ] ] ] ] ] ] ] ] ] ] ] ` U ' [ 7.y._.7X-Xe.O e g z J.'.|.#X#X&X+X&X|.].I.N.l s g f @ +.).0X`.e.] ] ] ] ] I ] ] ] ] ] ] ] ] ] ] ] ] ] ] ] ] ] ] ] ",
"] ] ] ] ] ] ] ] ] ] ] ] ] ] ] ] ] ] ] ` ` ' y.y.7.b ~ (.9Xx p j f f k x m.N.V.J.N.m.l f g g g g k - = _...] ] ] { I ` ] ] ] ] ] ] ] ] ] ] ] ] ] ] ] ) ] ] ] ] ] ",
"] ] ] ] ] ] ] ] ] ] ] ] ] ) ] ] ] ] ] ` ` ' ` [ [ L ' ] 0 k j g h h g s g s s g s s s h h h h h g f % 2 ] ] I ] I ] ] ] ] ] ] ] ] ] ) ] ] ] ] ] ] ] ] ] ] ] ] ) ",
"] ] ] ] ] ] ] ] ] ] ) ] ] ] ] ] ] ] ] D ` J v v ` v ` o.@ s j g h h g g h h g k h h h f h h h h h k w # ] ] ] ` ] ] I ] ] ] ] ] ] ] ] ] ] ) ] ] ] ] ] ] ] ] ] ] ",
"] ] ] ] ] ] ] ] ] ] ] ] ] ] ] ] ] ) ) S P *.$.R | ` v , q k f g h h h h h h h h h h h h h h h h h h s @ J ` I ] ] ] ] ] ] ] ] ] ] ] ] ] ] ] ] ] ] ] ] ] ] ] ] ] ",
"] ] ] ] ] ] ] ] ] ] ] ] ] ] ] ] ] ) ) { ] Y &.*.E ( ` + s h g h h h h h h h h h h h h h h h h h h h f = 7 ] I ] ] I ] ] ] ] ] ] ] ] ] ] ] ] ] ] ] ] ] ] ] ] ] ] ",
"] ) ] ] ] ] ] ) ] ] ] ] ] ] ) ) ] ] _ { I F W A n ) o.$ g g h g h h h h h h h h h h h h h h h h h f k q 9 ] ] ] ] ] ] ] ] ] ] ] ] ] ] ] ] ] ] ] ] ] ] ] ] ] ] ] ",
"] ] ] ] ] ] ] ] ] ] ] ) ] ] ) ) { ) ) { F F F r.3.( 7 * k g h h h h h h h h h h h h h h h h h h h f f p o P ] ) ) ] ] ] ] ] ] ] ] ] ] ] ] ) ] ] ] ] ] ) ] ] ] ] ",
"] ] ] ] ] ] ] ] ] ] ] ] ] ] ] ] ] ] I ) ..) 3.6X9XQ.: a j h h h h h h h h h h h h h h h h h h h h g h f $ o.] ] ] ] ) ] ) ] ] ] ] ] ] ] ] ] ] ] ] ] ) ] ] ] ] ) ",
"] ] ] ] ] ) ] ] ] ] ] ] ] ] ] ] ] ) ) ) >X^._.(._./.O d f h h h h h h h h h h h h h h h h h h h h g f h $ < I D ] ) F ) ] ] ) ) ] ] ] ] ] ] ] ] ] ] ] ] ] ] ] ] ",
"] ] ] ] ] ] ] ] ] ] ] ] ] I A #.%.%.R I r.1X1XwXwX5.o s h g g h h h g h h h h h h h h h h h h h h h h k - , ) ) D ) F F W I ] ) ] ] ] ] ] ] ] ] ] ] ] ] ] ] ] ] ",
"] ] ] ] ] ] ] ] ] ] ] ] ] I $.$.t u $.%.G / !.~.^.,.@ g h f h h h h g g h h h h g k h h h h h h g h f k a 9 ) ) ) F T %.t u B I ) ) ] ] ] ] ] ] ] ] ] ] ] ] ] ] ",
"] ) ] ] ] ] ] ] ] ] ] ] ] ] T $.&.u t u &.C ' L ' < * j g g g g h h h g h h h h g g g g h h h h g g h f p + D ) F C $.y t $.#.F ) ) ] ] ] ] ] ] ] ] ] ] ] ] ] ] ",
"] ] ] ] ] ] ] ] ] ] ) ] ] ] ) I R B #.r t *.%.U U , ; k g g h g h h h g h h h h g g g g h h h h h g g f s @ J _ B *.$.$.u %.G F ) ) ] ] ] ] ) ] ] ] ] ] ] ] ] ] ",
"] ] ] ] ) ] ] ] ' _ ] ] ] ] I ) ] ] I I W P K P ] 9 e k f k f f h h h k h h g g k k k h f k k k h f k f f $ =.) V m m m P F F ) ) ] ] ] ] ] ] ] ] ) ] ] ] ] ] ) ",
"] ] ] ] ] ] ] ] { ] ] ] ] ] ) ) I F ] ] ] L ] ] ] + * * * * - - ; e ; ; e ; ; a d d d d d d d a d a a a w % X.( ) D D D { ) ) ) ) ) ] ] ] ] ] ] ] ] ] ] ] ] ] ] ",
"] ] ] ] ] ] ] ] | ) ] ] ] ] ] ] ] ] ] ) ] ) F ) ) c 3 X.3 3 3 < 1 1 4 4 5 5 5 5 5 5 4 4 4 4 4 5 5 5 6 < 3 X.G ) _ _ ) ] ) ) ) ) ) ) ] ] ] ] ] ] ] ] ] ] ] ) ] ] ",
"] ] ] ] ] ] ] _ ] ) ] ] ] ) ] ] ] I I I ] ] _ ] ) ) ) ) ] ] 8.0.0.q.8.) ( ) ] ) ) ] 8.q.0.0.9.) ] ] ] ) ] ) ( ) ) ) ) ) ) ) ) ) ] ) ] ] ] ] ] ] ] ] ] ] ] ) ` ] ",
"] ] ] ] ] ] ) { | ] ] ] ) ) W Z B #.#.t %.B R I ) ) I ] ] ' a.h.z.h.u.Y V B #.#.$.%.u.h.h.j.p.I ] ] ] I I ( ) ) ) ( ) ) ) ) ) ) ] ) ] ] ] ] ] ] ] ] ] ) ] ] ] ] ",
"] ] ] ] ] ] ) ) ] ] ] ) ] H $.$.u u t t &.N E I ) ) ] Q R =.p.l.z.g.i.6.6.>.t u u u u.l.z.l.i.9.9.7.P ] ] ] ] T Z V V C Z E I ) ] ] ] ] ] ] ] ] ] ] ] ] ] ] ] ] ",
"] ] ] ] ] ] ] { ] ] ] ) ] B $.y t t t u R ] ] ] ) ) R $.u *.i.l.l.l.g.h.g.i.O.t r r u.g.l.l.g.x.h.f.>.%.W ) I E %.*.u $.$.$.$.Z ] ] ] ] ) ] ] ] ] ] ] ] ] ] ] ] ",
"] ] ] ] ] ] ' | ] ] ] ] ] Z &.t t u $.R ] ) ) ] ) I t r r O.i.l.l.l.l.x.x.s.-.X r +.u.h.l.l.z.l.k.f.-.i %.) ) ) I #.u t t t t &.Z ] ] ] ] ] ] ] ] ] ) ] ] ] ] ] ",
"] ] ] ] ] ] ] | ] ] ] ] ] I Z #.y #.T ] ) ) ] ) ) I t $.i t p.f.f.f.f.s.d.u.+.r t X u.s.f.f.f.f.s.i.+.y u U ] ] ] H u u r t t &.B ] ) ] ] ] ] ] ] ] ] ] ] ) ] ] ",
"] ] ] ] ] ] ] ] ] ] ] ] ] ] ] I W I ] ] ] ] ] ) ) ) Y =.%.y >.-.-.:.:.:.@.r r r t y +.-.;.:.:.:.-.*.i u B I ] ] ] ) H #.i i #.C I ] ) ] ] ] ] ] ] ] ] ] ] ] ] ] ",
"] ] ] ] | { | _ ( ) ) ] ] ] ] ] ] ] ] ] ] ] ] ] ` ) ] ] ) P B #.i i i i i u $.$.&.u u i u i i y B Y H P I ] ] ] ] ) ] ] P P I ] ] ] ] ] ] ] ] ] ] ] ] ] ] ] ] ] ",
"] ] ] ] ] ' | ] | ] ] ] ] ] ] ) ] ) ] ] ] ] ] ] ] ) ] ) ] ] ) T K K H P K C C M V M C C C M R I F F ] ] ] ] ] ] ] ] ] ] ] ) ] ) ] ] ] ] ] ] ] ] ] ] ] ] ) ] ] ] ",
"] ] ] ] | ] ] | _ ] ) ] ] ] ] ) ] ] ] ] ] ] ] ) ] ] ] ] ] ] ] ] ] ] ] ] ] ] ] ] ] ] ] ] ] ] ] ] ) I ) ] ] ] ] ] ] ] ) ] ] ] ) ] ] ] ] ] ] ] ] ] ] ] ] ] ] ] ] ] ",
"] ] ] ] ) ] | ] | ' ] ] ] ] ] ] ] ] ] ] ] ] ] ] ] ] ] ] ] ] ] ) ] ] ) ) ] ] ] ] ] ] ] ] ] ] ] ] ] ] ) ] ] ] ] ] ] ] ] ] ] ] ] ] ] ] ] ] ] ] ] ) ] ] ] ) ] ] ] ] ",
"] ] ] ] ) ] ] ] ] ] ] ] ] ] ] ] ] ] ] ] ] ] ] ] ] ] ] ] ] ) ] ] ] ] ] ) ] ] ] ] ] ] ] ] ] ] ] ] ] ] ] ] ] ] ] ] ] ] ] ] ] ] ] ] ] ] ] ] ] ] ] ] ] ] ] ] ] ] ] ] ",
"] ] ] ] ) ] ] ] ] ] ] ] ] ] ] ] ] ] ) ] ] ] ] ] ] ] ) ] ] ] ] ] ] ] ] ] ) ] ] ] ] ] ] ] ] ] ] ] ] ] ] ] ] ] ] ] ] ] ] ] ] ] ] ] ] ] ] ] ] ] ] ] ] ] ] ] ] ] ] ] ",
"] ] ] ] ] ] ] ] ] ] ] ] ] ] ] ] ] ] ] ] ] ] ] ] ] ] ] ] ] ] ] ] ] ] ] ] ] ] ] ] ] ] ] ] ] ] ] ] ] ] ] ] ] ] ] ] ] ] ] ] ] ] ] ] ] ] ] ] ) ] ] ] ] ] ] ] ) ] ] ] ",
"] ] ] ) ] ] ] ] ] ] ] ] ] ) ] ] ] ] ] ] ] ] ] ] ] ] ] ] ] ] ] ] ] ] ] ] ] ] ] ] ] ] ] ] ] ] ] ] ] ] ) ] ] ] ] ] ] ] ] ] ) ] ] ] ] ] ] ] ] ] ] ] ] ] ] ] ] ] ] ] ",
"] ] ) ] ] ] ] ) ] ] ] ] ) ] ] ] ] ] ] ] ) ] ] ] ] ] ] ] ] ] ] ] ] ] ] ] ] ] ] ] ] ) ] ] ] ] ] ) ] ] ) ] ] ] ] ] ) ] ] ] ] ) ] ] ] ] ] ] ] ] ] ] ] ] ] ] ] ] ] ] ",
"] ] ] ] ] ] ] ] ] ] ] ] ] ] ] ] ] ] ] ] ] ] ] ] ] ] ] ] ] ] ] ] ] ] ] ] ] ] ] ] ] ] ] ] ] ] ] ] ] ] ] ] ] ] ] ] ] ] ] ] ] ] ] ] ) ] ] ] ] ] ) ] ] ] ] ] ] ) ] ] ",
"] ] ] ] ] ] ] ] ] ] ] ] ] ] ] ] ] ) ] ] ] ] ] ] ] ] ] ) ) ] ] ] ] ] ] ] ] ] ) ] ] ] ] ] ] ] ] ] ] ] ] ] ] ] ] ] ] ] ] ] ] ] ] ] ] ] ] ] ] ] ] ] ] ] ] ] ] ] ] ] ",
"] ] ] ] ] ] ] ] ] ] ] ] ] ] ] ] ] ] ] ] ] ] ] ] ] ] ] ] ] ] ] ] ] ) ] ] ] ] ] ] ] ] ] ] ] ] ] ] ] ] ] ] ] ] ] ] ] ] ] ] ] ] ] ] ] ] ] ] ] ] ] ] ] ] ] ] ] ] ] ] ",
"] ] ] ] ] ] ] ] ] ] ] ] ] ] ] ] ] ] ] ] ] ] ] ] ] ] ] ] ] ] ] ] ] ] ] ] ] ] ] ] ] ] ] ] ] ] ] ] ] ] ] ] ] ] ] ] ] ] ] ] ] ] ] ] ] ] ] ] ] ] ] ] ) ] ] ] ] ] ] ] ",
"] ] ] ] ] ] ] ] ) ] ] ] ] ] ] ] ] ] ] ] ] ] ] ] ] ] ] ] ] ] ] ] ] ] ] ] ] ] ] ] ] ] ] ] ] ] ] ] ] ] ] ] ] ] ] ) ) ] ] ] ] ] ] ] ] ] ] ] ] ] ] ] ] ] ] ] ] ] ] ] ",
"] ] ) ] ] ] ] ) ] ] ] ] ] ) ] ] ] ] ] ] ) ] ] ] ] ] ) ] ] ] ] ] ] ] ] ] ] ] ] ] ] ] ] ] ] ] ] ) ] ] ) ] ] ] ] ] ] ] ] ] ] ) ] ] ] ] ] ] ] ] ] ] ] ] ] ] ) ] ] ] ",
"] ] ] ] ] ] ] ] ] ] ] ] ] ] ] ] ] ] ] ] ] ] ] ] ] ] ] ] ] ] ] ] ] ] ] ) ] ] ] ] ] ) ] ] ] ] ] ] ] ] ] ] ] ] ] ] ] ] ] ] ] ] ] ] ) ] ] ] ] ] ) ] ] ] ] ] ] ] ] ] "
};
