/* XPM */
static char *result[] = {
/* columns rows colors chars-per-pixel */
"80 80 29 1 ",
"  c #47BEF1",
". c #48BAF0",
"X c #49BBF1",
"o c #4BBBF1",
"O c #49BBF2",
"+ c #4ABBF2",
"@ c #4BBBF2",
"# c #4ABBF3",
"$ c #4BBBF3",
"% c #4DBAF2",
"& c #4CBBF2",
"* c #4DBBF2",
"= c #4CBBF3",
"- c #48BDF0",
"; c #49BCF1",
": c #4BBCF1",
"> c #48BCF2",
", c #49BCF2",
"< c #49BDF2",
"1 c #49BCF3",
"2 c #49BDF3",
"3 c #4ABCF2",
"4 c #4BBCF2",
"5 c #4ABDF2",
"6 c #4ABCF3",
"7 c #4BBCF3",
"8 c #4ABDF3",
"9 c #4BBDF3",
"0 c #4DBAF4",
/* pixels */
"99999999999999999999999999999999999999999999999999999999999999999999999999999999",
"99999999999999999999999999999999999999999999999999999999999999999999999999999999",
"99999999999999999999999999999999999999999999999999999999999999999999999999999999",
"99999999999999999999999999999999999999999999999999999999999999999999999999999999",
"99999999999999999999999999999999999999999999999999999999999999999999999999999999",
"99999999999999999999999999999X9X.X9XX9X.X99999999999999999999999999999$2+7< 9999",
"99999999999999999999999999999393X393393X39399999999999999999999999999948:+;-9999",
"99999999999939333939999999999393X393393X3939993933339333939999999999395351O;9999",
"99999999999999999999999999999X9X.X9XX9X.X9X9999999999999999999999999999986939999",
"999999999999393X393999999999939333933933393999393XX393X3939999999999393X39329999",
"999999939333X3X.X9X999999999999999999999999999X9X.X39X.X9X9999999999X9X.X6o@9999",
"999999999999393X393993993333339333933933333393X9X.3993X3939999999999393X>1*%9999",
"9999999393X3X3X.X9X999999999999999999999999999393X339X.X9X9999999999X9X.X#0=9999",
"9999999X9X.X3X3X39399399333333939999999393339399999X93X3939999999999393X,6=&9999",
"9999999393333333393993993X3X33939999999393X39339333393339399999999993933366+9999",
"9999999999999999999993993X3X33939999999X9X.X9X39339999999999999999999999995;9999",
"999999399999393339399999999999999999999393X3339399939333939999999999393336739999",
"9999999393X33X3939999399333333939999999X93.39339999999999999999999999999999X9999",
"9999993393X3XXX3X9399399333333939999999393X33X9399999999999999999999999999939999",
"999999X99999393.39X9999999999999999999999X9XX33393999999999999999999999999999999",
"999999339333333X3939999999999999999999939333393999999999999999999999999999939999",
"999999339333333X3939999999999999999939333939933333333939999999999999999999939999",
"999999X99999X9X.X9X9999999999999999999999999393993999399999999999999999999999999",
"999999399999393X393999999999999999993933333393393X333939999999999999999999999999",
"999999999999999999999999999999999999X9X.XX.X9XX3X.XX3333333939999999999999999999",
"999999399999393339399999999999999999393X33X393393.X93399999999999999999999999999",
"9999999999999999999993993333339399999999999999X9XX333333333939999999999999999999",
"999999999999999999999999999999999999393333339339339X9X.X.XX9X9999999999999999999",
"999999999999999999999399333333939999999999999939333333X3X33939999999999999999999",
"999999999999999999999X99X.X.XX9X93333339399999X9X.X9X999999999333333939999999999",
"9999999999999999999993993333339399999999999999393X333333333999999999999999999999",
"9999999999999999999999999999999393333339399999393X393999999939333333939999999999",
"9999999999999999999993993333339X9X.XX.X9X99999X9X.X9X9999999X9XX.X.X9X9999999999",
"99999999999999999999999999999993933333393999993933393999999939333333939999999999",
"99999999999999999999999999999999999999999999999999999999999999999999999999999999",
"99999999999999999999999999999993933333393999993933393999999939333333939999999999",
"99999999999999999999999999999999999999999999999999999999999999999393333339399999",
"99999999999999999999999999999999999999999999999999999999999999999999999999999999",
"99999999999999999999999999999999999999999999999999999999999999999393X33X39399999",
"99999999999999999999999999999999999999999999999999999999999999999X9X.XX.X9X99999",
"99999939999999999999999999999393333333393999993933333393999999999393333339399999",
"99999939999999999999999999999393333333393999999999999999999999999999999999999999",
"99999999999999999999999999999999999999999999993933333393999999999393333339399999",
"999999399999999999999999999993933X333X39399999393X33X393999999999999999999999999",
"99999939999999999999999999999X9XX.3X3X393999993933333393999999999999999999999999",
"99999939999999999999999999999393XX333339399999X9X.XX.X9X999999999999999999999999",
"99999999999999999999999999999X9X.39X99999999993933333393999999999999999999999999",
"99999939999999999999999999999393X3333339399999393X33X393999999999999999999999999",
"99999999999999999999999999999393339399999999993933333393999999999999999999999999",
"99999999999999999999999999999999999999999999999999999999999999999999999999999999",
"99999999999999999999999999999393339399999999993933333393999999939333939999999999",
"99999999999999999999999999999999999999999999999999999999999999999999999999999999",
"99999999999999999999999999999999999999999999999999999999999999939333939999999999",
"999999939333333939999999999999999999999999999999999999939333333X9X.X9X9999999999",
"999999999999999999999999999999999999999999999999999999999999999393X3939999999999",
"999999939333333939999999999999999999999999999999999999939333333393X3333339399999",
"9999999X9X.XX.X9X99999999999999999999999999999999999999X9XX.X.XX93.3939999999999",
"9999999393X33X393999999999999999999999999999999999999993933X3X3393X3333339399999",
"99999999999999999999999999999999999999999999999999999999999999993X9X.XX.X9X99999",
"99999993933333393999999999999999999999999999999999999993933393999393X33X39399999",
"99999999999999999999999999999999999999999999999999999999999939333333939999999999",
"999999999999999999999999999999999999999999999999999999999999X9XX.X.X3X3339399999",
"9999999999999999999999999999999999999999999999999999999999993933X3X3939999999999",
"99999999999999999999999999999999999939333333939999999999999999999999999999999999",
"99999999999999999999999999999999999999999999999999999999999939333333939999999999",
"99999999999999999999939993999999999939333333939999999999999999999999999999999999",
"999999999999999999999933999999999999X9X.XX.X9X9999999999999999999999999999999999",
"99999999999999999999939993999999999939333333939999999999999999999999999999999999",
"9999999999999999939333399X999999999999999999999999999999999999999999999999999999",
"99999999999999999999993393999999999939333333939999999999999999999999999999999999",
"99999999999999999393393939933999999999999999993933333393999999999999999999939999",
"99999999999999999X9XX33399399999993333393999999999999999999999999999999999999999",
"999999999999999993933X933393399999393999999999393X33X393999999999999999999939999",
"999999999999999999999333X333333993939339399999X9X.XX.X9X9999999999999999999X9999",
"9999939333333339339333333939999939333XX3X3393939333333939333333393999939333X9999",
"999993933333333939993939933333399333X.333339399999999999933333339399993933339999",
"99999999999999999999999999999999999999999999999999999999999999999999999999999999",
"99999999999999999999999999999999999999999999999999999999999999999999999999999999",
"99999999999999999999999999999999999999999999999999999999999999999999999999999999",
"99999999999999999999999999999999999999999999999999999999999999999999999999999999"
};
