/* XPM */
static char *result[] = {
/* columns rows colors chars-per-pixel */
"80 80 140 2 ",
"   c #3FBEF7",
".  c #54ACCB",
"X  c #5DADC9",
"o  c #56AED6",
"O  c #5AAED5",
"+  c #51AFDA",
"@  c #5AAFDC",
"#  c #4BB2D2",
"$  c #4FB3DE",
"%  c #4AB9DE",
"&  c #54B3D4",
"*  c #5DB3D6",
"=  c #5EB9D7",
"-  c #54B3DD",
";  c #5BB4DB",
":  c #56B8DE",
">  c #5CBDDC",
",  c #68A7C9",
"<  c #76AEC2",
"1  c #66B3CF",
"2  c #7DB7C5",
"3  c #78BBCA",
"4  c #63B4D6",
"5  c #6BB5D4",
"6  c #64B3DA",
"7  c #6AB6DA",
"8  c #63BADB",
"9  c #6CBCDB",
"0  c #73B4D3",
"q  c #74BAD4",
"w  c #74BDD9",
"e  c #47B4E6",
"r  c #4CB4E5",
"t  c #47BDE5",
"y  c #4CBBE4",
"u  c #4BB6EC",
"i  c #45BBED",
"p  c #4BBBED",
"a  c #54B6E3",
"s  c #59B6E4",
"d  c #53BAE5",
"f  c #5AB9E1",
"g  c #51B5E9",
"h  c #58B7E9",
"j  c #52BAEB",
"k  c #5ABBEC",
"l  c #43B6F4",
"z  c #4CB6F3",
"x  c #46BCF3",
"c  c #4BBDF3",
"v  c #4EB7FB",
"b  c #44BDFA",
"n  c #4BBBFA",
"m  c #51BCF3",
"M  c #53BDF9",
"N  c #62B5E1",
"B  c #63BAE4",
"V  c #6FB8E3",
"C  c #74BFE2",
"Z  c #73C0D7",
"A  c #75C5DA",
"S  c #7EC6DE",
"D  c #4CC5E5",
"F  c #4CC0ED",
"G  c #54C0EF",
"H  c #44C1F4",
"J  c #4AC0F3",
"K  c #46C5FA",
"L  c #53C1F4",
"P  c #57C3FD",
"I  c #6BC1E9",
"U  c #77C3E2",
"Y  c #7DC6E4",
"T  c #7ACAEB",
"R  c #87B4C5",
"E  c #81C1DC",
"W  c #8ACADE",
"Q  c #A0CDDC",
"!  c #ADCDDB",
"~  c #AFD5DE",
"^  c #85C4E2",
"/  c #8AC6E3",
"(  c #84CBE4",
")  c #8BCAE5",
"_  c #81CCEB",
"`  c #92CEE4",
"'  c #8FD1E5",
"]  c #87D1E9",
"[  c #93D1E3",
"{  c #9CD5E5",
"}  c #94D4EB",
"|  c #9CD6EA",
" . c #97D9ED",
".. c #9CD9EE",
"X. c #A0D4E7",
"o. c #A3D3E8",
"O. c #A4DCED",
"+. c #ADDFEE",
"@. c #B3D4E0",
"#. c #A6DDF1",
"$. c #A9DFF1",
"%. c #B7E4ED",
"&. c #A3E1F3",
"*. c #ABE2F4",
"=. c #AFE9F6",
"-. c #A6E5FA",
";. c #B5E3F3",
":. c #B9E9F6",
">. c #B4EEF9",
",. c #BBEBF9",
"<. c #B6F3FD",
"1. c #BCF2FC",
"2. c #C8DADE",
"3. c #CEEBEE",
"4. c #D1E9EE",
"5. c #DAEAEF",
"6. c #C2ECF6",
"7. c #C2EDF9",
"8. c #CAEFFD",
"9. c #D1ECF6",
"0. c #C5F3FB",
"q. c #CCF3FB",
"w. c #CDFAFE",
"e. c #DEF0F6",
"r. c #D4FBFE",
"t. c #DCFDFF",
"y. c #F6FBEF",
"u. c #E0FFF6",
"i. c #EDFCF5",
"p. c #E1F5F9",
"a. c #E8F0F8",
"s. c #E4FEFE",
"d. c #ECFEFD",
"f. c #F6F5F4",
"g. c #FCF6F6",
"h. c #F5FBF5",
"j. c #FBFCF5",
"k. c #FAF7FB",
"l. c #F4FDFB",
"z. c #FCFDFC",
/* pixels */
"c c c c c c c c c c c c c c c c c c c c c c c c c J c c c c c c c c c c c c c c c c c c c c c c c c c c c c c c c c c c c c c c c c c c J c c c c m c c c c m c ",
"c c c c c c c c c c c c c c c c c J c c J c c c c n c m c c c J c c c c c c c c c c c c c c c c c c c c c c c c c c c c c c c c c c c c m c J c c c c J c c J c ",
"c c c c c c c c c c c c c c c J m c c c c c c J c c J c c c c c c c c c c c c c c c c c c c c c c c c c c c c c c c c c c c c c J c c c c J c c c c c c c c c c ",
"c c c c c c c c c c c c c c c m c c c c c m c c c c c c c c c m c c c c c c c c c c c x c c c c c c c c c c c c c c c c c J c c c c m c c n c c c c c c J c c c ",
"c c c c c c c c m J c c c c c c c c c c c c c c c c c c c c c c c c c c c c c c c c c c c c c p c c c c c c c c c c c c c c c c c c c c J c c c J c n c J c c c ",
"c c c c c c c c c c c c J c c c c c c c c c c c c J c c c c J c c c c c J c m c c c c p c c c c c c c x c c c c c c c c c c c L c c J c c c c c c m c c c c c c ",
"c c c c p c x c c c c c n c c c c c c c c c c c c c c c c c c c J c J c c c c J c c c i x p c c c z p c c c c c n J c c c c c c c c c c c c J m c c c c c c c c ",
"J c c c c c c c c c c c J J m c c c c c c c c c m c c c c c c c c c n c c c c c c c c c z x x c c i c c p c c x c c c c c c c c c J m c c c c c c c L c c c c J ",
"c c c c c c c c c J c c c c c c c c c c c c c c c c c c c c c c c c c c c c c c c x c c c i c c p c c c c c c c c c c c c c c c c c c c i c c c c c c c c c c J ",
"c c p i c c c c c c c J n J c c c c c c c c c c c c c c c c c c c c c c c c c c c c c c c c c p i c i c c c c c c c c c c c c c c c c c c c c c c J c c c c c c ",
"c c c c c c c c c c c m c c c c x c c c c c c p p c p j c c c c i H c c c c c c x c c x x x c c l n c e i x c c c b c c c c c c c c c c c c c c c c c c c c c c ",
"c c c c c c c c c c c c c c c c c c c n l c z p y u u p c z l x H i i x c x x c x c x x x x F F c l x i p x J c b b n l z z c c x c p i c p p J c c m J c c c m ",
"c c c c c c c c c c c c c c c c c x b b n c c i p p c i x n c x i p j G u p c p p m c c l l i j p m p p m j m p p i c x l c p c c c c c c c c c c m c J c c c J ",
"c c c c c c c c c c c c c J c c c c b b n c c i x x b x n n n v j k - & O & ; ; ; - d j x b n j h f f ; o * o > a d L x x i p c i x c c J c c c n J c c c J c n ",
"c c c c c c c c c c c c c c c c c c c c c x c x x b b l n c c m d O w ` | ..X.{ E 5 * h m n n g ; q ^ | X.o.` S 1 * y H H x i p x c c c c c c c c c c c c c c m ",
"c c c c c c c c J c c c c c c c p u u z c c z c c c m j g m p $ 4 } 8.t.s.d.s.s.t.0.| 5 ; k r B &.q.r.t.d.d.s.w.*.Z . t i i i x c c c c c c m J c c c c c c c J ",
"c c x c c p c c c c c c c n c c x p p m p m a + ; 6 6 6 6 @ : 4 ' r.d.j.h.z.l.l.d.d.s.,.E , E 1.s.d.d.l.z.z.l.s.t.0.A # D x x c c c c c c c c c c c c c c c c c ",
"c c c c c c c c c J c c c L c c c i x c j a V } *.;.6.:.O.W 0 < %.d.l.j.j.z.j.z.j.h.l.d.9.! 3.d.i.l.z.l.j.k.k.l.d.t.=.8 y x x c p p c z c c c c c c c c c c c c ",
"c c x c c c c c c c c m c c c c c H K p f 9 =.r.s.d.l.l.s.r.q.~ 3.l.z.g.g.z.z.j.j.j.h.l.l.l.j.j.z.z.j.j.j.k.l.z.l.d.r.W + n n b p d z c c c c c c c c c c c c c ",
"c c u c l c c c c c c J c c c c c x H p * ..t.u.l.l.l.j.i.a.d.s.d.z.z.j.l.z.z.z.j.j.j.z.l.l.h.j.z.k.z.z.z.z.z.z.j.l.t.[ ; M n v p r c c z c c c c n c c J c c m ",
"c c c c c c c c c c c c c c c i c c i k 8 $.s.h.j.l.j.j.j.f.f.l.k.j.z.l.l.z.z.z.z.j.j.l.z.l.l.z.z.z.z.z.j.z.z.z.k.l.s.O.; z n v k y c x n c c c c c c c J m c c ",
"c c c c c c c c c c c c J c c c c J p d @ } d.j.j.l.z.j.j.g.k.z.k.k.z.j.l.l.l.z.z.j.z.z.l.l.z.z.z.z.z.z.z.z.l.z.z.l.t.[ ; c M v p p c z c c c c c c c c c c J c ",
"c c c p c c c c c c c c c c c c c i x c - ) s.h.j.l.z.z.g.k.z.z.z.j.z.j.l.z.z.z.z.z.z.z.z.z.z.z.z.z.z.z.z.z.z.z.f.l.w.Z - d u z i H x x c x c c c c c c c c J n ",
"c c c c c c c c J c c c c c c x c x x c a ^ s.l.l.z.l.z.j.z.z.l.z.z.z.j.j.z.z.z.z.z.z.z.z.z.z.z.z.z.z.z.z.z.z.l.z.a.X.= y p M z x x x c c c J c c c c c c c c c ",
"c c c c c c c c c c c c c c c c c i H p - } s.l.z.z.l.j.j.h.h.l.l.l.z.z.j.z.z.z.z.z.z.z.z.z.z.z.z.z.z.z.z.z.z.k.j.2.2 ; m c z z c x c c c i c c c J c c c c J c ",
"c c c c c c c c c c c c c c c c c i i y 4 ,.l.z.j.z.z.j.j.h.h.l.z.l.z.z.z.z.j.z.z.z.z.z.z.z.z.z.z.z.z.z.z.z.z.l.l.5.Q 5 h u v n c p i p J i i c c c c c c c c c ",
"c c c i x c x c c c c c c c c c c i G - ) r.l.j.j.j.j.j.g.j.f.z.j.z.l.z.z.j.z.z.z.z.z.z.z.z.z.z.z.z.z.z.z.z.z.z.l.l.s.1.) f g u z m c x c c c c c c m c c c m c ",
"c c c c c p c c c c c c c c c c c i e = ,.l.j.j.z.j.z.j.k.z.f.k.z.z.z.z.j.z.z.z.z.z.z.z.z.z.z.z.z.z.z.l.z.z.z.z.l.l.i.d.r.} > p p c l c c c c c n c c J c c c c ",
"c c z i c c z c c c c c c J c c c J e T r.j.j.g.z.k.l.l.d.e.a.z.k.z.z.j.j.j.z.z.z.z.z.z.z.z.z.z.z.z.z.z.z.z.z.z.l.j.h.h.s.<.> y p m c c n c c c J c c J c c n c ",
"c c c c c c c c c c c c c c c c c c u _ t.y.j.l.l.l.l.t.:.R @.l.z.z.z.j.z.z.z.z.z.z.z.z.z.z.z.z.z.z.z.z.z.z.z.z.j.j.j.k.d.>.> t z v v x c n c c c m c c J c J c ",
"c c c x c c c c c c J c c c c c c x z C r.i.f.d.d.d.s.-.9 . ( r.l.j.j.j.z.z.z.z.z.z.z.z.z.z.z.l.l.l.l.z.z.z.z.l.l.l.l.d.q.( % H c z p l c x c c c c c c c c c c ",
"c c p c c i c c c c m c c c c c c c m ; #.t.s.s.t.0.| 7 r d 4 +.s.h.y.k.z.l.z.z.z.j.z.l.l.p.4.r.t.s.d.l.l.l.l.l.l.s.r.,./ O y F c u c c c c c J c c c c c c m J ",
"c c c c c c c c c c c c c c c c c c M s 7 } :.:.O.S O g m u f 0 7.u.i.h.f.g.j.z.j.j.h.d.s.7.2 3 W O.,.w.r.t.r.r.q.$.] I & s a c c u c c c c c c c c c c c c c c ",
"c c x c c c c c c c c c c c c c c p c M k ; 5 5 4 - r c J i r ; Y <.t.d.f.g.j.j.j.j.j.s.r.O.X & ; * * w _ ( Y U V @ : d d j u z x c c x c c c c c c c c c c c c ",
"c c p c x c c c c c c c c c c c c p i c p r a f a F J x D D p P r B -.t.l.z.k.h.h.h.d.t.<.Z - m m c p r a g g g z c u d r u c x x c c c c c c c c c c c J c c c ",
"c c c c c c c c c c c c c c c c x c i x c i p c c c c i % t i x n g N ) 7.t.s.s.s.t.q.$.w & p c b x x c p c m c n c i c c c x x x l c c z c c c c c c c c c c c ",
"c c p c c p c c c c c c c c c c c i x t p x l x c c z c i i c n p p k ; 6 ^ }  . .W q 4 - p i x c x p u d u p F e u x b b x i c c c z x c c c c c J c c c c c c ",
"c c c c c c c c c c c c c c c c c c e p c x c x x c u c z b c m p p j p u + $ $ $ - a d p c c c x c m p d d p i F x b b b x p p c c c c c c J c c c m J c c c c ",
"c u x c c c J n c J c c c c c c c c p p c v x c c c p p v v n p j u u F H x l x c x c p c c l c c x c J c c x   x b K b x c p p c c c c c c m c c c c c L c c J ",
"c c c c c c m c c c c c c c c c c c j c c c x i c c i p c v c u i j p H H H x b c x x c c z c z l c x l H b b b   x x c i F j p p c c c c c c c c c c c c c n c ",
"c c c c c c c c c c J c c c c c c c z x z z x c z x p l p c i c c c c c J p p c c c c c c z x u c l p c c z c c c i p p i p p c p p c c c c c c c c c m c c c m ",
"c c c c c c c c c c c c c c c c c z c c c c x z x z x c x c x c c c c x i c p p c i p c c x c c c c c c c c p c c i c p i c p c c p c c c c c c c J c J J c c c ",
"c c c c c c c c c c c c n c c c c c c c n c c c c c x c c c c c c c c c p p i c p c l c u z c c c c c c c c c c c c c c c c c c c c c c c c c c c c c n c c J c ",
"c c c c c c c c m J c c J m J c i c c z c z c c x c z c i c x c c J i x c J p c c p c c c c c c p c i c c c c c c c c c c c c c c c c c c c c c c c c c c c c c ",
"c c c c c c J c c c c c c c c c c c c c c c c c c c c c i c c c c c i c J p c i c c c c c z c c c c c c c c c c c v z c c z c c c z c c c J m J c c c m c c c c ",
"c c c c c c c c c c c c c c c c c c c c c c c c c c c c c c c c c c c c c c p c c i i z c i c c c c c c c c c p c c c c c c z c c c c c c n c c c J c c c J c c ",
"c c c L c c c n c c c m c c c c c c c c c c c c c z c c c c c c c c c c c c c i c c p c c c c c c c c c c c c c c z c c c c c c m c c c c c c c c c c c c c c J ",
"c c c c c c c J n c c c c c c c c c c c c c c c c c c c c c c c c c c c c c c c c c x c c i c c c c c c c c c c c c c c c c c c J c c c c c c c c c c J m c c n ",
"J c c c c c c c c c c c J c c c c c c c c c c c c c c c c c i c c c i c c c c c c c c p c i c c c c c c c c c c c c c c p c p J c c c p J c c c J c c c c J c c ",
"c c c c c c c c c c c c c c c m c c c c c c c c c c c c c c c c c c c c z c i c p c c c c c c c c c c c c c c c c m c p c c c m c c c c c c c c c c c m c c c c ",
"c c c c c c c c c c c c c c J c c c c c c c c c c c c c c c c c c c c z i c c c x p c c c J c c c c c c c c c c c c c c c c c c c c m c c J c c c c J c c c J c ",
"n c m J c c c c c c c c c c c c c c c c c c c c c c c c c c c c c c c i c c x c c c p c c c c c c c c c J c c c c c J c c c c c c c c c c m c c c c c c m c c c ",
"J c c c c c c c J c c c c L c c c c c c c c c c c c c c c c c c c c c l c c c c c c c c c c c c c c c m c c c m c m c J c c c c c c c J c c c c c c n J c c c c ",
"c c c c c c c c c n c c c c c c c c c c c c c c c c c c c c c c p c x p c c u c c x c c c c c c c c c c c J c J c c c c c J c c c c c c c c c c J c c c c c c c ",
"c J c c c c c c c c c c c c c c c c c c c i c c c c c c c c c c c c c c c c c c c c c c c c c c c c c c c c c c c J c c c c c m c c c c c c c c c c c J c c J c ",
"c c m c c c i c c c c c c c c c c c i x p c c c p c c c c c c c c c c c c c c c c c c c c c c c c c J c c c c c c c c c c c c J J c c c c c c c c m c c c m c c ",
"c c c c c c x c c c c c c c c c c c c c c c c c J n c c c c c c c c c c c c c c c c c c c c c c c c c c c c c J c c c c J c c c c c c c c c c c c c c c c J c c ",
"c c c u c x p c c c c c c c c c c c c c c c c c c c c c c c J c c c c c c c c c c c c c c c c c c c c c c c c c c c c c c c c c c c c c c c c c c c c c c c c c ",
"c c c c c c c c c c c c c c c c c c c c c c c c c c J c c c c c c c c c c c c c c c c c c c c c c c J c c c c c c J c c c c c c c c c c c c c c J m c c c m n J ",
"c c c c c c c c c c c c c c c c c c c c c c c c c c m c c c c m c c c c c c c c c c c c c p c c c c c m J n c c c c m c c c c c c c i c p x z c c c J c c c c c ",
"c c c c c c c c c c c J c c c c c c c c c c c c c c c J c c c J c c c c c c c c c c c c c x c c c c c c c c J c c c c J c J m c c c c c c c c c c c J c c c J c ",
"c c c c c c c c c c c c c J c c c c c c c m J c c c c m c c c c c c J c c c c c c c c c c p c c c c c c c c m c c c c c c c c c c c c c c c c c c c c n c c m c ",
"c c c c c c J c c c c c c c c c n L c c c c c c c J c c n J J m c c c c c c c c c c z c p i c c c c c c c c J c n J c c c c c c c c c c c c c c c m c J c c J c ",
"c c c c c m c c c c m c c J c c c c c J c c c c c c c c c c c c c c c m J c c c c c x c c c c c c c c c c c c c c m c c c c c c c i c c c c c c c c c c c c c c ",
"c J c c J c c c L c c c c c c c c c c c c c J c c c c J c m c c c c c J c c n J c c c m c c c c c c c c c c c c c J c c c c c c c c c c c c c L c c J n J c m c ",
"c c c c m c c c c c c c c c c c L c c n c c c c m c c c c c J c c c c c c c c c c c c J c c c c c c c c c c c c c c c c J n c c c J c c c c c c c c c m c c c c ",
"c n J c c c J c c c c c c J c c c c J c J c c c J c c c c c c c J c c c c c J c c c c c c x c c c c c c J c c c c m c c c m J c c c c J c c c c c c J c c c c c ",
"c c c c c c c c c c c c c c c c c c c c n m c c c c c c c J c n m c c c m c c c c c c c c c c c c c c c c c c c c c J c c c c c c m c c c J c n c c c c c c J c ",
"c c c c c J c c c c c J c c c c c c c c c c c J c c c c c m J c c n J c c c c J c c c c c c c c c c c c c c c c c c c c c c J c J c c c c c c c c c c c n c c c ",
"c J c c c m c c c m c c c c c c J c c c c c c c c c J c c c c c c J c c c c c c c c c c c c c c c c c c c c c c c c c c c c c c c c c c c c J c J c c m J c c c ",
"c c c c c c c c c J c c c c c c c c c c m c c c n J c m c c c c c c c c c c c c c c c c c c c c c c c c c c c c c c c c c c c c c n c c c c c c c c c c c c J c ",
"c c m J c c J n c c c c c c c c c c c c J c c c c c c c J c c c m c c c J c c c c c c c c c c p c c c c J c c m c c c c c c c c J c J m c c c c c c c c J m c c ",
"c J c c c c c c c c c c c c c c c c c c c c c c c c c J c m c c c c c c c c c c p c c c c c c c c i c c c c c c c c c c c J c c m c c c J c c m c c n c c c c c ",
"c m c c c c c c J c c c c c c c c c c c c c J c m c c c c c J c c c c c L c c c c c c c c c c c c c i c c c c c c c c c c c c m c c J c c c c c c J J c J c c m ",
"c c c c c J c M c J c c n J c c c c m c c c m c J c c c c c c c L c c c c c n c c c c c c c c c c c c c m c n c c c c c c c n c c c c c c c c c c c c c c c c c ",
"n c J c c c c c c c m c c c c c c c J c c c c c c c c c n c c c c c c c c c c J c c c c c c c c c c c c c c J c c c c c c c J c m c c c c c c J m c c c c c c c ",
"J m c c c m c c c c c c c c c c c L c c c c c c c c c c J c J c c c J c c c c c c c c c c c c J c c c c c c J c J c c m c c J m J c c m n J c m J c c m c c m J ",
"c c c c c J c c n c c c c c c J c c c c c c c J c c J c c m c c c c c c c c c c c c c c c c c c c c c c c c c c c c c c J c c c c c c c c c c c c c c c c J c c ",
"c c J c c c c J J c c J J c c c c c n c c c m J c c m c J c c c c c c c c n c c c c c c c c c c c c c c c c c c c c c J c c c c c c c c c J c c c c c c c n J c ",
"c c c c c c c c c c c m c c c m c c c J J n c c c c c c c c c c c m J c c J c c c c c c c J c c c c c c c m c c c c c c c c c c c c c J c c c c c c c J c c c c "
};
