/* XPM */
static char *result[] = {
/* columns rows colors chars-per-pixel */
"80 80 138 2 ",
"   c #3EBBF4",
".  c #3EBDFB",
"X  c #56AECE",
"o  c #4DAED8",
"O  c #55ABD0",
"+  c #5BADD4",
"@  c #53AFDD",
"#  c #4DB6D7",
"$  c #4DB6DB",
"%  c #4BBCDD",
"&  c #52B0D2",
"*  c #5AB2D5",
"=  c #54B4DC",
"-  c #5BB4DC",
";  c #50B8DC",
":  c #5AB8DC",
">  c #63AAC7",
",  c #77AAC5",
"<  c #62B1CD",
"1  c #68B8CF",
"2  c #72B4CB",
"3  c #62B5D5",
"4  c #6CB6D6",
"5  c #65BAD6",
"6  c #6DB8D5",
"7  c #64B4DA",
"8  c #6AB5DB",
"9  c #66BADA",
"0  c #6CBBDD",
"q  c #72B6D6",
"w  c #74BBD6",
"e  c #79BCD5",
"r  c #71BBDB",
"t  c #4DB5E5",
"y  c #46BCE6",
"u  c #4CBAE5",
"i  c #45B4ED",
"p  c #49B6EC",
"a  c #45BCED",
"s  c #4BBBED",
"d  c #54B5E3",
"f  c #5AB5E2",
"g  c #52BAE4",
"h  c #58BCE7",
"j  c #53B6E8",
"k  c #58B7EF",
"l  c #52BBEC",
"z  c #42B7F1",
"x  c #4DB7F1",
"c  c #45BCF3",
"v  c #4BBDF3",
"b  c #45BCF9",
"n  c #4ABCF9",
"m  c #50B7F6",
"M  c #51BCF2",
"N  c #59BDF2",
"B  c #63B5E2",
"V  c #62B9E2",
"C  c #6BBEE1",
"Z  c #76B9E1",
"A  c #7CC1D3",
"S  c #7DC2DC",
"D  c #46C0EC",
"F  c #4BC1EC",
"G  c #45C1F4",
"H  c #4AC0F4",
"J  c #44C1F9",
"K  c #49C1FA",
"L  c #53C2F1",
"P  c #7BC3E2",
"I  c #7ECCE5",
"U  c #8BBCC9",
"Y  c #81C5DD",
"T  c #82CBD9",
"R  c #8BCADF",
"E  c #92CBDD",
"W  c #9ACFDF",
"Q  c #A4CDDC",
"!  c #B1D1DB",
"~  c #83C5E3",
"^  c #8CC5E5",
"/  c #84C8E5",
"(  c #85CDE9",
")  c #8DCBE8",
"_  c #8ED3EA",
"`  c #93D1E5",
"'  c #98D7E4",
"]  c #95D5E9",
"[  c #9BD5ED",
"{  c #9DDAEC",
"}  c #96D1F0",
"|  c #A4CDE2",
" . c #A2D4E8",
".. c #A2DAEF",
"X. c #BBD5E1",
"o. c #B4DAEC",
"O. c #A5DEF2",
"+. c #ABDBF0",
"@. c #B1DEF1",
"#. c #ACE3EF",
"$. c #B6E2EE",
"%. c #A6E1F5",
"&. c #ADE4F3",
"*. c #B2E6F6",
"=. c #BBE5F3",
"-. c #B4ECF4",
";. c #BBEBF5",
":. c #B2EAFA",
">. c #BDEEFA",
",. c #BBF0FB",
"<. c #C2EEF7",
"1. c #C3EDFA",
"2. c #C8EAFB",
"3. c #DEEEF5",
"4. c #C8F1F7",
"5. c #C7F4FA",
"6. c #CAF4FD",
"7. c #CCF9FF",
"8. c #D6F2F5",
"9. c #DDF3F7",
"0. c #D3F5FD",
"q. c #DAF6FD",
"w. c #D4FAFF",
"e. c #DCFCFE",
"r. c #FAF7EE",
"t. c #F5FAEF",
"y. c #FDFCEF",
"u. c #EFFDF6",
"i. c #E4FEFE",
"p. c #ECFDFD",
"a. c #F4F6F4",
"s. c #FDF6F4",
"d. c #F6FBF5",
"f. c #FBFCF5",
"g. c #F7F7F8",
"h. c #FEF6F9",
"j. c #F4FDFC",
"k. c #FCFDFC",
/* pixels */
"v v v v v v H v v M v v v v v v v v v v v v v v v H v v v v v v v v v H v v v v v v v v v v v v v H M v v v v v v v v v v H v v v v v v v v v v v v H v H v v v ",
"v v v v v v v v v H v v n L v v v v v v v v v v v v v v v v v v H v v v v v v H v v H v v v v v v v H n v v v v v v v v v v v v v v v v v v v v v v v v v v v v ",
"v v v v v v v v v v v v v v v v v v v v v v v v v v v v v v v v v v v v v M v v n H v H M v v H v v v v v v v v v v v v v v M H v v v v v v v v v v v v v v v v ",
"v v H v v v v v v v v v v v v v v v v v v v v v v v v v v s v v v v v v v H n v M v v v H v v v v v v v a v v s v v v v v v v v v v a v v v v v v v v v v M H v ",
"v v v v v v v v v v v v v v H v v v c s v c v v v v v v c v c v v v v v v H v v H v v v v n M v v v H v v v v v v v v M v v v v v v v v v v v v v v v v v v v v ",
"v H v v v v v v v v v v v v v v v p v c v v v v v v v c v v v c n v v v v v v v v v v v v v H v v v v v v v v v v v v v v v H v v v v v v v v v v v v v v v v H ",
"v M v v v v v v v v v v v v v v v v v v v v v H v v v v v v v v v H v v M v v v v v v v H v v v v v v v v v v v v v v v v v v v v v v v v v v v v v v v v v v v ",
"v v H v v v v v v v v v v v v v v v v v v v v v v v v v v v v v v v v H v v v H v M H v v v v v v v v v v v v v v H H n v v v v v v v v v v v v v v v v v v v v ",
"v v c s v s s s s s F v s v v v v v v v v v v v v v x c v x x v v v v v v v v v v v v v v v v H v v v v v v H v v v M v v H v v v v v v v v v v c s v v v v v v ",
"v v v s s v c v v H v s v v H v v v v v v v v v v v v v v v v v v v v v v v v v v v v v v H v v v v H v v v v v v v H v v v v v v v H v v v v v v v v v v v v v ",
"v v v v c v v v v v v v H v v v v v v v v H v v v v v v v v v a v v c v v v v v v v v v v v H v v v v v n L v v v v v v M v v v v v v v v v v v v v v v v v v H ",
"v v v v v v v v v v v H v M v v H v v v v v v v v v v v v v v v v v v v v v v v v H v v M v v v H n v v v v v v H v v v n v H v H v v v v v v v v v v v v v v v ",
"v v v v v v v v v v v v v v v H M v v v v v v v v v v v v v v s v v v v v v v v v v H v v v v v M v H v v v M H v v v H H v v v v v v v v v v v v v v v v v M v ",
"v v v v v v v v v v v v v v v v v v H v v H v v v v v v v v v v v v v v v v v v v v v v v v v v v v v v H v v v v v v v v v H v v v v v v v v v v v v v v v H v ",
"v v v v v v v v H v v v v L v v v H v v v v v v v v v v v v v v v v v v v v s v v v v v v v v H v v v v v v v H H M v v H M v v v v v v s v v c v p s v v v v H ",
"v v v v v v H v v v v v v v v v v v v v H v v v v v v v v v v v v v a v v a v v v v v v H M v n v v H v v v v v v n v v v v v v v v v v v v v p c v v c v v v v ",
"v v v v v v v H v v v L v v v v H v H v v v M H v H v v v v v v v v v v v v v v v v v v v v v v M v v v v H v n v H v v v v v v v v v v v v v s v v v v v v v n ",
"v v v v v v v v H n v v v v n v M v v v v v v v v v v M v v v H v v v v s z s v v v v H v v v H v H v v v v v v v M v v v H v v v v v v v v v v c v s v H v v v ",
"v v v v v M v v v v H v v v v v v v v v v v v n v v v v v v v n v v v v v c v v v v v v H M v v n v v H v v v v v v v v v v v v v v v v v v v v v v v v v v v v ",
"v v v v v H v v v v v M v v v H v H v v v v v H v v H v H v v v v v v v v v v v v v v v v v v v L v v v H M v v v v v v s v v v v v v v v v v v v v v v M v H v ",
"v v H n v H v v v H v v v v v v v n H v v v v v L n v v v v v v v v v v v v v v v v v v v v v v v v v v n H H v v v v v v s v v v v v v v v v v v v v v v v v v ",
"v v v v v v v v v v v v v v v v v v v v H M v v v v v v H v v H v v v v v v v v v v v v v v v v v v v v M v v v v v v v c v c v v v v v v v v v v v v v v v v v ",
"M H v v v M v v v v v v v H v v H v v M v v H v v v v v v v v v v v v v p c s v s v v v v v v v v v v v v v v v v v z v s c v v v v v v v v v v v v v v H v v H ",
"v v H v v v v H v H v v M v v v v v v v H v v v v v H v v v v v v v v v v c v v c v v v v v v v v v v H v H v v v v v v v p v v v v v v v v v v v v v v v v v v ",
"v v H v H M v v H v v v v v v v v H v v v v v v v v v v v v v v v v v v v v v v v v v v v v v v v v v v v v v v v v v v v v v v c v v a v v v v v v v v v v v v ",
"v v v v v v v v v v H v v v v v v M v v v v v v v v v v v v v v v v v v v v v v c v v v v v v v v v v s v v v v v v v v v v v v p v v v v v v v v v v v v v v v ",
"v M v v v v H n M v v v v v v v v v v v v v v v v v v v v v v v v v v v v v v v v v v v v v v v v v v v v v v v v v v v v s v s s v v c v v v v v v v v v v v v ",
"v H v v v v v v n v v v b v v v v H v v v v v v v v v v v v v v v v v v v v v v v v v v v v v v v v c v v v v v v v v v v v v v c x v v v v v v v v v v v v v v ",
"v n H v v v v v H v v v v v v v v v v v s s v s v v v M v v v v v v v x v v c c s s v s v v v c c v s u M s v v v v v v v v s s c s x s v b v x v v v b v v v v ",
"v H v v v v H M v v v v M v v b c v c s s s s v v v v v v v c c b v x v s s v s c v b s v v v b c c v s v v b c s M l v b z v v v b c c z x b c c n c v v v v v ",
"v v H M v v v v v v v v v v v v c c v v v s M v c c   G i c J c z v s s N s a c b n v v v s c n v n H v c b b b v l u v c b b b x v x v v c c a c v v v v v v v ",
"v v v v v H v v v H v v v v v x v v x v v s s s c a a F u u p s M v p a s s v v x p a s c v s M M l l l p v v v x s a D c   c b v v v s a c c a v v c v v v v v ",
"H v v v v v v v v v v v v v v x v z c s c a H s a H L O + r Z 8 : $ y s c v v x s a v a c s $ = * 3 8 - = ; t M v v a a a a c s s s s s s v v a x v s v v v v v ",
"v v v v v v v v v v v v v v v v v v a v v v v c p g & Y @.2.q.2.%.I = u v v v p y F s a l : S ` #.1.,.*.' q + j x x b b c v s s s s v m m m x v a v a v v v v v ",
"M v v v v v v v v v x v v x v z v v v b c c v l d 0 { 7.i.j.d.j.i.7.{ P = u s a D D l = - ( >.w.i.p.j.i.e.;.R 7 j v b b b m v x v v a c m m x v x v v v v v v v ",
"v v v v v v v v v v v v c v v v v x v v c c s d 9 :.e.i.p.j.f.f.d.j.e.;.S * g u v l * 4 { w.i.p.d.f.f.f.j.p.w.[ 7 l i n n n n b c   c G c c v x v v v v v v v v ",
"v v v v v v v v v v c v v b v v v v s c c c l 7 ..e.j.j.d.d.f.f.k.g.j.i.6.R 3 * j * 2 &.e.p.j.g.f.f.f.f.k.j.p.7._ * l a n c a a c D D   c c b x x n x n v v v v ",
"H v v v v v v v v v v v v v v v v v p c b b d Y w.p.f.f.k.g.f.f.f.g.k.j.i.w.O.P 0 / 1.e.j.g.k.k.k.d.f.k.k.k.p.i.-.1 = u u $ # $ $ t u s s c c n m x v v v v v v ",
"v v v v v c v v p v v v v v c b v N s a v s * { i.d.f.d.k.h.h.k.k.d.j.k.j.p.p.9.8.9.p.j.j.k.k.k.k.k.j.j.j.d.d.j.e.' > 9 6 T ' { ] / C = % y D c b v v x x x v v ",
"v v v H v s v v c c v v v c c c M j g y c v - -.p.d.d.k.h.k.k.k.k.k.k.d.j.j.d.j.k.d.g.d.k.g.k.k.k.k.d.k.k.k.k.d.p.9.o.o.5.w.p.p.p.q.*.) 7 h v c c v x v v v v v ",
"v v v H v v v v v v v c x v c c m d g F   n V &.i.j.f.j.k.k.k.k.k.k.k.k.k.k.k.k.k.k.k.k.k.k.k.k.k.k.k.k.k.k.k.g.j.j.j.k.j.j.k.g.k.d.i.6./ d M v v v x v M v v v ",
"M v v v v v v v p a v v v x c c v p s a y v *  .i.j.k.k.k.k.k.k.k.k.k.k.k.k.k.k.k.k.k.k.k.k.k.k.k.k.k.k.k.k.k.k.k.j.d.k.k.k.k.k.f.d.d.i.:.3 j v v x v v v v v v ",
"H v v v v v v v v v v s v x b c v c c s s j > U 8.j.k.k.k.f.k.k.k.k.k.k.k.k.k.k.k.k.k.k.k.k.k.k.k.k.k.k.k.k.k.g.j.j.k.k.k.k.k.h.f.r.f.p.4.e f v x b v s v v v v ",
"v v v v v v v v c v v v x n v s c c b s * q W | 9.j.k.k.k.k.f.k.k.k.k.k.k.k.k.k.k.k.k.k.k.k.k.k.k.k.k.k.k.f.k.k.k.j.j.d.k.k.k.h.f.s.r.j.6.e - v v v c a c c H v ",
"v v v v v v v v v v v x v z v s b v x f Y $.w.i.p.j.k.k.k.k.k.k.k.k.k.k.k.k.k.k.k.k.k.k.k.k.k.k.k.k.k.k.k.k.k.k.k.k.k.k.k.d.k.k.f.d.p.e.%.5 u v c c c c c v v v ",
"v v v v v v v v v v v c v v v c v k V } 0.p.j.j.k.k.k.k.k.k.k.k.k.k.k.k.k.k.k.k.k.k.k.k.k.k.k.k.k.k.k.k.k.k.k.k.k.j.k.d.f.f.d.f.j.i.w.{ P ; s b v c G s v v v v ",
"v v v v v v v v c v s c x v v x j V [ q.p.t.f.k.k.k.k.k.k.k.k.k.k.k.k.k.k.k.k.k.k.k.k.k.k.k.k.k.k.k.k.k.k.k.k.f.d.k.k.j.f.y.d.j.i.*.w + u u p v v v v v v v v v ",
"v v v v v v v v p v v v s v b v d ~ w.j.f.r.f.s.d.k.k.k.k.k.k.k.k.k.k.k.k.k.k.k.k.k.k.k.k.k.k.k.k.k.k.k.k.k.k.f.d.k.k.k.f.r.k.p.*.3 o L s p v v x v v v v M v v ",
"v v v v v v v a x v v v p v c n f %.p.d.y.f.f.g.d.k.k.k.k.k.k.k.k.k.k.k.k.k.k.k.k.k.k.k.k.k.k.k.k.k.k.k.k.k.k.k.k.k.k.k.h.s.k.w.A = u p s a i v s v v v v v v v ",
"H v v v v v v v v v a v v x b v - %.i.d.s.f.s.k.k.k.d.j.g.k.k.k.k.k.k.f.k.k.k.k.k.k.k.k.k.k.k.f.k.k.k.k.k.k.k.f.d.d.j.d.s.f.j.4.< ; v M p s c v c v v v v v v v ",
"v H v v v v v v v v v v v v b s = ) q.j.d.f.j.f.f.d.j.j.p.3.j.d.k.k.k.k.k.k.k.k.k.k.k.k.k.f.s.f.f.k.k.k.k.k.k.f.d.j.j.j.g.a.p.#.X s v x s v v v v v v v v v v v ",
"v v v v v v v v c v v v M v v v d 8 +.q.p.j.p.p.j.p.i.0.Q ! p.d.s.h.k.k.k.k.k.k.k.k.k.k.k.k.h.j.f.f.k.k.k.f.f.f.k.f.f.k.g.j.i.] @ p v M v v n v v c v v v H v v ",
"v v v v s v v v v v v v v x b v s - 8 ^ +.>.5.6.6.;.{ S > E i.d.r.d.f.k.k.k.k.k.k.k.j.k.k.j.j.j.u.j.d.f.f.f.y.f.f.d.k.k.k.g.w.Z t s s l s b c v s v v v v v v v ",
"v v v c v v s v v v v s n n v a s s d @ 7 9 0 r 6 < = u h 6 >.i.t.f.f.s.k.f.k.k.k.k.j.k.k.j.p.p.p.p.j.j.f.f.f.d.f.k.k.j.p.i. .7 N v s s s c c x v v v v v v v H ",
"H v v v v v v v v v c v v v c s c c n v M l j j g d s K c o / 7.p.u.d.f.s.s.f.k.f.f.k.k.g.j.9.X.8.p.j.h.k.k.d.j.k.j.p.i.e.@.q f M c s u s v s v v v v v v v v v ",
"M v v v v v c v v v v v v v a s s c b c z b v v l u a K b s - / <.e.p.p.j.k.f.d.d.j.g.j.j.e.| , U =.w.p.j.p.p.p.i.i.w.;.E 6 f m b c v c s v v v c v v v v v v v ",
"v v v v v v v v v v s v c s s t p D c G c b b v l l s z n x k B q [ 1.w.i.p.p.p.i.i.i.e.5.` 6 V * < T  .+.&.:.:.O.[ ~ 8 - g s   . c b c v v x v v v v v v v v v ",
"v v v v v v v v v v v v v v s s s s a c a c c c s l s v x v m N f + 8 / { *.;.-.-.-.%.` 0 # u F F % # - - - V B - = d j l M v c b c c v v x v v v v v v v v H v ",
"v v v v v v v v v v v v v x v v v s a s s s v v c s v z v v x p M s j g = * 3 5 3 9 - @ d u a y y D a s M l s t s l s l M v v v v v v v v v v v v v v v v M v v ",
"v v v v v v v v v v v v v v v z c s p s s F D c v c c v v x x v z K v v s u u l t l l t s v v b v c x x M v i p x v v v v v v v v v v v v v v v v v v H v v H n ",
"v v v v v v v H v v v v v v v v c s a v s s a v v v z v s p v v c z b v p v v x v v a c v b v z v v v v x b v v v v z v v v c v v v v v v v v v v v v v v H M v ",
"v v v v v v v v v v v s v x c v v s v s s v v c a v v v v v v v a s s s v v v v v c v c b v v v c v c v x v n b b v v z v v v v v v s v v v v v v v v v v v v v ",
"v v v v v v v v v v v v v v v x v v s v v a v v v v v v c v v v v v v v v v v v v v s x p v v v D D a s v v v z x v v v v s v c v v v H v v v H v H v v v v v v ",
"v v H v v v v v v v v v v c v v p c v c v s c v p v v s x v v v v v b x c v c c v v v v x v v v v s c s x l v v v v v v v v v v v v v v n v M v v v v v v v H v ",
"v v v v H M n H v v v v v v v v s v v v v x v v v v v v v v v p v v v v v v v s s s v v v v v x n v x v v x v v v v v v v v v v v v v v v v v v v v M v H v v v ",
"M H v v v v v v v H n v v v v v v v v v v v v v v v v v c v v v s s v v v v v v s x v b v v v v v x x v v v x v v v v v c v s v v v v v H v v v H v v v n v v H ",
"v v v v v H v v v v M H v v v v p v v c v v v v v v x c s c c v s v c v b c v x v x s s a D c s v v v v v v v v v c v v v v v c v v v v v v H v v v H v v v v M ",
"v v H v v v v v v v v v v v v v c v x v v v v v v v v v v v v v v v v v x v v v v v v v s v v c v v v v v v v v v v v v v v v v v v v v v v v v v v v v v H v v ",
"v v v v v H v v H v v v v v v v v v v v v v v H v v v v v v v v v v v v v v v v v v v v v v v v v v v v v v v v v v v v v v v v v v v v H v v v v v v v H v v v ",
"v v H n v M v v v v v v v v v v v v v v v v v v v v v v v v v v v v v v v v v v v v v v v v v s v v v v v b v v v v v v v v v H M H v v v v L v n L v v v v M v ",
"v v H M v v v v v v H M v n H v v v v v v v v v v v v v v v v v M v v v v v v v v v v v v v v v v v v v v v v v v v H v v v v v v v v v v v v v v v v H v v v H ",
"v H v v v v v H v v v v v H v v v v v v v v v v v v v v v v v v H v v v v H v v v v v v v v v v v v v v v v v v v v v v v v v v v H v H v v n v v v v v v v n v ",
"v v v H v v v H v n L v v v v v v v v H v v M v v v v v H v v n v v L v v v v v v x a v v v v v v v v v v v v v v v v v v v M v v v v v M H v v v v v n v v v v ",
"M v v v v v v v v v v v v v v v v v v v v H n v v v v v v v v L v v n v v v v v v v v v v v v H v v v v v v v v v v v H v v H v v v v H v v v v H v H v v M H v ",
"v v v v v H v H v v v v v L v H H M v v v v v v H v v v v v v v v v v v v v v v v v v v v v v v v v v v H v v v n H v v v v v v v v v n v v v v H v M v v H v v ",
"v H v v v M v v H v v v n v v v v v v v v v v H v v v v v v v v H v v v H v v v v v v v v v v v v v v v v v v v v M v v v H v v v v H M v H v v v v v v v v v v ",
"v M v v L v v v v v v v v v v v v H v v v v v v v v n H v v v v v M v v H v v v v v v v v v M v H v H v v v v v v v v v v H v v v v v v H v v v v v v v v v v H ",
"n H v v v v v v v v v H H v v v v v v v v H v v H v v M v v H v v v H v v v v v v v v v v v H v v v v v v v v L H v v v v v H n v H v v v v v H v v v H H n v v ",
"v v H v v v v v v M v v v v M v n M v v v v H v v v v v H v v v v H v H M v v H v v v v H v v v v v H M v v v n v v v M v v H M v v v v v v v v v v v v v v M v ",
"v v v v n v H v n H v v v v v H H v v H v v M v v v v v v v v v v n v v v v v v v H v v v v v v v v v v H v v v v v v H v v v v v v H M n H M v H v M v v v H v "
};
