/* XPM */
static char *result[] = {
/* columns rows colors chars-per-pixel */
"80 80 218 2 ",
"   c #9CD47F",
".  c #A2DC7C",
"X  c #AAE57B",
"o  c #B8E877",
"O  c #B6E37F",
"+  c #B6ED7A",
"@  c #DBF35B",
"#  c #F8EE5A",
"$  c #E4F25F",
"%  c #F2F25E",
"&  c #C8EA68",
"*  c #CCEE6E",
"=  c #DBED6C",
"-  c #CDF269",
";  c #D3F465",
":  c #D9F168",
">  c #DBF26A",
",  c #CDEA75",
"<  c #C2EB78",
"1  c #CAEC7A",
"2  c #D7EB77",
"3  c #C2F275",
"4  c #D4F272",
"5  c #DCF173",
"6  c #D8F47B",
"7  c #E6ED65",
"8  c #F6EF6E",
"9  c #E4F263",
"0  c #ECF566",
"q  c #E5F56C",
"w  c #EDF56C",
"e  c #E8F86A",
"r  c #F1F366",
"t  c #F5F66B",
"y  c #F9F66B",
"u  c #F5FA6F",
"i  c #E3EE71",
"p  c #F0ED77",
"a  c #EDF375",
"s  c #F4F473",
"d  c #FAF672",
"f  c #F2FC72",
"g  c #FAFC75",
"h  c #F2F478",
"j  c #FCF27D",
"k  c #F4FB7D",
"l  c #FDFC7C",
"z  c #6BB69B",
"x  c #6DBB9D",
"c  c #73BA9B",
"v  c #58B6AC",
"b  c #57B5B4",
"n  c #5CB4B6",
"m  c #5ABEB4",
"M  c #5BB4BB",
"N  c #54BABC",
"B  c #5ABABD",
"V  c #65B8A7",
"C  c #6BBAA4",
"Z  c #72BEA4",
"A  c #77BCA6",
"S  c #62B4B4",
"D  c #6CBAB2",
"F  c #64B6BE",
"G  c #69BCBA",
"H  c #71BEB1",
"J  c #74C783",
"K  c #7BC48D",
"L  c #6ECA94",
"P  c #72C59A",
"I  c #78C399",
"U  c #5BC3AC",
"Y  c #59C4B7",
"T  c #67C2AB",
"R  c #73C2A5",
"E  c #75C4A9",
"W  c #6CC7B8",
"Q  c #7AC9B9",
"!  c #7EDAB6",
"~  c #3CBEEC",
"^  c #3FB3F5",
"/  c #3EB9F2",
"(  c #49AFC7",
")  c #59AEC6",
"_  c #4DB8CD",
"`  c #56B5C5",
"'  c #5CB5C3",
"]  c #54BAC4",
"[  c #5CB9C4",
"{  c #54B4CD",
"}  c #5CB5CC",
"|  c #54BBCD",
" . c #5DBBC9",
".. c #4CB7D3",
"X. c #4CBAD4",
"o. c #46B8DB",
"O. c #4DBCDE",
"+. c #53B4D6",
"@. c #59B6D4",
"#. c #53BAD5",
"$. c #5AB9D5",
"%. c #55B5DC",
"&. c #5AB6DF",
"*. c #54BADC",
"=. c #5ABBDD",
"-. c #64B9C4",
";. c #6ABFD2",
":. c #64BBDA",
">. c #46B5E2",
",. c #4CB5E4",
"<. c #45BCE6",
"1. c #4CBDE4",
"2. c #44B6EC",
"3. c #4CB6ED",
"4. c #45BDEC",
"5. c #4BBCEC",
"6. c #53B6E3",
"7. c #59B6E4",
"8. c #53BBE4",
"9. c #5ABAE3",
"0. c #53B6EC",
"q. c #52BBEB",
"w. c #5BB9ED",
"e. c #42B6F2",
"r. c #4CB6F3",
"t. c #45BDF3",
"y. c #4BBDF3",
"u. c #44B7F9",
"i. c #4DB5FC",
"p. c #46BCFA",
"a. c #4BBAFA",
"s. c #53B5F3",
"d. c #51BAF3",
"f. c #54B4FB",
"g. c #51BAFA",
"h. c #3CC0ED",
"j. c #3AC7F3",
"k. c #4DC0CC",
"l. c #50C1CE",
"z. c #49C1DA",
"x. c #55C3DB",
"c. c #67C5C4",
"v. c #6AC1CE",
"b. c #74CFC6",
"n. c #76CECD",
"m. c #69D1C0",
"M. c #68C4D6",
"N. c #71CDD2",
"B. c #7ACBD9",
"V. c #7BD4DD",
"C. c #44C1E5",
"Z. c #4DC1E6",
"A. c #45C1EC",
"S. c #49C0EC",
"D. c #44C1F2",
"F. c #4AC0F4",
"G. c #47C0F9",
"H. c #73D0E7",
"J. c #82BFA1",
"K. c #88C789",
"L. c #9BD787",
"P. c #85C897",
"I. c #8ECF96",
"U. c #95CB98",
"Y. c #8DD899",
"T. c #94D297",
"R. c #9BD290",
"E. c #A1DF85",
"W. c #AADF82",
"Q. c #A7D989",
"!. c #A8DC94",
"~. c #B3D698",
"^. c #A8E886",
"/. c #B2E683",
"(. c #B6E787",
"). c #BCE589",
"_. c #81C1A2",
"`. c #8ADEAD",
"'. c #86CABD",
"]. c #87D7B9",
"[. c #84D3BC",
"{. c #A3DFBA",
"}. c #9BEAA9",
"|. c #8AE0BC",
" X c #98EBB7",
".X c #9AF1B0",
"XX c #A4EBB2",
"oX c #C3E789",
"OX c #D4E487",
"+X c #CBF483",
"@X c #CEE198",
"#X c #FBF685",
"$X c #FCFB82",
"%X c #FCF68A",
"&X c #F5FA88",
"*X c #FCFB8C",
"=X c #FAEF9D",
"-X c #EEFF99",
";X c #FCF594",
":X c #F6FC94",
">X c #FCFA95",
",X c #FEF69C",
"<X c #F4FC9D",
"1X c #FBFA9B",
"2X c #FEF6A2",
"3X c #F5FBA3",
"4X c #FAF9A1",
"5X c #FBF7A9",
"6X c #F9FAA9",
"7X c #89E7CC",
"8X c #99E9CD",
"9X c #8FE8D0",
"0X c #97EED4",
"qX c #9BF1DB",
"wX c #A3EECE",
"eX c #A9F1C7",
"rX c #A0E5D3",
"tX c #94EAE7",
/* pixels */
"y.y.y.y.y.F.y.y.y.y.y.y.y.F.y.y.y.F.y.y.y.y.y.F.y.y.y.y.y.y.y.y.y.y.y.y.y.y.y.y.y.y.y.F.y.y.y.y.y.y.F.d.y.y.y.y.y.y.y.y.F.y.y.y.d.F.y.y.y.y.y.y.y.d.F.y.y.F.d.y.",
"y.y.y.y.F.d.y.y.d.F.F.y.y.d.y.F.y.y.y.y.y.F.y.y.y.y.y.F.y.y.y.y.y.y.y.y.F.y.y.y.y.y.y.y.y.y.F.y.y.y.y.F.y.y.y.y.y.y.y.y.y.y.F.y.F.y.y.y.y.F.y.y.y.F.y.y.y.y.F.y.",
"y.y.y.y.y.y.F.y.F.y.y.y.y.y.y.y.y.y.3.y.y.y.y.y.y.y.y.y.t.y.t.y.y.5.y.y.y.5.F.y.y.S.y.y.y.y.y.y.y.y.y.y.y.y.y.y.y.y.y.y.y.y.d.F.y.y.F.y.y.d.F.F.d.y.y.y.y.y.y.y.",
"y.y.y.F.y.y.y.y.y.y.y.y.y.y.y.y.y.y.y.y.y.y.y.y.y.y.y.y.y.y.3.y.y.y.t.5.y.y.y.5.y.5.5.y.y.F.y.y.y.y.y.y.y.y.y.y.y.y.y.y.y.y.y.y.y.y.y.y.y.y.y.y.F.y.y.F.F.d.F.y.",
"y.F.y.y.y.F.y.y.y.y.y.t.y.y.y.y.y.t.3.y.y.y.y.y.y.y.y.y.5.y.y.y.t.y.t.y.y.y.t.5.3.t.y.3.y.y.y.y.y.y.y.y.r.y.y.y.y.y.y.y.y.y.y.y.y.y.y.y.y.y.F.y.y.y.y.y.y.y.y.y.",
"d.y.y.y.F.d.y.F.y.y.y.5.y.y.y.y.y.y.y.t.y.y.5.y.y.y.y.y.y.5.y.2.3.y.y.y.t.y.t.y.y.y.y.y.y.y.y.y.y.y.t.5.t.5.y.y.y.y.y.y.y.y.y.y.y.y.y.y.y.F.d.y.F.y.y.F.F.y.y.F.",
"F.y.y.y.y.y.y.d.y.y.y.y.y.y.y.y.t.y.5.y.y.y.y.y.y.y.y.y.y.y.y.y.y.y.y.y.y.t.y.y.y.e.y.y.y.y.y.y.y.y.y.y.y.y.y.y.y.y.y.y.t.5.y.y.y.y.F.d.y.y.y.y.y.y.y.d.y.y.y.y.",
"y.y.y.F.y.y.y.F.y.y.y.y.y.y.y.y.y.y.y.y.y.y.y.y.y.y.y.y.t.y.y.y.y.5.d.,.5.3.y.3.y.t.3.y.y.e.y.y.5.y.y.y.y.y.5.t.5.y.y.y.y.y.y.y.y.y.y.y.F.y.y.y.y.y.y.F.d.F.y.y.",
"y.F.y.y.y.y.y.y.y.y.y.y.y.y.y.y.y.y.y.y.y.y.y.F.y.y.y.y.y.t.y.3.3.<.,.q.1.,.y.y.y.F.y.y.y.y.y.y.5.y.y.y.t.5.3.t.e.y.y.y.y.5.t.y.t.y.y.y.y.y.y.F.d.F.y.y.y.F.y.y.",
"y.d.F.y.y.y.F.y.y.y.y.y.y.y.5.y.y.y.t.y.3.y.d.y.3.4.y.r.3.5.y.y.5.*.M.H.*.1.8.<.5.5.y.y.y.y.y.r.y.y.r.5.3.y.y.y.3.y.y.y.y.y.y.y.y.y.y.y.y.y.y.y.F.y.y.y.y.y.y.y.",
"y.y.y.y.y.d.y.y.y.y.F.y.y.5.5.y.y.a.t.y.5.r.d.y.t.A.y.y.5.<.y.y.8. .[.0X .1.1.,.5.t.y.i.r.y.y.y.r.y.r.q.5.y.y.y.y.y.y.y.y.y.y.t.y.3.y.y.y.y.F.y.y.y.F.y.y.y.d.F.",
"y.y.y.F.y.F.y.F.y.y.y.y.y.y.y.y.a.i.y.s.r.a.y.2.e.t.y.y.4.4.4.4.l.n `. X' 5.5.y.5.y.u.u.y.i.y.y.y.i.g.5.y.y.y.y.t.y.y.y.3.y.t.3.y.y.y.y.y.y.y.y.y.y.y.y.F.d.F.y.",
"F.y.d.F.y.y.y.y.y.y.y.y.y.y.y.p.p.y.0.7.*.Z.z.C.d.f.g.t.t.G.p.y.k.U .X`.N ,.3.3.5.t.y.y.a.t.y.a.a.p.y.y.y.y.y.y.y.F.y.y.y.y.y.3.y.y.y.y.F.y.y.y.y.y.y.d.y.y.y.y.",
"y.y.y.y.F.y.y.y.y.y.y.y.y.y.r.t.t.1.@.;.9XT Y _ 8.s.r.y.y.d.r.d.#.c.8X'.` 5.y.2.<.<.y.3.3.<.4.t.t.i.i.r.y.y.r.4.y.y.y.y.t.y.y.4.y.y.y.y.y.y.y.F.y.F.y.F.F.F.y.y.",
"y.y.F.y.y.y.y.y.y.y.y.3.y.y.y.t.h.A.$.c.8X.XL v 1.y.y.y.<.8.9.q.,.:.V.;.$.S.t.t.S.S.3.<.S.4.<.A.t.t.t.t.y.y.y.y.y.y.y.y.y.y.y.t.y.y.y.y.y.y.F.d.y.y.y.y.y.d.y.F.",
"y.y.y.y.y.y.y.y.y.y.y.y.y.t.y.D.t.~ Z.] C XX}.R +.t.t.<.O._ N N ] ` -.' | X.<.<.p.g.a.y.y.<.5.3.r.r.t.y.y.y.y.y.y.y.y.y.y.y.y.y.y.y.y.y.y.y.y.y.y.y.F.y.y.y.y.y.",
"F.d.y.y.y.F.y.y.y.y.y.t.y.3.4.F.G./ F.8.M H eX].) 8.@.F D J.P.Y.Y.T.U.I z D  .7.s.f.i.g.a.d.5.,.q.5.y.y.y.y.y.y.5.t.y.y.y.y.y.y.y.y.y.y.y.y.F.y.y.y.y.F.d.F.y.y.",
"y.F.y.F.y.y.y.y.y.y.y.5.y.t.4.y.a.a.p.5.q.{ N.Q v A P.~.@XOX2 2 > ; > , oXQ._.-.&.3.y.y.0.8.*.%.9.q.3.y.2.y.y.y.y.r.y.y.y.y.y.y.y.y.y.y.y.y.d.F.y.y.y.y.y.F.y.y.",
"y.y.F.d.y.y.y.y.y.y.e.y.3.y.t.3.5.0.y.~ h.~ o.v c . 1 5 i s d y t t f t $ i oXY.V ] Z.1.X...:.M.$.8.,.y.y.y.y.y.y.y.y.t.y.y.y.y.d.F.y.y.y.y.y.y.F.y.y.d.y.y.y.F.",
"y.y.y.y.5.5.5.5.y.y.y.y.y.5.5.1.5.g.r.D.j.A.k.L + ; w f k $X#X$Xl *X*Xl g r 5 1   z ] #.m.! qXtXM.*.,.t.t.y.3.y.y.y.r.3.y.5.y.y.y.y.y.F.F.y.y.y.y.y.y.F.y.y.y.d.",
"y.y.y.y.y.5.5.5.y.t.a.a.y.r.5.5.<.g.y.D.A.] R ^.; 0 $X>X*X>X1X>X*X*X*X*X$X*Xk q * K.M | 7X X].W -.8.d.G.D.3.5.y.g.y.y.y.y.5.y.y.y.y.y.y.y.y.y.F.y.y.y.F.y.y.y.F.",
"y.y.F.y.y.t.y.y.y.y.t.t.t.y.y.y.q.q.,.5.#.x Q.6 q %X;X*X:X:X>X>X>X:X>X*X*X&X$Xf - Q.V #.l.G F ) =.d.i.a.D.y.y.y.y.y.y.y.y.y.y.y.y.y.y.y.y.y.y.y.y.y.y.y.d.y.y.y.",
"y.y.y.y.y.p.r.g.y.y.4.4.4.4.t.y.y.0.4.<.@.U.2 0 $X=X,X>X:X:X>X4X1X1X>X>X>X;X$Xg : +XP ( 6.9.9.q.g.u.i.y.5.3.t.5.y.y.y.3.y.y.y.y.y.y.y.y.F.d.y.y.y.F.y.y.F.y.F.y.",
"y.F.y.y.t.3.y.,.1.1.5.4.t.5.,.0.f.a.4.o.` !.i y #X3X6X<X>X>X,X4X,X>X>X,X1X,X*X$Xw - I.| 0.s.y.g.r.i.f.r.5.y.y.t.t.3.y.y.t.3.y.y.y.y.y.y.y.F.y.y.F.d.y.y.y.y.y.y.",
"d.y.y.y.3.5.5.8.Z.<.5.g.g.6...@.7.w.<.z.T /.7 l &X3X3X<X>X1X,X,X1X1X>X,X6X>X;X%Xs > L.] <.a.t.p.p.a.y.0.r.y.y.t.y.t.t.5.y.4.y.y.y.y.y.y.y.y.y.y.y.y.y.y.y.y.F.d.",
"F.y.F.y.5.d.y.5.4.y.y.s.7.M.b.E C B ..X.C , % $X:X-X<X<X>X1X,X1X>X1X1X4X4X1X,X,X#X> E.B Z.S.D.4.F.<.<.d.r.y.t.y.y.3.y.4.5.t.y.y.5.y.y.y.y.y.F.y.y.y.y.y.y.y.y.F.",
"F.y.y.y.y.i.i.a.y.p.a.a.6.M.9X.X.X|.v.} c : # $X>X:X<X1X>X,X1X>X:X>X1X1X<X1X;X,X#X= E.B 8.A.A.A.S.C.<.y.a.y.y.r.y.y.3.y.y.y.y.y.y.y.y.y.y.y.y.y.y.F.y.y.F.d.y.y.",
"d.y.y.y.y.g.g.y.3.5.p.a.y.*.c.W ! 0XV.) _.* % $X1X1X<X1X1X>X>X:X>X1X1X1X1X1X*X>Xs = Q.' Z.5.t.4.<.S.4.y.i.a.y.r.y.5.3.5.3.y.t.5.t.3.y.y.y.F.y.y.y.y.y.y.y.F.y.y.",
"F.y.y.y.y.d.g.5.C.C.4.t.t.4...| ]  .$.-.A < e k 1X,X4X1X1X>X>X1X>X,X4X1X3X<X*X#Xr ; R.} q.t.p.y.y.t.t.t.i.y.y.y.y.3.<.3.y.5.y.y.3.y.y.t.y.y.y.y.y.y.y.y.y.y.y.y.",
"y.y.y.y.y.y.y.5.y.5.4.t.t.t.S.1.1.*.8.$.C (.> $X&X>X4X,X>X>X1X1X1X4X5X6X3X1X%Xg 9 * K.{ 3.a.^ t.D.j.h.G.y.y.y.y.t.y.y.y.y.y.y.y.y.y.y.y.y.y.F.y.y.y.d.F.y.y.F.y.",
"y.F.d.y.y.y.y.y.y.y.y.3.3.y.3.4.y.y.0.6.S R.6 k *X>X1X1X>X>X,X,X>X:X,X1X1X1X%Xy 7 /.C *.%.#.*.,.2.A.h.2.y.3.3.t.y.t.y.y.y.y.r.y.y.y.y.y.y.y.y.y.y.y.F.y.d.F.y.y.",
"y.y.F.y.y.y.y.y.y.y.y.y.t.y.5.y.a.g.a.s.| I.+Xe *X;X;X;X1X1X;X>X*X*X*X*X:X>X%X8 6 T.[ 3.M.Q H -...<.S.4.y.3.y.y.y.3.y.t.y.y.3.y.y.y.y.y.y.y.y.y.y.y.y.y.y.F.y.y.",
"y.y.y.y.y.y.y.y.y.y.y.y.y.5.,.y.y.i.y.y.O.R O : l ;X,X4X4X1X>X>X>X;X>X&X:X*Xl a ).C #.1.V.wX{.'.;.6.y.i.r.y.r.y.3.t.y.3.y.y.y.y.y.y.y.y.y.y.y.y.y.y.y.y.y.F.d.y.",
"y.y.y.y.y.y.y.y.y.y.y.y.y.y.y.y.y.y.t.5.Z.B K.- 9 #X,X>X<X-X-X<X3X1X<X4X1X$Xw 6 T.` >.1.[ Q {.rXB.%.a.a.r.y.5.y.y.y.t.y.y.y.y.y.y.y.y.y.y.y.y.y.y.y.y.y.y.y.F.y.",
"y.y.y.y.t.2.y.5.4.y.y.3.y.y.y.r.r.y.<.<.<.&.V . ; q $X*X&X-X<X<X<X3X4X2X>Xh ; X P *.d.1.#.[ S -.M.q.t.p.y.y.y.y.t.y.t.y.y.y.r.5.y.y.y.y.5.2.y.2.y.y.y.y.y.y.y.y.",
"y.y.y.y.y.y.y.y.y.y.y.y.y.y.y.a.t.3.y.5.g.s.:.c W.* $ d k %X;X;X;X&X&X%Xp i + J B q.a.,.C.1.*.$.*.4.h.4.5.r.y.y.y.y.y.y.5.y.t.t.y.y.y.y.t.y.y.y.y.y.y.y.y.F.y.F.",
"y.y.F.y.y.y.y.y.y.y.y.y.y.y.y.p.t.t.g.3.9.6.9.-.c W.& @ r d j j h g u 9 4 O K Y O.a.g.3.y.t.y.y.3.D.D.<.<.y.r.5.y.y.t.y.y.y.y.y.y.y.2.y.F.y.y.y.y.y.y.y.y.y.y.d.",
"y.y.y.y.y.y.y.y.y.y.y.y.y.5.3.D.D.y.s.w.l.N $.=.' c   o 4 i r r r q - 3 E.I b O.t.a.d.q.5.p.y.t.^ t.t.y.0.y.y.y.y.t.y.y.r.y.y.3.y.y.y.y.y.y.y.y.y.y.y.y.y.y.y.y.",
"y.y.y.y.y.F.y.y.y.y.y.5.y.5.Z.A.4.5.7.) W 9Xm._ q.$.n z U.(.< 1 1 ).!.P.V ` w./ t.y.8.8.5.y.y.y.t.a.a.a.y.y.y.y.y.t.y.y.y.y.y.5.y.y.y.y.y.y.y.y.y.y.y.y.F.y.y.F.",
"y.y.y.y.y.y.y.y.y.y.y.t.y.y.<.4.5.8.' Q 0X9XY x.4.3.Z.#.' V c I Z D S n ' ,.r.t.t.5.Z.1.<.y.u.t.y.p.a.i.a.y.y.y.y.y.y.y.y.y.y.t.y.t.5.y.y.5.y.y.y.y.y.y.y.y.y.y.",
"y.y.F.y.y.y.y.y.y.y.y.y.y.y.a.u.y.X.b qX8XG | o.D.D.D.5.q.*.$.#.*.@. .c.N.$.2.p.y.,.Z.5.3.t.a.y.3.y.i.y.y.y.y.y.y.y.y.y.y.y.y.y.y.y.t.t.y.y.y.F.d.y.y.F.y.y.y.F.",
"y.y.y.y.y.y.F.y.y.F.y.y.y.y.y.t.y.8.` n.G [ x.<.y.y.y.r.y.y.4.y.y.6.-.9X7X .8.p.p.<.1.5.y.i.y.t.t.t.y.y.y.y.y.y.y.y.y.y.y.y.y.y.y.y.3.y.y.y.y.y.F.y.y.y.y.y.y.F.",
"y.d.F.y.y.y.d.F.y.y.y.y.y.y.5.t.t.d.9.{ } *.o.d.y.d.d.r.a.y.e.u.p.,.B |. XV %.y.y.A.5.5.r.i.y.y.y.A.5.S.5.y.3.y.y.y.y.y.y.y.y.y.y.3.y.y.y.y.y.y.y.y.y.y.F.d.y.d.",
"F.y.y.y.y.y.y.y.y.y.y.y.y.y.y.t.t.e.5.8.8.<.y.G.t.3.r.a.y.t.D.p.p.q.m `. XV $.a./ S.5.d.y.r.y.y.y.y.t.3.t.y.y.y.y.y.y.y.y.y.y.y.y.y.y.y.y.y.y.y.y.F.y.y.y.F.y.y.",
"F.d.y.y.F.y.y.y.y.y.y.y.y.y.y.t.p.t.4.S.4.t.G.p.A.S.y.y.4.C.A.G.u.d.B [.8XF 9.y.t.D.5.r.y.5.y.y.t.t.y.y.y.y.y.y.y.y.y.y.y.y.y.y.y.y.F.y.y.y.y.F.y.y.y.F.y.y.y.y.",
"y.F.y.y.d.F.y.y.y.y.y.y.y.y.t.y.y.y.t.D.G.t.a.t.S.5.y.y.4.z.z.C.t.s.+.M.B.:.s.r.t.t.y.r.5.,.<.y.y.y.y.y.y.y.y.y.y.F.d.F.y.y.y.y.y.y.y.y.F.y.y.d.y.y.F.d.y.y.F.y.",
"y.y.y.y.d.y.y.F.y.y.y.y.y.y.y.y.y.y.D.t.D.t.a.3.<.y.y.y.y.<.C.<.t.a.3.7.%.w.r.u.y.y.y.y.y.5.5.y.t.y.y.y.y.y.y.a.y.F.y.y.y.F.y.y.y.y.F.y.y.y.y.y.y.y.y.y.d.F.y.y.",
"y.y.F.y.F.y.y.y.y.y.y.y.y.t.3.y.y.y.t.t.t.5.w.5.S.4.t.y.y.y.1.>.t.D.y.5.,.r.e.r.y.y.g.i.y.5.1.y.y.y.3.r.y.y.y.y.y.y.y.y.y.y.y.y.y.F.d.y.y.y.y.F.y.y.y.y.y.F.y.y.",
"y.y.y.d.y.F.y.y.a.F.y.d.y.y.y.y.g.y.y.y.y.3.0.,.y.y.4.y.y.r.,.5.y.D.4.4.4.e.2.y.y.s.r.y.y.5.t.y.y.y.5.y.y.y.y.y.y.y.y.y.F.y.y.y.y.y.y.y.y.y.y.y.y.y.y.y.y.F.d.y.",
"F.y.y.F.y.y.y.y.F.d.y.y.y.y.y.y.y.y.r.y.r.y.r.y.y.y.3.t.y.t.y.y.y.D.e.t.F.5.y.y.y.y.y.y.y.y.y.y.y.y.y.y.y.F.y.y.y.y.y.y.y.y.y.y.y.y.y.y.y.y.y.y.y.y.y.y.y.y.F.y.",
"y.y.y.y.y.y.F.y.y.y.y.y.y.y.d.y.y.d.y.y.y.y.r.y.3.y.y.y.y.5.t.y.y.y.4.t.y.t.t.y.y.r.y.y.y.y.y.y.y.y.y.y.y.y.y.y.y.F.d.y.y.y.y.y.y.y.y.y.y.y.y.y.y.y.y.y.y.y.y.y.",
"y.y.y.F.y.F.d.y.F.y.y.y.3.y.r.y.y.d.y.d.y.y.y.y.y.y.t.y.t.3.y.y.y.t.t.y.t.y.y.t.y.3.y.y.y.y.y.y.y.y.y.y.y.F.d.y.y.y.F.y.y.y.y.y.y.y.y.y.y.y.y.y.y.y.y.y.y.F.y.F.",
"y.F.y.y.y.y.y.y.y.y.y.y.y.y.y.y.y.y.y.y.y.y.y.y.y.t.y.y.y.y.y.5.y.y.t.y.y.5.t.y.y.y.y.y.y.y.y.y.y.y.y.y.y.y.y.y.y.y.y.y.5.y.y.y.y.y.5.y.y.y.y.F.y.y.y.y.y.y.y.d.",
"F.d.F.d.y.F.y.y.y.y.y.y.y.y.y.y.y.y.y.y.y.y.y.y.y.y.y.y.y.y.y.y.3.y.t.3.y.t.y.y.y.t.y.y.y.t.y.y.y.y.y.y.y.F.y.y.F.y.y.y.y.y.y.y.y.y.y.t.y.y.F.d.y.y.y.y.y.y.y.y.",
"y.y.y.y.y.y.y.F.y.F.y.y.y.y.y.y.y.y.y.y.y.y.y.y.y.y.5.y.t.t.3.t.t.5.y.y.y.y.y.y.y.t.t.y.y.y.y.y.F.y.y.F.y.F.y.F.y.y.y.y.y.y.y.y.y.y.y.y.y.y.y.y.y.y.y.y.F.y.y.F.",
"y.y.y.F.y.y.F.d.d.y.F.y.y.y.y.y.y.y.y.y.y.y.y.y.F.y.y.y.y.3.y.y.y.y.y.y.y.y.y.y.F.y.y.y.y.y.y.y.y.y.y.y.y.d.y.y.y.y.y.y.y.y.y.y.y.y.y.y.y.y.y.y.F.y.y.y.y.y.y.y.",
"y.y.y.y.y.y.y.y.y.y.F.y.y.y.y.5.y.y.y.y.y.y.F.y.y.y.y.y.y.y.y.y.y.y.y.y.y.y.y.y.y.y.5.y.y.y.y.y.y.y.d.F.y.F.y.F.y.y.y.y.y.d.F.y.y.y.y.F.y.y.y.F.y.y.F.d.y.y.y.y.",
"y.y.y.y.y.y.y.y.y.F.y.y.y.y.5.y.y.5.y.5.y.S.5.5.y.y.y.F.y.y.y.y.y.y.t.y.y.y.y.y.y.y.y.y.y.y.y.y.y.y.F.y.y.d.y.y.y.F.y.y.y.F.y.y.y.y.F.d.y.y.y.y.y.y.y.y.F.y.y.F.",
"y.y.y.y.y.y.y.y.y.y.y.3.y.t.y.t.3.t.y.y.y.y.y.y.y.F.F.d.y.y.y.F.y.y.y.y.y.y.y.y.y.y.y.y.r.y.y.y.y.F.y.y.y.y.y.y.y.y.y.F.y.F.y.y.F.y.y.F.y.d.F.y.F.y.y.F.d.F.y.y.",
"y.y.y.y.t.5.y.y.y.y.y.y.t.5.y.y.y.y.y.y.y.y.y.y.y.y.y.y.y.y.y.y.y.y.y.y.y.y.y.y.t.3.t.y.y.y.y.y.d.y.y.y.y.F.y.y.d.F.y.y.y.d.F.y.y.y.y.d.y.F.y.y.y.y.y.y.y.y.y.y.",
"y.y.y.y.y.y.y.y.3.y.y.y.y.t.y.3.y.y.5.y.y.y.F.y.d.y.y.y.y.y.F.y.y.y.y.y.y.y.y.y.t.y.y.y.y.y.y.y.y.y.y.y.y.y.F.y.y.y.y.F.y.y.F.y.y.y.y.y.F.d.y.F.y.F.y.F.y.F.y.F.",
"y.y.y.y.2.y.y.y.t.y.y.y.3.y.y.t.y.y.y.y.y.F.d.y.F.y.y.F.y.y.y.y.y.y.y.y.y.y.y.y.5.y.y.y.y.y.y.y.F.y.y.y.y.y.d.F.y.y.y.d.y.y.y.y.y.y.F.y.y.y.y.y.y.d.y.y.y.y.y.d.",
"y.y.y.F.5.t.y.y.y.5.y.t.y.t.y.3.y.y.y.y.y.y.y.y.d.F.y.y.y.y.y.y.y.y.y.y.y.y.y.y.3.t.t.y.y.y.y.y.y.y.y.y.y.y.F.d.F.y.y.F.y.y.y.y.d.F.y.y.y.y.y.y.F.d.y.y.y.y.F.y.",
"y.y.y.y.y.y.y.y.y.t.y.5.y.y.y.y.y.F.y.y.y.y.y.y.F.y.y.y.F.y.y.y.y.F.y.y.y.y.y.y.y.y.y.y.5.y.y.y.y.y.y.y.F.y.y.y.y.y.y.y.y.F.F.d.F.y.y.y.y.F.y.y.y.F.y.y.y.F.d.y.",
"F.d.y.y.y.y.y.F.y.y.F.y.y.y.y.y.y.d.F.y.y.y.F.y.y.y.y.y.y.y.F.d.y.y.F.y.y.y.y.F.y.y.y.y.y.y.y.y.5.t.y.y.y.y.y.y.y.y.F.F.y.y.y.y.F.y.y.F.d.y.y.y.y.y.y.y.y.y.y.y.",
"y.F.y.y.y.y.y.y.y.y.y.y.y.y.y.y.y.F.y.y.y.y.d.F.y.y.F.y.y.y.y.F.y.y.d.F.y.y.y.y.y.y.y.y.y.y.y.y.t.y.y.y.y.y.y.y.y.y.y.d.y.y.F.d.y.y.y.y.F.y.y.y.y.y.y.y.y.y.y.y.",
"y.y.y.F.F.y.y.y.F.d.y.y.y.y.y.y.y.F.y.y.y.y.F.d.y.y.g.y.d.y.y.y.y.y.d.y.F.y.y.y.y.y.y.y.y.y.y.y.3.3.y.t.F.y.y.y.F.y.y.y.y.y.y.F.y.F.F.y.y.y.y.y.y.y.y.y.F.y.y.F.",
"y.y.F.d.d.y.y.y.y.y.y.y.y.y.F.y.y.d.F.y.F.y.y.y.F.y.F.y.F.F.y.y.F.y.F.y.y.y.d.F.d.F.y.y.y.y.y.y.t.y.y.y.y.y.y.y.d.F.y.y.F.y.y.a.y.d.y.y.y.y.y.y.y.y.y.t.y.y.y.y.",
"y.F.y.y.F.y.y.y.d.F.y.F.y.y.y.y.y.y.y.y.y.y.y.y.y.y.d.F.y.y.y.F.y.y.F.y.F.y.y.y.F.y.F.y.y.y.y.y.y.y.t.y.y.y.y.y.y.y.y.y.y.y.y.y.y.F.y.y.F.y.y.y.5.y.y.y.y.y.y.y.",
"y.d.F.y.y.y.F.y.y.y.y.y.y.y.F.y.F.y.y.F.F.y.y.F.y.y.F.y.y.y.y.y.y.y.y.y.d.y.y.y.y.y.d.F.y.y.y.y.y.y.y.y.y.y.y.y.y.F.F.y.F.y.y.F.y.y.y.y.y.y.y.y.t.3.y.y.F.y.y.F.",
"y.y.y.y.y.y.y.d.F.y.y.y.y.y.d.F.y.y.y.d.d.y.y.y.y.y.y.y.F.y.y.y.F.y.y.y.F.y.y.F.y.y.y.y.y.y.y.y.y.5.y.y.y.y.y.y.y.d.y.y.d.F.y.y.y.y.F.y.y.y.y.y.t.y.y.y.y.d.y.y.",
"y.y.y.F.y.y.y.F.y.y.y.F.d.F.y.y.y.y.y.F.F.y.y.y.y.F.y.y.y.F.d.y.d.y.F.y.y.y.y.y.F.y.y.y.y.y.y.y.5.y.y.3.y.y.y.y.y.F.y.y.y.y.F.d.y.y.y.y.y.y.y.3.3.y.y.y.F.y.y.y.",
"F.y.y.y.y.F.d.y.y.y.F.y.y.y.y.y.y.F.y.y.y.F.F.d.y.y.d.F.y.y.y.y.y.F.y.y.y.y.d.F.y.y.y.y.y.y.y.y.t.y.y.t.y.y.y.y.y.y.d.F.y.F.y.y.F.y.y.y.F.y.y.y.y.y.y.y.y.y.y.y.",
"d.F.y.y.y.y.F.y.y.y.d.y.y.y.y.F.y.y.y.y.y.y.y.y.d.y.F.y.y.y.y.F.y.F.y.y.d.F.y.y.d.F.y.y.y.y.y.F.y.y.y.y.y.y.y.y.F.y.y.y.y.y.y.y.y.y.F.y.y.y.y.y.y.y.t.3.y.y.y.y.",
"F.a.F.y.y.y.y.F.y.F.F.y.d.F.y.y.d.F.F.y.y.y.y.y.F.y.y.y.y.y.y.y.y.d.F.y.F.y.y.F.F.y.y.y.y.y.y.y.y.y.y.y.d.F.y.y.y.y.y.y.y.y.F.y.y.y.d.F.F.y.y.F.y.y.y.3.y.y.y.y.",
"d.y.y.y.y.F.y.d.y.y.y.y.F.y.y.y.y.y.d.F.y.y.y.F.y.F.y.y.F.y.F.d.y.y.y.y.y.y.y.y.y.y.F.d.F.y.y.y.y.y.y.y.F.y.y.y.y.y.y.F.y.F.d.y.y.y.y.y.d.y.y.y.y.y.y.F.F.d.F.y.",
"F.y.y.y.y.y.y.y.y.y.d.F.y.y.F.y.y.y.y.a.y.y.y.y.y.y.y.y.y.y.y.y.d.F.y.y.y.F.y.y.y.y.y.y.y.y.F.F.y.y.F.y.y.y.F.y.y.F.y.y.y.y.y.y.F.d.d.F.y.F.y.y.y.y.y.y.y.y.y.y.",
"F.y.y.F.F.y.y.y.y.y.F.y.y.y.y.F.F.y.d.F.F.d.y.y.y.y.F.y.y.y.d.F.F.y.y.y.y.y.y.y.F.y.y.y.y.y.y.d.y.y.d.F.y.y.y.y.F.d.y.F.F.y.y.y.y.F.y.y.y.y.y.y.y.y.y.F.F.y.y.F.",
"y.y.y.y.d.y.y.F.F.y.y.y.y.y.y.d.y.y.F.y.y.F.y.y.y.y.F.y.y.y.F.y.y.y.F.d.y.y.d.F.y.y.F.d.y.y.y.y.y.y.y.y.y.d.F.y.y.y.y.d.y.y.y.F.y.y.F.y.y.y.F.y.y.y.y.y.y.y.d.y.",
"y.y.d.F.F.y.y.y.d.F.y.y.F.y.y.y.y.F.y.y.y.y.y.F.d.F.d.y.F.y.y.y.y.y.y.F.y.y.F.y.y.y.y.F.F.d.F.y.F.y.y.y.F.y.y.y.y.y.y.F.y.y.d.F.y.y.y.y.y.y.d.F.F.y.y.y.y.y.F.y."
};
