/* XPM */
static char *d9ac8b173fe44ae7f6852e3df7dfc7f7UX9Qzj3EblyQJ4nL[] = {
/* columns rows colors chars-per-pixel */
"80 80 207 2 ",
"   c #31252D",
".  c #342D30",
"X  c #4F3947",
"o  c #50474C",
"O  c #66485A",
"+  c #6C525E",
"@  c #714F63",
"#  c #755267",
"$  c #73686F",
"%  c #D9483E",
"&  c #CC543E",
"*  c #C55C3F",
"=  c #DF3F43",
"-  c #B65E4F",
";  c #B45757",
":  c #9C7B51",
">  c #BD6541",
",  c #B86A43",
"<  c #AA7A44",
"1  c #B17243",
"2  c #8E5C78",
"3  c #BD5760",
"4  c #8E6870",
"5  c #DD4144",
"6  c #D74A40",
"7  c #DC424C",
"8  c #D84459",
"9  c #CB5551",
"0  c #C16241",
"q  c #D74562",
"w  c #D84661",
"e  c #D44865",
"r  c #54B23E",
"t  c #54B444",
"y  c #57B748",
"u  c #5DBC4D",
"i  c #5EB858",
"p  c #7FA64E",
"a  c #76AE4E",
"s  c #79AB4D",
"d  c #61BE47",
"f  c #60BE4F",
"g  c #73B24F",
"h  c #71A05E",
"j  c #66B557",
"k  c #63BF52",
"l  c #69BE56",
"z  c #6DBD5A",
"x  c #72BD5D",
"c  c #79BC5A",
"v  c #6F9B65",
"b  c #5AAB69",
"n  c #5CB166",
"m  c #57A674",
"M  c #58A672",
"N  c #6AAE6E",
"B  c #75BC61",
"V  c #7BBB65",
"C  c #7DB868",
"Z  c #5EC04F",
"A  c #5FC050",
"S  c #64C14D",
"D  c #6BC14D",
"F  c #64C152",
"G  c #68C356",
"H  c #6BC359",
"J  c #6DCA5B",
"K  c #76C95C",
"L  c #77CB64",
"P  c #9B8947",
"I  c #8C974A",
"U  c #879D4B",
"Y  c #8A9A4A",
"T  c #A38146",
"R  c #8E8A7B",
"E  c #84B66D",
"W  c #83BC6C",
"Q  c #89BB6B",
"!  c #90BF6C",
"~  c #96AC7D",
"^  c #8CB374",
"/  c #8CB875",
"(  c #91BA77",
")  c #94B17A",
"_  c #94B97A",
"`  c #92C479",
"'  c #5B7598",
"]  c #6F6F97",
"[  c #507AA8",
"{  c #8E6F88",
"}  c #A87692",
"|  c #D379AA",
" . c #55888E",
".. c #4D948A",
"X. c #519786",
"o. c #4A889B",
"O. c #658C8A",
"+. c #4684A3",
"@. c #4985A7",
"#. c #4A88A4",
"$. c #4C86AC",
"%. c #5386A9",
"&. c #4F84B1",
"*. c #5187B5",
"=. c #558BBA",
"-. c #598EBD",
";. c #6A8EA5",
":. c #748FB7",
">. c #5E91C2",
",. c #6294C4",
"<. c #6996C4",
"1. c #6798C9",
"2. c #6B9CCC",
"3. c #749CCA",
"4. c #7B9BC9",
"5. c #919E92",
"6. c #B4839B",
"7. c #B38E9A",
"8. c #A6959C",
"9. c #9DAD82",
"0. c #9CB982",
"q. c #A2AC86",
"w. c #A6AA8A",
"e. c #AAA98D",
"r. c #A5B788",
"t. c #A5B789",
"y. c #ABB68E",
"u. c #ADA890",
"i. c #B3A695",
"p. c #B6A698",
"a. c #BCA49D",
"s. c #BBAA9C",
"d. c #AFB392",
"f. c #B4B494",
"g. c #B9B497",
"h. c #BCB49C",
"j. c #8D95AE",
"k. c #878FB9",
"l. c #BB86A5",
"z. c #BA9BA9",
"x. c #B894B8",
"c. c #BFA3A0",
"v. c #B3A9AA",
"b. c #D088AE",
"n. c #C69AA7",
"m. c #CD9DAB",
"M. c #D19EAF",
"N. c #D886B1",
"B. c #C995B5",
"V. c #D192B3",
"C. c #D49CB3",
"Z. c #D99CB6",
"A. c #D59ABB",
"S. c #DC9DB9",
"D. c #E790B6",
"F. c #E891B6",
"G. c #E595B9",
"H. c #E896BA",
"J. c #E29CBE",
"K. c #E99BBD",
"L. c #C5A1A4",
"P. c #CCA1AB",
"I. c #C5B3A3",
"U. c #CAB2A7",
"Y. c #CDB2AA",
"T. c #D2B1AE",
"R. c #D4BBAD",
"E. c #C7AEBB",
"W. c #D9AAB6",
"Q. c #DDA1BB",
"!. c #D6B0B2",
"~. c #E1A2BE",
"^. c #E1AFBB",
"/. c #BDC899",
"(. c #C0C29A",
"). c #879BC8",
"_. c #9699C4",
"`. c #9C99C5",
"'. c #A498C3",
"]. c #AC99C2",
"[. c #B497C1",
"{. c #BD98C0",
"}. c #94A0CA",
"|. c #B7A2C7",
" X c #C999C0",
".X c #D69DC1",
"XX c #DB9DC1",
"oX c #E39EC0",
"OX c #DEA2C2",
"+X c #DEA9C4",
"@X c #D6B7C7",
"#X c #E4A4C3",
"$X c #EBA4C2",
"%X c #E6A9C5",
"&X c #E9AAC6",
"*X c #E9AAC7",
"=X c #E7ABC8",
"-X c #EAADC9",
";X c #E6B1CC",
":X c #EBB0CB",
">X c #ECB2CC",
",X c #EDB4CD",
"<X c #EEB6CE",
"1X c #EFB8CF",
"2X c #ECB9D1",
"3X c #EFB9D0",
"4X c #F0BAD1",
/* pixels */
"F F F F F F F F F F F F F F F F F F F F F F F F F F F F F F F F F F F F F F F F F F F F F F F F F F F F F F F F F G F F G F F F F F F F G F F F F G F F F G F L ",
"F F F F F F F F F F F F F F F F F F F F F F F F F F F F F F F F F F F F F F F F F F F F F F F F F F F F G G G F F F F F F F F F F F F F F F F F F F F F F F F F ",
"F F F F F F F F F F F F F F F F F F F F F F F F F F F F F F F F F F F F F F F F F F F F F F F F F F F F F F F F F F F F F F F F F F F F F F F F F F F F F F F F ",
"F F F F F F F F F F F F F F F F F F F F F F F F F F F F F F F F F F F F F F F F F F F F F F F F F F F F F F F F F F F F F F F F F F F F F F F F F F F F F F F F ",
"F F F F F F F F F F F F F F F F F F F F F F F F F F F F F F F F F F F F F F F F F F F F F F F F F F F F F F F F F F F F F F F F F F F F F F F F F F F F F F F F ",
"F F F F F F F F F F F F F F F F F F F F F F F F F F F F F F F F F F F F F F F F F F F F F F F F F F F F F F F F F F F F F F F F F F F F F F F F F F F F F F F F ",
"F F F F F F F F F F F F F F F F F F F F F F F F F F F F F F F F F F F F F F F F F F F F F F F F F F F F F F F F F F F F F F F F F F F F F F F F F F F F F F F F ",
"F F F F F F F F F F F F F F F F F F F F F F F F F F F F F F F F F F F F F F F F F F F F F F F F F F F F F F F F F F F F F F F F F F F F F F F F F F F F F F F F ",
"F F F F H F F F F F F F F F F F F F F F F F F F F F F F F F F F F D F F F u F F u F F F F F F F F F F F F F F F F F F F F F F F F F F F F F F F F F F F F F F F ",
"F F F F G F F F F F F F F F F F F F F F F F F F F F F F F F F F F G F F F u u A u F F F F F F F F F F F F F F F F F F F F F F F F F F F F F F F F F F F F F F F ",
"F F F F G F F F F F F F F F F F F F F F F F F F F F F F F F F F F F F F F F F F F F F F F F F F F F F F F F F F F F F F F F F F F F F F F F F F F F F F F F F F ",
"F F F F G F F F F F F F F F F F F F F F F F F F F F F F F F F F F F F A u A F F F u F F F F F F F F F F F F F F F F F F F F F F F F F F F F F F F F F F F F F F ",
"F F F F G F F F F F F F F F F F F F F F F F F F F F F F F F F F F F F F A F k F G A F F F F F F F F F F F F F F F F F F F F F F F F F F F F F F F F F F F F F F ",
"F F F F G F F F F F F F F F F F F F F F F F F F F F F F F F F F F A F F F u k y A F F F F F F F F F F F F F F F F F F F F F F F F F F F F F F F F F F F F F F F ",
"F F F F G F F F F F F F F F F F F F F F F F F F F F F F F F F F F F S u F A y t u F k F F F F F S G F F F F F F F F F F F F F F F F F F F F F F F F F F F F F F ",
"F F F F G F F F F F F F F F F F F F F F F F F F F F F F F F F F F A u k G A j ~ m.S.c.C F F F F F F G G F F F F F F F F F F F F F F F F S F F F F F F F F F F F ",
"F F F F G F F F F F F F F F F F F F F F F F F F F F F F F F F F A F F u F k ^ P.~.#XQ.q.F F F l E q.w.^ l F F F F F F F F F k F F F F F F k S F F F F F F F F F ",
"F F F F G F F F F F F F F F F F F F F F F F F F F F F F F F F F F F F F F F w.J.>X:X~.e.F F z ) L.Q.Q.n./ F F F F F F F F F F F f S u F F F F F F F F F F F F F ",
"F F F F F F F F F F F F F F F F F F F F F F F F F F F F F F F F F F F F F z i.#X,X>XQ.w.F F ^ L.~.-X&XM.~ F F F F F F F F F F F F G u F G F F F F F F G F F F F ",
"F F F F F F F F F F F F F F F F F F F F F F F F k F F F l F F F F F F F F x i.#X,X&XM.) F x e.~.>X1X&XM.^ F F F F F F F F f F F F F f A G F F F F F F F F F F F ",
"F F F F F F F F F F F F F F F F k k k E q.w.w.w.e.u.u.u.e.w.w.w.9.^ C z l z i.#X,X#XL.V F E n.&X1X,X#XL.x k F F F F F F F f f F F F S A J G F F F F F F F F F F ",
"F F F F F F F F F F F F F F F F F B u.C.S.S.Z.Z.S.S.J.S.J.J.S.Z.A.C.C.L.p.w.L.J.&X~.i.l G ~ Q.-X3X-XZ.q.k F F F F F F F F F k S F F G G L K G F F F F F F F F F ",
"F F F F F F F F F F F F F F F F B p.Z.%X:X>X&XK.J.%X1X>X>X>X>X>X-X-X%X#X#XS.S.J.J.C.w.c C i.#X,X:X#Xa.V F F F F F F F F F F F F F A F F J J F F F F F F F F F F ",
"F F F F F F F F F F F F F F F z q.Z.&X1X3X4X3X:XK.#X1X4X1X1X1X1X>X=X-X:X>X-X%X#X~.S.C.a.p.M.#X-X%XM.) F F F F F F F F F F F F G G F S S Z Z f F F F F F F F F F ",
"F F F F F F F F F F F F F F F E n.%X1X1X4X4X4X3X%XoX>X4X4X4X1X&X%X=X+X=X1X3X1X1X-X-X=X#XOXJ.J.oXZ.i.x F F F F F F F F F F F F F F F u F k F F F F F F F F F F F ",
"F F F F F F F F F F F F F F l q.Z.>X4X1X4X3X4X4X*XoX-X1X4X1X&XV.6.E.3X+X:X3X3X1X1X3X1X,X>X-X%XJ.S.a.E F F F F F F F F F F F F F F S f F f F F F F F F F F F F F ",
"F F F F F F F F F F F F F F x i.#X-X~.&X3X,X3X3X-XJ.&X3X4X,X*X{ o $ @X=X-X3X3X>X-X&X-X1X3X3X>X*X#XQ.p.C k F F F F F F F F F F F F F F F F F F F F F F F F F F F ",
"F F F F F F F D F F F F k S V a.#XJ.| N.*XJ.G.>X-XJ.&X1X3X>X#X4 . $ @X+X:X1X:X#X#X&X#X-X3X3X3X,X,X-XS.i.c F F F F F F F F F F F F F F F F F F F F F F F F F F F ",
"F F F F F F F G F F F F F F C n.&XJ.| N.%XN.| &X-XJ.-X1X3X1XoX7.R z.OX%X>X>XQ.6.8.@X;X=X4X4X4X4X3X1X%XC.~ l k F F F F F F F F F F F F F F F F F F F F F F F F F ",
"F F F F F F F F F F F F F F V L.%X>X#X-X>X#X#X>X$XoX>X4X4X3X-XQ.C.Q.%X>X3X=XV.+ o 8.@X=X4X4X4X4X3X4X,X#Xc.E k F F F F F F F F F F F F F F F F F F F F F F F F F ",
"F F F F F F F F F F F F F F x i.~.,X1X3X1X,X1X-XJ.#X,X4X4X4X1X>X-X>X1X3X3X%XC.$ o 8.+X%X4X4X4X4X4X4X3X:XW.9.l F F F F F F F F F G D F F F F F F F F F F F F F F ",
"F F F F F F F F F F F F F F l 9.C.>X1X3X3X4X>X#XJ.-X3X4X4X4X4X4X3X1X3X3X3X-X#XB.z.W.#X:X4X4X4X4X4X4X1X1X~.a.C F F F F F F F F F F F F F F F F F F F F F F F F F ",
"F F F F F F F F F F F F F F F C a.~.=X,X,X:X#XJ.&X3X4X4X4X4X4X4X3X4X4X4X4X,X*X#X$X#X&X1X4X4X4X4X4X4X4X1X&XP.^ F F F F F F F F F F F F F F F F F F F F F F F F F ",
"F F F F F F F F F F F F F F F F ^ L.J.$X#X#XK.%X,X3X4X4X4X4X4X4X4X4X4X4X4X3X,X>X-X>X1X4X4X1X1X4X4X4X4X4X>XQ.q.z F F F F F F F F F F F F F F F F F F F F F F F F ",
"F F F F F F F F F F F F F F F F G ^ m.S.J.#X-X1X3X3X4X4X4X4X4X4X4X4X4X4X4X4X3X3X4X3X4X4X>X$X$X$X*X,X1X1X1X~.i.x F F F F F F F F F F F F F F F F F F F F F F F F ",
"F F F F F F F F F F F F F F F F F l E n.S.=X1X1X3X3X4X4X4X4X4X4X4X4X4X4X4X3X3X3X4X4X4X>XK.H.F.F.H.$X1X4X1X~.z.V F F u k F F F F F F F F F F F F F F F F F F F F ",
"F F F F F F F F F F F F F F F F F F k ^ i.Q.#X:X,X1X1X1X,X4X4X4X4X4X4X4X4X4X4X4X4X4X1XoXF.D.D.D.F.F.$X4X1X%XL.V F G F f k S F F F F F F F F F F F F F F F F F F ",
"F F F F F F F F F F F F F F F F F F F l E w.L.Q.#X=X%X%X-X1X4X4X4X4X4X4X4X4X4X4X4X4X*XH.F.D.D.D.F.F.H.1X1X%Xn.C G G F F f F F F F F F F F F F F F F F F F F F F ",
"F F F F F F F F F F F F F F F F F F F F l B ^ w.s.P.S.J.%X,X3X3X4X4X4X4X4X4X4X4X4X4X-XD.D.D.F.D.F.D.H.>X1X#XL.c F F k x x F F F F F F F F F F F F F F F F F F F ",
"F F F F F F F F F F F F F F F F F F F l l k F x V ) m.#X-X,X3X3X4X4X4X4X4X4X4X4X3X1X-XD.D.D.F.F.D.D.K.>X,X#Xi.x F S x r.( F z k F F F F F F F F F F F F F F F F ",
"F F F F F F F F F F F F F F F F F F F ( / l F F F ) C.%X=X#X=X3X4X2X4X4X1X-X>X2X4X4X-XK.F.F.F.F.F.F.#X,X-XQ.q.z F F V U.y.W _ x F F F F F F F F F F F F F F F F ",
"F F F F F F F F F F F F F F F F S x F f.h.H F F F e.Q.:X=XV.V.%X1X,X3X3X%X#X#X1X4X4X1X$XF.F.F.F.F.H.-X1X=Xm.^ k u S W !.U.I.U.L F F F F F F F F F F F F F F F F ",
"F F F F F F F F F F F F F F F F W y._ h.Y.W F F k a.S.1X=Xl.2 } b.Z.A.B.} l.OX,X4X4X3X1X$XK.H.H.K.&X1X,X~.p.c k f k ( &X^.I.) l F F F F F F F F F F F F F F F F ",
"F F F F F F F F F F F F F F F F W h.Y.!.^.0.x F G a.#X1X:XB.@ X O @ # O O } #X1X4X4X4X1X1X-X*X-X>X,X4X:XB.5.N H L _ I.^.^.y.V k F F F F F F F F F F F F F F F F ",
"F F F F F F F F F F F F F F F F G W y.^.&XI.0.V H p.OX>X1X#X} X       . O l.:X3X4X4X4X4X4X4X4X4X4X4X,XK.x.;.m ` /.R.I.f.U.I.y.W F F F F F F F F F F F F F F F F ",
"F F F F F F F F F F F F F F F F F V r.!.Y.I.I.g.0.a.Q.-X4X1XA.} # O O 2 6.#X,X4X4X4X4X4X4X4X4X4X4X,X&XA._.:.j.h.R.(.! c Q y.I.0.D F F F F F F F F F F F F F F F ",
"F F F F F F F F F F F F F F F F c f.U.f.( Q 0.g.U.T.S.%X,X4X,X#XB.B.B.A.=X3X4X4X4X4X4X4X4X4X4X4X3X-XXX X|.|.B.z.( K D D D x W V F F F F F F F F F F F F F F F F ",
"F F F F F F F F F F F F F F F G V f.r.V l F G V / f.L.OX=X,X3X3X1X:X:X,X3X4X4X4X4X4X4X4X4X4X4X4X=XOX{.`.|.|._.;.b r S S f S F S F F F F F F F F F F F F F F F F ",
"F F F F F F F F F F F F F F F F G B H F l F F F l x ^ z..X-X3X3X4X4X4X4X4X4X3X3X4X3X3X2X3X3X,X=XXX{.).3.4.).1.$...S F F y F F F F F F F F F F F F F F F F F F F ",
"F F F F F F F F F F F F F F F F F F k k k F k F F F b j.B.oX-X1X4X4X4X4X4X4X4X2X4X3X,X>X,X*XOX.X[.).3.2.2.2.1.*.o.i A G G F F F F F F F F F F F F F F F F F F F ",
"F F F F F F F F F F F F F F F F F F F F F F F F k k m %.k.{..X%X=X-X,X,X,X,X>X>X>X-X=X#XXX X[.`.4.2.2.2.2.2.1.>.+.n A k G F F F F F F F F F F F F F F F F F F F ",
"F F F F F F F F F F F F F F F F F F F F F F F F F k m #.,.).].{. X.XXXOXOXOX#X.X.X X X[.]._.).2.2.2.2.2.2.2.2.>.+.m A u G F F F F F F F F F F F F F F F F F F F ",
"F F F F F F F F F F F F F F F F F F F F F F F F F k m #.>.2.3.)._.'.].].].].].].'._.).).4.2.2.2.2.2.2.2.2.2.2.>.$.m i k G F F F F F F F F F F F F F F F F F F F ",
"F F F F F F F F F F F F F F D F F F F u F F A F F k n #.>.1.2.2.2.3.3.4.4.4.4.3.3.2.2.2.2.2.2.2.2.2.2.2.2.2.2.>.+.m k G F F F F F F F F F F F F F F F F F F F F ",
"F F F F F F F F F F F F F F F F F A A A A F A F F k n o.=.1.2.2.2.2.2.2.2.2.2.2.2.2.2.2.2.2.2.2.2.2.2.2.2.2.2.=.+.n G k A G F F F F F F F F F F F F F F F F F F ",
"F F F F F F F F F F F F F F F F F F F A F A F F F F i ..$.>.2.2.2.2.2.2.2.2.2.2.2.2.2.2.2.2.2.2.2.2.2.2.2.2.1.*.o.k H V B k A F F F F F F F F F F F F F F F F F ",
"F F F F F F F F F F F F F F F u A F F A A A F F F F A m #.=.1.2.2.2.2.2.2.2.2.2.2.2.2.2.2.2.2.2.2.2.2.2.2.1.-.@.m x r.T.I.V F F F F F F F F F F F F F F F F F F ",
"F F F F F k F F F F F F F F u F A Z A A A F A F F F F n ..@.>.1.2.2.2.2.2.2.2.2.2.2.2.2.2.2.2.3.3.2.2.2.<.-.&.X.j ( W.U.T.0.G F l k F F F F F F F F F F F F F F ",
"F F F F F k D k F F F F F u u F Z y t y Z F A A F F F F n ..&.>.1.1.2.2.2.2.2.2.2.2.2.2.2.2.4.}.}.2.1.,.=.&.;.N c f.!.r.U.r.x Q K k F F F F F F F F F F F F F F ",
"F F F F F G l k k F F F F F u F Z t r t u A A F F F F H u b ..+.-.,.1.1.2.2.2.2.2.2.2.2.2.2.4.|.|.:.-.*.o.O.v.d.W f.W.g.!.0.W U.( F F F F F F F F F F F F F F F ",
"F F F F F k F G F F F F F F F F G Z Z Z Z F F F F F F F F k n X.o.&.[ -.1.1.1.2.1.2.1.1.2.:.k.B.x.] '  .m N r.Y.g.g.-XW.W.f.h.!.W F F F F F F F F F F F F F F F ",
"F F F F F l F k F F F A F A u A A Z Z A Z A A F F F F F F F k j v ] ' [ [ =.*.>.-.=.=.=.*.] 3 9 9 ; - U i F L r.U.Y.!.I.Y.Y.I.0.F F F F F F F F F F F F F F F F ",
"F F F F F G F F F F F F F A F F F J G F A A A F F F F F F k a < , 9 ; { ] ' ' [ +.+.o.o. .4 = = 7 5 9 U F F u G B W L B B V H H F F F F F F F F F F F F F F F F ",
"F F F F F k F F F F F F F F F F A F A F F A A F A F F F F g , 5 = = q e 5 8 - v n b h : > % = 8 w 7 * U F A G F F F F i G F k F F F F F F F F F F F F F F F F F ",
"F F F F F F F F F F F F F F F F F F F F F F F F F F F F F U & 7 q w e w e 7 0 Y G a 1 % 5 7 8 w 8 7 * s k F F F F F F F F F F F F F F F F F F F F F F F F F F F ",
"F F F F F F F F F F F F F F F F F F F F F F F F F F F F F U 0 7 8 8 w w w 7 % Y D U & 7 w w w w w 7 & p k F F F F F F F F F F F F F F F F F F F F F F F F F F F ",
"F F F F F F F F F F F F F F F F F F F F D F F F F F F F F g 1 6 5 7 7 7 7 5 6 Y G U 0 7 8 w w 8 8 7 & I F F F F F F F F F F F F F F F F F F F F F F F F F F F F ",
"F F D F F F F F F F F F F F F F F F F F F F F F F F F F F k s T 1 > 0 0 0 1 T a F s 1 % 5 7 7 7 7 5 & I F F F F F F F F F F F F F F F F F F F F F F F F F F F F ",
"F F F F F F F F F F F F F F F F F F F F F F F F F F F F F F F l g a a s a g g k F k s P 1 0 * * > , T g F F F F F F F F F F F F F F F F F F F F F F F F F F F F ",
"F F F F F F F F F F F F F F F F F F F F F F F F F F F F F F D k F F F F F F F F F F F F F F F F F F k F F F F F F F F F F F F F F F F F F F F F F F F F F F F F ",
"F F F F F F F F F F F F F F F F F F F F F F F F F F F F F F F F F F F F F F F F F F F F F F F F F F F F F F F F F F F F F F F F F F F F F F F F F F F F F F F F ",
"F F F F F F F F F F F F F F F F F F F F F F F F F F F F F F F F F F F F F F F F F F F F F F F F F F F F F F F F F F F F F F F F F F F F F F F F F F F F F F F F ",
"F F F F F F F F F F F F F F F F F F F F F F F F F F F F F F F F F F F F F F F F F F F F F F F F F F F F F F F F F F F F F F F F F F F F F F F F F F F F F F F F ",
"F F F F F F F F F F F F F F F F F F F F F F F F F F F F F F F F F F F F F F F F F F F F F F F F F F F F F F F F F F F F F F F F F F F F F F F F F F F F F F F F ",
"F F F F F F F F F F F F F F F F F F F F F F F F F F F F F F F F F F F F F F F F F F F F F F F F F F F F F F F F F F F F F F F F F F F F F F F F F F F F F F F F ",
"F F F F F F F F F F F F F F F F F F F F F F F F F F F F F F F F F F F F F F F F F D F F F F F F F F F F F F F F F F F F F F F F F F F F F F F F F F F F F F F F ",
"F F F F F F F F F F F F F F F F F F F F F F F F F F F F F F F F F F F F F F F F F F F F F F F F F F F F F F F F F F F F F F F F F F F F F F F F F F F F F F F F ",
"F F F F F F F F F F F F F F F F F F F F F F F F F F F F F F F F F F F F F F F F F F F F F F F F F F F F F F F F F F F F F F F F F F F F F F F F F F F F F F F F ",
"F F F F F F F F F F F F F F F F F F F F F F F F F F F F F F F F F F F F F F F F F F F F F F F F F F F F F F F F F F F F F F F F F F F F F F F F F F F F F F F F ",
"F F F F F F F F F F F F F F F F F F F F F F F F F F F F F F F F F F F F F F F F F F F F F F F F F F F F F F F F F F F F F F F F F F F F F F F F F F F D F F F F "
};
