/* XPM */
static char *_1a3df786a164ea796bb16bb68d6d288j5n3ivfUF9sBhGDN[] = {
/* columns rows colors chars-per-pixel */
"60 60 221 2 ",
"   c #2AB43D",
".  c #29B73F",
"X  c #3DB23D",
"o  c #77CA24",
"O  c #72CF38",
"+  c #29B343",
"@  c #32B742",
"#  c #36B146",
"$  c #33B646",
"%  c #3EBA42",
"&  c #3DBE48",
"*  c #44B946",
"=  c #47BC47",
"-  c #4DBA45",
";  c #44BD4A",
":  c #4DBD4D",
">  c #4DBF4D",
",  c #59B842",
"<  c #5DBD40",
"1  c #5CBE43",
"2  c #59BC45",
"3  c #5BBF45",
"4  c #5EBD45",
"5  c #5FBC47",
"6  c #5CBE47",
"7  c #55BD4E",
"8  c #54BE4F",
"9  c #5BBE49",
"0  c #5EBD49",
"q  c #5CBF48",
"w  c #5DBF48",
"e  c #5FBE48",
"r  c #5DBE4B",
"t  c #58BD57",
"y  c #61BD40",
"u  c #61BF43",
"i  c #60BE44",
"p  c #63BE47",
"a  c #64BD47",
"s  c #69B845",
"d  c #60BD48",
"f  c #60BF49",
"g  c #63BE49",
"h  c #60BF4B",
"j  c #62BF4A",
"k  c #64BD49",
"l  c #64BF48",
"z  c #67BE49",
"x  c #64BF4A",
"c  c #60BE4C",
"v  c #61BF4D",
"b  c #62BE4F",
"n  c #64BE4C",
"m  c #67BE4D",
"M  c #65BF4E",
"N  c #68BA4E",
"B  c #68BC4C",
"V  c #68BF4C",
"C  c #62BE51",
"Z  c #68BE51",
"A  c #44C04E",
"S  c #45C44F",
"D  c #5EC143",
"F  c #5DC343",
"G  c #58C643",
"H  c #5BC046",
"J  c #5DC145",
"K  c #5EC045",
"L  c #5FC146",
"P  c #5EC047",
"I  c #5DC346",
"U  c #5EC246",
"Y  c #52C14B",
"T  c #55C14A",
"R  c #57C34B",
"E  c #52C04D",
"W  c #54C14E",
"Q  c #57C24E",
"!  c #5BC048",
"~  c #5AC249",
"^  c #58C14B",
"/  c #59C24B",
"(  c #5DC049",
")  c #5FC148",
"_  c #5EC049",
"`  c #5DC248",
"'  c #5EC248",
"]  c #5EC349",
"[  c #5FC349",
"{  c #5DC04B",
"}  c #5CC14B",
"|  c #5EC14A",
" . c #5FC14A",
".. c #5DC24A",
"X. c #5FC24B",
"o. c #5EC34B",
"O. c #5BC54B",
"+. c #5CC449",
"@. c #5DC749",
"#. c #5EC649",
"$. c #5DC54A",
"%. c #5CC44B",
"&. c #5FC44A",
"*. c #5AC34D",
"=. c #5AC14E",
"-. c #5BC24F",
";. c #5CC04C",
":. c #5FC04C",
">. c #5EC14C",
",. c #5EC14D",
"<. c #5CC34D",
"1. c #5FC24D",
"2. c #5EC34D",
"3. c #5DC14F",
"4. c #5FC04F",
"5. c #5CC34E",
"6. c #5EC24E",
"7. c #5FC24E",
"8. c #59C54D",
"9. c #58C74E",
"0. c #5BC74F",
"q. c #5DC54C",
"w. c #5FC44C",
"e. c #5FC74C",
"r. c #5EC64D",
"t. c #5DC44E",
"y. c #5DC44F",
"u. c #5FC44E",
"i. c #5EC948",
"p. c #5AC84F",
"a. c #45C952",
"s. c #53C150",
"d. c #55C352",
"f. c #51C651",
"g. c #56C753",
"h. c #5FC351",
"j. c #5FC353",
"k. c #5BC750",
"l. c #5CC451",
"z. c #5EC552",
"x. c #5FC555",
"c. c #60C042",
"v. c #64C043",
"b. c #66C243",
"n. c #62C044",
"m. c #63C244",
"M. c #62C245",
"N. c #61C146",
"B. c #60C247",
"V. c #62C247",
"C. c #66C045",
"Z. c #61C445",
"A. c #68C246",
"S. c #61C048",
"D. c #62C048",
"F. c #62C149",
"G. c #63C149",
"H. c #60C249",
"J. c #63C348",
"K. c #61C04A",
"L. c #63C04B",
"P. c #62C14B",
"I. c #61C34A",
"U. c #60C24B",
"Y. c #63C24A",
"T. c #66C14A",
"R. c #64C24A",
"E. c #64C34B",
"W. c #60C448",
"Q. c #60C649",
"!. c #60C44A",
"~. c #61C54B",
"^. c #62C44B",
"/. c #62C64A",
"(. c #65C54A",
"). c #66C44A",
"_. c #61C04C",
"`. c #60C14D",
"'. c #62C14D",
"]. c #60C34C",
"[. c #61C34C",
"{. c #63C24C",
"}. c #60C14E",
"|. c #62C04E",
" X c #63C04E",
".X c #61C24E",
"XX c #60C34E",
"oX c #61C24F",
"OX c #60C34F",
"+X c #63C24E",
"@X c #64C14C",
"#X c #67C24D",
"$X c #64C14E",
"%X c #66C04E",
"&X c #61C44D",
"*X c #63C54C",
"=X c #62C44D",
"-X c #61C44F",
";X c #63C54E",
":X c #63C64F",
">X c #69C24C",
",X c #70C043",
"<X c #7ACD4B",
"1X c #61C251",
"2X c #62C350",
"3X c #65C351",
"4X c #60C450",
"5X c #61C450",
"6X c #61C551",
"7X c #63C451",
"8X c #64C750",
"9X c #6AC752",
"0X c #6CC551",
"qX c #64C953",
"wX c #77D25D",
"eX c #86CD29",
"rX c #89CC3F",
"tX c #D6FE2E",
"yX c #81CC4B",
"uX c #B5D341",
"iX c #84DF6A",
/* pixels */
"U.U.U.U.U.U.U.U.U.U.U.U.U.U.U.U.U.U.U.U.U.U.U.U.U.U.W.W.U.).( U.U.U.U.U.U.U.U.U.U.U.U.U.U.U.U.U.U.U.U.U.U.U.U.U.U.U.U.U.",
"U.U.U.U.U.U.U.U.U.U.U.U.U.U.U.U.U.U.U.U.U.U.U.U.j U.U.U.w }.( =XU.U.U.U.U.U.U.U.U.U.U.U.U.U.U.U.U.U.U.U.U.U.U.U.U.U.U.U.",
"U.U.U.U.U.U.U.U.U.U.U.U.U.U.U.U.U.U.U.U.U.U.U.U.U.j }.}.( ( ( =XU.U.U.U.U.U.U.U.U.U.U.U.U.U.U.U.U.U.U.U.U.U.U.U.U.U.U.U.",
"U.U.U.U.U.U.U.U.U.U.U.U.U.U.U.U.U.U.U.U.U.U.U.U.U.U.}.U.U.>.j N.U.U.U.U.U.U.U.U.U.U.U.U.U.U.U.U.U.U.U.U.U.U.U.U.U.U.U.U.",
"U.U.U.U.U.U.U.U.U.U.U.U.U.U.U.U.U.U.U.U.U.U.U.U.P N.U.j U.}.T.a U.U.U.U.U.U.U.U.U.U.U.U.U.U.U.U.U.U.U.U.U.U.U.U.U.U.U.U.",
"U.U.U.U.U.U.U.U.U.U.U.U.U.U.U.U.U.U.U.U.U.U.U.U.( U.U.}.>.>.T.T.U.U.U.U.U.U.U.U.U.U.U.U.U.U.U.U.U.U.U.U.U.U.U.U.U.U.U.U.",
"U.U.U.U.U.U.U.U.U.U.U.U.U.U.U.U.U.U.U.U.U.U.U.U.W.=X}.=XQ - T y.U.U.U.U.U.U.U.U.U.U.U.U.U.U.U.U.U.U.U.U.U.U.U.U.U.U.U.U.",
"U.U.U.U.U.U.U.U.U.U.U.U.U.U.U.U.U.U.U.U.U.U.U.U.}.( b z.E X = g.U.U.U.U.U.U.U.U.U.U.U.U.U.U.U.U.U.U.U.U.U.U.U.U.U.U.U.U.",
"U.U.U.U.U.U.U.U.U.U.U.U.U.U.U.U.U.U.U.U.U.U.U.U.U.( U.U.U.( $.O.U.U.U.U.U.U.U.U.U.U.U.U.U.U.U.U.T.U.j }.U.( ( }.U.U.U.U.",
"U.U.U.U.U.U.U.U.U.U.U.U.U.U.U.U.U.U.U.U.U.U.U.U.U.=XU.U.U.U.( y.U.U.U.U.U.U.U.U.U.U.U.U.U.U.U.U.}.W.P U.w U.qX2 U.U.U.U.",
"U.U.U.U.U.U.U.U.U.U.U.U.U.U.U.U.U.U.U.U.U.U.U.U.U.U.T.U.T.U.W.}.U.U.U.U.U.U.U.U.U.U.U.U.U.U.U.U.( ( }.=X}.;XU.;XU.U.U.U.",
"U.U.U.U.U.U.U.U.U.U.U.U.U.U.U.U.U.U.U.U.U.U.U.U.U.U.}.U.}.U.T.U.U.U.U.U.U.U.U.U.U.U.U.U.U.U.U.U.$.$.=X( w i d j U.U.U.U.",
"U.U.U.U.U.U.U.U.U.U.U.U.U.U.U.U.U.U.U.U.U.U.U.U.U.}.U.( U.U.U.U.U.U.U.U.U.U.U.U.U.U.U.U.U.U.U.U.( }.4 U.U.9XiX>XU.U.U.U.",
"U.U.U.U.U.U.U.U.U.U.U.U.U.U.U.U.U.U.U.U.U.U.U.U.( ( U.U.U.U.U.U.U.U.U.U.U.U.U.U.U.U.U.U.U.U.U.U.}.W.U.U.U.T.wXx U.U.U.U.",
"U.U.U.U.U.U.U.U.U.U.U.U.U.U.U.U.U.U.U.U.U.U.U.U.}.W.U.U.U.U.U.U.U.U.U.U.U.U.U.U.U.U.U.U.U.U.U.U.U.U.}.U.U.U., j U.U.U.U.",
"U.U.U.U.U.U.U.U.U.U.U.U.U.U.U.U.U.U.U.U.U.U.U.}.E.E.U.U.U.U.U.U.U.U.U.U.U.U.U.U.U.U.U.U.U.U.U.U.T.U.( =X6 =Xw }.U.U.U.U.",
"U.U.U.U.U.U.U.U.U.U.U.U.U.U.U.U.U.U.U.U.U.U.U.U.U.U.U.U.U.U.U.U.U.U.U.U.U.U.U.U.U.U.U.U.U.U.U.U.U.U.U.U.U.U.U.U.U.U.U.U.",
"U.U.U.U.U.U.U.U.U.U.U.U.U.U.U.U.U.U.U.U.U.U.U.U.U.U.U.U.U.U.U.U.U.U.U.U.U.U.U.U.U.U.U.U.U.U.U.U.U.U.U.U.U.U.U.U.U.U.U.U.",
"U.U.U.U.U.U.U.U.U.U.U.U.U.U.U.U.U.U.U.U.U.U.U.U.U.U.U.U.U.U.U.U.U.U.U.U.U.U.U.U.U.U.U.U.U.U.U.U.U.U.U.U.U.U.U.U.U.U.U.U.",
"U.U.U.U.U.U.U.U.U.U.U.U.U.U.U.U.U.U.U.U.U.U.U.U.U.U.U.U.U.U.U.U.U.U.U.U.U.U.U.U.U.U.U.U.U.U.U.U.U.U.U.U.U.U.U.U.U.U.U.U.",
"U.U.U.U.U.U.U.U.U.U.U.U.U.U.U.U.U.U.U.U.U.U.U.U.U.U.U.U.U.U.U.U.U.U.U.U.U.U.U.U.U.U.U.U.U.U.U.U.U.U.U.U.U.U.U.U.U.U.U.U.",
"U.U.U.U.U.U.U.U.U.U.U.U.U.U.U.U.U.U.U.U.U.U.U.U.U.U.U.U.U.U.U.U.U.U.U.U.U.U.U.U.U.U.U.U.U.U.U.U.U.U.U.U.U.U.U.U.U.U.U.U.",
"U.U.U.U.U.U.U.U.U.U.U.U.U.U.U.U.U.U.U.U.U.U.U.U.U.U.U.U.U.U.U.U.U.U.U.U.U.U.U.U.U.U.U.U.U.U.U.U.U.U.U.U.U.U.U.U.U.U.U.U.",
"U.U.U.U.U.U.U.U.U.U.U.U.U.U.U.U.U.U.U.U.U.U.U.U.U.U.U.U.U.U.U.U.U.U.U.U.U.U.U.U.U.U.U.U.U.U.U.U.U.U.U.U.U.U.U.U.U.U.U.U.",
"U.U.U.U.U.U.U.U.U.U.U.U.U.U.U.U.U.U.U.U.U.U.U.U.U.U.U.U.U.U.U.U.U.U.U.U.U.U.U.U.P U.}.}.}.}.U.j U.U.U.U.U.U.U.U.U.U.U.U.",
"U.U.U.U.U.U.U.U.U.U.U.U.U.U.U.U.U.U.U.U.U.U.U.U.U.U.U.U.U.U.U.U.U.U.U.U.U.U.U.U.W.U.P N.( ( j E.U.U.U.U.U.U.U.U.U.U.U.U.",
"U.U.U.U.U.U.U.U.U.U.U.U.U.U.U.U.U.U.U.U.U.U.U.U.U.U.U.U.U.U.U.U.U.U.U.U.U.U.U.U.}.T.E.U.(.T.}.}.U.U.U.U.U.U.U.U.U.U.U.U.",
"U.U.U.U.U.U.U.U.U.U.U.U.U.U.U.U.U.U.U.U.U.U.U.U.U.U.U.U.U.U.U.U.U.U.U.U.U.U.U.U.U.U.T.U.i U.>.y.U.U.U.U.U.U.U.U.U.U.U.U.",
"U.U.U.U.U.U.U.U.U.U.U.U.U.U.U.U.U.U.U.U.U.U.U.U.U.U.U.U.U.U.U.U.U.U.U.U.U.U.U.U.T.( >.5X=X}.( W.U.U.U.U.U.U.U.U.U.U.U.U.",
"U.U.U.U.U.U.U.U.U.U.U.U.U.U.U.U.U.U.U.U.U.U.U.U.U.U.U.U.U.U.U.U.U.U.U.U.U.U.U.U.x T.*.O.>.T.T.N.U.U.U.U.U.U.U.U.U.U.U.U.",
"U.U.U.U.U.U.U.U.U.U.U.U.U.U.U.U.U.U.U.U.U.U.U.U.U.U.U.U.U.U.U.U.U.U.U.U.U.U.U.U.E.U.P < y z ).}.U.U.U.U.U.U.U.U.U.U.U.U.",
"U.U.U.U.U.U.U.U.U.U.U.U.U.U.U.U.U.U.U.U.U.U.U.U.U.U.U.U.U.U.U.U.U.U.U.U.U.U.U.U.1XP v.<XyXA.4 O.U.U.U.U.U.U.U.U.U.U.U.U.",
"U.U.U.U.U.U.U.U.U.U.U.U.U.U.U.U.U.U.U.U.U.U.U.U.U.U.U.U.U.U.U.U.U.U.U.U.U.U.U.U.j G s uXtXo t >XU.U.U.U.U.U.U.U.U.U.U.U.",
"U.U.U.U.U.U.U.U.U.U.U.U.U.U.U.U.U.U.U.U.U.U.U.U.U.U.U.U.U.U.U.U.U.U.U.U.U.U.U.U.w y.A.yXeXO ( M U.U.U.U.U.U.U.U.U.U.U.U.",
"U.U.U.U.U.U.U.U.U.U.U.U.U.U.U.U.U.U.U.U.U.U.U.U.U.U.U.U.U.U.U.U.U.U.U.U.U.U.U.U.$.j l.; # *.b.$.U.U.U.U.U.U.U.U.U.U.U.U.",
"U.U.U.U.U.U.U.U.U.U.U.U.U.U.U.U.U.U.U.U.U.U.U.U.U.U.U.U.U.U.U.U.U.U.U.U.U.U.U.U.}.}.W.i.i.( }.P U.U.U.U.U.U.U.U.U.U.U.U.",
"U.U.U.U.U.U.U.U.U.U.U.U.U.U.U.U.U.U.U.U.U.U.U.U.U.U.U.U.U.U.U.U.U.U.U.U.U.U.U.U.N.).w T.v.U.}.Z.U.U.U.U.U.U.U.U.U.U.U.U.",
"U.U.U.U.U.U.U.U.U.U.U.U.U.U.U.U.U.U.U.U.U.U.U.U.U.U.U.U.U.U.U.U.( U.U.}.U.U.U.U.>.M 1Xk.Q }.E.5XU.U.U.U.U.U.U.U.U.U.U.U.",
"U.U.U.U.U.U.U.U.U.U.U.U.U.U.U.U.U.U.U.U.U.U.U.U.U.U.U.U.U.U.U.U.=XU.U.T.T.U.U.U.U.P W.V T.4 ( U.U.U.U.U.U.U.U.U.U.U.U.U.",
"U.U.U.U.U.U.U.U.U.U.U.U.U.U.U.U.U.U.U.U.U.U.U.U.U.U.U.U.U.U.U.U.U.U.U.x j U.U.U.}.i.} w E.z.>.v.U.U.U.U.U.U.U.U.U.U.U.U.",
"U.U.U.U.U.U.U.U.}.U.( $.( y.( }.U.U.U.U.U.U.U.U.U.U.U.U.U.U.U.U.$.D W.T : Y p.P }.T.T.}.U.U.U.U.U.U.U.U.U.U.U.U.U.U.U.U.",
"U.U.U.U.U.U.U.U.N.( T.N V =X=XN.U.U.U.U.U.U.U.U.U.U.U.U.U.U.U.U.b j.f.@ + $ d.j U.U.U.U.U.U.U.U.U.U.U.U.U.U.U.U.U.U.U.U.",
"U.U.U.U.U.U.U.U.$.( E.N Z j $.i.U.U.U.U.U.U.U.U.U.U.U.U.U.U.U.U.x U.9.% & ; z.j x U.T.U.U.U.U.U.U.U.U.U.U.U.U.U.U.U.U.U.",
"U.U.U.U.U.U.U.U.i T.j.S a.Y U.1 U.U.U.U.U.U.U.U.U.U.U.U.U.U.U.U.n.n.N.P qXO.Z.N.U.U.>.U.U.U.U.U.U.U.U.U.U.U.U.U.U.U.U.U.",
"U.U.U.U.U.U.U.U.a }.Q   + * }.N.U.U.U.U.U.U.U.U.U.U.U.U.U.U.U.U.T.}.U.}.5X>.9 W.U.U.U.U.U.U.U.U.U.U.U.U.U.U.U.U.U.U.U.U.",
"U.U.U.U.U.U.U.U.( y.x.7 8 E p.=XU.U.U.U.U.U.U.U.U.U.U.U.U.U.U.U.>.5X>.}.>.>.>.y.U.U.U.U.U.U.U.U.U.U.U.U.U.U.U.U.U.U.U.U.",
"U.U.U.U.U.U.U.U.E.>.>.7X7X} } E.U.U.U.U.U.U.U.U.U.U.U.U.U.U.U.U.P U.U.T.T.).U.w U.U.U.U.U.U.U.U.U.U.U.U.U.U.U.U.U.U.U.( ",
"U.U.U.U.U.U.U.}.W.}.U.N.N.W.U.}.U.U.U.U.U.U.U.U.U.U.U.U.U.U.U.U.W.}.y.( N.N.U.U.U.U.U.U.U.U.U.U.U.U.U.U.U.U.U.U.U.U.U.U.",
"U.U.U.U.U.U.U.U.U.U.U.U.U.U.U.U.U.U.U.U.U.U.U.U.U.U.U.U.U.U.U.U.}.U.U.U.U.U.U.U.U.U.U.U.U.U.U.U.U.U.U.U.U.U.U.U.U.U.U.U.",
"U.U.U.U.U.U.U.U.U.U.U.U.U.U.U.U.U.U.U.U.U.U.U.U.U.U.U.U.U.U.U.U.U.U.U.U.U.U.U.U.U.U.U.U.U.U.U.U.U.U.U.U.U.U.U.U.U.U.U.U.",
"U.U.U.U.U.U.U.U.U.U.U.U.U.U.U.U.U.U.U.U.U.U.U.U.U.U.U.U.U.U.U.U.U.U.U.U.U.U.U.U.U.U.U.U.U.U.U.U.U.U.U.U.U.U.U.U.U.U.U.U.",
"U.U.U.U.U.U.U.U.U.U.U.U.U.U.U.U.U.U.U.U.U.U.U.U.U.U.U.U.U.U.U.U.U.U.U.U.U.U.U.U.U.U.U.U.U.U.U.U.U.U.U.U.U.U.U.U.U.U.U.U.",
"U.U.U.U.U.U.U.U.U.U.U.U.U.U.U.U.U.U.U.U.U.U.U.U.U.U.U.U.U.U.U.U.U.U.U.U.U.U.U.U.U.U.U.U.U.U.U.U.U.U.U.U.U.U.U.U.U.U.U.U.",
"U.U.U.U.U.U.U.U.U.U.U.U.U.U.U.U.U.U.U.U.U.U.U.U.U.U.U.U.U.U.U.U.U.U.U.U.U.U.U.U.U.U.U.U.U.U.U.U.U.U.U.U.U.U.U.U.U.U.U.U.",
"U.U.U.U.U.U.U.U.U.U.U.U.U.U.U.U.U.U.U.U.U.U.U.U.U.U.U.U.U.U.U.U.U.U.U.U.U.U.U.U.U.U.U.U.U.U.U.U.U.U.U.U.U.U.U.U.U.U.U.U.",
"U.U.U.U.U.U.U.U.U.U.U.U.U.U.U.U.U.U.U.U.U.U.U.U.U.U.U.U.U.U.U.U.U.U.U.U.U.U.U.U.U.U.U.U.U.U.U.U.U.U.U.U.U.U.U.U.U.U.U.U.",
"U.U.U.U.U.U.U.U.U.U.U.U.U.U.U.U.U.U.U.U.U.U.U.U.U.U.U.U.U.U.U.U.U.U.U.U.U.U.U.U.U.U.U.U.U.U.U.U.U.U.U.U.U.U.U.U.U.U.U.U.",
"U.U.U.U.U.U.U.U.U.U.U.U.U.U.U.U.U.U.U.U.U.U.U.U.U.U.U.U.U.U.U.U.U.U.U.U.U.U.U.U.U.U.U.U.U.U.U.U.U.U.U.U.U.U.U.U.U.U.U.U.",
"U.U.U.U.U.U.U.U.U.U.U.U.U.U.U.U.U.U.U.U.U.U.U.U.U.U.U.U.U.U.U.U.U.U.U.U.U.U.U.U.U.U.U.U.U.U.U.U.U.U.U.U.U.U.U.U.U.U.U.U.",
"U.U.U.U.U.U.U.U.U.U.U.U.U.U.U.U.U.U.U.U.U.U.U.U.U.U.U.U.U.U.U.U.U.U.U.U.U.U.U.U.U.U.U.U.U.U.U.U.U.U.U.U.U.U.U.U.U.U.U.U."
};
